<?xml version="1.0" encoding="utf-8"?>
<!-- Generator: Adobe Illustrator 26.0.3, SVG Export Plug-In . SVG Version: 6.00 Build 0)  -->
<svg version="1.1" id="Layer_1" xmlns="http://www.w3.org/2000/svg" xmlns:xlink="http://www.w3.org/1999/xlink" x="0px" y="0px"
	 viewBox="0 0 347.6 175.3" style="enable-background:new 0 0 347.6 175.3;" xml:space="preserve">
<style type="text/css">
	.st0{fill:none;stroke:#262626;stroke-width:0.5;stroke-linecap:square;stroke-linejoin:round;stroke-miterlimit:10;}
	.st1{fill:#262626;}
	.st2{fill:none;stroke:#77AD97;stroke-width:1.5;stroke-linejoin:round;stroke-miterlimit:10;}
	.st3{fill:none;stroke:#E65C10;stroke-width:1.5;stroke-linejoin:round;stroke-miterlimit:10;}
	.st4{fill:none;stroke:#0E4F7C;stroke-width:1.5;stroke-linejoin:round;stroke-miterlimit:10;}
	.st5{opacity:0;fill:none;stroke:#000000;stroke-width:1.000000e-06;stroke-miterlimit:10;}
	.st6{clip-path:url(#SVGID_00000012469065131495139910000016043467584830707380_);}
	
		.st7{opacity:0;clip-path:url(#SVGID_00000012469065131495139910000016043467584830707380_);fill:none;stroke:#000000;stroke-width:9.999999e-07;stroke-miterlimit:10;}
	.st8{fill:#231F20;}
	.st9{font-family:'ArialMT';}
	.st10{font-size:10.854px;}
	.st11{fill:none;stroke:#76AB95;stroke-linejoin:round;stroke-miterlimit:10;}
	.st12{fill:none;stroke:#E45E25;stroke-linejoin:round;stroke-miterlimit:10;}
	.st13{fill:none;stroke:#0A4F7C;stroke-linejoin:round;stroke-miterlimit:10;}
</style>
<line class="st0" x1="44.4" y1="149.9" x2="184.2" y2="149.9"/>
<line class="st0" x1="44.4" y1="10.1" x2="184.2" y2="10.1"/>
<line class="st0" x1="74.8" y1="149.9" x2="74.8" y2="148.5"/>
<line class="st0" x1="135.6" y1="149.9" x2="135.6" y2="148.5"/>
<line class="st0" x1="74.8" y1="10.1" x2="74.8" y2="11.5"/>
<line class="st0" x1="135.6" y1="10.1" x2="135.6" y2="11.5"/>
<line class="st0" x1="50.6" y1="149.9" x2="50.6" y2="149.2"/>
<line class="st0" x1="56.5" y1="149.9" x2="56.5" y2="149.2"/>
<line class="st0" x1="61.3" y1="149.9" x2="61.3" y2="149.2"/>
<line class="st0" x1="65.3" y1="149.9" x2="65.3" y2="149.2"/>
<line class="st0" x1="68.9" y1="149.9" x2="68.9" y2="149.2"/>
<line class="st0" x1="72" y1="149.9" x2="72" y2="149.2"/>
<line class="st0" x1="74.8" y1="149.9" x2="74.8" y2="149.2"/>
<line class="st0" x1="93.1" y1="149.9" x2="93.1" y2="149.2"/>
<line class="st0" x1="103.8" y1="149.9" x2="103.8" y2="149.2"/>
<line class="st0" x1="111.4" y1="149.9" x2="111.4" y2="149.2"/>
<line class="st0" x1="117.3" y1="149.9" x2="117.3" y2="149.2"/>
<line class="st0" x1="122.1" y1="149.9" x2="122.1" y2="149.2"/>
<line class="st0" x1="126.1" y1="149.9" x2="126.1" y2="149.2"/>
<line class="st0" x1="129.7" y1="149.9" x2="129.7" y2="149.2"/>
<line class="st0" x1="132.8" y1="149.9" x2="132.8" y2="149.2"/>
<line class="st0" x1="135.6" y1="149.9" x2="135.6" y2="149.2"/>
<line class="st0" x1="153.9" y1="149.9" x2="153.9" y2="149.2"/>
<line class="st0" x1="164.6" y1="149.9" x2="164.6" y2="149.2"/>
<line class="st0" x1="172.2" y1="149.9" x2="172.2" y2="149.2"/>
<line class="st0" x1="178" y1="149.9" x2="178" y2="149.2"/>
<line class="st0" x1="182.9" y1="149.9" x2="182.9" y2="149.2"/>
<line class="st0" x1="50.6" y1="10.1" x2="50.6" y2="10.8"/>
<line class="st0" x1="56.5" y1="10.1" x2="56.5" y2="10.8"/>
<line class="st0" x1="61.3" y1="10.1" x2="61.3" y2="10.8"/>
<line class="st0" x1="65.3" y1="10.1" x2="65.3" y2="10.8"/>
<line class="st0" x1="68.9" y1="10.1" x2="68.9" y2="10.8"/>
<line class="st0" x1="72" y1="10.1" x2="72" y2="10.8"/>
<line class="st0" x1="74.8" y1="10.1" x2="74.8" y2="10.8"/>
<line class="st0" x1="93.1" y1="10.1" x2="93.1" y2="10.8"/>
<line class="st0" x1="103.8" y1="10.1" x2="103.8" y2="10.8"/>
<line class="st0" x1="111.4" y1="10.1" x2="111.4" y2="10.8"/>
<line class="st0" x1="117.3" y1="10.1" x2="117.3" y2="10.8"/>
<line class="st0" x1="122.1" y1="10.1" x2="122.1" y2="10.8"/>
<line class="st0" x1="126.1" y1="10.1" x2="126.1" y2="10.8"/>
<line class="st0" x1="129.7" y1="10.1" x2="129.7" y2="10.8"/>
<line class="st0" x1="132.8" y1="10.1" x2="132.8" y2="10.8"/>
<line class="st0" x1="135.6" y1="10.1" x2="135.6" y2="10.8"/>
<line class="st0" x1="153.9" y1="10.1" x2="153.9" y2="10.8"/>
<line class="st0" x1="164.6" y1="10.1" x2="164.6" y2="10.8"/>
<line class="st0" x1="172.2" y1="10.1" x2="172.2" y2="10.8"/>
<line class="st0" x1="178" y1="10.1" x2="178" y2="10.8"/>
<line class="st0" x1="182.9" y1="10.1" x2="182.9" y2="10.8"/>
<path class="st1" d="M70.1,162.9v-5.6h-0.5c0,0.2-0.1,0.4-0.2,0.5c-0.1,0.1-0.2,0.2-0.4,0.3c-0.1,0.1-0.3,0.1-0.5,0.2s-0.4,0-0.6,0
	v0.5h1.4v4H70.1z M72.7,160.2c0-0.1,0-0.3,0-0.5c0-0.2,0-0.3,0-0.5c0-0.2,0.1-0.3,0.1-0.5c0-0.2,0.1-0.3,0.2-0.4
	c0.1-0.1,0.2-0.2,0.3-0.3c0.1-0.1,0.3-0.1,0.5-0.1c0.2,0,0.3,0,0.5,0.1c0.1,0.1,0.2,0.2,0.3,0.3c0.1,0.1,0.2,0.3,0.2,0.4
	c0,0.2,0.1,0.3,0.1,0.5c0,0.2,0,0.3,0,0.5c0,0.2,0,0.3,0,0.5c0,0.2,0,0.4,0,0.7c0,0.3-0.1,0.5-0.1,0.7c-0.1,0.2-0.2,0.4-0.3,0.6
	c-0.2,0.2-0.4,0.2-0.7,0.2c-0.3,0-0.5-0.1-0.7-0.2c-0.2-0.2-0.3-0.4-0.3-0.6c-0.1-0.2-0.1-0.5-0.1-0.7
	C72.7,160.6,72.7,160.4,72.7,160.2z M72,160.2c0,0.2,0,0.4,0,0.6c0,0.2,0,0.4,0.1,0.6c0,0.2,0.1,0.4,0.2,0.6
	c0.1,0.2,0.2,0.4,0.3,0.5c0.1,0.1,0.3,0.3,0.5,0.3c0.2,0.1,0.5,0.1,0.7,0.1c0.3,0,0.5,0,0.7-0.1c0.2-0.1,0.4-0.2,0.5-0.3
	c0.1-0.1,0.2-0.3,0.3-0.5c0.1-0.2,0.1-0.4,0.2-0.6c0-0.2,0.1-0.4,0.1-0.6c0-0.2,0-0.4,0-0.6c0-0.2,0-0.4,0-0.6c0-0.2,0-0.4-0.1-0.6
	c0-0.2-0.1-0.4-0.2-0.6c-0.1-0.2-0.2-0.4-0.3-0.5c-0.1-0.1-0.3-0.3-0.5-0.3c-0.2-0.1-0.5-0.1-0.7-0.1s-0.5,0-0.7,0.1
	c-0.2,0.1-0.4,0.2-0.5,0.3c-0.1,0.1-0.2,0.3-0.3,0.5c-0.1,0.2-0.1,0.4-0.2,0.6c0,0.2-0.1,0.4-0.1,0.6C72,159.7,72,160,72,160.2z"/>
<path class="st1" d="M76.8,157.1v0.5h1.8v-0.5H76.8z M79.2,156.2h0.5c0-0.1,0-0.3,0-0.4c0-0.1,0.1-0.3,0.2-0.4
	c0.1-0.1,0.2-0.2,0.3-0.3c0.1-0.1,0.2-0.1,0.4-0.1c0.1,0,0.2,0,0.3,0.1c0.1,0,0.2,0.1,0.3,0.2c0.1,0.1,0.1,0.2,0.2,0.3
	c0,0.1,0.1,0.2,0.1,0.3c0,0.2,0,0.3-0.1,0.4c0,0.1-0.1,0.2-0.2,0.3c-0.1,0.1-0.2,0.2-0.4,0.3s-0.3,0.2-0.5,0.3
	c-0.2,0.1-0.3,0.2-0.4,0.3s-0.3,0.2-0.4,0.4c-0.1,0.1-0.2,0.3-0.3,0.5c-0.1,0.2-0.1,0.4-0.1,0.7H82v-0.5h-2.3c0-0.1,0.1-0.3,0.2-0.4
	c0.1-0.1,0.2-0.2,0.3-0.3c0.1-0.1,0.2-0.2,0.4-0.3c0.1-0.1,0.3-0.2,0.4-0.2c0.1-0.1,0.3-0.2,0.4-0.3c0.1-0.1,0.2-0.2,0.3-0.3
	c0.1-0.1,0.2-0.3,0.2-0.4c0.1-0.2,0.1-0.3,0.1-0.5c0-0.2,0-0.4-0.1-0.6c-0.1-0.2-0.2-0.3-0.3-0.4s-0.3-0.2-0.4-0.2
	c-0.2-0.1-0.4-0.1-0.5-0.1c-0.2,0-0.4,0-0.6,0.1c-0.2,0.1-0.3,0.2-0.5,0.3c-0.1,0.1-0.2,0.3-0.3,0.5C79.2,155.8,79.2,156,79.2,156.2
	z"/>
<path class="st1" d="M130.5,162.9v-5.6h-0.5c0,0.2-0.1,0.4-0.2,0.5c-0.1,0.1-0.2,0.2-0.4,0.3c-0.1,0.1-0.3,0.1-0.5,0.2s-0.4,0-0.6,0
	v0.5h1.4v4H130.5z M133.1,160.2c0-0.1,0-0.3,0-0.5c0-0.2,0-0.3,0-0.5c0-0.2,0.1-0.3,0.1-0.5c0-0.2,0.1-0.3,0.2-0.4
	c0.1-0.1,0.2-0.2,0.3-0.3c0.1-0.1,0.3-0.1,0.5-0.1c0.2,0,0.3,0,0.5,0.1c0.1,0.1,0.2,0.2,0.3,0.3c0.1,0.1,0.2,0.3,0.2,0.4
	c0,0.2,0.1,0.3,0.1,0.5c0,0.2,0,0.3,0,0.5c0,0.2,0,0.3,0,0.5c0,0.2,0,0.4,0,0.7c0,0.3-0.1,0.5-0.1,0.7c-0.1,0.2-0.2,0.4-0.3,0.6
	c-0.2,0.2-0.4,0.2-0.7,0.2c-0.3,0-0.5-0.1-0.7-0.2c-0.2-0.2-0.3-0.4-0.3-0.6c-0.1-0.2-0.1-0.5-0.1-0.7
	C133.1,160.6,133.1,160.4,133.1,160.2z M132.4,160.2c0,0.2,0,0.4,0,0.6c0,0.2,0,0.4,0.1,0.6c0,0.2,0.1,0.4,0.2,0.6
	c0.1,0.2,0.2,0.4,0.3,0.5c0.1,0.1,0.3,0.3,0.5,0.3c0.2,0.1,0.5,0.1,0.7,0.1c0.3,0,0.5,0,0.7-0.1c0.2-0.1,0.4-0.2,0.5-0.3
	c0.1-0.1,0.2-0.3,0.3-0.5c0.1-0.2,0.1-0.4,0.2-0.6c0-0.2,0.1-0.4,0.1-0.6c0-0.2,0-0.4,0-0.6c0-0.2,0-0.4,0-0.6c0-0.2,0-0.4-0.1-0.6
	c0-0.2-0.1-0.4-0.2-0.6c-0.1-0.2-0.2-0.4-0.3-0.5c-0.1-0.1-0.3-0.3-0.5-0.3c-0.2-0.1-0.5-0.1-0.7-0.1s-0.5,0-0.7,0.1
	c-0.2,0.1-0.4,0.2-0.5,0.3c-0.1,0.1-0.2,0.3-0.3,0.5c-0.1,0.2-0.1,0.4-0.2,0.6c0,0.2-0.1,0.4-0.1,0.6
	C132.4,159.7,132.4,160,132.4,160.2z"/>
<path class="st1" d="M137.1,157.1v0.5h1.8v-0.5H137.1z M141.5,159.1v-4.5h-0.4c0,0.2-0.1,0.3-0.2,0.4c-0.1,0.1-0.2,0.2-0.3,0.3
	c-0.1,0.1-0.2,0.1-0.4,0.1c-0.1,0-0.3,0-0.4,0v0.4h1.2v3.2H141.5z"/>
<path class="st1" d="M112.6,175.3c-0.4,0-0.8-0.1-1.1-0.3c-0.3-0.2-0.6-0.4-0.7-0.8c-0.2-0.3-0.3-0.7-0.3-1.1c0-0.6,0.2-1.1,0.5-1.7
	c0.3-0.6,0.7-1,1.3-1.4c0.5-0.4,1.1-0.5,1.7-0.5c0.4,0,0.8,0.1,1.1,0.3c0.3,0.2,0.6,0.5,0.7,0.9c0.2,0.4,0.3,0.8,0.3,1.2l0,0.9
	c0.3-0.4,0.5-0.8,0.7-1.3c0.2-0.4,0.4-0.9,0.5-1.3c0-0.1,0.1-0.1,0.1-0.1h0.2c0.1,0,0.1,0,0.1,0.1c0,0,0,0,0,0
	c-0.1,0.4-0.2,0.8-0.4,1.1c-0.1,0.4-0.3,0.7-0.5,1c-0.2,0.3-0.4,0.6-0.7,0.9c0,1.1,0.1,1.6,0.4,1.6c0.2,0,0.3,0,0.4-0.1
	c0.1-0.1,0.2-0.2,0.3-0.3c0.1-0.1,0.1-0.2,0.1-0.2h0.2c0.1,0,0.1,0,0.1,0.1c0,0.2-0.1,0.4-0.4,0.6c-0.2,0.2-0.5,0.3-0.7,0.3
	c-0.3,0-0.6-0.1-0.8-0.3c-0.2-0.2-0.3-0.5-0.4-0.8c-0.4,0.3-0.8,0.6-1.3,0.8C113.5,175.2,113,175.3,112.6,175.3z M112.6,174.9
	c0.9,0,1.8-0.4,2.6-1.1c0-0.1,0-0.1,0-0.2c0-0.1,0-0.1,0-0.1v-1.4c0-1.5-0.4-2.3-1.3-2.3c-0.5,0-0.9,0.2-1.3,0.6
	c-0.4,0.4-0.7,0.9-0.8,1.5c-0.2,0.6-0.3,1.1-0.3,1.6c0,0.4,0.1,0.7,0.3,0.9C112,174.8,112.2,174.9,112.6,174.9z"/>
<line class="st0" x1="44.4" y1="149.9" x2="44.4" y2="10.1"/>
<line class="st0" x1="184.2" y1="149.9" x2="184.2" y2="10.1"/>
<line class="st0" x1="44.4" y1="149.9" x2="45.8" y2="149.9"/>
<line class="st0" x1="44.4" y1="121.9" x2="45.8" y2="121.9"/>
<line class="st0" x1="44.4" y1="94" x2="45.8" y2="94"/>
<line class="st0" x1="44.4" y1="66" x2="45.8" y2="66"/>
<line class="st0" x1="44.4" y1="38.1" x2="45.8" y2="38.1"/>
<line class="st0" x1="44.4" y1="10.1" x2="45.8" y2="10.1"/>
<line class="st0" x1="184.2" y1="149.9" x2="182.8" y2="149.9"/>
<line class="st0" x1="184.2" y1="121.9" x2="182.8" y2="121.9"/>
<line class="st0" x1="184.2" y1="94" x2="182.8" y2="94"/>
<line class="st0" x1="184.2" y1="66" x2="182.8" y2="66"/>
<line class="st0" x1="184.2" y1="38.1" x2="182.8" y2="38.1"/>
<line class="st0" x1="184.2" y1="10.1" x2="182.8" y2="10.1"/>
<path class="st1" d="M37.7,149.8c0-0.1,0-0.3,0-0.5c0-0.2,0-0.3,0-0.5c0-0.2,0.1-0.3,0.1-0.5c0-0.2,0.1-0.3,0.2-0.4
	c0.1-0.1,0.2-0.2,0.3-0.3c0.1-0.1,0.3-0.1,0.5-0.1c0.2,0,0.3,0,0.5,0.1c0.1,0.1,0.2,0.2,0.3,0.3c0.1,0.1,0.2,0.3,0.2,0.4
	c0,0.2,0.1,0.3,0.1,0.5c0,0.2,0,0.3,0,0.5c0,0.2,0,0.3,0,0.5c0,0.2,0,0.4,0,0.7c0,0.3-0.1,0.5-0.1,0.7c-0.1,0.2-0.2,0.4-0.3,0.6
	c-0.2,0.2-0.4,0.2-0.7,0.2c-0.3,0-0.5-0.1-0.7-0.2c-0.2-0.2-0.3-0.4-0.3-0.6c-0.1-0.2-0.1-0.5-0.1-0.7
	C37.7,150.3,37.7,150,37.7,149.8z M37,149.8c0,0.2,0,0.4,0,0.6c0,0.2,0,0.4,0.1,0.6c0,0.2,0.1,0.4,0.2,0.6c0.1,0.2,0.2,0.4,0.3,0.5
	c0.1,0.1,0.3,0.3,0.5,0.3c0.2,0.1,0.5,0.1,0.7,0.1c0.3,0,0.5,0,0.7-0.1c0.2-0.1,0.4-0.2,0.5-0.3c0.1-0.1,0.2-0.3,0.3-0.5
	c0.1-0.2,0.1-0.4,0.2-0.6c0-0.2,0.1-0.4,0.1-0.6c0-0.2,0-0.4,0-0.6c0-0.2,0-0.4,0-0.6c0-0.2,0-0.4-0.1-0.6c0-0.2-0.1-0.4-0.2-0.6
	c-0.1-0.2-0.2-0.4-0.3-0.5c-0.1-0.1-0.3-0.3-0.5-0.3c-0.2-0.1-0.5-0.1-0.7-0.1s-0.5,0-0.7,0.1c-0.2,0.1-0.4,0.2-0.5,0.3
	c-0.1,0.1-0.2,0.3-0.3,0.5c-0.1,0.2-0.1,0.4-0.2,0.6c0,0.2-0.1,0.4-0.1,0.6C37,149.4,37,149.6,37,149.8z"/>
<path class="st1" d="M30.8,121.9c0-0.1,0-0.3,0-0.5c0-0.2,0-0.3,0-0.5c0-0.2,0.1-0.3,0.1-0.5c0-0.2,0.1-0.3,0.2-0.4
	c0.1-0.1,0.2-0.2,0.3-0.3c0.1-0.1,0.3-0.1,0.5-0.1c0.2,0,0.3,0,0.5,0.1c0.1,0.1,0.2,0.2,0.3,0.3c0.1,0.1,0.2,0.3,0.2,0.4
	c0,0.2,0.1,0.3,0.1,0.5c0,0.2,0,0.3,0,0.5c0,0.2,0,0.3,0,0.5c0,0.2,0,0.4,0,0.7c0,0.3-0.1,0.5-0.1,0.7c-0.1,0.2-0.2,0.4-0.3,0.6
	c-0.2,0.2-0.4,0.2-0.7,0.2c-0.3,0-0.5-0.1-0.7-0.2c-0.2-0.2-0.3-0.4-0.3-0.6c-0.1-0.2-0.1-0.5-0.1-0.7
	C30.9,122.3,30.8,122.1,30.8,121.9z M30.1,121.9c0,0.2,0,0.4,0,0.6c0,0.2,0,0.4,0.1,0.6c0,0.2,0.1,0.4,0.2,0.6
	c0.1,0.2,0.2,0.4,0.3,0.5c0.1,0.1,0.3,0.3,0.5,0.3c0.2,0.1,0.5,0.1,0.7,0.1c0.3,0,0.5,0,0.7-0.1c0.2-0.1,0.4-0.2,0.5-0.3
	c0.1-0.1,0.2-0.3,0.3-0.5c0.1-0.2,0.1-0.4,0.2-0.6c0-0.2,0.1-0.4,0.1-0.6c0-0.2,0-0.4,0-0.6c0-0.2,0-0.4,0-0.6c0-0.2,0-0.4-0.1-0.6
	c0-0.2-0.1-0.4-0.2-0.6c-0.1-0.2-0.2-0.4-0.3-0.5c-0.1-0.1-0.3-0.3-0.5-0.3c-0.2-0.1-0.5-0.1-0.7-0.1c-0.3,0-0.5,0-0.7,0.1
	c-0.2,0.1-0.4,0.2-0.5,0.3c-0.1,0.1-0.2,0.3-0.3,0.5c-0.1,0.2-0.1,0.4-0.2,0.6c0,0.2-0.1,0.4-0.1,0.6
	C30.1,121.5,30.1,121.7,30.1,121.9z M34.8,123.7v0.9h0.9v-0.9H34.8z M36.7,121h0.7c0-0.2,0-0.3,0.1-0.5c0-0.2,0.1-0.3,0.2-0.4
	c0.1-0.1,0.2-0.2,0.3-0.3c0.1-0.1,0.3-0.1,0.5-0.1c0.1,0,0.3,0,0.4,0.1c0.1,0,0.2,0.1,0.3,0.2c0.1,0.1,0.2,0.2,0.2,0.3
	c0.1,0.1,0.1,0.3,0.1,0.4c0,0.2,0,0.4-0.1,0.5c-0.1,0.1-0.1,0.3-0.3,0.4c-0.1,0.1-0.3,0.3-0.4,0.4c-0.2,0.1-0.4,0.3-0.6,0.4
	c-0.2,0.1-0.4,0.2-0.6,0.4c-0.2,0.1-0.3,0.3-0.5,0.5c-0.1,0.2-0.3,0.4-0.4,0.6c-0.1,0.2-0.2,0.5-0.2,0.8h3.6V124h-2.9
	c0-0.2,0.1-0.3,0.2-0.5s0.2-0.3,0.4-0.4c0.1-0.1,0.3-0.2,0.5-0.3c0.2-0.1,0.3-0.2,0.5-0.3c0.2-0.1,0.3-0.2,0.5-0.3
	c0.2-0.1,0.3-0.3,0.4-0.4c0.1-0.1,0.2-0.3,0.3-0.5c0.1-0.2,0.1-0.4,0.1-0.7c0-0.3,0-0.5-0.1-0.7c-0.1-0.2-0.2-0.4-0.4-0.5
	c-0.2-0.1-0.3-0.2-0.6-0.3c-0.2-0.1-0.4-0.1-0.7-0.1c-0.3,0-0.6,0-0.8,0.1c-0.2,0.1-0.4,0.2-0.6,0.4c-0.2,0.2-0.3,0.4-0.3,0.6
	C36.7,120.5,36.7,120.7,36.7,121z"/>
<path class="st1" d="M30.8,93.9c0-0.1,0-0.3,0-0.5c0-0.2,0-0.3,0-0.5c0-0.2,0.1-0.3,0.1-0.5c0-0.2,0.1-0.3,0.2-0.4
	c0.1-0.1,0.2-0.2,0.3-0.3c0.1-0.1,0.3-0.1,0.5-0.1c0.2,0,0.3,0,0.5,0.1c0.1,0.1,0.2,0.2,0.3,0.3c0.1,0.1,0.2,0.3,0.2,0.4
	c0,0.2,0.1,0.3,0.1,0.5c0,0.2,0,0.3,0,0.5c0,0.2,0,0.3,0,0.5c0,0.2,0,0.4,0,0.7c0,0.3-0.1,0.5-0.1,0.7c-0.1,0.2-0.2,0.4-0.3,0.6
	c-0.2,0.2-0.4,0.2-0.7,0.2c-0.3,0-0.5-0.1-0.7-0.2c-0.2-0.2-0.3-0.4-0.3-0.6c-0.1-0.2-0.1-0.5-0.1-0.7
	C30.9,94.4,30.8,94.1,30.8,93.9z M30.1,93.9c0,0.2,0,0.4,0,0.6c0,0.2,0,0.4,0.1,0.6c0,0.2,0.1,0.4,0.2,0.6c0.1,0.2,0.2,0.4,0.3,0.5
	c0.1,0.1,0.3,0.3,0.5,0.3c0.2,0.1,0.5,0.1,0.7,0.1c0.3,0,0.5,0,0.7-0.1c0.2-0.1,0.4-0.2,0.5-0.3c0.1-0.1,0.2-0.3,0.3-0.5
	c0.1-0.2,0.1-0.4,0.2-0.6c0-0.2,0.1-0.4,0.1-0.6c0-0.2,0-0.4,0-0.6c0-0.2,0-0.4,0-0.6c0-0.2,0-0.4-0.1-0.6c0-0.2-0.1-0.4-0.2-0.6
	c-0.1-0.2-0.2-0.4-0.3-0.5c-0.1-0.1-0.3-0.3-0.5-0.3c-0.2-0.1-0.5-0.1-0.7-0.1c-0.3,0-0.5,0-0.7,0.1c-0.2,0.1-0.4,0.2-0.5,0.3
	c-0.1,0.1-0.2,0.3-0.3,0.5c-0.1,0.2-0.1,0.4-0.2,0.6c0,0.2-0.1,0.4-0.1,0.6C30.1,93.5,30.1,93.7,30.1,93.9z M34.8,95.8v0.9h0.9v-0.9
	H34.8z M39,94.8h-1.9L39,92h0V94.8z M39.7,94.8v-3.7h-0.5l-2.5,3.6v0.6H39v1.3h0.6v-1.3h0.8v-0.6H39.7z"/>
<path class="st1" d="M30.8,65.9c0-0.1,0-0.3,0-0.5c0-0.2,0-0.3,0-0.5c0-0.2,0.1-0.3,0.1-0.5c0-0.2,0.1-0.3,0.2-0.4
	c0.1-0.1,0.2-0.2,0.3-0.3c0.1-0.1,0.3-0.1,0.5-0.1c0.2,0,0.3,0,0.5,0.1c0.1,0.1,0.2,0.2,0.3,0.3c0.1,0.1,0.2,0.3,0.2,0.4
	c0,0.2,0.1,0.3,0.1,0.5c0,0.2,0,0.3,0,0.5c0,0.2,0,0.3,0,0.5c0,0.2,0,0.4,0,0.7c0,0.3-0.1,0.5-0.1,0.7c-0.1,0.2-0.2,0.4-0.3,0.6
	c-0.2,0.2-0.4,0.2-0.7,0.2c-0.3,0-0.5-0.1-0.7-0.2c-0.2-0.2-0.3-0.4-0.3-0.6c-0.1-0.2-0.1-0.5-0.1-0.7
	C30.9,66.4,30.8,66.2,30.8,65.9z M30.1,66c0,0.2,0,0.4,0,0.6c0,0.2,0,0.4,0.1,0.6c0,0.2,0.1,0.4,0.2,0.6c0.1,0.2,0.2,0.4,0.3,0.5
	c0.1,0.1,0.3,0.3,0.5,0.3c0.2,0.1,0.5,0.1,0.7,0.1c0.3,0,0.5,0,0.7-0.1c0.2-0.1,0.4-0.2,0.5-0.3c0.1-0.1,0.2-0.3,0.3-0.5
	c0.1-0.2,0.1-0.4,0.2-0.6c0-0.2,0.1-0.4,0.1-0.6c0-0.2,0-0.4,0-0.6c0-0.2,0-0.4,0-0.6c0-0.2,0-0.4-0.1-0.6c0-0.2-0.1-0.4-0.2-0.6
	c-0.1-0.2-0.2-0.4-0.3-0.5c-0.1-0.1-0.3-0.3-0.5-0.3c-0.2-0.1-0.5-0.1-0.7-0.1c-0.3,0-0.5,0-0.7,0.1c-0.2,0.1-0.4,0.2-0.5,0.3
	c-0.1,0.1-0.2,0.3-0.3,0.5c-0.1,0.2-0.1,0.4-0.2,0.6c0,0.2-0.1,0.4-0.1,0.6C30.1,65.5,30.1,65.7,30.1,66z M34.8,67.8v0.9h0.9v-0.9
	H34.8z M39.6,64.5h0.7c0-0.5-0.2-0.8-0.5-1.1c-0.3-0.2-0.6-0.4-1.1-0.4c-0.4,0-0.7,0.1-1,0.3c-0.3,0.2-0.5,0.4-0.6,0.7
	c-0.2,0.3-0.3,0.6-0.3,1c-0.1,0.4-0.1,0.7-0.1,1.1c0,0.3,0,0.6,0.1,0.9c0,0.3,0.1,0.6,0.3,0.9s0.3,0.5,0.6,0.6s0.6,0.3,1,0.3
	c0.4,0,0.6-0.1,0.9-0.2c0.2-0.1,0.4-0.3,0.6-0.4c0.1-0.2,0.2-0.4,0.3-0.6c0.1-0.2,0.1-0.4,0.1-0.6c0-0.3,0-0.5-0.1-0.7
	c-0.1-0.2-0.2-0.4-0.3-0.6c-0.1-0.2-0.3-0.3-0.5-0.4c-0.2-0.1-0.5-0.1-0.7-0.1c-0.3,0-0.6,0.1-0.8,0.2c-0.2,0.1-0.4,0.3-0.6,0.6l0,0
	c0-0.2,0-0.4,0.1-0.7c0-0.2,0.1-0.5,0.2-0.7c0.1-0.2,0.2-0.4,0.4-0.5c0.2-0.1,0.4-0.2,0.7-0.2c0.3,0,0.5,0.1,0.6,0.2
	C39.5,64.1,39.6,64.3,39.6,64.5z M38.6,65.7c0.2,0,0.4,0,0.5,0.1c0.1,0.1,0.3,0.2,0.4,0.3c0.1,0.1,0.2,0.2,0.2,0.4s0.1,0.3,0.1,0.5
	c0,0.2,0,0.3-0.1,0.5c0,0.1-0.1,0.3-0.2,0.4c-0.1,0.1-0.2,0.2-0.4,0.3c-0.1,0.1-0.3,0.1-0.5,0.1c-0.2,0-0.3,0-0.5-0.1
	c-0.1-0.1-0.3-0.2-0.4-0.3c-0.1-0.1-0.2-0.2-0.2-0.4c-0.1-0.2-0.1-0.3-0.1-0.5c0-0.2,0-0.3,0.1-0.5c0-0.2,0.1-0.3,0.2-0.4
	c0.1-0.1,0.2-0.2,0.4-0.3C38.3,65.7,38.4,65.7,38.6,65.7z"/>
<path class="st1" d="M30.8,38c0-0.1,0-0.3,0-0.5c0-0.2,0-0.3,0-0.5c0-0.2,0.1-0.3,0.1-0.5c0-0.2,0.1-0.3,0.2-0.4
	c0.1-0.1,0.2-0.2,0.3-0.3c0.1-0.1,0.3-0.1,0.5-0.1c0.2,0,0.3,0,0.5,0.1c0.1,0.1,0.2,0.2,0.3,0.3c0.1,0.1,0.2,0.3,0.2,0.4
	c0,0.2,0.1,0.3,0.1,0.5c0,0.2,0,0.3,0,0.5c0,0.2,0,0.3,0,0.5c0,0.2,0,0.4,0,0.7c0,0.3-0.1,0.5-0.1,0.7c-0.1,0.2-0.2,0.4-0.3,0.6
	c-0.2,0.2-0.4,0.2-0.7,0.2c-0.3,0-0.5-0.1-0.7-0.2c-0.2-0.2-0.3-0.4-0.3-0.6c-0.1-0.2-0.1-0.5-0.1-0.7C30.9,38.4,30.8,38.2,30.8,38z
	 M30.1,38c0,0.2,0,0.4,0,0.6c0,0.2,0,0.4,0.1,0.6c0,0.2,0.1,0.4,0.2,0.6c0.1,0.2,0.2,0.4,0.3,0.5c0.1,0.1,0.3,0.3,0.5,0.3
	c0.2,0.1,0.5,0.1,0.7,0.1c0.3,0,0.5,0,0.7-0.1c0.2-0.1,0.4-0.2,0.5-0.3c0.1-0.1,0.2-0.3,0.3-0.5c0.1-0.2,0.1-0.4,0.2-0.6
	c0-0.2,0.1-0.4,0.1-0.6c0-0.2,0-0.4,0-0.6c0-0.2,0-0.4,0-0.6c0-0.2,0-0.4-0.1-0.6c0-0.2-0.1-0.4-0.2-0.6c-0.1-0.2-0.2-0.4-0.3-0.5
	c-0.1-0.1-0.3-0.3-0.5-0.3c-0.2-0.1-0.5-0.1-0.7-0.1c-0.3,0-0.5,0-0.7,0.1c-0.2,0.1-0.4,0.2-0.5,0.3c-0.1,0.1-0.2,0.3-0.3,0.5
	c-0.1,0.2-0.1,0.4-0.2,0.6c0,0.2-0.1,0.4-0.1,0.6C30.1,37.6,30.1,37.8,30.1,38z M34.8,39.9v0.9h0.9v-0.9H34.8z M37.6,36.6
	c0-0.1,0-0.3,0.1-0.4c0.1-0.1,0.1-0.2,0.2-0.3c0.1-0.1,0.2-0.1,0.3-0.2c0.1,0,0.2-0.1,0.4-0.1c0.3,0,0.5,0.1,0.7,0.2
	c0.2,0.1,0.3,0.4,0.3,0.6c0,0.3-0.1,0.5-0.3,0.7c-0.2,0.2-0.4,0.2-0.7,0.2c-0.1,0-0.3,0-0.4-0.1c-0.1,0-0.2-0.1-0.3-0.2
	c-0.1-0.1-0.2-0.2-0.2-0.3C37.6,36.9,37.6,36.7,37.6,36.6z M36.9,36.6c0,0.3,0.1,0.5,0.2,0.7c0.1,0.2,0.3,0.4,0.6,0.5
	c-0.3,0.1-0.6,0.3-0.7,0.5c-0.2,0.2-0.3,0.5-0.3,0.9c0,0.3,0,0.5,0.1,0.7s0.2,0.4,0.4,0.5c0.2,0.1,0.4,0.2,0.6,0.3
	c0.2,0.1,0.5,0.1,0.7,0.1c0.3,0,0.5,0,0.7-0.1c0.2-0.1,0.4-0.2,0.6-0.3c0.2-0.1,0.3-0.3,0.4-0.5c0.1-0.2,0.1-0.5,0.1-0.7
	c0-0.3-0.1-0.6-0.2-0.9c-0.2-0.2-0.4-0.4-0.7-0.5c0.2-0.1,0.4-0.3,0.6-0.5c0.1-0.2,0.2-0.4,0.2-0.7c0-0.2,0-0.4-0.1-0.5
	c-0.1-0.2-0.2-0.3-0.3-0.5c-0.1-0.1-0.3-0.2-0.5-0.3c-0.2-0.1-0.5-0.1-0.8-0.1c-0.2,0-0.4,0-0.6,0.1c-0.2,0.1-0.4,0.2-0.5,0.3
	c-0.2,0.1-0.3,0.3-0.4,0.4C36.9,36.1,36.9,36.3,36.9,36.6z M37.4,39.2c0-0.2,0-0.3,0.1-0.4c0.1-0.1,0.1-0.2,0.3-0.3
	c0.1-0.1,0.2-0.2,0.4-0.2c0.1,0,0.3-0.1,0.5-0.1c0.2,0,0.3,0,0.4,0.1c0.1,0.1,0.3,0.1,0.4,0.2c0.1,0.1,0.2,0.2,0.2,0.3
	c0.1,0.1,0.1,0.3,0.1,0.4c0,0.2,0,0.3-0.1,0.4c-0.1,0.1-0.1,0.2-0.2,0.3c-0.1,0.1-0.2,0.2-0.4,0.2c-0.1,0.1-0.3,0.1-0.5,0.1
	c-0.3,0-0.6-0.1-0.9-0.3C37.5,39.8,37.4,39.5,37.4,39.2z"/>
<path class="st1" d="M39.5,12.8V7.2H39c0,0.2-0.1,0.4-0.2,0.5c-0.1,0.1-0.2,0.2-0.4,0.3c-0.1,0.1-0.3,0.1-0.5,0.2s-0.4,0-0.6,0v0.5
	h1.4v4H39.5z"/>
<path d="M79.6,2.2h0.9c-0.1-0.4-0.2-0.7-0.3-0.9C80,1,79.8,0.7,79.6,0.6c-0.2-0.2-0.5-0.3-0.8-0.4C78.4,0,78.1,0,77.7,0
	c-0.5,0-1,0.1-1.4,0.3c-0.4,0.2-0.7,0.4-1,0.8c-0.3,0.3-0.5,0.7-0.6,1.1c-0.1,0.4-0.2,0.9-0.2,1.4c0,0.5,0.1,0.9,0.2,1.4
	c0.1,0.4,0.3,0.8,0.6,1.1c0.3,0.3,0.6,0.6,1,0.7C76.7,6.9,77.1,7,77.6,7c0.9,0,1.5-0.2,2-0.7c0.5-0.5,0.8-1.1,0.9-2h-0.9
	c0,0.3-0.1,0.5-0.2,0.8c-0.1,0.2-0.2,0.4-0.4,0.6c-0.2,0.2-0.4,0.3-0.6,0.4c-0.2,0.1-0.5,0.1-0.8,0.1c-0.4,0-0.7-0.1-1-0.2
	c-0.3-0.2-0.5-0.4-0.7-0.6c-0.2-0.3-0.3-0.6-0.4-0.9c-0.1-0.3-0.1-0.7-0.1-1.1c0-0.4,0-0.7,0.1-1c0.1-0.3,0.2-0.6,0.4-0.9
	c0.2-0.3,0.4-0.5,0.7-0.6c0.3-0.2,0.6-0.2,1-0.2c0.5,0,0.9,0.1,1.2,0.4S79.5,1.7,79.6,2.2z M84.9,4h-2.8c0-0.2,0.1-0.4,0.1-0.5
	c0.1-0.2,0.2-0.3,0.3-0.4c0.1-0.1,0.3-0.2,0.4-0.3c0.2-0.1,0.4-0.1,0.6-0.1c0.2,0,0.4,0,0.6,0.1c0.2,0.1,0.3,0.2,0.4,0.3
	c0.1,0.1,0.2,0.3,0.3,0.4C84.9,3.6,84.9,3.8,84.9,4z M85.7,5.3h-0.8c-0.1,0.3-0.2,0.6-0.4,0.7c-0.2,0.2-0.5,0.2-0.8,0.2
	c-0.3,0-0.5,0-0.7-0.1c-0.2-0.1-0.4-0.2-0.5-0.4c-0.1-0.1-0.2-0.3-0.3-0.5c-0.1-0.2-0.1-0.4-0.1-0.6h3.6c0-0.3,0-0.6-0.1-0.9
	c-0.1-0.3-0.2-0.6-0.4-0.9c-0.2-0.3-0.4-0.5-0.7-0.7C84.3,2,84,1.9,83.6,1.9c-0.3,0-0.6,0.1-0.9,0.2c-0.3,0.1-0.5,0.3-0.7,0.5
	c-0.2,0.2-0.4,0.5-0.5,0.8c-0.1,0.3-0.2,0.6-0.2,1c0,0.4,0.1,0.7,0.2,1c0.1,0.3,0.2,0.6,0.4,0.8c0.2,0.2,0.4,0.4,0.7,0.5
	c0.3,0.1,0.6,0.2,1,0.2c0.6,0,1-0.1,1.4-0.4C85.3,6.3,85.6,5.9,85.7,5.3z M86.6,0.2v6.7h0.8V0.2H86.6z M88.7,0.2v6.7h0.8V0.2H88.7z
	 M93.4,2v4.9h0.8V4.7c0-0.3,0-0.6,0.1-0.8c0.1-0.2,0.2-0.4,0.3-0.6c0.1-0.2,0.3-0.3,0.5-0.4c0.2-0.1,0.5-0.1,0.8-0.1V1.9
	c-0.4,0-0.8,0.1-1.1,0.3c-0.3,0.2-0.5,0.5-0.7,0.9h0V2H93.4z M100.8,6.9c-0.1,0.1-0.3,0.1-0.6,0.1c-0.2,0-0.4-0.1-0.5-0.2
	c-0.1-0.1-0.2-0.3-0.2-0.6c-0.2,0.3-0.5,0.5-0.8,0.6C98.5,6.9,98.2,7,97.9,7c-0.2,0-0.4,0-0.6-0.1s-0.4-0.1-0.5-0.2
	c-0.1-0.1-0.3-0.2-0.3-0.4c-0.1-0.2-0.1-0.4-0.1-0.6c0-0.3,0-0.5,0.1-0.7c0.1-0.2,0.2-0.3,0.4-0.4c0.2-0.1,0.3-0.2,0.5-0.2
	c0.2-0.1,0.4-0.1,0.6-0.1c0.2,0,0.4-0.1,0.6-0.1S98.9,4,99,3.9c0.2,0,0.3-0.1,0.4-0.2c0.1-0.1,0.1-0.2,0.1-0.3c0-0.2,0-0.3-0.1-0.4
	c-0.1-0.1-0.2-0.2-0.3-0.2c-0.1-0.1-0.2-0.1-0.3-0.1c-0.1,0-0.3,0-0.4,0c-0.3,0-0.6,0.1-0.8,0.2c-0.2,0.1-0.3,0.4-0.4,0.7h-0.8
	c0-0.3,0.1-0.6,0.2-0.8c0.1-0.2,0.3-0.4,0.5-0.5C97.3,2.1,97.5,2,97.7,2c0.2-0.1,0.5-0.1,0.8-0.1c0.2,0,0.4,0,0.7,0
	c0.2,0,0.4,0.1,0.6,0.2c0.2,0.1,0.3,0.2,0.4,0.4c0.1,0.2,0.2,0.4,0.2,0.7v2.5c0,0.2,0,0.3,0,0.4c0,0.1,0.1,0.1,0.2,0.1
	c0.1,0,0.2,0,0.2,0V6.9z M99.5,4.4c-0.1,0.1-0.2,0.1-0.4,0.2c-0.2,0-0.3,0.1-0.5,0.1c-0.2,0-0.4,0-0.5,0.1c-0.2,0-0.3,0.1-0.5,0.1
	S97.3,5,97.2,5.1c-0.1,0.1-0.1,0.3-0.1,0.5c0,0.1,0,0.2,0.1,0.3c0.1,0.1,0.1,0.2,0.2,0.2c0.1,0.1,0.2,0.1,0.3,0.1c0.1,0,0.2,0,0.4,0
	c0.3,0,0.5,0,0.7-0.1s0.3-0.2,0.5-0.3c0.1-0.1,0.2-0.2,0.3-0.4c0.1-0.1,0.1-0.2,0.1-0.4V4.4z M102.2,4.5c0-0.2,0-0.5,0.1-0.7
	c0.1-0.2,0.1-0.4,0.2-0.6c0.1-0.2,0.3-0.3,0.5-0.4c0.2-0.1,0.4-0.2,0.7-0.2c0.3,0,0.5,0.1,0.7,0.2c0.2,0.1,0.4,0.2,0.5,0.4
	c0.1,0.2,0.2,0.4,0.3,0.6c0.1,0.2,0.1,0.5,0.1,0.7c0,0.2,0,0.4-0.1,0.7c-0.1,0.2-0.1,0.4-0.3,0.6c-0.1,0.2-0.3,0.3-0.5,0.4
	c-0.2,0.1-0.4,0.2-0.7,0.2c-0.3,0-0.5-0.1-0.7-0.2c-0.2-0.1-0.3-0.2-0.5-0.4c-0.1-0.2-0.2-0.4-0.3-0.6
	C102.2,4.9,102.2,4.7,102.2,4.5z M105.9,6.9V0.2h-0.8v2.5h0c-0.1-0.1-0.2-0.3-0.3-0.4c-0.1-0.1-0.3-0.2-0.4-0.2
	c-0.1-0.1-0.3-0.1-0.4-0.1c-0.1,0-0.3,0-0.4,0c-0.4,0-0.7,0.1-1,0.2c-0.3,0.1-0.5,0.3-0.7,0.5c-0.2,0.2-0.3,0.5-0.4,0.8
	c-0.1,0.3-0.1,0.6-0.1,1c0,0.3,0,0.7,0.1,1c0.1,0.3,0.2,0.6,0.4,0.8c0.2,0.2,0.4,0.4,0.7,0.6c0.3,0.1,0.6,0.2,1,0.2
	c0.3,0,0.6-0.1,0.9-0.2c0.3-0.1,0.5-0.3,0.6-0.6h0v0.7H105.9z M108,1.1v-1h-0.8v1H108z M107.2,2v4.9h0.8V2H107.2z M113.3,6.9V2h-0.8
	v2.7c0,0.2,0,0.4-0.1,0.6c-0.1,0.2-0.1,0.3-0.3,0.5c-0.1,0.1-0.3,0.2-0.4,0.3c-0.2,0.1-0.4,0.1-0.6,0.1c-0.3,0-0.5-0.1-0.7-0.3
	S110,5.6,110,5.3V2h-0.8v3.2c0,0.3,0,0.5,0.1,0.7c0.1,0.2,0.1,0.4,0.3,0.6s0.3,0.3,0.5,0.4c0.2,0.1,0.5,0.1,0.8,0.1
	c0.4,0,0.7-0.1,0.9-0.2c0.3-0.1,0.5-0.4,0.6-0.7h0v0.8H113.3z M115,5.3h-0.8c0,0.3,0.1,0.6,0.2,0.8c0.1,0.2,0.3,0.4,0.5,0.5
	c0.2,0.1,0.4,0.2,0.6,0.3C115.7,7,116,7,116.2,7c0.2,0,0.5,0,0.7-0.1c0.2,0,0.5-0.1,0.7-0.2c0.2-0.1,0.4-0.3,0.5-0.5
	c0.1-0.2,0.2-0.4,0.2-0.7c0-0.2,0-0.4-0.1-0.6c-0.1-0.2-0.2-0.3-0.4-0.4c-0.1-0.1-0.3-0.2-0.5-0.2c-0.2-0.1-0.4-0.1-0.6-0.2
	c-0.2,0-0.4-0.1-0.6-0.1c-0.2,0-0.4-0.1-0.5-0.2c-0.2-0.1-0.3-0.1-0.4-0.2c-0.1-0.1-0.1-0.2-0.1-0.3c0-0.1,0-0.2,0.1-0.3
	c0.1-0.1,0.1-0.1,0.2-0.2c0.1,0,0.2-0.1,0.3-0.1c0.1,0,0.2,0,0.4,0c0.1,0,0.3,0,0.4,0c0.1,0,0.2,0.1,0.4,0.1s0.2,0.1,0.3,0.2
	c0.1,0.1,0.1,0.2,0.1,0.4h0.8c0-0.3-0.1-0.5-0.2-0.7c-0.1-0.2-0.2-0.4-0.4-0.5c-0.2-0.1-0.4-0.2-0.6-0.2c-0.2,0-0.5-0.1-0.8-0.1
	c-0.2,0-0.4,0-0.6,0.1c-0.2,0.1-0.4,0.1-0.6,0.2c-0.2,0.1-0.3,0.3-0.4,0.4c-0.1,0.2-0.2,0.4-0.2,0.6c0,0.3,0.1,0.6,0.2,0.7
	s0.4,0.3,0.6,0.4c0.2,0.1,0.5,0.2,0.8,0.2c0.3,0.1,0.5,0.1,0.8,0.2c0.2,0.1,0.4,0.2,0.6,0.3c0.2,0.1,0.2,0.3,0.2,0.5
	c0,0.2,0,0.3-0.1,0.4c-0.1,0.1-0.2,0.2-0.3,0.2c-0.1,0.1-0.2,0.1-0.4,0.1c-0.1,0-0.3,0-0.4,0c-0.2,0-0.3,0-0.5,0
	c-0.2,0-0.3-0.1-0.4-0.2c-0.1-0.1-0.2-0.2-0.3-0.3C115,5.7,115,5.5,115,5.3z M121.6,5.1v0.6h4.7V5.1H121.6z M126.4,3.9V3.2h-4.7v0.6
	H126.4z M133.9,1V0.3h-3.3L130,3.8l0.7,0c0.2-0.2,0.3-0.3,0.5-0.5c0.2-0.1,0.4-0.2,0.7-0.2c0.2,0,0.4,0,0.6,0.1
	c0.2,0.1,0.3,0.2,0.5,0.3c0.1,0.1,0.2,0.3,0.3,0.5c0.1,0.2,0.1,0.4,0.1,0.6c0,0.3,0,0.5-0.1,0.7c-0.1,0.2-0.2,0.4-0.3,0.5
	c-0.1,0.1-0.3,0.2-0.5,0.3c-0.2,0.1-0.4,0.1-0.5,0.1c-0.2,0-0.4,0-0.6-0.1s-0.3-0.1-0.4-0.3c-0.1-0.1-0.2-0.2-0.3-0.4
	s-0.1-0.3-0.1-0.5h-0.8c0,0.3,0.1,0.6,0.2,0.8c0.1,0.2,0.3,0.4,0.5,0.6c0.2,0.2,0.4,0.3,0.7,0.4c0.3,0.1,0.5,0.1,0.8,0.1
	c0.4,0,0.7-0.1,1-0.2c0.3-0.1,0.5-0.3,0.7-0.5c0.2-0.2,0.3-0.4,0.4-0.7c0.1-0.3,0.1-0.5,0.1-0.8c0-0.4-0.1-0.7-0.2-1
	c-0.1-0.3-0.3-0.5-0.5-0.7c-0.2-0.2-0.4-0.3-0.7-0.4c-0.3-0.1-0.5-0.1-0.8-0.1c-0.2,0-0.5,0-0.7,0.1c-0.2,0.1-0.4,0.2-0.6,0.4l0,0
	l0.4-1.9H133.9z"/>
<path d="M135,8.6C135,8.6,135,8.5,135,8.6l1.3-5.5c0-0.1,0.1-0.2,0.1-0.2c0.1-0.1,0.1-0.1,0.2-0.1c0.1,0,0.1,0,0.2,0.1
	C137,3,137,3,137,3.1c0,0,0,0,0,0.1c0,0,0,0,0,0l-0.5,2.1c-0.1,0.3-0.1,0.5-0.1,0.7c0,0.2,0.1,0.4,0.2,0.6c0.1,0.1,0.3,0.2,0.5,0.2
	c0.4,0,0.8-0.3,1.2-0.8c0,0,0,0,0,0s0,0,0,0l0.7-2.6c0-0.1,0.1-0.1,0.1-0.2c0.1-0.1,0.2-0.1,0.2-0.1c0.1,0,0.1,0,0.2,0.1
	c0.1,0,0.1,0.1,0.1,0.2c0,0,0,0.1,0,0.1l-0.7,2.6c0,0.2-0.1,0.3-0.1,0.4c0,0.3,0.1,0.4,0.3,0.4c0.2,0,0.3-0.1,0.4-0.4
	c0.1-0.2,0.2-0.5,0.2-0.8c0,0,0-0.1,0.1-0.1h0.1c0,0,0,0,0.1,0c0,0,0,0,0,0.1c-0.1,0.4-0.2,0.8-0.4,1C139.5,6.9,139.3,7,139,7
	c-0.2,0-0.4-0.1-0.5-0.2c-0.2-0.1-0.3-0.3-0.3-0.5c-0.1,0.2-0.3,0.3-0.5,0.5C137.4,6.9,137.2,7,137,7c-0.4,0-0.7-0.1-0.9-0.3
	l-0.5,1.9c0,0.1-0.1,0.2-0.1,0.2c-0.1,0.1-0.2,0.1-0.2,0.1c-0.1,0-0.1,0-0.2-0.1C135,8.7,135,8.7,135,8.6z"/>
<path d="M143.8,2v4.9h0.8v-3c0-0.1,0-0.2,0.1-0.4c0-0.1,0.1-0.3,0.2-0.4c0.1-0.1,0.2-0.2,0.4-0.3s0.4-0.1,0.6-0.1
	c0.2,0,0.3,0,0.4,0.1s0.2,0.1,0.3,0.2c0.1,0.1,0.1,0.2,0.1,0.3c0,0.1,0,0.3,0,0.4v3.2h0.8v-3c0-0.4,0.1-0.7,0.3-0.9
	c0.2-0.2,0.5-0.3,0.9-0.3c0.2,0,0.4,0,0.5,0.1c0.1,0.1,0.2,0.1,0.3,0.2c0.1,0.1,0.1,0.2,0.1,0.3c0,0.1,0,0.3,0,0.4v3.2h0.8V3.3
	c0-0.3,0-0.5-0.1-0.6c-0.1-0.2-0.2-0.3-0.3-0.4C150,2.1,149.8,2,149.6,2c-0.2-0.1-0.4-0.1-0.7-0.1c-0.3,0-0.6,0.1-0.9,0.2
	c-0.3,0.1-0.5,0.3-0.6,0.6c-0.1-0.3-0.3-0.5-0.5-0.6c-0.2-0.1-0.5-0.2-0.8-0.2c-0.7,0-1.2,0.3-1.6,0.8h0V2H143.8z"/>
<path class="st2" d="M44.4,58.3l10.1-0.5l20.3,2.4L95,69.4l20.3,17.6l20.3,22.7l20.3,21.1l20.3,14.1l8.1,2"/>
<path class="st3" d="M44.4,33.5l10.1,0.2l20.3,3.7L95,47.9l20.3,19.4l20.3,26.3l20.3,27l20.3,20.8l8.1,3.4"/>
<path class="st4" d="M44.4,147.5l10.1-0.2l20.3-0.6l20.3-0.9l20.3-0.7l20.3,0.4l20.3,1.7l20.3,1.8l8.1,0.3"/>
<line class="st0" x1="207.5" y1="149.9" x2="347.3" y2="149.9"/>
<line class="st0" x1="207.5" y1="10.1" x2="347.3" y2="10.1"/>
<line class="st0" x1="237.9" y1="149.9" x2="237.9" y2="148.5"/>
<line class="st0" x1="298.7" y1="149.9" x2="298.7" y2="148.5"/>
<line class="st0" x1="237.9" y1="10.1" x2="237.9" y2="11.5"/>
<line class="st0" x1="298.7" y1="10.1" x2="298.7" y2="11.5"/>
<line class="st0" x1="213.7" y1="149.9" x2="213.7" y2="149.2"/>
<line class="st0" x1="219.6" y1="149.9" x2="219.6" y2="149.2"/>
<line class="st0" x1="224.4" y1="149.9" x2="224.4" y2="149.2"/>
<line class="st0" x1="228.5" y1="149.9" x2="228.5" y2="149.2"/>
<line class="st0" x1="232" y1="149.9" x2="232" y2="149.2"/>
<line class="st0" x1="235.1" y1="149.9" x2="235.1" y2="149.2"/>
<line class="st0" x1="237.9" y1="149.9" x2="237.9" y2="149.2"/>
<line class="st0" x1="256.2" y1="149.9" x2="256.2" y2="149.2"/>
<line class="st0" x1="266.9" y1="149.9" x2="266.9" y2="149.2"/>
<line class="st0" x1="274.5" y1="149.9" x2="274.5" y2="149.2"/>
<line class="st0" x1="280.4" y1="149.9" x2="280.4" y2="149.2"/>
<line class="st0" x1="285.2" y1="149.9" x2="285.2" y2="149.2"/>
<line class="st0" x1="289.3" y1="149.9" x2="289.3" y2="149.2"/>
<line class="st0" x1="292.8" y1="149.9" x2="292.8" y2="149.2"/>
<line class="st0" x1="295.9" y1="149.9" x2="295.9" y2="149.2"/>
<line class="st0" x1="298.7" y1="149.9" x2="298.7" y2="149.2"/>
<line class="st0" x1="317" y1="149.9" x2="317" y2="149.2"/>
<line class="st0" x1="327.7" y1="149.9" x2="327.7" y2="149.2"/>
<line class="st0" x1="335.3" y1="149.9" x2="335.3" y2="149.2"/>
<line class="st0" x1="341.2" y1="149.9" x2="341.2" y2="149.2"/>
<line class="st0" x1="346" y1="149.9" x2="346" y2="149.2"/>
<line class="st0" x1="213.7" y1="10.1" x2="213.7" y2="10.8"/>
<line class="st0" x1="219.6" y1="10.1" x2="219.6" y2="10.8"/>
<line class="st0" x1="224.4" y1="10.1" x2="224.4" y2="10.8"/>
<line class="st0" x1="228.5" y1="10.1" x2="228.5" y2="10.8"/>
<line class="st0" x1="232" y1="10.1" x2="232" y2="10.8"/>
<line class="st0" x1="235.1" y1="10.1" x2="235.1" y2="10.8"/>
<line class="st0" x1="237.9" y1="10.1" x2="237.9" y2="10.8"/>
<line class="st0" x1="256.2" y1="10.1" x2="256.2" y2="10.8"/>
<line class="st0" x1="266.9" y1="10.1" x2="266.9" y2="10.8"/>
<line class="st0" x1="274.5" y1="10.1" x2="274.5" y2="10.8"/>
<line class="st0" x1="280.4" y1="10.1" x2="280.4" y2="10.8"/>
<line class="st0" x1="285.2" y1="10.1" x2="285.2" y2="10.8"/>
<line class="st0" x1="289.3" y1="10.1" x2="289.3" y2="10.8"/>
<line class="st0" x1="292.8" y1="10.1" x2="292.8" y2="10.8"/>
<line class="st0" x1="295.9" y1="10.1" x2="295.9" y2="10.8"/>
<line class="st0" x1="298.7" y1="10.1" x2="298.7" y2="10.8"/>
<line class="st0" x1="317" y1="10.1" x2="317" y2="10.8"/>
<line class="st0" x1="327.7" y1="10.1" x2="327.7" y2="10.8"/>
<line class="st0" x1="335.3" y1="10.1" x2="335.3" y2="10.8"/>
<line class="st0" x1="341.2" y1="10.1" x2="341.2" y2="10.8"/>
<line class="st0" x1="346" y1="10.1" x2="346" y2="10.8"/>
<path class="st1" d="M232.8,162.9v-5.6h-0.5c0,0.2-0.1,0.4-0.2,0.5s-0.2,0.2-0.4,0.3c-0.1,0.1-0.3,0.1-0.5,0.2s-0.4,0-0.6,0v0.5h1.4
	v4H232.8z M235.4,160.2c0-0.1,0-0.3,0-0.5c0-0.2,0-0.3,0-0.5c0-0.2,0.1-0.3,0.1-0.5c0-0.2,0.1-0.3,0.2-0.4c0.1-0.1,0.2-0.2,0.3-0.3
	c0.1-0.1,0.3-0.1,0.5-0.1s0.3,0,0.5,0.1c0.1,0.1,0.2,0.2,0.3,0.3c0.1,0.1,0.2,0.3,0.2,0.4c0,0.2,0.1,0.3,0.1,0.5c0,0.2,0,0.3,0,0.5
	c0,0.2,0,0.3,0,0.5c0,0.2,0,0.4,0,0.7c0,0.3-0.1,0.5-0.1,0.7c-0.1,0.2-0.2,0.4-0.3,0.6c-0.2,0.2-0.4,0.2-0.7,0.2
	c-0.3,0-0.5-0.1-0.7-0.2c-0.2-0.2-0.3-0.4-0.3-0.6c-0.1-0.2-0.1-0.5-0.1-0.7C235.5,160.6,235.4,160.4,235.4,160.2z M234.7,160.2
	c0,0.2,0,0.4,0,0.6c0,0.2,0,0.4,0.1,0.6c0,0.2,0.1,0.4,0.2,0.6c0.1,0.2,0.2,0.4,0.3,0.5c0.1,0.1,0.3,0.3,0.5,0.3
	c0.2,0.1,0.5,0.1,0.7,0.1c0.3,0,0.5,0,0.7-0.1c0.2-0.1,0.4-0.2,0.5-0.3c0.1-0.1,0.2-0.3,0.3-0.5c0.1-0.2,0.1-0.4,0.2-0.6
	c0-0.2,0.1-0.4,0.1-0.6c0-0.2,0-0.4,0-0.6c0-0.2,0-0.4,0-0.6c0-0.2,0-0.4-0.1-0.6c0-0.2-0.1-0.4-0.2-0.6c-0.1-0.2-0.2-0.4-0.3-0.5
	c-0.1-0.1-0.3-0.3-0.5-0.3c-0.2-0.1-0.5-0.1-0.7-0.1s-0.5,0-0.7,0.1c-0.2,0.1-0.4,0.2-0.5,0.3c-0.1,0.1-0.2,0.3-0.3,0.5
	c-0.1,0.2-0.1,0.4-0.2,0.6c0,0.2-0.1,0.4-0.1,0.6C234.7,159.7,234.7,160,234.7,160.2z"/>
<path class="st1" d="M239.5,157.1v0.5h1.8v-0.5H239.5z M241.9,156.2h0.5c0-0.1,0-0.3,0-0.4c0-0.1,0.1-0.3,0.2-0.4
	c0.1-0.1,0.2-0.2,0.3-0.3c0.1-0.1,0.2-0.1,0.4-0.1c0.1,0,0.2,0,0.3,0.1c0.1,0,0.2,0.1,0.3,0.2c0.1,0.1,0.1,0.2,0.2,0.3
	c0,0.1,0.1,0.2,0.1,0.3c0,0.2,0,0.3-0.1,0.4c0,0.1-0.1,0.2-0.2,0.3c-0.1,0.1-0.2,0.2-0.4,0.3s-0.3,0.2-0.5,0.3
	c-0.2,0.1-0.3,0.2-0.4,0.3s-0.3,0.2-0.4,0.4c-0.1,0.1-0.2,0.3-0.3,0.5c-0.1,0.2-0.1,0.4-0.1,0.7h2.9v-0.5h-2.3
	c0-0.1,0.1-0.3,0.2-0.4c0.1-0.1,0.2-0.2,0.3-0.3c0.1-0.1,0.2-0.2,0.4-0.3c0.1-0.1,0.3-0.2,0.4-0.2c0.1-0.1,0.3-0.2,0.4-0.3
	c0.1-0.1,0.2-0.2,0.3-0.3c0.1-0.1,0.2-0.3,0.2-0.4c0.1-0.2,0.1-0.3,0.1-0.5c0-0.2,0-0.4-0.1-0.6c-0.1-0.2-0.2-0.3-0.3-0.4
	c-0.1-0.1-0.3-0.2-0.4-0.2c-0.2-0.1-0.4-0.1-0.5-0.1c-0.2,0-0.4,0-0.6,0.1c-0.2,0.1-0.3,0.2-0.5,0.3c-0.1,0.1-0.2,0.3-0.3,0.5
	C241.9,155.8,241.9,156,241.9,156.2z"/>
<path class="st1" d="M294,162.9v-5.6h-0.5c0,0.2-0.1,0.4-0.2,0.5s-0.2,0.2-0.4,0.3c-0.1,0.1-0.3,0.1-0.5,0.2s-0.4,0-0.6,0v0.5h1.4v4
	H294z M296.6,160.2c0-0.1,0-0.3,0-0.5c0-0.2,0-0.3,0-0.5c0-0.2,0.1-0.3,0.1-0.5c0-0.2,0.1-0.3,0.2-0.4c0.1-0.1,0.2-0.2,0.3-0.3
	c0.1-0.1,0.3-0.1,0.5-0.1s0.3,0,0.5,0.1c0.1,0.1,0.2,0.2,0.3,0.3c0.1,0.1,0.2,0.3,0.2,0.4c0,0.2,0.1,0.3,0.1,0.5c0,0.2,0,0.3,0,0.5
	c0,0.2,0,0.3,0,0.5c0,0.2,0,0.4,0,0.7c0,0.3-0.1,0.5-0.1,0.7c-0.1,0.2-0.2,0.4-0.3,0.6c-0.2,0.2-0.4,0.2-0.7,0.2
	c-0.3,0-0.5-0.1-0.7-0.2c-0.2-0.2-0.3-0.4-0.3-0.6s-0.1-0.5-0.1-0.7C296.6,160.6,296.6,160.4,296.6,160.2z M295.9,160.2
	c0,0.2,0,0.4,0,0.6c0,0.2,0,0.4,0.1,0.6c0,0.2,0.1,0.4,0.2,0.6c0.1,0.2,0.2,0.4,0.3,0.5c0.1,0.1,0.3,0.3,0.5,0.3
	c0.2,0.1,0.5,0.1,0.7,0.1c0.3,0,0.5,0,0.7-0.1c0.2-0.1,0.4-0.2,0.5-0.3c0.1-0.1,0.2-0.3,0.3-0.5c0.1-0.2,0.1-0.4,0.2-0.6
	c0-0.2,0.1-0.4,0.1-0.6c0-0.2,0-0.4,0-0.6c0-0.2,0-0.4,0-0.6c0-0.2,0-0.4-0.1-0.6c0-0.2-0.1-0.4-0.2-0.6c-0.1-0.2-0.2-0.4-0.3-0.5
	c-0.1-0.1-0.3-0.3-0.5-0.3c-0.2-0.1-0.5-0.1-0.7-0.1c-0.3,0-0.5,0-0.7,0.1c-0.2,0.1-0.4,0.2-0.5,0.3c-0.1,0.1-0.2,0.3-0.3,0.5
	c-0.1,0.2-0.1,0.4-0.2,0.6c0,0.2-0.1,0.4-0.1,0.6C295.9,159.7,295.9,160,295.9,160.2z"/>
<path class="st1" d="M300.6,157.1v0.5h1.8v-0.5H300.6z M305,159.1v-4.5h-0.4c0,0.2-0.1,0.3-0.2,0.4c-0.1,0.1-0.2,0.2-0.3,0.3
	c-0.1,0.1-0.2,0.1-0.4,0.1c-0.1,0-0.3,0-0.4,0v0.4h1.2v3.2H305z"/>
<path class="st1" d="M274.6,175.3c-0.4,0-0.8-0.1-1.1-0.3c-0.3-0.2-0.6-0.4-0.7-0.8c-0.2-0.3-0.3-0.7-0.3-1.1c0-0.6,0.2-1.1,0.5-1.7
	c0.3-0.6,0.7-1,1.3-1.4c0.5-0.4,1.1-0.5,1.7-0.5c0.4,0,0.8,0.1,1.1,0.3c0.3,0.2,0.6,0.5,0.7,0.9c0.2,0.4,0.3,0.8,0.3,1.2l0,0.9
	c0.3-0.4,0.5-0.8,0.7-1.3c0.2-0.4,0.4-0.9,0.5-1.3c0-0.1,0.1-0.1,0.1-0.1h0.2c0.1,0,0.1,0,0.1,0.1c0,0,0,0,0,0
	c-0.1,0.4-0.2,0.8-0.4,1.1c-0.1,0.4-0.3,0.7-0.5,1c-0.2,0.3-0.4,0.6-0.7,0.9c0,1.1,0.1,1.6,0.4,1.6c0.2,0,0.3,0,0.4-0.1
	c0.1-0.1,0.2-0.2,0.3-0.3c0.1-0.1,0.1-0.2,0.1-0.2h0.2c0.1,0,0.1,0,0.1,0.1c0,0.2-0.1,0.4-0.4,0.6c-0.2,0.2-0.5,0.3-0.7,0.3
	c-0.3,0-0.6-0.1-0.8-0.3c-0.2-0.2-0.3-0.5-0.4-0.8c-0.4,0.3-0.8,0.6-1.3,0.8C275.5,175.2,275,175.3,274.6,175.3z M274.6,174.9
	c0.9,0,1.8-0.4,2.6-1.1c0-0.1,0-0.1,0-0.2c0-0.1,0-0.1,0-0.1v-1.4c0-1.5-0.4-2.3-1.3-2.3c-0.5,0-0.9,0.2-1.3,0.6
	c-0.4,0.4-0.7,0.9-0.8,1.5c-0.2,0.6-0.3,1.1-0.3,1.6c0,0.4,0.1,0.7,0.3,0.9C274,174.8,274.2,174.9,274.6,174.9z"/>
<line class="st0" x1="207.5" y1="149.9" x2="207.5" y2="10.1"/>
<line class="st0" x1="347.3" y1="149.9" x2="347.3" y2="10.1"/>
<line class="st0" x1="207.5" y1="149.9" x2="208.9" y2="149.9"/>
<line class="st0" x1="207.5" y1="115" x2="208.9" y2="115"/>
<line class="st0" x1="207.5" y1="80" x2="208.9" y2="80"/>
<line class="st0" x1="207.5" y1="45" x2="208.9" y2="45"/>
<line class="st0" x1="207.5" y1="10.1" x2="208.9" y2="10.1"/>
<line class="st0" x1="347.3" y1="149.9" x2="345.9" y2="149.9"/>
<line class="st0" x1="347.3" y1="115" x2="345.9" y2="115"/>
<line class="st0" x1="347.3" y1="80" x2="345.9" y2="80"/>
<line class="st0" x1="347.3" y1="45" x2="345.9" y2="45"/>
<line class="st0" x1="347.3" y1="10.1" x2="345.9" y2="10.1"/>
<path class="st1" d="M200.8,149.8c0-0.1,0-0.3,0-0.5c0-0.2,0-0.3,0-0.5c0-0.2,0.1-0.3,0.1-0.5c0-0.2,0.1-0.3,0.2-0.4
	c0.1-0.1,0.2-0.2,0.3-0.3c0.1-0.1,0.3-0.1,0.5-0.1s0.3,0,0.5,0.1c0.1,0.1,0.2,0.2,0.3,0.3c0.1,0.1,0.2,0.3,0.2,0.4
	c0,0.2,0.1,0.3,0.1,0.5c0,0.2,0,0.3,0,0.5c0,0.2,0,0.3,0,0.5c0,0.2,0,0.4,0,0.7c0,0.3-0.1,0.5-0.1,0.7s-0.2,0.4-0.3,0.6
	c-0.2,0.2-0.4,0.2-0.7,0.2c-0.3,0-0.5-0.1-0.7-0.2c-0.2-0.2-0.3-0.4-0.3-0.6c-0.1-0.2-0.1-0.5-0.1-0.7
	C200.8,150.3,200.8,150,200.8,149.8z M200.1,149.8c0,0.2,0,0.4,0,0.6c0,0.2,0,0.4,0.1,0.6c0,0.2,0.1,0.4,0.2,0.6
	c0.1,0.2,0.2,0.4,0.3,0.5c0.1,0.1,0.3,0.3,0.5,0.3c0.2,0.1,0.5,0.1,0.7,0.1c0.3,0,0.5,0,0.7-0.1c0.2-0.1,0.4-0.2,0.5-0.3
	s0.2-0.3,0.3-0.5c0.1-0.2,0.1-0.4,0.2-0.6c0-0.2,0.1-0.4,0.1-0.6c0-0.2,0-0.4,0-0.6c0-0.2,0-0.4,0-0.6c0-0.2,0-0.4-0.1-0.6
	c0-0.2-0.1-0.4-0.2-0.6c-0.1-0.2-0.2-0.4-0.3-0.5c-0.1-0.1-0.3-0.3-0.5-0.3c-0.2-0.1-0.5-0.1-0.7-0.1s-0.5,0-0.7,0.1
	c-0.2,0.1-0.4,0.2-0.5,0.3c-0.1,0.1-0.2,0.3-0.3,0.5c-0.1,0.2-0.1,0.4-0.2,0.6c0,0.2-0.1,0.4-0.1,0.6
	C200.1,149.4,200.1,149.6,200.1,149.8z"/>
<path class="st1" d="M194,114.9c0-0.1,0-0.3,0-0.5c0-0.2,0-0.3,0-0.5c0-0.2,0.1-0.3,0.1-0.5c0-0.2,0.1-0.3,0.2-0.4
	c0.1-0.1,0.2-0.2,0.3-0.3c0.1-0.1,0.3-0.1,0.5-0.1c0.2,0,0.3,0,0.5,0.1c0.1,0.1,0.2,0.2,0.3,0.3c0.1,0.1,0.2,0.3,0.2,0.4
	c0,0.2,0.1,0.3,0.1,0.5c0,0.2,0,0.3,0,0.5c0,0.2,0,0.3,0,0.5c0,0.2,0,0.4,0,0.7c0,0.3-0.1,0.5-0.1,0.7c-0.1,0.2-0.2,0.4-0.3,0.6
	c-0.2,0.2-0.4,0.2-0.7,0.2c-0.3,0-0.5-0.1-0.7-0.2c-0.2-0.2-0.3-0.4-0.3-0.6c-0.1-0.2-0.1-0.5-0.1-0.7
	C194,115.3,194,115.1,194,114.9z M193.3,114.9c0,0.2,0,0.4,0,0.6c0,0.2,0,0.4,0.1,0.6c0,0.2,0.1,0.4,0.2,0.6
	c0.1,0.2,0.2,0.4,0.3,0.5c0.1,0.1,0.3,0.3,0.5,0.3c0.2,0.1,0.5,0.1,0.7,0.1c0.3,0,0.5,0,0.7-0.1c0.2-0.1,0.4-0.2,0.5-0.3
	s0.2-0.3,0.3-0.5c0.1-0.2,0.1-0.4,0.2-0.6c0-0.2,0.1-0.4,0.1-0.6c0-0.2,0-0.4,0-0.6c0-0.2,0-0.4,0-0.6c0-0.2,0-0.4-0.1-0.6
	c0-0.2-0.1-0.4-0.2-0.6c-0.1-0.2-0.2-0.4-0.3-0.5c-0.1-0.1-0.3-0.3-0.5-0.3c-0.2-0.1-0.5-0.1-0.7-0.1s-0.5,0-0.7,0.1
	c-0.2,0.1-0.4,0.2-0.5,0.3c-0.1,0.1-0.2,0.3-0.3,0.5c-0.1,0.2-0.1,0.4-0.2,0.6c0,0.2-0.1,0.4-0.1,0.6
	C193.3,114.5,193.3,114.7,193.3,114.9z M198,116.8v0.9h0.9v-0.9H198z M203.2,112.7v-0.6h-2.8l-0.5,2.9l0.6,0
	c0.1-0.2,0.3-0.3,0.5-0.4c0.2-0.1,0.4-0.1,0.6-0.1c0.2,0,0.4,0,0.5,0.1c0.2,0.1,0.3,0.2,0.4,0.3c0.1,0.1,0.2,0.2,0.3,0.4
	c0.1,0.2,0.1,0.3,0.1,0.5c0,0.2,0,0.4-0.1,0.6c-0.1,0.2-0.1,0.3-0.3,0.4c-0.1,0.1-0.2,0.2-0.4,0.2c-0.1,0.1-0.3,0.1-0.5,0.1
	c-0.2,0-0.3,0-0.5-0.1c-0.1,0-0.3-0.1-0.4-0.2c-0.1-0.1-0.2-0.2-0.2-0.3c-0.1-0.1-0.1-0.3-0.1-0.4h-0.7c0,0.3,0.1,0.5,0.1,0.7
	c0.1,0.2,0.2,0.4,0.4,0.5c0.2,0.1,0.4,0.2,0.6,0.3c0.2,0.1,0.4,0.1,0.7,0.1c0.3,0,0.6-0.1,0.9-0.2c0.2-0.1,0.4-0.2,0.6-0.4
	c0.2-0.2,0.3-0.4,0.4-0.6c0.1-0.2,0.1-0.5,0.1-0.7c0-0.3,0-0.6-0.1-0.8c-0.1-0.2-0.2-0.4-0.4-0.6c-0.2-0.2-0.4-0.3-0.6-0.4
	c-0.2-0.1-0.5-0.1-0.7-0.1c-0.2,0-0.4,0-0.6,0.1c-0.2,0.1-0.3,0.2-0.5,0.3l0,0l0.3-1.6H203.2z"/>
<path class="st1" d="M202.6,82.7v-5.6h-0.5c0,0.2-0.1,0.4-0.2,0.5c-0.1,0.1-0.2,0.2-0.4,0.3c-0.1,0.1-0.3,0.1-0.5,0.2
	c-0.2,0-0.4,0-0.6,0v0.5h1.4v4H202.6z"/>
<path class="st1" d="M195.7,47.7v-5.6h-0.5c0,0.2-0.1,0.4-0.2,0.5c-0.1,0.1-0.2,0.2-0.4,0.3c-0.1,0.1-0.3,0.1-0.5,0.2
	c-0.2,0-0.4,0-0.6,0v0.5h1.4v4H195.7z M198,46.8v0.9h0.9v-0.9H198z M203.2,42.8v-0.6h-2.8l-0.5,2.9l0.6,0c0.1-0.2,0.3-0.3,0.5-0.4
	c0.2-0.1,0.4-0.1,0.6-0.1c0.2,0,0.4,0,0.5,0.1c0.2,0.1,0.3,0.2,0.4,0.3c0.1,0.1,0.2,0.2,0.3,0.4c0.1,0.2,0.1,0.3,0.1,0.5
	c0,0.2,0,0.4-0.1,0.6s-0.1,0.3-0.3,0.4c-0.1,0.1-0.2,0.2-0.4,0.2c-0.1,0.1-0.3,0.1-0.5,0.1c-0.2,0-0.3,0-0.5-0.1
	c-0.1,0-0.3-0.1-0.4-0.2c-0.1-0.1-0.2-0.2-0.2-0.3c-0.1-0.1-0.1-0.3-0.1-0.4h-0.7c0,0.3,0.1,0.5,0.1,0.7c0.1,0.2,0.2,0.4,0.4,0.5
	c0.2,0.1,0.4,0.2,0.6,0.3c0.2,0.1,0.4,0.1,0.7,0.1c0.3,0,0.6-0.1,0.9-0.2c0.2-0.1,0.4-0.2,0.6-0.4c0.2-0.2,0.3-0.4,0.4-0.6
	c0.1-0.2,0.1-0.5,0.1-0.7c0-0.3,0-0.6-0.1-0.8c-0.1-0.2-0.2-0.4-0.4-0.6c-0.2-0.2-0.4-0.3-0.6-0.4c-0.2-0.1-0.5-0.1-0.7-0.1
	c-0.2,0-0.4,0-0.6,0.1c-0.2,0.1-0.3,0.2-0.5,0.3l0,0l0.3-1.6H203.2z"/>
<path class="st1" d="M200.1,9.2h0.7c0-0.2,0-0.3,0.1-0.5c0-0.2,0.1-0.3,0.2-0.4c0.1-0.1,0.2-0.2,0.3-0.3c0.1-0.1,0.3-0.1,0.5-0.1
	c0.1,0,0.3,0,0.4,0.1c0.1,0,0.2,0.1,0.3,0.2c0.1,0.1,0.2,0.2,0.2,0.3c0.1,0.1,0.1,0.3,0.1,0.4c0,0.2,0,0.4-0.1,0.5
	c-0.1,0.1-0.1,0.3-0.3,0.4c-0.1,0.1-0.3,0.3-0.4,0.4c-0.2,0.1-0.4,0.3-0.6,0.4c-0.2,0.1-0.4,0.2-0.6,0.4s-0.3,0.3-0.5,0.5
	s-0.3,0.4-0.4,0.6c-0.1,0.2-0.2,0.5-0.2,0.8h3.6v-0.6h-2.9c0-0.2,0.1-0.3,0.2-0.5c0.1-0.1,0.2-0.3,0.4-0.4c0.1-0.1,0.3-0.2,0.5-0.3
	s0.3-0.2,0.5-0.3c0.2-0.1,0.3-0.2,0.5-0.3c0.2-0.1,0.3-0.3,0.4-0.4c0.1-0.1,0.2-0.3,0.3-0.5c0.1-0.2,0.1-0.4,0.1-0.7
	c0-0.3,0-0.5-0.1-0.7c-0.1-0.2-0.2-0.4-0.4-0.5c-0.2-0.1-0.3-0.2-0.6-0.3c-0.2-0.1-0.4-0.1-0.7-0.1c-0.3,0-0.6,0-0.8,0.1
	c-0.2,0.1-0.4,0.2-0.6,0.4c-0.2,0.2-0.3,0.4-0.3,0.6C200.2,8.6,200.1,8.9,200.1,9.2z"/>
<path d="M243.2,2.2h0.9c-0.1-0.4-0.2-0.7-0.3-0.9c-0.2-0.3-0.4-0.5-0.6-0.7c-0.2-0.2-0.5-0.3-0.8-0.4C242,0,241.7,0,241.3,0
	c-0.5,0-1,0.1-1.4,0.3c-0.4,0.2-0.7,0.4-1,0.8c-0.3,0.3-0.5,0.7-0.6,1.1c-0.1,0.4-0.2,0.9-0.2,1.4c0,0.5,0.1,0.9,0.2,1.4
	c0.1,0.4,0.3,0.8,0.6,1.1c0.3,0.3,0.6,0.6,1,0.7c0.4,0.2,0.8,0.3,1.4,0.3c0.9,0,1.5-0.2,2-0.7c0.5-0.5,0.8-1.1,0.9-2h-0.9
	c0,0.3-0.1,0.5-0.2,0.8c-0.1,0.2-0.2,0.4-0.4,0.6c-0.2,0.2-0.4,0.3-0.6,0.4c-0.2,0.1-0.5,0.1-0.8,0.1c-0.4,0-0.7-0.1-1-0.2
	c-0.3-0.2-0.5-0.4-0.7-0.6c-0.2-0.3-0.3-0.6-0.4-0.9c-0.1-0.3-0.1-0.7-0.1-1.1c0-0.4,0-0.7,0.1-1c0.1-0.3,0.2-0.6,0.4-0.9
	c0.2-0.3,0.4-0.5,0.7-0.6c0.3-0.2,0.6-0.2,1-0.2c0.5,0,0.9,0.1,1.2,0.4S243.1,1.7,243.2,2.2z M248.5,4h-2.8c0-0.2,0.1-0.4,0.1-0.5
	c0.1-0.2,0.2-0.3,0.3-0.4c0.1-0.1,0.3-0.2,0.4-0.3c0.2-0.1,0.4-0.1,0.6-0.1c0.2,0,0.4,0,0.6,0.1c0.2,0.1,0.3,0.2,0.4,0.3
	c0.1,0.1,0.2,0.3,0.3,0.4C248.5,3.6,248.5,3.8,248.5,4z M249.3,5.3h-0.8c-0.1,0.3-0.2,0.6-0.4,0.7c-0.2,0.2-0.5,0.2-0.8,0.2
	c-0.3,0-0.5,0-0.7-0.1c-0.2-0.1-0.4-0.2-0.5-0.4c-0.1-0.1-0.2-0.3-0.3-0.5c-0.1-0.2-0.1-0.4-0.1-0.6h3.6c0-0.3,0-0.6-0.1-0.9
	c-0.1-0.3-0.2-0.6-0.4-0.9c-0.2-0.3-0.4-0.5-0.7-0.7c-0.3-0.2-0.6-0.3-1.1-0.3c-0.3,0-0.6,0.1-0.9,0.2c-0.3,0.1-0.5,0.3-0.7,0.5
	c-0.2,0.2-0.4,0.5-0.5,0.8c-0.1,0.3-0.2,0.6-0.2,1c0,0.4,0.1,0.7,0.2,1c0.1,0.3,0.2,0.6,0.4,0.8c0.2,0.2,0.4,0.4,0.7,0.5
	c0.3,0.1,0.6,0.2,1,0.2c0.6,0,1-0.1,1.4-0.4C248.9,6.3,249.2,5.9,249.3,5.3z M250.2,0.2v6.7h0.8V0.2H250.2z M252.3,0.2v6.7h0.8V0.2
	H252.3z M257,2v4.9h0.8V4.7c0-0.3,0-0.6,0.1-0.8c0.1-0.2,0.2-0.4,0.3-0.6c0.1-0.2,0.3-0.3,0.5-0.4c0.2-0.1,0.5-0.1,0.8-0.1V1.9
	c-0.4,0-0.8,0.1-1.1,0.3c-0.3,0.2-0.5,0.5-0.7,0.9h0V2H257z M264.4,6.9c-0.1,0.1-0.3,0.1-0.6,0.1c-0.2,0-0.4-0.1-0.5-0.2
	c-0.1-0.1-0.2-0.3-0.2-0.6c-0.2,0.3-0.5,0.5-0.8,0.6c-0.3,0.1-0.6,0.2-0.9,0.2c-0.2,0-0.4,0-0.6-0.1c-0.2-0.1-0.4-0.1-0.5-0.2
	c-0.1-0.1-0.3-0.2-0.3-0.4c-0.1-0.2-0.1-0.4-0.1-0.6c0-0.3,0-0.5,0.1-0.7c0.1-0.2,0.2-0.3,0.4-0.4c0.2-0.1,0.3-0.2,0.5-0.2
	c0.2-0.1,0.4-0.1,0.6-0.1c0.2,0,0.4-0.1,0.6-0.1s0.4-0.1,0.5-0.1c0.2,0,0.3-0.1,0.4-0.2c0.1-0.1,0.1-0.2,0.1-0.3
	c0-0.2,0-0.3-0.1-0.4c-0.1-0.1-0.2-0.2-0.3-0.2c-0.1-0.1-0.2-0.1-0.3-0.1c-0.1,0-0.3,0-0.4,0c-0.3,0-0.6,0.1-0.8,0.2
	c-0.2,0.1-0.3,0.4-0.4,0.7H260c0-0.3,0.1-0.6,0.2-0.8c0.1-0.2,0.3-0.4,0.5-0.5c0.2-0.1,0.4-0.2,0.6-0.3c0.2-0.1,0.5-0.1,0.8-0.1
	c0.2,0,0.4,0,0.7,0c0.2,0,0.4,0.1,0.6,0.2c0.2,0.1,0.3,0.2,0.4,0.4c0.1,0.2,0.2,0.4,0.2,0.7v2.5c0,0.2,0,0.3,0,0.4
	c0,0.1,0.1,0.1,0.2,0.1c0.1,0,0.2,0,0.2,0V6.9z M263.1,4.4c-0.1,0.1-0.2,0.1-0.4,0.2c-0.2,0-0.3,0.1-0.5,0.1c-0.2,0-0.4,0-0.5,0.1
	c-0.2,0-0.3,0.1-0.5,0.1c-0.1,0.1-0.3,0.2-0.4,0.3c-0.1,0.1-0.1,0.3-0.1,0.5c0,0.1,0,0.2,0.1,0.3c0.1,0.1,0.1,0.2,0.2,0.2
	c0.1,0.1,0.2,0.1,0.3,0.1c0.1,0,0.2,0,0.4,0c0.3,0,0.5,0,0.7-0.1c0.2-0.1,0.3-0.2,0.5-0.3c0.1-0.1,0.2-0.2,0.3-0.4
	c0.1-0.1,0.1-0.2,0.1-0.4V4.4z M265.8,4.5c0-0.2,0-0.5,0.1-0.7c0.1-0.2,0.1-0.4,0.2-0.6s0.3-0.3,0.5-0.4c0.2-0.1,0.4-0.2,0.7-0.2
	c0.3,0,0.5,0.1,0.7,0.2c0.2,0.1,0.4,0.2,0.5,0.4c0.1,0.2,0.2,0.4,0.3,0.6c0.1,0.2,0.1,0.5,0.1,0.7c0,0.2,0,0.4-0.1,0.7
	c-0.1,0.2-0.1,0.4-0.3,0.6c-0.1,0.2-0.3,0.3-0.5,0.4c-0.2,0.1-0.4,0.2-0.7,0.2c-0.3,0-0.5-0.1-0.7-0.2c-0.2-0.1-0.3-0.2-0.5-0.4
	c-0.1-0.2-0.2-0.4-0.3-0.6C265.8,4.9,265.8,4.7,265.8,4.5z M269.5,6.9V0.2h-0.8v2.5h0c-0.1-0.1-0.2-0.3-0.3-0.4
	c-0.1-0.1-0.3-0.2-0.4-0.2c-0.1-0.1-0.3-0.1-0.4-0.1c-0.1,0-0.3,0-0.4,0c-0.4,0-0.7,0.1-1,0.2c-0.3,0.1-0.5,0.3-0.7,0.5
	c-0.2,0.2-0.3,0.5-0.4,0.8c-0.1,0.3-0.1,0.6-0.1,1c0,0.3,0,0.7,0.1,1c0.1,0.3,0.2,0.6,0.4,0.8c0.2,0.2,0.4,0.4,0.7,0.6
	c0.3,0.1,0.6,0.2,1,0.2c0.3,0,0.6-0.1,0.9-0.2c0.3-0.1,0.5-0.3,0.6-0.6h0v0.7H269.5z M271.6,1.1v-1h-0.8v1H271.6z M270.8,2v4.9h0.8
	V2H270.8z M276.9,6.9V2h-0.8v2.7c0,0.2,0,0.4-0.1,0.6c-0.1,0.2-0.1,0.3-0.3,0.5c-0.1,0.1-0.3,0.2-0.4,0.3c-0.2,0.1-0.4,0.1-0.6,0.1
	c-0.3,0-0.5-0.1-0.7-0.3s-0.3-0.4-0.3-0.7V2h-0.8v3.2c0,0.3,0,0.5,0.1,0.7c0.1,0.2,0.1,0.4,0.3,0.6c0.1,0.2,0.3,0.3,0.5,0.4
	c0.2,0.1,0.5,0.1,0.8,0.1c0.4,0,0.7-0.1,0.9-0.2c0.3-0.1,0.5-0.4,0.6-0.7h0v0.8H276.9z M278.6,5.3h-0.8c0,0.3,0.1,0.6,0.2,0.8
	c0.1,0.2,0.3,0.4,0.5,0.5c0.2,0.1,0.4,0.2,0.6,0.3c0.2,0.1,0.5,0.1,0.8,0.1c0.2,0,0.5,0,0.7-0.1c0.2,0,0.5-0.1,0.7-0.2
	c0.2-0.1,0.4-0.3,0.5-0.5c0.1-0.2,0.2-0.4,0.2-0.7c0-0.2,0-0.4-0.1-0.6c-0.1-0.2-0.2-0.3-0.4-0.4c-0.1-0.1-0.3-0.2-0.5-0.2
	c-0.2-0.1-0.4-0.1-0.6-0.2c-0.2,0-0.4-0.1-0.6-0.1c-0.2,0-0.4-0.1-0.5-0.2c-0.2-0.1-0.3-0.1-0.4-0.2c-0.1-0.1-0.1-0.2-0.1-0.3
	c0-0.1,0-0.2,0.1-0.3s0.1-0.1,0.2-0.2c0.1,0,0.2-0.1,0.3-0.1c0.1,0,0.2,0,0.4,0c0.1,0,0.3,0,0.4,0c0.1,0,0.2,0.1,0.4,0.1
	s0.2,0.1,0.3,0.2c0.1,0.1,0.1,0.2,0.1,0.4h0.8c0-0.3-0.1-0.5-0.2-0.7c-0.1-0.2-0.2-0.4-0.4-0.5c-0.2-0.1-0.4-0.2-0.6-0.2
	c-0.2,0-0.5-0.1-0.8-0.1c-0.2,0-0.4,0-0.6,0.1c-0.2,0.1-0.4,0.1-0.6,0.2c-0.2,0.1-0.3,0.3-0.4,0.4c-0.1,0.2-0.2,0.4-0.2,0.6
	c0,0.3,0.1,0.6,0.2,0.7s0.4,0.3,0.6,0.4c0.2,0.1,0.5,0.2,0.8,0.2c0.3,0.1,0.5,0.1,0.8,0.2c0.2,0.1,0.4,0.2,0.6,0.3
	c0.2,0.1,0.2,0.3,0.2,0.5c0,0.2,0,0.3-0.1,0.4c-0.1,0.1-0.2,0.2-0.3,0.2c-0.1,0.1-0.2,0.1-0.4,0.1s-0.3,0-0.4,0c-0.2,0-0.3,0-0.5,0
	c-0.2,0-0.3-0.1-0.4-0.2c-0.1-0.1-0.2-0.2-0.3-0.3C278.6,5.7,278.6,5.5,278.6,5.3z M285.3,5.1v0.6h4.7V5.1H285.3z M290,3.9V3.2h-4.7
	v0.6H290z M296.4,6.9V0.2h-0.6c0,0.3-0.1,0.5-0.2,0.6c-0.1,0.2-0.3,0.3-0.4,0.4c-0.2,0.1-0.4,0.2-0.6,0.2c-0.2,0-0.4,0.1-0.7,0.1
	v0.6h1.7v4.8H296.4z M299.5,3.6c0-0.2,0-0.3,0-0.5c0-0.2,0-0.4,0-0.6c0-0.2,0.1-0.4,0.1-0.6s0.1-0.4,0.2-0.5
	c0.1-0.1,0.2-0.3,0.4-0.3c0.2-0.1,0.3-0.1,0.6-0.1c0.2,0,0.4,0,0.6,0.1c0.2,0.1,0.3,0.2,0.4,0.3c0.1,0.1,0.2,0.3,0.2,0.5
	s0.1,0.4,0.1,0.6c0,0.2,0,0.4,0,0.6c0,0.2,0,0.4,0,0.5c0,0.3,0,0.5,0,0.8s-0.1,0.6-0.2,0.9c-0.1,0.3-0.2,0.5-0.4,0.7
	c-0.2,0.2-0.5,0.3-0.8,0.3c-0.3,0-0.6-0.1-0.8-0.3c-0.2-0.2-0.3-0.4-0.4-0.7c-0.1-0.3-0.1-0.6-0.2-0.9
	C299.5,4.1,299.5,3.8,299.5,3.6z M298.7,3.6c0,0.2,0,0.5,0,0.8c0,0.3,0,0.5,0.1,0.8c0.1,0.3,0.1,0.5,0.2,0.7
	c0.1,0.2,0.2,0.4,0.4,0.6c0.2,0.2,0.4,0.3,0.6,0.4c0.2,0.1,0.5,0.1,0.9,0.1c0.4,0,0.6,0,0.9-0.1c0.2-0.1,0.4-0.2,0.6-0.4
	c0.2-0.2,0.3-0.4,0.4-0.6c0.1-0.2,0.2-0.5,0.2-0.7c0.1-0.3,0.1-0.5,0.1-0.8c0-0.3,0-0.5,0-0.8c0-0.2,0-0.5,0-0.8
	c0-0.3,0-0.5-0.1-0.8c-0.1-0.3-0.1-0.5-0.2-0.7c-0.1-0.2-0.2-0.4-0.4-0.6c-0.2-0.2-0.4-0.3-0.6-0.4c-0.2-0.1-0.5-0.2-0.9-0.2
	s-0.6,0.1-0.9,0.2c-0.2,0.1-0.5,0.2-0.6,0.4c-0.2,0.2-0.3,0.4-0.4,0.6c-0.1,0.2-0.2,0.5-0.2,0.7c-0.1,0.3-0.1,0.5-0.1,0.8
	C298.7,3.1,298.7,3.4,298.7,3.6z"/>
<path d="M304.4,8.6C304.4,8.6,304.4,8.5,304.4,8.6l1.3-5.5c0-0.1,0.1-0.2,0.1-0.2c0.1-0.1,0.1-0.1,0.2-0.1c0.1,0,0.1,0,0.2,0.1
	c0.1,0,0.1,0.1,0.1,0.2c0,0,0,0,0,0.1s0,0,0,0l-0.5,2.1c-0.1,0.3-0.1,0.5-0.1,0.7c0,0.2,0.1,0.4,0.2,0.6c0.1,0.1,0.3,0.2,0.5,0.2
	c0.4,0,0.8-0.3,1.2-0.8c0,0,0,0,0,0s0,0,0,0l0.7-2.6c0-0.1,0.1-0.1,0.1-0.2c0.1-0.1,0.2-0.1,0.2-0.1c0.1,0,0.1,0,0.2,0.1
	c0.1,0,0.1,0.1,0.1,0.2c0,0,0,0.1,0,0.1l-0.7,2.6c0,0.2-0.1,0.3-0.1,0.4c0,0.3,0.1,0.4,0.3,0.4c0.2,0,0.3-0.1,0.4-0.4
	c0.1-0.2,0.2-0.5,0.2-0.8c0,0,0-0.1,0.1-0.1h0.1c0,0,0,0,0.1,0c0,0,0,0,0,0.1c-0.1,0.4-0.2,0.8-0.4,1c-0.1,0.3-0.3,0.4-0.6,0.4
	c-0.2,0-0.4-0.1-0.5-0.2c-0.2-0.1-0.3-0.3-0.3-0.5c-0.1,0.2-0.3,0.3-0.5,0.5c-0.2,0.1-0.4,0.2-0.6,0.2c-0.4,0-0.7-0.1-0.9-0.3
	L305,8.6c0,0.1-0.1,0.2-0.1,0.2c-0.1,0.1-0.2,0.1-0.2,0.1c-0.1,0-0.1,0-0.2-0.1C304.4,8.7,304.4,8.7,304.4,8.6z"/>
<path d="M313.2,2v4.9h0.8v-3c0-0.1,0-0.2,0.1-0.4c0-0.1,0.1-0.3,0.2-0.4c0.1-0.1,0.2-0.2,0.4-0.3c0.2-0.1,0.4-0.1,0.6-0.1
	c0.2,0,0.3,0,0.4,0.1s0.2,0.1,0.3,0.2c0.1,0.1,0.1,0.2,0.1,0.3c0,0.1,0,0.3,0,0.4v3.2h0.8v-3c0-0.4,0.1-0.7,0.3-0.9
	c0.2-0.2,0.5-0.3,0.9-0.3c0.2,0,0.4,0,0.5,0.1c0.1,0.1,0.2,0.1,0.3,0.2c0.1,0.1,0.1,0.2,0.1,0.3c0,0.1,0,0.3,0,0.4v3.2h0.8V3.3
	c0-0.3,0-0.5-0.1-0.6c-0.1-0.2-0.2-0.3-0.3-0.4C319.4,2.1,319.2,2,319,2c-0.2-0.1-0.4-0.1-0.7-0.1c-0.3,0-0.6,0.1-0.9,0.2
	c-0.3,0.1-0.5,0.3-0.6,0.6c-0.1-0.3-0.3-0.5-0.5-0.6c-0.2-0.1-0.5-0.2-0.8-0.2c-0.7,0-1.2,0.3-1.6,0.8h0V2H313.2z"/>
<path class="st2" d="M207.5,37.7l10.1,5.5l20.3,15.9l20.3,20.7l20.3,22.9l20.3,20.6l20.3,15l20.3,8.7l8.1,1.1"/>
<path class="st3" d="M207.5,79.3l10.1,2.1l20.3,7.3l20.3,11.1l20.3,13.9l20.3,14.1l20.3,11.6l20.3,7.7l8.1,1.2"/>
<path class="st4" d="M207.5,142.9l10.1-0.4l20.3-0.6l20.3,0.3l20.3,1.6l20.3,2.3l20.3,2.1l20.3,1.3l8.1,0.2"/>
<polygon class="st5" points="0,129.5 0,129.5 0,129.5 0,129.5 0,129.5 0,129.5 0,129.5 0,129.5 0,129.5 0,129.5 0,129.5 0,129.5 
	0,129.5 0,129.5 0,129.5 0,129.5 0,129.5 0,129.5 0,129.5 0,129.5 0,129.5 0,129.5 0,129.5 0,129.5 0,129.5 0,129.5 0,129.5 
	0,129.5 0,129.5 0,129.5 0,129.5 0,129.5 0,129.5 0,129.5 0,129.5 0,129.5 0,129.5 0,129.5 0,129.5 0,129.5 0,129.5 0,129.5 
	0,129.5 0,129.5 0,129.5 0,129.5 0,129.5 0,129.5 0,129.5 0,129.5 0,129.5 0,129.5 0,129.5 0,129.5 0,129.5 0,129.5 0,129.5 
	0,129.5 0,129.5 0,129.5 0,129.5 0,129.5 0,129.5 0,129.5 0,129.5 0,129.5 0,129.5 0,129.5 0,129.5 0,129.5 0,129.5 0,129.5 
	0,129.5 0,129.5 0,129.5 0,129.5 0,129.5 0,129.5 0,129.5 0,129.5 0,129.5 0,129.5 0,129.5 0,129.5 0,129.5 0,129.5 0,129.5 
	0,129.5 0,129.5 0,129.5 0,129.5 0,129.5 0,129.5 0,129.5 "/>
<g>
	<defs>
		<rect id="SVGID_1_" x="8" y="49.4" width="13.7" height="91.7"/>
	</defs>
	<clipPath id="SVGID_00000180328619806943940930000000474887236825591462_">
		<use xlink:href="#SVGID_1_"  style="overflow:visible;"/>
	</clipPath>
	<path style="clip-path:url(#SVGID_00000180328619806943940930000000474887236825591462_);" d="M13.7,134.4
		c-0.3-0.1-0.4-0.1-0.8-0.1c-0.9,0-1.5,0.6-1.5,1.6c0,1.1,0.7,1.8,1.2,2.2c-0.8,0.1-1.2,0.7-1.2,1.3c0,0.6,0.5,0.9,0.8,1
		c0.5,0.3,1.3,0.4,1.4,0.4c0.1,0,0.1-0.1,0.1-0.2c0-0.1,0-0.2-0.3-0.2c-1-0.2-1.7-0.5-1.7-1c0-0.2,0.1-0.4,0.6-0.4
		c0.3,0,0.4,0,1.2,0.2l3.2,0.8c0.2,0,0.5,0.1,0.6,0.1c0.3,0,0.4-0.2,0.4-0.4c0-0.2-0.1-0.4-0.4-0.5c0,0-0.7-0.2-1-0.3l-1.3-0.3
		c-0.3-0.1-0.6-0.2-0.9-0.2c-0.1,0-0.5-0.1-0.6-0.2c-0.1,0-0.9-0.5-1.3-1c-0.2-0.3-0.5-0.7-0.5-1.3c0-0.6,0.5-0.8,1-0.8
		c0.1,0,0.3,0,0.9,0.1l6.4,1.6c0.2,0,0.2,0,0.2,0c0.2,0,0.4-0.2,0.4-0.4c0-0.4-0.4-0.5-0.6-0.6L13.7,134.4"/>
	<path style="clip-path:url(#SVGID_00000180328619806943940930000000474887236825591462_);" d="M15.7,120.3c0-0.2,0-0.5-0.3-0.5
		c-0.3,0-0.3,0.3-0.3,0.5v8.4c0,0.2,0,0.5,0.3,0.5c0.3,0,0.3-0.3,0.3-0.5V120.3 M13,120.3c0-0.2,0-0.5-0.3-0.5
		c-0.3,0-0.3,0.3-0.3,0.5v8.4c0,0.2,0,0.5,0.3,0.5c0.3,0,0.3-0.3,0.3-0.5V120.3z"/>
	<path style="clip-path:url(#SVGID_00000180328619806943940930000000474887236825591462_);" d="M9.1,109.9c-0.5-0.1-0.6-0.2-0.6-1.3
		c0-0.3,0-0.4-0.3-0.4c-0.2,0-0.2,0.2-0.2,0.2c0,0.4,0,1.4,0,1.8c0,0.4,0,1.4,0,1.9c0,0.1,0,0.3,0.3,0.3c0.2,0,0.2-0.1,0.2-0.4
		c0-0.6,0-1,0.3-1c0.1,0,0.1,0,0.2,0l7.6,1.9c0.5,0.1,0.7,0.2,0.7,1.3c0,0.3,0,0.4,0.3,0.4c0.2,0,0.2-0.2,0.2-0.2c0-0.4,0-1.4,0-1.8
		c0-0.4,0-1.5,0-1.9c0-0.1,0-0.3-0.3-0.3c-0.2,0-0.2,0.1-0.2,0.4c0,0.3,0,0.3,0,0.6c0,0.3-0.1,0.4-0.2,0.4c-0.1,0-0.2,0-0.3-0.1
		L9.1,109.9"/>
	<path style="clip-path:url(#SVGID_00000180328619806943940930000000474887236825591462_);" d="M17.5,104.7c0.5,0,1,0,1.4,0.3
		c0.4,0.3,0.6,0.7,0.6,1.2c0,0.4-0.1,0.9-0.6,1.2c-0.4,0.3-0.9,0.3-1.4,0.3c-0.4,0-1,0-1.4-0.4c-0.3-0.2-0.5-0.7-0.5-1.2
		c0-0.6,0.3-1,0.6-1.2C16.6,104.8,17.1,104.7,17.5,104.7 M17.6,103.8c-1.2,0-2.3,1-2.3,2.4c0,1.3,1.1,2.4,2.3,2.4
		c1.2,0,2.2-1.1,2.2-2.4C19.8,104.9,18.8,103.8,17.6,103.8z"/>
	<path style="clip-path:url(#SVGID_00000180328619806943940930000000474887236825591462_);" d="M17.6,98.6c1.1,0,1.9,0.7,1.9,1.6
		c0,0.9-0.8,1.2-0.8,1.3h-2.3c-0.5-0.3-0.7-0.9-0.7-1.4C15.7,99.2,16.6,98.6,17.6,98.6 M17.6,97.7c-1.2,0-2.2,1-2.2,2.2
		c0,0.6,0.2,1.1,0.6,1.5h-0.6l0.1,1.5h0.4c0-0.7,0-0.7,0.5-0.7h4.5c0.4,0,0.4,0.1,0.4,0.7h0.4c0,0,0-0.7,0-1.1c0-0.4,0-1,0-1.1h-0.4
		c0,0.6,0,0.7-0.4,0.7h-1.6c0,0,0.6-0.5,0.6-1.3C19.8,98.8,18.8,97.7,17.6,97.7z"/>
	<path style="clip-path:url(#SVGID_00000180328619806943940930000000474887236825591462_);" d="M18.5,93.6h-0.5v0.3h0.5
		c0.7,0,1,0.3,1,0.7c0,0.7-0.8,0.7-1,0.7h-2.6v-1.5h-0.4v1.5h-1.8v0.3c0.9,0,1.8,0.4,1.9,1.3h0.3V96h2.6c1.1,0,1.3-0.8,1.3-1.4
		C19.8,94,19.2,93.6,18.5,93.6"/>
	<path style="clip-path:url(#SVGID_00000180328619806943940930000000474887236825591462_);" d="M14.4,79.8c0-0.2,0-0.5-0.3-0.5
		c-0.3,0-0.3,0.3-0.3,0.5v7.6c0,0.2,0,0.5,0.3,0.5c0.3,0,0.3-0.3,0.3-0.5V79.8"/>
	<path style="clip-path:url(#SVGID_00000180328619806943940930000000474887236825591462_);" d="M9.1,69.8c-0.5-0.1-0.6-0.2-0.6-1.3
		c0-0.3,0-0.4-0.3-0.4C8,68.1,8,68.3,8,68.3c0,0.4,0,1.4,0,1.8c0,0.4,0,1.4,0,1.9c0,0.1,0,0.3,0.3,0.3c0.2,0,0.2-0.1,0.2-0.4
		c0-0.6,0-1,0.3-1c0.1,0,0.1,0,0.2,0l7.6,1.9c0.5,0.1,0.7,0.2,0.7,1.3c0,0.3,0,0.4,0.3,0.4c0.2,0,0.2-0.2,0.2-0.2c0-0.4,0-1.4,0-1.8
		c0-0.4,0-1.5,0-1.9c0-0.1,0-0.3-0.3-0.3c-0.2,0-0.2,0.1-0.2,0.4c0,0.3,0,0.3,0,0.6c0,0.3-0.1,0.4-0.2,0.4c-0.1,0-0.2,0-0.3-0.1
		L9.1,69.8"/>
	<path style="clip-path:url(#SVGID_00000180328619806943940930000000474887236825591462_);" d="M19.7,63.1h-0.4
		c0,0.7-0.1,0.7-0.5,0.7h-3.4l0.1,1.5h0.4c0-0.7,0.1-0.7,0.5-0.7h1.7c0.9,0,1.5,0.6,1.5,1.3c0,0.9-0.4,0.9-0.9,0.9h-3.2l0.1,1.5h0.4
		c0-0.7,0-0.7,0.9-0.7h1.5c0.7,0,1.6,0,1.6-1.6c0-0.2,0-0.9-0.8-1.4v0h0.8L19.7,63.1"/>
	<path style="clip-path:url(#SVGID_00000180328619806943940930000000474887236825591462_);" d="M19.7,57h-0.4c0,0.6,0,0.7-0.4,0.7
		h-2.2c-0.9,0-1.3,0.4-1.3,1.5c0,0.8,0.4,1.3,0.9,1.6v0h-0.9l0.1,1.4h0.4c0-0.7,0.1-0.7,0.5-0.7h2.5c0.4,0,0.4,0.1,0.4,0.7h0.4
		c0,0,0-0.7,0-1.1c0-0.4,0-1,0-1.1h-0.4c0,0.6,0,0.7-0.4,0.7h-1.8c-1,0-1.5-0.8-1.5-1.5c0-0.7,0.5-0.8,1-0.8h2.2
		c0.4,0,0.4,0.1,0.4,0.7h0.4c0,0,0-0.7,0-1.1C19.7,57.7,19.7,57.1,19.7,57"/>
	<path style="clip-path:url(#SVGID_00000180328619806943940930000000474887236825591462_);" d="M13.8,54.4c-0.3,0-0.6,0.2-0.6,0.6
		c0,0.3,0.3,0.6,0.6,0.6c0.3,0,0.6-0.2,0.6-0.6C14.4,54.7,14.1,54.4,13.8,54.4 M19.7,53.9h-0.4c0,0.6,0,0.7-0.4,0.7h-3.5l0.1,1.4
		h0.4c0-0.6,0.1-0.7,0.5-0.7h2.5c0.4,0,0.4,0.1,0.4,0.7h0.4c0,0,0-0.7,0-1.1C19.7,54.6,19.7,54.2,19.7,53.9z"/>
	<path style="clip-path:url(#SVGID_00000180328619806943940930000000474887236825591462_);" d="M13.5,49.5c-0.4,0-0.7,0.4-0.7,1
		c0,0.8,0.5,1.7,1.6,1.7h1.1v0.8h0.4v-0.8h3.1c0.4,0,0.4,0.1,0.4,0.7h0.4c0,0,0-0.7,0-1.1l0-1.3h-0.4v0.2c0,0.7-0.1,0.7-0.4,0.7
		h-3.1v-1.2h-0.4v1.3h-1.1c-0.9,0-1.3-0.5-1.3-0.9c0-0.1,0-0.2,0-0.3c0.1,0.1,0.2,0.2,0.4,0.2c0.3,0,0.4-0.2,0.4-0.4
		C14,49.7,13.8,49.5,13.5,49.5"/>
	
		<path style="opacity:0;clip-path:url(#SVGID_00000180328619806943940930000000474887236825591462_);fill:none;stroke:#000000;stroke-width:9.999999e-07;stroke-miterlimit:10;" d="
		M14.8,95.2"/>
</g>
<polygon class="st5" points="15.2,97.9 15.2,97.9 15.2,97.9 15.2,97.9 15.2,97.9 15.2,97.9 15.2,97.9 15.2,97.9 15.2,97.9 
	15.2,97.9 15.2,97.9 15.2,97.9 15.2,97.9 15.2,97.9 15.2,97.9 15.2,97.9 15.2,97.9 15.2,97.9 15.2,97.9 15.2,97.9 15.2,97.9 
	15.2,97.9 15.2,97.9 15.2,97.9 15.2,97.9 15.2,97.9 15.2,97.9 15.2,97.9 15.2,97.9 15.2,97.9 15.2,97.9 15.2,97.9 15.2,97.9 
	15.2,97.9 15.2,97.9 15.2,97.9 15.2,97.9 15.2,97.9 15.2,97.9 15.2,97.9 15.2,97.9 15.2,97.9 15.2,97.9 15.2,97.9 15.2,97.9 
	15.2,97.9 15.2,97.9 15.2,97.9 15.2,97.9 15.2,97.9 15.2,97.9 15.2,97.9 15.2,97.9 15.2,97.9 15.2,97.9 15.2,97.9 15.2,97.9 
	15.2,97.9 15.2,97.9 15.2,97.9 15.2,97.9 15.2,97.9 15.2,97.9 15.2,97.9 15.2,97.9 15.2,97.9 15.2,97.9 15.2,97.9 15.2,97.9 
	15.2,97.9 15.2,97.9 15.2,97.9 15.2,97.9 15.2,97.9 15.2,97.9 15.2,97.9 15.2,97.9 15.2,97.9 15.2,97.9 15.2,97.9 15.2,97.9 
	15.2,97.9 15.2,97.9 15.2,97.9 15.2,97.9 15.2,97.9 15.2,97.9 15.2,97.9 15.2,97.9 15.2,97.9 15.2,97.9 15.2,97.9 15.2,97.9 
	15.2,97.9 15.2,97.9 "/>
<text transform="matrix(0 -1 1 0 16.8323 42.6173)" class="st8 st9 st10">(bits)</text>
<path d="M153.1,19.9h0.6c0-0.3-0.1-0.5-0.2-0.7c-0.1-0.2-0.2-0.4-0.4-0.5c-0.2-0.1-0.4-0.2-0.6-0.3c-0.2-0.1-0.5-0.1-0.7-0.1
	c-0.2,0-0.5,0-0.7,0.1c-0.2,0.1-0.4,0.2-0.6,0.3c-0.2,0.1-0.3,0.3-0.4,0.5c-0.1,0.2-0.2,0.4-0.2,0.7c0,0.2,0,0.4,0.1,0.6
	c0.1,0.2,0.2,0.3,0.4,0.4c0.2,0.1,0.3,0.2,0.5,0.2c0.2,0.1,0.4,0.1,0.6,0.2c0.2,0,0.4,0.1,0.6,0.1c0.2,0,0.4,0.1,0.5,0.2
	c0.2,0.1,0.3,0.2,0.4,0.3c0.1,0.1,0.1,0.3,0.1,0.4c0,0.2,0,0.3-0.1,0.5c-0.1,0.1-0.2,0.2-0.3,0.3s-0.3,0.1-0.4,0.1
	c-0.2,0-0.3,0-0.5,0c-0.2,0-0.4,0-0.6-0.1c-0.2,0-0.3-0.1-0.5-0.2c-0.1-0.1-0.2-0.2-0.3-0.4c-0.1-0.2-0.1-0.3-0.1-0.6h-0.6
	c0,0.3,0.1,0.6,0.2,0.8c0.1,0.2,0.3,0.4,0.5,0.6c0.2,0.1,0.4,0.3,0.7,0.3c0.3,0.1,0.5,0.1,0.8,0.1c0.2,0,0.5,0,0.7-0.1
	c0.2-0.1,0.4-0.1,0.6-0.3c0.2-0.1,0.3-0.3,0.5-0.5c0.1-0.2,0.2-0.4,0.2-0.7c0-0.3,0-0.5-0.1-0.6c-0.1-0.2-0.2-0.3-0.4-0.4
	c-0.2-0.1-0.3-0.2-0.5-0.3c-0.2-0.1-0.4-0.1-0.6-0.2c-0.2,0-0.4-0.1-0.6-0.1c-0.2,0-0.4-0.1-0.5-0.2c-0.2-0.1-0.3-0.1-0.4-0.2
	c-0.1-0.1-0.1-0.2-0.1-0.4c0-0.2,0-0.3,0.1-0.4c0.1-0.1,0.2-0.2,0.3-0.3c0.1-0.1,0.2-0.1,0.4-0.1c0.1,0,0.3,0,0.4,0
	c0.4,0,0.6,0.1,0.9,0.2C152.9,19.3,153,19.5,153.1,19.9z M155.1,21.7c0-0.2,0-0.4,0.1-0.6c0.1-0.2,0.1-0.3,0.2-0.4
	c0.1-0.1,0.2-0.2,0.4-0.3c0.1-0.1,0.3-0.1,0.4-0.1c0.2,0,0.3,0,0.4,0.1c0.1,0.1,0.3,0.2,0.4,0.3c0.1,0.1,0.2,0.3,0.2,0.4
	c0.1,0.2,0.1,0.4,0.1,0.6c0,0.2,0,0.4-0.1,0.6c-0.1,0.2-0.1,0.3-0.2,0.4c-0.1,0.1-0.2,0.2-0.4,0.3c-0.1,0.1-0.3,0.1-0.4,0.1
	c-0.2,0-0.3,0-0.4-0.1c-0.1-0.1-0.3-0.2-0.4-0.3c-0.1-0.1-0.2-0.3-0.2-0.4C155.1,22.1,155.1,21.9,155.1,21.7z M154.5,21.7
	c0,0.3,0,0.5,0.1,0.8c0.1,0.2,0.2,0.4,0.3,0.6c0.2,0.2,0.3,0.3,0.6,0.4c0.2,0.1,0.5,0.1,0.8,0.1c0.3,0,0.6,0,0.8-0.1
	c0.2-0.1,0.4-0.2,0.6-0.4c0.2-0.2,0.3-0.4,0.3-0.6c0.1-0.2,0.1-0.5,0.1-0.8c0-0.3,0-0.5-0.1-0.8c-0.1-0.2-0.2-0.4-0.3-0.6
	c-0.2-0.2-0.3-0.3-0.6-0.4c-0.2-0.1-0.5-0.2-0.8-0.2c-0.3,0-0.5,0.1-0.8,0.2c-0.2,0.1-0.4,0.2-0.6,0.4c-0.2,0.2-0.3,0.4-0.3,0.6
	C154.5,21.1,154.5,21.4,154.5,21.7z M159.4,19.2v-0.7h-0.6v0.7H159.4z M158.8,19.8v3.7h0.6v-3.7H158.8z M160.4,18.4v5.1h0.6v-5.1
	H160.4z"/>
<line class="st11" x1="126.8" y1="21.1" x2="147.5" y2="21.1"/>
<path d="M151.3,28v4.5h0.7V28h1.7v-0.6h-4.1V28H151.3z M154.8,28.1v-0.7h-0.6v0.7H154.8z M154.2,28.8v3.7h0.6v-3.7H154.2z
	 M156.1,31.3h-0.6c0,0.2,0.1,0.4,0.1,0.6c0.1,0.2,0.2,0.3,0.3,0.4c0.1,0.1,0.3,0.2,0.5,0.2c0.2,0,0.4,0.1,0.6,0.1
	c0.2,0,0.4,0,0.6-0.1c0.2,0,0.4-0.1,0.5-0.2c0.2-0.1,0.3-0.2,0.4-0.4c0.1-0.1,0.1-0.3,0.1-0.6c0-0.2,0-0.3-0.1-0.4
	c-0.1-0.1-0.2-0.2-0.3-0.3c-0.1-0.1-0.2-0.1-0.4-0.2c-0.1,0-0.3-0.1-0.4-0.1c-0.1,0-0.3-0.1-0.4-0.1c-0.1,0-0.3-0.1-0.4-0.1
	c-0.1,0-0.2-0.1-0.3-0.2c-0.1-0.1-0.1-0.2-0.1-0.3c0-0.1,0-0.2,0.1-0.2c0-0.1,0.1-0.1,0.2-0.1c0.1,0,0.2-0.1,0.3-0.1
	c0.1,0,0.2,0,0.3,0c0.1,0,0.2,0,0.3,0c0.1,0,0.2,0.1,0.3,0.1c0.1,0,0.1,0.1,0.2,0.2c0.1,0.1,0.1,0.2,0.1,0.3h0.6
	c0-0.2-0.1-0.4-0.1-0.6s-0.2-0.3-0.3-0.4c-0.1-0.1-0.3-0.2-0.5-0.2c-0.2,0-0.4-0.1-0.6-0.1c-0.2,0-0.3,0-0.5,0.1
	c-0.2,0-0.3,0.1-0.4,0.2c-0.1,0.1-0.2,0.2-0.3,0.3c-0.1,0.1-0.1,0.3-0.1,0.5c0,0.2,0.1,0.4,0.2,0.6c0.1,0.1,0.3,0.2,0.4,0.3
	c0.2,0.1,0.4,0.1,0.6,0.2c0.2,0,0.4,0.1,0.6,0.1c0.2,0.1,0.3,0.1,0.4,0.2c0.1,0.1,0.2,0.2,0.2,0.4c0,0.1,0,0.2-0.1,0.3
	c-0.1,0.1-0.1,0.1-0.2,0.2c-0.1,0-0.2,0.1-0.3,0.1c-0.1,0-0.2,0-0.3,0c-0.1,0-0.2,0-0.4,0c-0.1,0-0.2-0.1-0.3-0.1
	c-0.1-0.1-0.2-0.1-0.2-0.2C156.1,31.6,156.1,31.5,156.1,31.3z M159.7,31.3h-0.6c0,0.2,0.1,0.4,0.1,0.6c0.1,0.2,0.2,0.3,0.3,0.4
	c0.1,0.1,0.3,0.2,0.5,0.2c0.2,0,0.4,0.1,0.6,0.1c0.2,0,0.4,0,0.6-0.1c0.2,0,0.4-0.1,0.5-0.2c0.2-0.1,0.3-0.2,0.4-0.4
	c0.1-0.1,0.1-0.3,0.1-0.6c0-0.2,0-0.3-0.1-0.4c-0.1-0.1-0.2-0.2-0.3-0.3c-0.1-0.1-0.2-0.1-0.4-0.2c-0.1,0-0.3-0.1-0.4-0.1
	c-0.1,0-0.3-0.1-0.4-0.1c-0.1,0-0.3-0.1-0.4-0.1c-0.1,0-0.2-0.1-0.3-0.2c-0.1-0.1-0.1-0.2-0.1-0.3c0-0.1,0-0.2,0.1-0.2
	c0-0.1,0.1-0.1,0.2-0.1c0.1,0,0.2-0.1,0.3-0.1c0.1,0,0.2,0,0.3,0c0.1,0,0.2,0,0.3,0c0.1,0,0.2,0.1,0.3,0.1c0.1,0,0.1,0.1,0.2,0.2
	c0.1,0.1,0.1,0.2,0.1,0.3h0.6c0-0.2-0.1-0.4-0.1-0.6s-0.2-0.3-0.3-0.4c-0.1-0.1-0.3-0.2-0.5-0.2c-0.2,0-0.4-0.1-0.6-0.1
	c-0.2,0-0.3,0-0.5,0.1s-0.3,0.1-0.4,0.2c-0.1,0.1-0.2,0.2-0.3,0.3c-0.1,0.1-0.1,0.3-0.1,0.5c0,0.2,0.1,0.4,0.2,0.6
	c0.1,0.1,0.3,0.2,0.4,0.3c0.2,0.1,0.4,0.1,0.6,0.2c0.2,0,0.4,0.1,0.6,0.1c0.2,0.1,0.3,0.1,0.4,0.2c0.1,0.1,0.2,0.2,0.2,0.4
	c0,0.1,0,0.2-0.1,0.3c-0.1,0.1-0.1,0.1-0.2,0.2c-0.1,0-0.2,0.1-0.3,0.1c-0.1,0-0.2,0-0.3,0c-0.1,0-0.2,0-0.4,0
	c-0.1,0-0.2-0.1-0.3-0.1c-0.1-0.1-0.2-0.1-0.2-0.2C159.7,31.6,159.7,31.5,159.7,31.3z M165.9,32.5v-3.7h-0.6v2.1
	c0,0.2,0,0.3-0.1,0.5c0,0.1-0.1,0.3-0.2,0.4s-0.2,0.2-0.3,0.2c-0.1,0.1-0.3,0.1-0.5,0.1c-0.2,0-0.4-0.1-0.6-0.2
	c-0.1-0.1-0.2-0.3-0.2-0.5v-2.5h-0.6v2.4c0,0.2,0,0.4,0.1,0.5c0,0.2,0.1,0.3,0.2,0.4c0.1,0.1,0.2,0.2,0.4,0.3
	c0.2,0.1,0.4,0.1,0.6,0.1c0.3,0,0.5-0.1,0.7-0.2c0.2-0.1,0.4-0.3,0.5-0.5h0v0.6H165.9z M169.4,30.3h-2.1c0-0.1,0-0.3,0.1-0.4
	c0.1-0.1,0.1-0.2,0.2-0.3c0.1-0.1,0.2-0.2,0.3-0.2c0.1-0.1,0.3-0.1,0.4-0.1c0.2,0,0.3,0,0.4,0.1c0.1,0.1,0.2,0.1,0.3,0.2
	c0.1,0.1,0.2,0.2,0.2,0.3C169.4,30,169.4,30.1,169.4,30.3z M170,31.3h-0.6c-0.1,0.2-0.2,0.4-0.3,0.5c-0.2,0.1-0.4,0.2-0.6,0.2
	c-0.2,0-0.4,0-0.5-0.1c-0.1-0.1-0.3-0.2-0.4-0.3c-0.1-0.1-0.2-0.2-0.2-0.4s-0.1-0.3-0.1-0.5h2.8c0-0.2,0-0.5-0.1-0.7
	c-0.1-0.2-0.1-0.5-0.3-0.7c-0.1-0.2-0.3-0.4-0.5-0.5c-0.2-0.1-0.5-0.2-0.8-0.2c-0.3,0-0.5,0-0.7,0.1c-0.2,0.1-0.4,0.2-0.6,0.4
	c-0.2,0.2-0.3,0.4-0.4,0.6s-0.1,0.5-0.1,0.8c0,0.3,0.1,0.5,0.1,0.8c0.1,0.2,0.2,0.4,0.3,0.6c0.1,0.2,0.3,0.3,0.5,0.4
	s0.5,0.1,0.8,0.1c0.4,0,0.8-0.1,1-0.3C169.8,32.1,169.9,31.7,170,31.3z"/>
<line class="st12" x1="126.8" y1="30.1" x2="147.5" y2="30.1"/>
<path d="M153.9,40.8l0.2,0.6h0.4v-2.7h-2.2v0.6h1.6c0,0.2,0,0.5-0.1,0.7c-0.1,0.2-0.2,0.4-0.3,0.5c-0.1,0.2-0.3,0.3-0.5,0.4
	c-0.2,0.1-0.4,0.1-0.7,0.1c-0.3,0-0.5-0.1-0.8-0.2s-0.4-0.3-0.5-0.5c-0.1-0.2-0.3-0.4-0.3-0.7c-0.1-0.2-0.1-0.5-0.1-0.8
	c0-0.3,0-0.5,0.1-0.8c0.1-0.3,0.2-0.5,0.3-0.7c0.1-0.2,0.3-0.4,0.5-0.5c0.2-0.1,0.5-0.2,0.8-0.2c0.2,0,0.4,0,0.5,0.1
	c0.2,0,0.3,0.1,0.5,0.2c0.1,0.1,0.2,0.2,0.3,0.3c0.1,0.1,0.2,0.3,0.2,0.5h0.7c0-0.3-0.1-0.6-0.3-0.8c-0.1-0.2-0.3-0.4-0.5-0.5
	c-0.2-0.1-0.4-0.2-0.7-0.3c-0.2-0.1-0.5-0.1-0.8-0.1c-0.4,0-0.8,0.1-1.1,0.2c-0.3,0.2-0.6,0.4-0.8,0.6c-0.2,0.3-0.4,0.5-0.5,0.9
	c-0.1,0.3-0.2,0.7-0.2,1.1c0,0.3,0.1,0.7,0.2,1c0.1,0.3,0.3,0.6,0.5,0.8c0.2,0.2,0.5,0.4,0.8,0.6c0.3,0.1,0.6,0.2,1,0.2
	c0.3,0,0.6-0.1,0.9-0.2C153.5,41.3,153.7,41.1,153.9,40.8z M155.4,37.8v3.7h0.6v-1.6c0-0.2,0-0.4,0.1-0.6c0-0.2,0.1-0.3,0.2-0.5
	c0.1-0.1,0.2-0.2,0.4-0.3c0.2-0.1,0.4-0.1,0.6-0.1v-0.6c-0.3,0-0.6,0.1-0.8,0.2c-0.2,0.1-0.4,0.4-0.5,0.7h0v-0.8H155.4z M161.1,41.5
	c-0.1,0.1-0.3,0.1-0.4,0.1c-0.2,0-0.3,0-0.4-0.1c-0.1-0.1-0.1-0.2-0.1-0.4c-0.2,0.2-0.4,0.3-0.6,0.4c-0.2,0.1-0.5,0.1-0.7,0.1
	c-0.2,0-0.3,0-0.5-0.1c-0.2,0-0.3-0.1-0.4-0.2s-0.2-0.2-0.3-0.3c-0.1-0.1-0.1-0.3-0.1-0.5c0-0.2,0-0.4,0.1-0.5
	c0.1-0.1,0.2-0.2,0.3-0.3c0.1-0.1,0.3-0.1,0.4-0.2s0.3-0.1,0.5-0.1c0.2,0,0.3-0.1,0.5-0.1s0.3,0,0.4-0.1c0.1,0,0.2-0.1,0.3-0.1
	c0.1-0.1,0.1-0.1,0.1-0.3c0-0.1,0-0.2-0.1-0.3c-0.1-0.1-0.1-0.1-0.2-0.2c-0.1,0-0.2-0.1-0.3-0.1c-0.1,0-0.2,0-0.3,0
	c-0.3,0-0.5,0-0.6,0.1c-0.2,0.1-0.3,0.3-0.3,0.6h-0.6c0-0.2,0.1-0.4,0.1-0.6c0.1-0.2,0.2-0.3,0.3-0.4c0.1-0.1,0.3-0.2,0.5-0.2
	c0.2,0,0.4-0.1,0.6-0.1c0.2,0,0.3,0,0.5,0c0.2,0,0.3,0.1,0.4,0.1s0.2,0.2,0.3,0.3s0.1,0.3,0.1,0.5v1.9c0,0.1,0,0.2,0,0.3
	c0,0.1,0.1,0.1,0.2,0.1c0.1,0,0.1,0,0.2,0V41.5z M160.1,39.6c-0.1,0.1-0.2,0.1-0.3,0.1s-0.3,0-0.4,0.1s-0.3,0-0.4,0.1
	c-0.1,0-0.3,0.1-0.4,0.1c-0.1,0-0.2,0.1-0.3,0.2c-0.1,0.1-0.1,0.2-0.1,0.4c0,0.1,0,0.2,0.1,0.3c0,0.1,0.1,0.1,0.2,0.2
	c0.1,0,0.1,0.1,0.2,0.1c0.1,0,0.2,0,0.3,0c0.2,0,0.4,0,0.5-0.1c0.1-0.1,0.3-0.1,0.4-0.2c0.1-0.1,0.2-0.2,0.2-0.3
	c0-0.1,0.1-0.2,0.1-0.3V39.6z M162.1,39.7c0-0.2,0-0.4,0.1-0.5c0-0.2,0.1-0.3,0.2-0.5c0.1-0.1,0.2-0.2,0.3-0.3
	c0.1-0.1,0.3-0.1,0.5-0.1c0.2,0,0.4,0,0.5,0.1s0.3,0.2,0.4,0.3c0.1,0.1,0.2,0.3,0.2,0.4c0,0.2,0.1,0.3,0.1,0.5c0,0.2,0,0.3-0.1,0.5
	c0,0.2-0.1,0.3-0.2,0.4c-0.1,0.1-0.2,0.2-0.4,0.3c-0.1,0.1-0.3,0.1-0.5,0.1c-0.2,0-0.4,0-0.5-0.1c-0.1-0.1-0.3-0.2-0.4-0.3
	c-0.1-0.1-0.2-0.3-0.2-0.4C162.1,40,162.1,39.8,162.1,39.7z M165,41.5v-5.1h-0.6v1.9h0c-0.1-0.1-0.1-0.2-0.2-0.3
	c-0.1-0.1-0.2-0.1-0.3-0.2c-0.1,0-0.2-0.1-0.3-0.1c-0.1,0-0.2,0-0.3,0c-0.3,0-0.5,0.1-0.7,0.2c-0.2,0.1-0.4,0.2-0.5,0.4
	c-0.1,0.2-0.2,0.4-0.3,0.6c-0.1,0.2-0.1,0.5-0.1,0.7s0,0.5,0.1,0.7c0.1,0.2,0.2,0.4,0.3,0.6c0.1,0.2,0.3,0.3,0.5,0.4
	c0.2,0.1,0.5,0.2,0.7,0.2c0.3,0,0.5,0,0.7-0.1c0.2-0.1,0.4-0.2,0.5-0.4h0v0.5H165z M166.6,37.1v-0.7H166v0.7H166.6z M166,37.8v3.7
	h0.6v-3.7H166z M170.1,39.3H168c0-0.1,0-0.3,0.1-0.4c0.1-0.1,0.1-0.2,0.2-0.3c0.1-0.1,0.2-0.2,0.3-0.2c0.1-0.1,0.3-0.1,0.4-0.1
	c0.2,0,0.3,0,0.4,0.1c0.1,0.1,0.2,0.1,0.3,0.2c0.1,0.1,0.2,0.2,0.2,0.3C170,39,170.1,39.1,170.1,39.3z M170.7,40.3h-0.6
	c-0.1,0.2-0.2,0.4-0.3,0.5s-0.4,0.2-0.6,0.2c-0.2,0-0.4,0-0.5-0.1c-0.1-0.1-0.3-0.2-0.4-0.3c-0.1-0.1-0.2-0.2-0.2-0.4
	S168,40,168,39.8h2.8c0-0.2,0-0.5-0.1-0.7c-0.1-0.2-0.1-0.5-0.3-0.7c-0.1-0.2-0.3-0.4-0.5-0.5s-0.5-0.2-0.8-0.2
	c-0.3,0-0.5,0-0.7,0.1c-0.2,0.1-0.4,0.2-0.6,0.4c-0.2,0.2-0.3,0.4-0.4,0.6c-0.1,0.2-0.1,0.5-0.1,0.8c0,0.3,0.1,0.5,0.1,0.8
	c0.1,0.2,0.2,0.4,0.3,0.6c0.1,0.2,0.3,0.3,0.5,0.4c0.2,0.1,0.5,0.1,0.8,0.1c0.4,0,0.8-0.1,1-0.3C170.4,41,170.6,40.7,170.7,40.3z
	 M171.4,37.8v3.7h0.6v-2.1c0-0.2,0-0.3,0.1-0.5c0-0.1,0.1-0.3,0.2-0.4c0.1-0.1,0.2-0.2,0.3-0.2c0.1-0.1,0.3-0.1,0.5-0.1
	c0.2,0,0.4,0.1,0.6,0.2c0.1,0.1,0.2,0.3,0.2,0.5v2.5h0.6V39c0-0.2,0-0.4-0.1-0.5s-0.1-0.3-0.2-0.4c-0.1-0.1-0.2-0.2-0.4-0.3
	c-0.2-0.1-0.4-0.1-0.6-0.1c-0.5,0-0.9,0.2-1.2,0.7h0v-0.6H171.4z M176.2,37.8v-1.1h-0.6v1.1h-0.6v0.5h0.6v2.4c0,0.2,0,0.3,0.1,0.4
	c0,0.1,0.1,0.2,0.2,0.2c0.1,0.1,0.2,0.1,0.3,0.1c0.1,0,0.2,0,0.4,0h0.5v-0.5h-0.3c-0.1,0-0.2,0-0.2,0c-0.1,0-0.1,0-0.1,0
	c0,0-0.1-0.1-0.1-0.1c0,0,0-0.1,0-0.2v-2.3h0.7v-0.5H176.2z"/>
<line class="st13" x1="126.8" y1="39.1" x2="147.5" y2="39.1"/>
<path d="M315.1,19.2h0.6c0-0.3-0.1-0.5-0.2-0.7c-0.1-0.2-0.2-0.4-0.4-0.5c-0.2-0.1-0.4-0.2-0.6-0.3c-0.2-0.1-0.5-0.1-0.7-0.1
	c-0.2,0-0.5,0-0.7,0.1c-0.2,0.1-0.4,0.2-0.6,0.3s-0.3,0.3-0.4,0.5c-0.1,0.2-0.2,0.4-0.2,0.7c0,0.2,0,0.4,0.1,0.6
	c0.1,0.2,0.2,0.3,0.4,0.4c0.2,0.1,0.3,0.2,0.5,0.2c0.2,0.1,0.4,0.1,0.6,0.2c0.2,0,0.4,0.1,0.6,0.1c0.2,0,0.4,0.1,0.5,0.2
	c0.2,0.1,0.3,0.2,0.4,0.3c0.1,0.1,0.1,0.3,0.1,0.4c0,0.2,0,0.3-0.1,0.5c-0.1,0.1-0.2,0.2-0.3,0.3c-0.1,0.1-0.3,0.1-0.4,0.1
	c-0.2,0-0.3,0-0.5,0c-0.2,0-0.4,0-0.6-0.1c-0.2,0-0.3-0.1-0.5-0.2c-0.1-0.1-0.2-0.2-0.3-0.4c-0.1-0.2-0.1-0.3-0.1-0.6h-0.6
	c0,0.3,0.1,0.6,0.2,0.8c0.1,0.2,0.3,0.4,0.5,0.6c0.2,0.1,0.4,0.3,0.7,0.3c0.3,0.1,0.5,0.1,0.8,0.1c0.2,0,0.5,0,0.7-0.1
	c0.2-0.1,0.4-0.1,0.6-0.3c0.2-0.1,0.3-0.3,0.5-0.5c0.1-0.2,0.2-0.4,0.2-0.7c0-0.3,0-0.5-0.1-0.6c-0.1-0.2-0.2-0.3-0.4-0.4
	c-0.2-0.1-0.3-0.2-0.5-0.3c-0.2-0.1-0.4-0.1-0.6-0.2c-0.2,0-0.4-0.1-0.6-0.1c-0.2,0-0.4-0.1-0.5-0.2c-0.2-0.1-0.3-0.1-0.4-0.2
	c-0.1-0.1-0.1-0.2-0.1-0.4c0-0.2,0-0.3,0.1-0.4c0.1-0.1,0.2-0.2,0.3-0.3c0.1-0.1,0.2-0.1,0.4-0.1c0.1,0,0.3,0,0.4,0
	c0.4,0,0.6,0.1,0.9,0.2C315,18.6,315.1,18.8,315.1,19.2z M317.2,21c0-0.2,0-0.4,0.1-0.6c0.1-0.2,0.1-0.3,0.2-0.4
	c0.1-0.1,0.2-0.2,0.4-0.3c0.1-0.1,0.3-0.1,0.4-0.1s0.3,0,0.4,0.1c0.1,0.1,0.3,0.2,0.4,0.3c0.1,0.1,0.2,0.3,0.2,0.4
	c0.1,0.2,0.1,0.4,0.1,0.6c0,0.2,0,0.4-0.1,0.6c-0.1,0.2-0.1,0.3-0.2,0.4c-0.1,0.1-0.2,0.2-0.4,0.3c-0.1,0.1-0.3,0.1-0.4,0.1
	s-0.3,0-0.4-0.1c-0.1-0.1-0.3-0.2-0.4-0.3c-0.1-0.1-0.2-0.3-0.2-0.4C317.2,21.4,317.2,21.2,317.2,21z M316.5,21c0,0.3,0,0.5,0.1,0.8
	s0.2,0.4,0.3,0.6c0.2,0.2,0.3,0.3,0.6,0.4c0.2,0.1,0.5,0.1,0.8,0.1c0.3,0,0.6,0,0.8-0.1c0.2-0.1,0.4-0.2,0.6-0.4s0.3-0.4,0.3-0.6
	c0.1-0.2,0.1-0.5,0.1-0.8c0-0.3,0-0.5-0.1-0.8c-0.1-0.2-0.2-0.4-0.3-0.6c-0.2-0.2-0.3-0.3-0.6-0.4c-0.2-0.1-0.5-0.2-0.8-0.2
	c-0.3,0-0.5,0.1-0.8,0.2c-0.2,0.1-0.4,0.2-0.6,0.4c-0.2,0.2-0.3,0.4-0.3,0.6C316.6,20.5,316.5,20.7,316.5,21z M321.5,18.5v-0.7h-0.6
	v0.7H321.5z M320.9,19.1v3.7h0.6v-3.7H320.9z M322.5,17.7v5.1h0.6v-5.1H322.5z"/>
<line class="st11" x1="288.8" y1="20.4" x2="309.6" y2="20.4"/>
<path d="M313.3,27.3v4.5h0.7v-4.5h1.7v-0.6h-4.1v0.6H313.3z M316.8,27.4v-0.7h-0.6v0.7H316.8z M316.2,28.1v3.7h0.6v-3.7H316.2z
	 M318.2,30.6h-0.6c0,0.2,0.1,0.4,0.1,0.6c0.1,0.2,0.2,0.3,0.3,0.4c0.1,0.1,0.3,0.2,0.5,0.2c0.2,0,0.4,0.1,0.6,0.1
	c0.2,0,0.4,0,0.6-0.1c0.2,0,0.4-0.1,0.5-0.2c0.2-0.1,0.3-0.2,0.4-0.4c0.1-0.1,0.1-0.3,0.1-0.6c0-0.2,0-0.3-0.1-0.4
	c-0.1-0.1-0.2-0.2-0.3-0.3c-0.1-0.1-0.2-0.1-0.4-0.2c-0.1,0-0.3-0.1-0.4-0.1c-0.1,0-0.3-0.1-0.4-0.1c-0.1,0-0.3-0.1-0.4-0.1
	c-0.1,0-0.2-0.1-0.3-0.2c-0.1-0.1-0.1-0.2-0.1-0.3c0-0.1,0-0.2,0.1-0.2c0-0.1,0.1-0.1,0.2-0.1c0.1,0,0.2-0.1,0.3-0.1
	c0.1,0,0.2,0,0.3,0c0.1,0,0.2,0,0.3,0c0.1,0,0.2,0.1,0.3,0.1c0.1,0,0.1,0.1,0.2,0.2c0.1,0.1,0.1,0.2,0.1,0.3h0.6
	c0-0.2-0.1-0.4-0.1-0.6c-0.1-0.2-0.2-0.3-0.3-0.4c-0.1-0.1-0.3-0.2-0.5-0.2c-0.2,0-0.4-0.1-0.6-0.1c-0.2,0-0.3,0-0.5,0.1
	c-0.2,0-0.3,0.1-0.4,0.2s-0.2,0.2-0.3,0.3c-0.1,0.1-0.1,0.3-0.1,0.5c0,0.2,0.1,0.4,0.2,0.6c0.1,0.1,0.3,0.2,0.4,0.3
	c0.2,0.1,0.4,0.1,0.6,0.2c0.2,0,0.4,0.1,0.6,0.1c0.2,0.1,0.3,0.1,0.4,0.2c0.1,0.1,0.2,0.2,0.2,0.4c0,0.1,0,0.2-0.1,0.3
	c-0.1,0.1-0.1,0.1-0.2,0.2c-0.1,0-0.2,0.1-0.3,0.1c-0.1,0-0.2,0-0.3,0c-0.1,0-0.2,0-0.4,0c-0.1,0-0.2-0.1-0.3-0.1
	c-0.1-0.1-0.2-0.1-0.2-0.2C318.2,30.9,318.2,30.8,318.2,30.6z M321.7,30.6h-0.6c0,0.2,0.1,0.4,0.1,0.6c0.1,0.2,0.2,0.3,0.3,0.4
	c0.1,0.1,0.3,0.2,0.5,0.2c0.2,0,0.4,0.1,0.6,0.1c0.2,0,0.4,0,0.6-0.1c0.2,0,0.4-0.1,0.5-0.2c0.2-0.1,0.3-0.2,0.4-0.4
	c0.1-0.1,0.1-0.3,0.1-0.6c0-0.2,0-0.3-0.1-0.4c-0.1-0.1-0.2-0.2-0.3-0.3c-0.1-0.1-0.2-0.1-0.4-0.2c-0.1,0-0.3-0.1-0.4-0.1
	c-0.1,0-0.3-0.1-0.4-0.1c-0.1,0-0.3-0.1-0.4-0.1c-0.1,0-0.2-0.1-0.3-0.2c-0.1-0.1-0.1-0.2-0.1-0.3c0-0.1,0-0.2,0.1-0.2
	c0-0.1,0.1-0.1,0.2-0.1c0.1,0,0.2-0.1,0.3-0.1s0.2,0,0.3,0c0.1,0,0.2,0,0.3,0c0.1,0,0.2,0.1,0.3,0.1c0.1,0,0.1,0.1,0.2,0.2
	c0.1,0.1,0.1,0.2,0.1,0.3h0.6c0-0.2-0.1-0.4-0.1-0.6c-0.1-0.2-0.2-0.3-0.3-0.4c-0.1-0.1-0.3-0.2-0.5-0.2c-0.2,0-0.4-0.1-0.6-0.1
	c-0.2,0-0.3,0-0.5,0.1c-0.2,0-0.3,0.1-0.4,0.2c-0.1,0.1-0.2,0.2-0.3,0.3c-0.1,0.1-0.1,0.3-0.1,0.5c0,0.2,0.1,0.4,0.2,0.6
	c0.1,0.1,0.3,0.2,0.4,0.3c0.2,0.1,0.4,0.1,0.6,0.2c0.2,0,0.4,0.1,0.6,0.1c0.2,0.1,0.3,0.1,0.4,0.2c0.1,0.1,0.2,0.2,0.2,0.4
	c0,0.1,0,0.2-0.1,0.3c-0.1,0.1-0.1,0.1-0.2,0.2c-0.1,0-0.2,0.1-0.3,0.1c-0.1,0-0.2,0-0.3,0c-0.1,0-0.2,0-0.4,0
	c-0.1,0-0.2-0.1-0.3-0.1c-0.1-0.1-0.2-0.1-0.2-0.2C321.8,30.9,321.7,30.8,321.7,30.6z M328,31.8v-3.7h-0.6v2.1c0,0.2,0,0.3-0.1,0.5
	c0,0.1-0.1,0.3-0.2,0.4s-0.2,0.2-0.3,0.2s-0.3,0.1-0.5,0.1c-0.2,0-0.4-0.1-0.6-0.2s-0.2-0.3-0.2-0.5v-2.5h-0.6v2.4
	c0,0.2,0,0.4,0.1,0.5s0.1,0.3,0.2,0.4c0.1,0.1,0.2,0.2,0.4,0.3s0.4,0.1,0.6,0.1c0.3,0,0.5-0.1,0.7-0.2s0.4-0.3,0.5-0.5h0v0.6H328z
	 M331.5,29.6h-2.1c0-0.1,0-0.3,0.1-0.4c0.1-0.1,0.1-0.2,0.2-0.3c0.1-0.1,0.2-0.2,0.3-0.2c0.1-0.1,0.3-0.1,0.4-0.1
	c0.2,0,0.3,0,0.4,0.1c0.1,0.1,0.2,0.1,0.3,0.2c0.1,0.1,0.2,0.2,0.2,0.3C331.5,29.3,331.5,29.5,331.5,29.6z M332.1,30.6h-0.6
	c-0.1,0.2-0.2,0.4-0.3,0.5c-0.2,0.1-0.4,0.2-0.6,0.2c-0.2,0-0.4,0-0.5-0.1c-0.1-0.1-0.3-0.2-0.4-0.3c-0.1-0.1-0.2-0.2-0.2-0.4
	c0-0.1-0.1-0.3-0.1-0.5h2.8c0-0.2,0-0.5-0.1-0.7c-0.1-0.2-0.1-0.5-0.3-0.7c-0.1-0.2-0.3-0.4-0.5-0.5c-0.2-0.1-0.5-0.2-0.8-0.2
	c-0.3,0-0.5,0-0.7,0.1c-0.2,0.1-0.4,0.2-0.6,0.4c-0.2,0.2-0.3,0.4-0.4,0.6s-0.1,0.5-0.1,0.8c0,0.3,0.1,0.5,0.1,0.8
	c0.1,0.2,0.2,0.4,0.3,0.6c0.1,0.2,0.3,0.3,0.5,0.4c0.2,0.1,0.5,0.1,0.8,0.1c0.4,0,0.8-0.1,1-0.3C331.8,31.4,332,31,332.1,30.6z"/>
<line class="st12" x1="288.8" y1="29.4" x2="309.6" y2="29.4"/>
<path d="M316,40.1l0.2,0.6h0.4v-2.7h-2.2v0.6h1.6c0,0.2,0,0.5-0.1,0.7c-0.1,0.2-0.2,0.4-0.3,0.5c-0.1,0.2-0.3,0.3-0.5,0.4
	c-0.2,0.1-0.4,0.1-0.7,0.1c-0.3,0-0.5-0.1-0.8-0.2c-0.2-0.1-0.4-0.3-0.5-0.5c-0.1-0.2-0.3-0.4-0.3-0.7c-0.1-0.2-0.1-0.5-0.1-0.8
	c0-0.3,0-0.5,0.1-0.8c0.1-0.3,0.2-0.5,0.3-0.7c0.1-0.2,0.3-0.4,0.5-0.5c0.2-0.1,0.5-0.2,0.8-0.2c0.2,0,0.4,0,0.5,0.1
	c0.2,0,0.3,0.1,0.5,0.2c0.1,0.1,0.2,0.2,0.3,0.3c0.1,0.1,0.2,0.3,0.2,0.5h0.7c0-0.3-0.1-0.6-0.3-0.8c-0.1-0.2-0.3-0.4-0.5-0.5
	c-0.2-0.1-0.4-0.2-0.7-0.3c-0.2-0.1-0.5-0.1-0.8-0.1c-0.4,0-0.8,0.1-1.1,0.2c-0.3,0.2-0.6,0.4-0.8,0.6c-0.2,0.3-0.4,0.5-0.5,0.9
	c-0.1,0.3-0.2,0.7-0.2,1.1c0,0.3,0.1,0.7,0.2,1c0.1,0.3,0.3,0.6,0.5,0.8c0.2,0.2,0.5,0.4,0.8,0.6c0.3,0.1,0.6,0.2,1,0.2
	c0.3,0,0.6-0.1,0.9-0.2C315.6,40.6,315.8,40.4,316,40.1z M317.5,37.1v3.7h0.6v-1.6c0-0.2,0-0.4,0.1-0.6c0-0.2,0.1-0.3,0.2-0.5
	c0.1-0.1,0.2-0.2,0.4-0.3c0.2-0.1,0.4-0.1,0.6-0.1V37c-0.3,0-0.6,0.1-0.8,0.2c-0.2,0.1-0.4,0.4-0.5,0.7h0v-0.8H317.5z M323.2,40.8
	c-0.1,0.1-0.3,0.1-0.4,0.1c-0.2,0-0.3,0-0.4-0.1c-0.1-0.1-0.1-0.2-0.1-0.4c-0.2,0.2-0.4,0.3-0.6,0.4c-0.2,0.1-0.5,0.1-0.7,0.1
	c-0.2,0-0.3,0-0.5-0.1c-0.2,0-0.3-0.1-0.4-0.2c-0.1-0.1-0.2-0.2-0.3-0.3c-0.1-0.1-0.1-0.3-0.1-0.5c0-0.2,0-0.4,0.1-0.5
	c0.1-0.1,0.2-0.2,0.3-0.3c0.1-0.1,0.3-0.1,0.4-0.2c0.2,0,0.3-0.1,0.5-0.1c0.2,0,0.3-0.1,0.5-0.1c0.2,0,0.3,0,0.4-0.1
	c0.1,0,0.2-0.1,0.3-0.1c0.1-0.1,0.1-0.1,0.1-0.3c0-0.1,0-0.2-0.1-0.3s-0.1-0.1-0.2-0.2c-0.1,0-0.2-0.1-0.3-0.1c-0.1,0-0.2,0-0.3,0
	c-0.3,0-0.5,0-0.6,0.1c-0.2,0.1-0.3,0.3-0.3,0.6h-0.6c0-0.2,0.1-0.4,0.1-0.6c0.1-0.2,0.2-0.3,0.3-0.4c0.1-0.1,0.3-0.2,0.5-0.2
	c0.2,0,0.4-0.1,0.6-0.1c0.2,0,0.3,0,0.5,0c0.2,0,0.3,0.1,0.4,0.1s0.2,0.2,0.3,0.3s0.1,0.3,0.1,0.5v1.9c0,0.1,0,0.2,0,0.3
	c0,0.1,0.1,0.1,0.2,0.1c0.1,0,0.1,0,0.2,0V40.8z M322.2,38.9c-0.1,0.1-0.2,0.1-0.3,0.1c-0.1,0-0.3,0-0.4,0.1c-0.1,0-0.3,0-0.4,0.1
	c-0.1,0-0.3,0.1-0.4,0.1c-0.1,0-0.2,0.1-0.3,0.2c-0.1,0.1-0.1,0.2-0.1,0.4c0,0.1,0,0.2,0.1,0.3s0.1,0.1,0.2,0.2
	c0.1,0,0.1,0.1,0.2,0.1c0.1,0,0.2,0,0.3,0c0.2,0,0.4,0,0.5-0.1c0.1-0.1,0.3-0.1,0.4-0.2c0.1-0.1,0.2-0.2,0.2-0.3
	c0-0.1,0.1-0.2,0.1-0.3V38.9z M324.2,39c0-0.2,0-0.4,0.1-0.5c0-0.2,0.1-0.3,0.2-0.5c0.1-0.1,0.2-0.2,0.3-0.3s0.3-0.1,0.5-0.1
	c0.2,0,0.4,0,0.5,0.1c0.1,0.1,0.3,0.2,0.4,0.3c0.1,0.1,0.2,0.3,0.2,0.4c0,0.2,0.1,0.3,0.1,0.5c0,0.2,0,0.3-0.1,0.5
	c0,0.2-0.1,0.3-0.2,0.4c-0.1,0.1-0.2,0.2-0.4,0.3s-0.3,0.1-0.5,0.1c-0.2,0-0.4,0-0.5-0.1c-0.1-0.1-0.3-0.2-0.4-0.3
	c-0.1-0.1-0.2-0.3-0.2-0.4S324.2,39.1,324.2,39z M327.1,40.8v-5.1h-0.6v1.9h0c-0.1-0.1-0.1-0.2-0.2-0.3c-0.1-0.1-0.2-0.1-0.3-0.2
	c-0.1,0-0.2-0.1-0.3-0.1c-0.1,0-0.2,0-0.3,0c-0.3,0-0.5,0.1-0.7,0.2c-0.2,0.1-0.4,0.2-0.5,0.4c-0.1,0.2-0.2,0.4-0.3,0.6
	c-0.1,0.2-0.1,0.5-0.1,0.7s0,0.5,0.1,0.7c0.1,0.2,0.2,0.4,0.3,0.6c0.1,0.2,0.3,0.3,0.5,0.4c0.2,0.1,0.5,0.2,0.7,0.2
	c0.3,0,0.5,0,0.7-0.1c0.2-0.1,0.4-0.2,0.5-0.4h0v0.5H327.1z M328.6,36.4v-0.7H328v0.7H328.6z M328,37.1v3.7h0.6v-3.7H328z
	 M332.2,38.6H330c0-0.1,0-0.3,0.1-0.4c0.1-0.1,0.1-0.2,0.2-0.3c0.1-0.1,0.2-0.2,0.3-0.2c0.1-0.1,0.3-0.1,0.4-0.1
	c0.2,0,0.3,0,0.4,0.1c0.1,0.1,0.2,0.1,0.3,0.2s0.2,0.2,0.2,0.3C332.1,38.3,332.1,38.4,332.2,38.6z M332.7,39.6h-0.6
	c-0.1,0.2-0.2,0.4-0.3,0.5c-0.2,0.1-0.4,0.2-0.6,0.2c-0.2,0-0.4,0-0.5-0.1c-0.1-0.1-0.3-0.2-0.4-0.3c-0.1-0.1-0.2-0.2-0.2-0.4
	c0-0.1-0.1-0.3-0.1-0.5h2.8c0-0.2,0-0.5-0.1-0.7c-0.1-0.2-0.1-0.5-0.3-0.7c-0.1-0.2-0.3-0.4-0.5-0.5c-0.2-0.1-0.5-0.2-0.8-0.2
	c-0.3,0-0.5,0-0.7,0.1c-0.2,0.1-0.4,0.2-0.6,0.4c-0.2,0.2-0.3,0.4-0.4,0.6c-0.1,0.2-0.1,0.5-0.1,0.8c0,0.3,0.1,0.5,0.1,0.8
	c0.1,0.2,0.2,0.4,0.3,0.6c0.1,0.2,0.3,0.3,0.5,0.4c0.2,0.1,0.5,0.1,0.8,0.1c0.4,0,0.8-0.1,1-0.3C332.5,40.3,332.7,40,332.7,39.6z
	 M333.4,37.1v3.7h0.6v-2.1c0-0.2,0-0.3,0.1-0.5c0-0.1,0.1-0.3,0.2-0.4c0.1-0.1,0.2-0.2,0.3-0.2c0.1-0.1,0.3-0.1,0.5-0.1
	c0.2,0,0.4,0.1,0.6,0.2c0.1,0.1,0.2,0.3,0.2,0.5v2.5h0.6v-2.4c0-0.2,0-0.4-0.1-0.5c0-0.2-0.1-0.3-0.2-0.4c-0.1-0.1-0.2-0.2-0.4-0.3
	c-0.2-0.1-0.4-0.1-0.6-0.1c-0.5,0-0.9,0.2-1.2,0.7h0v-0.6H333.4z M338.2,37.1V36h-0.6v1.1H337v0.5h0.6V40c0,0.2,0,0.3,0.1,0.4
	c0,0.1,0.1,0.2,0.2,0.2c0.1,0.1,0.2,0.1,0.3,0.1c0.1,0,0.2,0,0.4,0h0.5v-0.5h-0.3c-0.1,0-0.2,0-0.2,0c-0.1,0-0.1,0-0.1,0
	c0,0-0.1-0.1-0.1-0.1s0-0.1,0-0.2v-2.3h0.7v-0.5H338.2z"/>
<line class="st13" x1="288.8" y1="38.4" x2="309.6" y2="38.4"/>
</svg>
