<?xml version="1.0" encoding="utf-8"?>
<!-- Generator: Adobe Illustrator 24.0.3, SVG Export Plug-In . SVG Version: 6.00 Build 0)  -->
<svg version="1.1" id="Layer_1" xmlns="http://www.w3.org/2000/svg" xmlns:xlink="http://www.w3.org/1999/xlink" x="0px" y="0px"
	 viewBox="0 0 410.9 405.8" style="enable-background:new 0 0 410.9 405.8;" xml:space="preserve">
<style type="text/css">
	.st0{fill:none;stroke:#262626;stroke-width:0.5;stroke-linecap:square;stroke-linejoin:round;stroke-miterlimit:10;}
	.st1{fill:#262626;}
	.st2{fill:none;stroke:#CCCCCC;stroke-width:1.2;stroke-linejoin:round;stroke-miterlimit:10;}
	.st3{fill:none;stroke:#A6A6A6;stroke-width:1.2;stroke-linejoin:round;stroke-miterlimit:10;}
	.st4{fill:none;stroke:#808080;stroke-width:1.2;stroke-linejoin:round;stroke-miterlimit:10;}
	.st5{fill:none;stroke:#595959;stroke-width:1.2;stroke-linejoin:round;stroke-miterlimit:10;}
	.st6{fill:none;stroke:#333333;stroke-width:1.2;stroke-linejoin:round;stroke-miterlimit:10;}
	
		.st7{fill:none;stroke:#FF0000;stroke-width:0.8;stroke-linejoin:bevel;stroke-miterlimit:1;stroke-opacity:0.702;stroke-dasharray:10,6;}
	.st8{fill:#FF0000;}
</style>
<line class="st0" x1="57.8" y1="350.7" x2="402.8" y2="350.7"/>
<line class="st0" x1="57.8" y1="5.7" x2="402.8" y2="5.7"/>
<line class="st0" x1="57.8" y1="350.7" x2="57.8" y2="347.2"/>
<line class="st0" x1="126.8" y1="350.7" x2="126.8" y2="347.2"/>
<line class="st0" x1="195.8" y1="350.7" x2="195.8" y2="347.2"/>
<line class="st0" x1="264.8" y1="350.7" x2="264.8" y2="347.2"/>
<line class="st0" x1="333.8" y1="350.7" x2="333.8" y2="347.2"/>
<line class="st0" x1="402.8" y1="350.7" x2="402.8" y2="347.2"/>
<line class="st0" x1="57.8" y1="5.7" x2="57.8" y2="9.1"/>
<line class="st0" x1="126.8" y1="5.7" x2="126.8" y2="9.1"/>
<line class="st0" x1="195.8" y1="5.7" x2="195.8" y2="9.1"/>
<line class="st0" x1="264.8" y1="5.7" x2="264.8" y2="9.1"/>
<line class="st0" x1="333.8" y1="5.7" x2="333.8" y2="9.1"/>
<line class="st0" x1="402.8" y1="5.7" x2="402.8" y2="9.1"/>
<path class="st1" d="M55,366.2c0-0.3,0-0.6,0-0.9c0-0.3,0-0.7,0.1-1c0-0.3,0.1-0.7,0.2-1c0.1-0.3,0.2-0.6,0.4-0.9
	c0.2-0.2,0.4-0.4,0.7-0.6c0.3-0.2,0.6-0.2,1-0.2c0.4,0,0.7,0.1,1,0.2c0.3,0.2,0.5,0.4,0.7,0.6c0.2,0.2,0.3,0.5,0.4,0.9
	c0.1,0.3,0.2,0.7,0.2,1c0,0.3,0.1,0.7,0.1,1s0,0.7,0,0.9c0,0.4,0,0.9,0,1.5c0,0.5-0.1,1.1-0.3,1.5c-0.1,0.5-0.4,0.9-0.7,1.2
	s-0.8,0.5-1.4,0.5s-1.1-0.2-1.4-0.5c-0.3-0.3-0.6-0.7-0.7-1.2s-0.2-1-0.3-1.5C55,367.1,55,366.7,55,366.2z M53.5,366.2
	c0,0.4,0,0.9,0,1.3c0,0.5,0.1,0.9,0.2,1.3c0.1,0.4,0.2,0.9,0.4,1.2c0.2,0.4,0.4,0.7,0.7,1c0.3,0.3,0.6,0.5,1.1,0.7
	c0.4,0.2,1,0.3,1.6,0.3c0.6,0,1.1-0.1,1.6-0.3c0.4-0.2,0.8-0.4,1.1-0.7c0.3-0.3,0.5-0.6,0.7-1c0.2-0.4,0.3-0.8,0.4-1.2
	c0.1-0.4,0.1-0.9,0.2-1.3c0-0.5,0-0.9,0-1.3c0-0.4,0-0.9,0-1.3c0-0.5-0.1-0.9-0.2-1.3c-0.1-0.4-0.2-0.9-0.4-1.3
	c-0.2-0.4-0.4-0.7-0.7-1c-0.3-0.3-0.6-0.5-1.1-0.7c-0.4-0.2-1-0.3-1.6-0.3c-0.6,0-1.1,0.1-1.6,0.3c-0.4,0.2-0.8,0.4-1.1,0.7
	c-0.3,0.3-0.5,0.6-0.7,1c-0.2,0.4-0.3,0.8-0.4,1.3c-0.1,0.4-0.1,0.9-0.2,1.3C53.5,365.4,53.5,365.8,53.5,366.2z"/>
<path class="st1" d="M112.5,366.2c0-0.3,0-0.6,0-0.9c0-0.3,0-0.7,0.1-1c0-0.3,0.1-0.7,0.2-1c0.1-0.3,0.2-0.6,0.4-0.9
	c0.2-0.2,0.4-0.4,0.7-0.6c0.3-0.2,0.6-0.2,1-0.2c0.4,0,0.7,0.1,1,0.2c0.3,0.2,0.5,0.4,0.7,0.6c0.2,0.2,0.3,0.5,0.4,0.9
	c0.1,0.3,0.2,0.7,0.2,1c0,0.3,0.1,0.7,0.1,1c0,0.3,0,0.7,0,0.9c0,0.4,0,0.9,0,1.5c0,0.5-0.1,1.1-0.3,1.5c-0.1,0.5-0.4,0.9-0.7,1.2
	c-0.3,0.3-0.8,0.5-1.4,0.5c-0.6,0-1.1-0.2-1.4-0.5c-0.3-0.3-0.6-0.7-0.7-1.2s-0.2-1-0.3-1.5C112.5,367.1,112.5,366.7,112.5,366.2z
	 M111,366.2c0,0.4,0,0.9,0,1.3c0,0.5,0.1,0.9,0.2,1.3c0.1,0.4,0.2,0.9,0.4,1.2c0.2,0.4,0.4,0.7,0.7,1c0.3,0.3,0.6,0.5,1.1,0.7
	c0.4,0.2,1,0.3,1.6,0.3c0.6,0,1.1-0.1,1.6-0.3c0.4-0.2,0.8-0.4,1.1-0.7c0.3-0.3,0.5-0.6,0.7-1c0.2-0.4,0.3-0.8,0.4-1.2
	c0.1-0.4,0.1-0.9,0.2-1.3c0-0.5,0-0.9,0-1.3c0-0.4,0-0.9,0-1.3c0-0.5-0.1-0.9-0.2-1.3c-0.1-0.4-0.2-0.9-0.4-1.3
	c-0.2-0.4-0.4-0.7-0.7-1c-0.3-0.3-0.6-0.5-1.1-0.7c-0.4-0.2-1-0.3-1.6-0.3c-0.6,0-1.1,0.1-1.6,0.3c-0.4,0.2-0.8,0.4-1.1,0.7
	c-0.3,0.3-0.5,0.6-0.7,1c-0.2,0.4-0.3,0.8-0.4,1.3c-0.1,0.4-0.1,0.9-0.2,1.3C111,365.4,111,365.8,111,366.2z M120.8,370.1v1.8h1.8
	v-1.8H120.8z M126.2,366.2c0-0.3,0-0.6,0-0.9c0-0.3,0-0.7,0.1-1c0-0.3,0.1-0.7,0.2-1c0.1-0.3,0.2-0.6,0.4-0.9
	c0.2-0.2,0.4-0.4,0.7-0.6c0.3-0.2,0.6-0.2,1-0.2c0.4,0,0.7,0.1,1,0.2c0.3,0.2,0.5,0.4,0.7,0.6c0.2,0.2,0.3,0.5,0.4,0.9
	c0.1,0.3,0.2,0.7,0.2,1c0,0.3,0.1,0.7,0.1,1c0,0.3,0,0.7,0,0.9c0,0.4,0,0.9,0,1.5c0,0.5-0.1,1.1-0.3,1.5c-0.1,0.5-0.4,0.9-0.7,1.2
	c-0.3,0.3-0.8,0.5-1.4,0.5c-0.6,0-1.1-0.2-1.4-0.5c-0.3-0.3-0.6-0.7-0.7-1.2c-0.1-0.5-0.2-1-0.3-1.5
	C126.2,367.1,126.2,366.7,126.2,366.2z M124.7,366.2c0,0.4,0,0.9,0,1.3c0,0.5,0.1,0.9,0.2,1.3c0.1,0.4,0.2,0.9,0.4,1.2
	c0.2,0.4,0.4,0.7,0.7,1c0.3,0.3,0.6,0.5,1.1,0.7c0.4,0.2,1,0.3,1.6,0.3c0.6,0,1.1-0.1,1.6-0.3c0.4-0.2,0.8-0.4,1.1-0.7
	c0.3-0.3,0.5-0.6,0.7-1c0.2-0.4,0.3-0.8,0.4-1.2c0.1-0.4,0.1-0.9,0.2-1.3c0-0.5,0-0.9,0-1.3c0-0.4,0-0.9,0-1.3
	c0-0.5-0.1-0.9-0.2-1.3c-0.1-0.4-0.2-0.9-0.4-1.3c-0.2-0.4-0.4-0.7-0.7-1c-0.3-0.3-0.6-0.5-1.1-0.7c-0.4-0.2-1-0.3-1.6-0.3
	c-0.6,0-1.1,0.1-1.6,0.3c-0.4,0.2-0.8,0.4-1.1,0.7c-0.3,0.3-0.5,0.6-0.7,1c-0.2,0.4-0.3,0.8-0.4,1.3c-0.1,0.4-0.1,0.9-0.2,1.3
	C124.7,365.4,124.7,365.8,124.7,366.2z M133.9,364.4h1.4c0-0.4,0-0.7,0.1-1c0.1-0.3,0.2-0.7,0.4-0.9c0.2-0.3,0.4-0.5,0.7-0.7
	c0.3-0.2,0.6-0.3,1-0.3c0.3,0,0.6,0,0.9,0.1c0.3,0.1,0.5,0.2,0.7,0.4c0.2,0.2,0.4,0.4,0.5,0.7c0.1,0.3,0.2,0.5,0.2,0.9
	c0,0.4-0.1,0.8-0.2,1.1c-0.1,0.3-0.3,0.6-0.6,0.9c-0.2,0.3-0.6,0.5-0.9,0.8c-0.4,0.3-0.8,0.5-1.3,0.8c-0.4,0.2-0.8,0.5-1.2,0.8
	c-0.4,0.3-0.7,0.6-1,1c-0.3,0.4-0.5,0.8-0.7,1.3c-0.2,0.5-0.3,1.1-0.4,1.8h7.6v-1.2h-6c0.1-0.4,0.2-0.7,0.4-1
	c0.2-0.3,0.5-0.5,0.8-0.8c0.3-0.2,0.6-0.5,1-0.7c0.4-0.2,0.7-0.4,1.1-0.7c0.4-0.2,0.7-0.5,1.1-0.7c0.3-0.3,0.6-0.5,0.9-0.8
	c0.3-0.3,0.5-0.7,0.6-1.1c0.2-0.4,0.2-0.9,0.2-1.4c0-0.5-0.1-1-0.3-1.4c-0.2-0.4-0.5-0.8-0.8-1c-0.3-0.3-0.7-0.5-1.2-0.6
	c-0.4-0.1-0.9-0.2-1.4-0.2c-0.6,0-1.2,0.1-1.6,0.3c-0.5,0.2-0.9,0.5-1.2,0.9c-0.3,0.4-0.6,0.8-0.7,1.3
	C133.9,363.3,133.9,363.8,133.9,364.4z"/>
<path class="st1" d="M181.5,366.2c0-0.3,0-0.6,0-0.9c0-0.3,0-0.7,0.1-1c0-0.3,0.1-0.7,0.2-1c0.1-0.3,0.2-0.6,0.4-0.9
	c0.2-0.2,0.4-0.4,0.7-0.6c0.3-0.2,0.6-0.2,1-0.2c0.4,0,0.7,0.1,1,0.2c0.3,0.2,0.5,0.4,0.7,0.6c0.2,0.2,0.3,0.5,0.4,0.9
	c0.1,0.3,0.2,0.7,0.2,1c0,0.3,0.1,0.7,0.1,1c0,0.3,0,0.7,0,0.9c0,0.4,0,0.9,0,1.5c0,0.5-0.1,1.1-0.3,1.5c-0.1,0.5-0.4,0.9-0.7,1.2
	s-0.8,0.5-1.4,0.5s-1.1-0.2-1.4-0.5s-0.6-0.7-0.7-1.2s-0.2-1-0.3-1.5C181.5,367.1,181.5,366.7,181.5,366.2z M180,366.2
	c0,0.4,0,0.9,0,1.3c0,0.5,0.1,0.9,0.2,1.3c0.1,0.4,0.2,0.9,0.4,1.2c0.2,0.4,0.4,0.7,0.7,1c0.3,0.3,0.6,0.5,1.1,0.7
	c0.4,0.2,1,0.3,1.6,0.3c0.6,0,1.1-0.1,1.6-0.3c0.4-0.2,0.8-0.4,1.1-0.7c0.3-0.3,0.5-0.6,0.7-1c0.2-0.4,0.3-0.8,0.4-1.2
	c0.1-0.4,0.1-0.9,0.2-1.3c0-0.5,0-0.9,0-1.3c0-0.4,0-0.9,0-1.3c0-0.5-0.1-0.9-0.2-1.3c-0.1-0.4-0.2-0.9-0.4-1.3
	c-0.2-0.4-0.4-0.7-0.7-1c-0.3-0.3-0.6-0.5-1.1-0.7c-0.4-0.2-1-0.3-1.6-0.3c-0.6,0-1.1,0.1-1.6,0.3c-0.4,0.2-0.8,0.4-1.1,0.7
	c-0.3,0.3-0.5,0.6-0.7,1c-0.2,0.4-0.3,0.8-0.4,1.3c-0.1,0.4-0.1,0.9-0.2,1.3C180,365.4,180,365.8,180,366.2z M189.8,370.1v1.8h1.8
	v-1.8H189.8z M195.2,366.2c0-0.3,0-0.6,0-0.9c0-0.3,0-0.7,0.1-1c0-0.3,0.1-0.7,0.2-1c0.1-0.3,0.2-0.6,0.4-0.9
	c0.2-0.2,0.4-0.4,0.7-0.6c0.3-0.2,0.6-0.2,1-0.2c0.4,0,0.7,0.1,1,0.2c0.3,0.2,0.5,0.4,0.7,0.6c0.2,0.2,0.3,0.5,0.4,0.9
	c0.1,0.3,0.2,0.7,0.2,1c0,0.3,0.1,0.7,0.1,1c0,0.3,0,0.7,0,0.9c0,0.4,0,0.9,0,1.5c0,0.5-0.1,1.1-0.3,1.5c-0.1,0.5-0.4,0.9-0.7,1.2
	c-0.3,0.3-0.8,0.5-1.4,0.5c-0.6,0-1.1-0.2-1.4-0.5c-0.3-0.3-0.6-0.7-0.7-1.2c-0.1-0.5-0.2-1-0.3-1.5
	C195.2,367.1,195.2,366.7,195.2,366.2z M193.7,366.2c0,0.4,0,0.9,0,1.3c0,0.5,0.1,0.9,0.2,1.3c0.1,0.4,0.2,0.9,0.4,1.2
	c0.2,0.4,0.4,0.7,0.7,1c0.3,0.3,0.6,0.5,1.1,0.7c0.4,0.2,1,0.3,1.6,0.3c0.6,0,1.1-0.1,1.6-0.3c0.4-0.2,0.8-0.4,1.1-0.7
	c0.3-0.3,0.5-0.6,0.7-1c0.2-0.4,0.3-0.8,0.4-1.2c0.1-0.4,0.1-0.9,0.2-1.3c0-0.5,0-0.9,0-1.3c0-0.4,0-0.9,0-1.3
	c0-0.5-0.1-0.9-0.2-1.3c-0.1-0.4-0.2-0.9-0.4-1.3c-0.2-0.4-0.4-0.7-0.7-1c-0.3-0.3-0.6-0.5-1.1-0.7c-0.4-0.2-1-0.3-1.6-0.3
	c-0.6,0-1.1,0.1-1.6,0.3c-0.4,0.2-0.8,0.4-1.1,0.7c-0.3,0.3-0.5,0.6-0.7,1c-0.2,0.4-0.3,0.8-0.4,1.3c-0.1,0.4-0.1,0.9-0.2,1.3
	C193.7,365.4,193.7,365.8,193.7,366.2z M207.8,368h-3.9l3.9-5.7h0V368z M209.1,368v-7.7H208l-5.3,7.6v1.3h5.1v2.7h1.3v-2.7h1.6V368
	H209.1z"/>
<path class="st1" d="M250.5,366.2c0-0.3,0-0.6,0-0.9c0-0.3,0-0.7,0.1-1c0-0.3,0.1-0.7,0.2-1c0.1-0.3,0.2-0.6,0.4-0.9
	c0.2-0.2,0.4-0.4,0.7-0.6c0.3-0.2,0.6-0.2,1-0.2c0.4,0,0.7,0.1,1,0.2c0.3,0.2,0.5,0.4,0.7,0.6c0.2,0.2,0.3,0.5,0.4,0.9
	c0.1,0.3,0.2,0.7,0.2,1c0,0.3,0.1,0.7,0.1,1c0,0.3,0,0.7,0,0.9c0,0.4,0,0.9,0,1.5c0,0.5-0.1,1.1-0.3,1.5c-0.1,0.5-0.4,0.9-0.7,1.2
	s-0.8,0.5-1.4,0.5s-1.1-0.2-1.4-0.5s-0.6-0.7-0.7-1.2s-0.2-1-0.3-1.5C250.5,367.1,250.5,366.7,250.5,366.2z M249,366.2
	c0,0.4,0,0.9,0,1.3c0,0.5,0.1,0.9,0.2,1.3c0.1,0.4,0.2,0.9,0.4,1.2c0.2,0.4,0.4,0.7,0.7,1c0.3,0.3,0.6,0.5,1.1,0.7
	c0.4,0.2,1,0.3,1.6,0.3c0.6,0,1.1-0.1,1.6-0.3c0.4-0.2,0.8-0.4,1.1-0.7c0.3-0.3,0.5-0.6,0.7-1c0.2-0.4,0.3-0.8,0.4-1.2
	c0.1-0.4,0.1-0.9,0.2-1.3c0-0.5,0-0.9,0-1.3c0-0.4,0-0.9,0-1.3c0-0.5-0.1-0.9-0.2-1.3c-0.1-0.4-0.2-0.9-0.4-1.3
	c-0.2-0.4-0.4-0.7-0.7-1c-0.3-0.3-0.6-0.5-1.1-0.7c-0.4-0.2-1-0.3-1.6-0.3c-0.6,0-1.1,0.1-1.6,0.3c-0.4,0.2-0.8,0.4-1.1,0.7
	c-0.3,0.3-0.5,0.6-0.7,1c-0.2,0.4-0.3,0.8-0.4,1.3c-0.1,0.4-0.1,0.9-0.2,1.3C249,365.4,249,365.8,249,366.2z M258.8,370.1v1.8h1.8
	v-1.8H258.8z M264.2,366.2c0-0.3,0-0.6,0-0.9c0-0.3,0-0.7,0.1-1c0-0.3,0.1-0.7,0.2-1c0.1-0.3,0.2-0.6,0.4-0.9
	c0.2-0.2,0.4-0.4,0.7-0.6c0.3-0.2,0.6-0.2,1-0.2c0.4,0,0.7,0.1,1,0.2c0.3,0.2,0.5,0.4,0.7,0.6c0.2,0.2,0.3,0.5,0.4,0.9
	c0.1,0.3,0.2,0.7,0.2,1c0,0.3,0.1,0.7,0.1,1c0,0.3,0,0.7,0,0.9c0,0.4,0,0.9,0,1.5c0,0.5-0.1,1.1-0.3,1.5c-0.1,0.5-0.4,0.9-0.7,1.2
	c-0.3,0.3-0.8,0.5-1.4,0.5c-0.6,0-1.1-0.2-1.4-0.5c-0.3-0.3-0.6-0.7-0.7-1.2c-0.1-0.5-0.2-1-0.3-1.5
	C264.2,367.1,264.2,366.7,264.2,366.2z M262.7,366.2c0,0.4,0,0.9,0,1.3c0,0.5,0.1,0.9,0.2,1.3c0.1,0.4,0.2,0.9,0.4,1.2
	c0.2,0.4,0.4,0.7,0.7,1c0.3,0.3,0.6,0.5,1.1,0.7c0.4,0.2,1,0.3,1.6,0.3c0.6,0,1.1-0.1,1.6-0.3c0.4-0.2,0.8-0.4,1.1-0.7
	c0.3-0.3,0.5-0.6,0.7-1c0.2-0.4,0.3-0.8,0.4-1.2c0.1-0.4,0.1-0.9,0.2-1.3c0-0.5,0-0.9,0-1.3c0-0.4,0-0.9,0-1.3
	c0-0.5-0.1-0.9-0.2-1.3c-0.1-0.4-0.2-0.9-0.4-1.3c-0.2-0.4-0.4-0.7-0.7-1c-0.3-0.3-0.6-0.5-1.1-0.7c-0.4-0.2-1-0.3-1.6-0.3
	c-0.6,0-1.1,0.1-1.6,0.3c-0.4,0.2-0.8,0.4-1.1,0.7c-0.3,0.3-0.5,0.6-0.7,1c-0.2,0.4-0.3,0.8-0.4,1.3c-0.1,0.4-0.1,0.9-0.2,1.3
	C262.7,365.4,262.7,365.8,262.7,366.2z M278,363.3h1.4c-0.1-1-0.4-1.7-1-2.2c-0.6-0.5-1.3-0.8-2.3-0.8c-0.8,0-1.5,0.2-2.1,0.5
	c-0.5,0.4-1,0.8-1.3,1.4c-0.3,0.6-0.6,1.2-0.7,2c-0.1,0.8-0.2,1.5-0.2,2.3c0,0.6,0,1.3,0.1,1.9c0.1,0.7,0.3,1.3,0.6,1.8
	c0.3,0.5,0.7,1,1.2,1.3c0.5,0.4,1.2,0.5,2.1,0.5c0.7,0,1.4-0.1,1.9-0.4c0.5-0.2,0.9-0.6,1.2-0.9c0.3-0.4,0.5-0.8,0.7-1.3
	c0.1-0.5,0.2-0.9,0.2-1.3c0-0.5-0.1-1-0.2-1.5c-0.2-0.5-0.4-0.9-0.7-1.2c-0.3-0.3-0.7-0.6-1.1-0.8s-0.9-0.3-1.5-0.3
	c-0.6,0-1.2,0.1-1.7,0.4c-0.5,0.2-0.9,0.6-1.2,1.2l0,0c0-0.4,0.1-0.9,0.1-1.4c0.1-0.5,0.2-1,0.4-1.4c0.2-0.4,0.5-0.8,0.8-1.1
	c0.4-0.3,0.8-0.4,1.4-0.4c0.6,0,1,0.2,1.3,0.5C277.7,362.3,277.9,362.7,278,363.3z M275.9,365.7c0.4,0,0.7,0.1,1,0.2
	c0.3,0.1,0.5,0.3,0.7,0.6c0.2,0.2,0.3,0.5,0.4,0.8c0.1,0.3,0.1,0.7,0.1,1c0,0.3-0.1,0.7-0.2,1c-0.1,0.3-0.3,0.6-0.5,0.8
	c-0.2,0.2-0.4,0.4-0.7,0.6s-0.6,0.2-1,0.2s-0.7-0.1-1-0.2s-0.6-0.3-0.8-0.6c-0.2-0.2-0.4-0.5-0.5-0.8c-0.1-0.3-0.2-0.7-0.2-1
	s0.1-0.7,0.2-1c0.1-0.3,0.3-0.6,0.5-0.8c0.2-0.2,0.5-0.4,0.8-0.6C275.1,365.8,275.5,365.7,275.9,365.7z"/>
<path class="st1" d="M319.5,366.2c0-0.3,0-0.6,0-0.9c0-0.3,0-0.7,0.1-1c0-0.3,0.1-0.7,0.2-1c0.1-0.3,0.2-0.6,0.4-0.9
	c0.2-0.2,0.4-0.4,0.7-0.6s0.6-0.2,1-0.2c0.4,0,0.7,0.1,1,0.2c0.3,0.2,0.5,0.4,0.7,0.6c0.2,0.2,0.3,0.5,0.4,0.9
	c0.1,0.3,0.2,0.7,0.2,1c0,0.3,0.1,0.7,0.1,1c0,0.3,0,0.7,0,0.9c0,0.4,0,0.9,0,1.5c0,0.5-0.1,1.1-0.3,1.5c-0.1,0.5-0.4,0.9-0.7,1.2
	s-0.8,0.5-1.4,0.5s-1.1-0.2-1.4-0.5s-0.6-0.7-0.7-1.2s-0.2-1-0.3-1.5C319.5,367.1,319.5,366.7,319.5,366.2z M318,366.2
	c0,0.4,0,0.9,0,1.3c0,0.5,0.1,0.9,0.2,1.3c0.1,0.4,0.2,0.9,0.4,1.2c0.2,0.4,0.4,0.7,0.7,1c0.3,0.3,0.6,0.5,1.1,0.7
	c0.4,0.2,1,0.3,1.6,0.3c0.6,0,1.1-0.1,1.6-0.3c0.4-0.2,0.8-0.4,1.1-0.7c0.3-0.3,0.5-0.6,0.7-1c0.2-0.4,0.3-0.8,0.4-1.2
	c0.1-0.4,0.1-0.9,0.2-1.3c0-0.5,0-0.9,0-1.3c0-0.4,0-0.9,0-1.3c0-0.5-0.1-0.9-0.2-1.3c-0.1-0.4-0.2-0.9-0.4-1.3
	c-0.2-0.4-0.4-0.7-0.7-1c-0.3-0.3-0.6-0.5-1.1-0.7c-0.4-0.2-1-0.3-1.6-0.3c-0.6,0-1.1,0.1-1.6,0.3c-0.4,0.2-0.8,0.4-1.1,0.7
	c-0.3,0.3-0.5,0.6-0.7,1c-0.2,0.4-0.3,0.8-0.4,1.3c-0.1,0.4-0.1,0.9-0.2,1.3C318,365.4,318,365.8,318,366.2z M327.8,370.1v1.8h1.8
	v-1.8H327.8z M333.2,366.2c0-0.3,0-0.6,0-0.9c0-0.3,0-0.7,0.1-1c0-0.3,0.1-0.7,0.2-1c0.1-0.3,0.2-0.6,0.4-0.9
	c0.2-0.2,0.4-0.4,0.7-0.6c0.3-0.2,0.6-0.2,1-0.2c0.4,0,0.7,0.1,1,0.2c0.3,0.2,0.5,0.4,0.7,0.6c0.2,0.2,0.3,0.5,0.4,0.9
	c0.1,0.3,0.2,0.7,0.2,1c0,0.3,0.1,0.7,0.1,1c0,0.3,0,0.7,0,0.9c0,0.4,0,0.9,0,1.5c0,0.5-0.1,1.1-0.3,1.5c-0.1,0.5-0.4,0.9-0.7,1.2
	c-0.3,0.3-0.8,0.5-1.4,0.5c-0.6,0-1.1-0.2-1.4-0.5c-0.3-0.3-0.6-0.7-0.7-1.2c-0.1-0.5-0.2-1-0.3-1.5
	C333.2,367.1,333.2,366.7,333.2,366.2z M331.7,366.2c0,0.4,0,0.9,0,1.3c0,0.5,0.1,0.9,0.2,1.3c0.1,0.4,0.2,0.9,0.4,1.2
	c0.2,0.4,0.4,0.7,0.7,1c0.3,0.3,0.6,0.5,1.1,0.7c0.4,0.2,1,0.3,1.6,0.3c0.6,0,1.1-0.1,1.6-0.3c0.4-0.2,0.8-0.4,1.1-0.7
	c0.3-0.3,0.5-0.6,0.7-1c0.2-0.4,0.3-0.8,0.4-1.2c0.1-0.4,0.1-0.9,0.2-1.3c0-0.5,0-0.9,0-1.3c0-0.4,0-0.9,0-1.3
	c0-0.5-0.1-0.9-0.2-1.3c-0.1-0.4-0.2-0.9-0.4-1.3c-0.2-0.4-0.4-0.7-0.7-1c-0.3-0.3-0.6-0.5-1.1-0.7c-0.4-0.2-1-0.3-1.6-0.3
	c-0.6,0-1.1,0.1-1.6,0.3c-0.4,0.2-0.8,0.4-1.1,0.7c-0.3,0.3-0.5,0.6-0.7,1c-0.2,0.4-0.3,0.8-0.4,1.3c-0.1,0.4-0.1,0.9-0.2,1.3
	C331.7,365.4,331.7,365.8,331.7,366.2z M342.7,363.3c0-0.3,0.1-0.6,0.2-0.8c0.1-0.2,0.3-0.4,0.4-0.6c0.2-0.2,0.4-0.3,0.7-0.3
	c0.3-0.1,0.5-0.1,0.8-0.1c0.6,0,1,0.2,1.4,0.5c0.4,0.3,0.6,0.7,0.6,1.3s-0.2,1.1-0.5,1.4s-0.8,0.5-1.4,0.5c-0.3,0-0.6,0-0.8-0.1
	c-0.3-0.1-0.5-0.2-0.7-0.3c-0.2-0.2-0.3-0.3-0.4-0.6C342.8,363.9,342.7,363.6,342.7,363.3z M341.3,363.3c0,0.5,0.1,1,0.4,1.5
	c0.3,0.4,0.7,0.8,1.2,1c-0.7,0.2-1.2,0.6-1.5,1.1c-0.4,0.5-0.5,1.1-0.5,1.8c0,0.6,0.1,1.1,0.3,1.6c0.2,0.4,0.5,0.8,0.8,1.1
	c0.4,0.3,0.8,0.5,1.3,0.7c0.5,0.1,1,0.2,1.6,0.2c0.5,0,1-0.1,1.5-0.2c0.5-0.2,0.9-0.4,1.2-0.7c0.3-0.3,0.6-0.7,0.8-1.1
	c0.2-0.4,0.3-0.9,0.3-1.5c0-0.7-0.2-1.3-0.5-1.8c-0.3-0.5-0.9-0.9-1.6-1.1c0.5-0.2,0.9-0.5,1.2-1c0.3-0.4,0.4-0.9,0.4-1.4
	c0-0.4-0.1-0.7-0.2-1.1c-0.1-0.4-0.3-0.7-0.6-1c-0.3-0.3-0.6-0.5-1.1-0.7c-0.4-0.2-1-0.3-1.6-0.3c-0.4,0-0.9,0.1-1.3,0.2
	c-0.4,0.1-0.8,0.3-1.1,0.6c-0.3,0.3-0.6,0.6-0.8,0.9C341.3,362.4,341.3,362.8,341.3,363.3z M342.3,368.7c0-0.3,0.1-0.6,0.2-0.9
	c0.1-0.3,0.3-0.5,0.5-0.7c0.2-0.2,0.5-0.3,0.8-0.5c0.3-0.1,0.6-0.2,1-0.2c0.3,0,0.6,0.1,0.9,0.2c0.3,0.1,0.5,0.3,0.8,0.5
	c0.2,0.2,0.4,0.4,0.5,0.7c0.1,0.3,0.2,0.6,0.2,0.9c0,0.3-0.1,0.6-0.2,0.9c-0.1,0.3-0.3,0.5-0.5,0.7c-0.2,0.2-0.5,0.4-0.8,0.5
	s-0.6,0.2-1,0.2c-0.7,0-1.3-0.2-1.8-0.6C342.6,369.9,342.3,369.4,342.3,368.7z"/>
<path class="st1" d="M393.5,366.2c0-0.3,0-0.6,0-0.9c0-0.3,0-0.7,0.1-1c0-0.3,0.1-0.7,0.2-1c0.1-0.3,0.2-0.6,0.4-0.9
	c0.2-0.2,0.4-0.4,0.7-0.6s0.6-0.2,1-0.2c0.4,0,0.7,0.1,1,0.2c0.3,0.2,0.5,0.4,0.7,0.6c0.2,0.2,0.3,0.5,0.4,0.9
	c0.1,0.3,0.2,0.7,0.2,1c0,0.3,0.1,0.7,0.1,1c0,0.3,0,0.7,0,0.9c0,0.4,0,0.9,0,1.5c0,0.5-0.1,1.1-0.3,1.5c-0.1,0.5-0.4,0.9-0.7,1.2
	s-0.8,0.5-1.4,0.5s-1.1-0.2-1.4-0.5s-0.6-0.7-0.7-1.2s-0.2-1-0.3-1.5C393.5,367.1,393.5,366.7,393.5,366.2z M392,366.2
	c0,0.4,0,0.9,0,1.3c0,0.5,0.1,0.9,0.2,1.3c0.1,0.4,0.2,0.9,0.4,1.2c0.2,0.4,0.4,0.7,0.7,1c0.3,0.3,0.6,0.5,1.1,0.7
	c0.4,0.2,1,0.3,1.6,0.3c0.6,0,1.1-0.1,1.6-0.3c0.4-0.2,0.8-0.4,1.1-0.7c0.3-0.3,0.5-0.6,0.7-1c0.2-0.4,0.3-0.8,0.4-1.2
	c0.1-0.4,0.1-0.9,0.2-1.3c0-0.5,0-0.9,0-1.3c0-0.4,0-0.9,0-1.3c0-0.5-0.1-0.9-0.2-1.3c-0.1-0.4-0.2-0.9-0.4-1.3
	c-0.2-0.4-0.4-0.7-0.7-1c-0.3-0.3-0.6-0.5-1.1-0.7c-0.4-0.2-1-0.3-1.6-0.3c-0.6,0-1.1,0.1-1.6,0.3c-0.4,0.2-0.8,0.4-1.1,0.7
	c-0.3,0.3-0.5,0.6-0.7,1c-0.2,0.4-0.3,0.8-0.4,1.3c-0.1,0.4-0.1,0.9-0.2,1.3C392,365.4,392,365.8,392,366.2z M401.8,370.1v1.8h1.8
	v-1.8H401.8z M410.9,372v-11.7h-1.1c-0.1,0.4-0.2,0.8-0.4,1.1c-0.2,0.3-0.5,0.5-0.8,0.7c-0.3,0.2-0.6,0.3-1,0.3
	c-0.4,0.1-0.8,0.1-1.2,0.1v1.1h3v8.4H410.9z"/>
<path class="st1" d="M120.7,405.8c-0.9-0.7-1.7-1.5-2.3-2.4c-0.6-0.9-1.2-1.9-1.6-2.9c-0.4-1-0.7-2.1-0.9-3.2
	c-0.2-1.1-0.3-2.3-0.3-3.4c0-1.1,0.1-2.3,0.3-3.4c0.2-1.1,0.5-2.2,0.9-3.2c0.4-1,1-2,1.6-2.9c0.6-0.9,1.4-1.7,2.3-2.4c0,0,0,0,0.1,0
	h0.2c0.1,0,0.1,0,0.1,0.1c0,0,0.1,0.1,0.1,0.1c0,0.1,0,0.1,0,0.2c-0.8,0.8-1.4,1.6-2,2.5c-0.5,0.9-0.9,1.8-1.2,2.8
	c-0.3,1-0.5,2-0.7,3.1c-0.1,1.1-0.2,2.2-0.2,3.3c0,5.1,1.4,8.9,4.1,11.6c0,0,0.1,0.1,0.1,0.2c0,0,0,0.1-0.1,0.1
	c0,0.1-0.1,0.1-0.1,0.1h-0.2C120.7,405.8,120.7,405.8,120.7,405.8z"/>
<path class="st1" d="M123.6,399.8c-0.2,0-0.2-0.1-0.2-0.3c0,0,0-0.1,0-0.2c0-0.1,0.1-0.2,0.1-0.2c0-0.1,0.1-0.1,0.2-0.1
	c1,0,1.6-0.1,2-0.2c0.2-0.1,0.4-0.3,0.5-0.6l3.3-13.2c0-0.2,0-0.3,0-0.3c0-0.2-0.1-0.3-0.3-0.3c-0.3-0.1-0.9-0.1-1.7-0.1
	c-0.2,0-0.2-0.1-0.2-0.3c0,0,0-0.1,0-0.2c0-0.1,0.1-0.2,0.1-0.2c0-0.1,0.1-0.1,0.2-0.1h13c0.2,0,0.2,0.1,0.2,0.3l-0.6,5
	c0,0,0,0.1-0.1,0.1c-0.1,0-0.1,0.1-0.2,0.1h-0.2c-0.2,0-0.2-0.1-0.2-0.3c0.1-0.8,0.1-1.4,0.1-1.7c0-0.6-0.1-1.1-0.3-1.5
	c-0.2-0.4-0.5-0.6-0.9-0.8c-0.4-0.2-0.8-0.3-1.2-0.3c-0.4,0-1-0.1-1.7-0.1h-2.7c-0.4,0-0.7,0-0.9,0.1c-0.1,0.1-0.3,0.3-0.4,0.7
	l-1.5,5.8h1.9c0.8,0,1.4-0.1,1.8-0.2c0.4-0.1,0.7-0.3,1-0.7c0.2-0.4,0.5-0.9,0.7-1.7c0-0.1,0.1-0.1,0.1-0.2c0,0,0.1-0.1,0.1-0.1h0.2
	c0.2,0,0.2,0.1,0.2,0.3l-1.5,5.9c0,0.1-0.1,0.2-0.2,0.2h-0.2c-0.2,0-0.2-0.1-0.2-0.3c0.2-0.6,0.2-1.1,0.2-1.4c0-0.5-0.2-0.8-0.6-0.9
	c-0.4-0.1-1-0.2-1.7-0.2h-2l-1.6,6.5c-0.1,0.2-0.1,0.4-0.1,0.5c0,0.1,0.3,0.2,0.8,0.2h2.9c1.2,0,2.1-0.1,2.8-0.3
	c0.7-0.2,1.3-0.5,1.8-0.9c0.5-0.4,0.9-0.9,1.2-1.5c0.3-0.6,0.8-1.5,1.2-2.7c0-0.1,0.1-0.2,0.2-0.2h0.2c0.1,0,0.1,0,0.2,0.1
	c0,0.1,0.1,0.1,0.1,0.2c0,0,0,0.1,0,0.1l-2.5,5.8c0,0.1-0.1,0.1-0.2,0.1H123.6z"/>
<path class="st1" d="M144.1,405.8v-24h3.3v1H145v22.1h2.3v1H144.1z"/>
<path class="st1" d="M151.3,394.6c0,1,0.2,1.8,0.6,2.5c0.4,0.7,0.9,1.3,1.6,1.7c0.7,0.4,1.5,0.6,2.5,0.6c1,0,2-0.3,2.9-0.8
	c0.9-0.5,1.7-1.2,2.4-2.1c0.7-0.9,1.1-1.8,1.4-2.8c0-0.1,0.1-0.1,0.2-0.1h0.3c0.1,0,0.1,0,0.2,0.1c0,0,0.1,0.1,0.1,0.1
	c0,0,0,0,0,0.1c-0.3,1.1-0.8,2.1-1.6,3.1c-0.8,1-1.7,1.7-2.8,2.3c-1.1,0.6-2.2,0.9-3.4,0.9c-1.2,0-2.4-0.3-3.4-0.8
	c-1-0.6-1.8-1.3-2.3-2.3c-0.6-1-0.8-2.1-0.8-3.4c0-1.3,0.3-2.7,0.9-4c0.6-1.3,1.4-2.5,2.4-3.5c1-1,2.2-1.8,3.5-2.5
	c1.3-0.6,2.6-0.9,4-0.9c0.5,0,1,0.1,1.5,0.2c0.5,0.2,0.9,0.4,1.3,0.7s0.8,0.7,1,1.1l1.9-2.1c0,0,0,0,0.1,0h0.1c0.1,0,0.1,0,0.1,0.1
	c0,0.1,0.1,0.1,0.1,0.2l-1.6,6.5c0,0.1-0.1,0.2-0.2,0.2h-0.4c-0.1,0-0.2-0.1-0.2-0.3c0.1-0.4,0.1-0.8,0.1-1.3c0-0.8-0.1-1.5-0.4-2.2
	c-0.3-0.7-0.7-1.3-1.2-1.7c-0.6-0.4-1.2-0.6-2-0.6c-1.3,0-2.5,0.3-3.6,1c-1.1,0.7-2,1.5-2.8,2.6c-0.8,1.1-1.3,2.3-1.8,3.5
	S151.3,393.4,151.3,394.6z"/>
<path class="st1" d="M165.6,403.4v-0.5c0,0,0-0.1,0-0.1l2.6-2.9c0.4-0.4,0.7-0.8,1-1.1c0.2-0.3,0.5-0.6,0.7-1
	c0.2-0.4,0.4-0.8,0.6-1.2c0.1-0.4,0.2-0.8,0.2-1.3c0-0.5-0.1-0.9-0.3-1.3s-0.4-0.8-0.8-1c-0.3-0.2-0.7-0.4-1.2-0.4
	c-0.5,0-0.9,0.1-1.3,0.4c-0.4,0.3-0.7,0.7-0.8,1.2c0,0,0.1,0,0.2,0c0.3,0,0.5,0.1,0.7,0.2c0.2,0.2,0.3,0.4,0.3,0.7
	c0,0.2-0.1,0.5-0.3,0.6c-0.2,0.2-0.4,0.3-0.7,0.3c-0.3,0-0.5-0.1-0.7-0.3c-0.2-0.2-0.3-0.4-0.3-0.6c0-0.4,0.1-0.8,0.2-1.2
	c0.2-0.4,0.4-0.7,0.7-1c0.3-0.3,0.6-0.5,1-0.7c0.4-0.2,0.8-0.2,1.2-0.2c0.6,0,1.2,0.1,1.8,0.4c0.6,0.3,1,0.7,1.3,1.2
	c0.3,0.5,0.5,1.1,0.5,1.8c0,0.5-0.1,1-0.3,1.4c-0.2,0.4-0.5,0.8-0.8,1.2c-0.3,0.4-0.8,0.8-1.3,1.2c-0.5,0.5-0.9,0.8-1,0.9L167,402
	h1.6c0.8,0,1.5,0,2,0c0.5,0,0.8,0,0.9-0.1c0.1-0.1,0.3-0.7,0.4-1.6h0.5l-0.5,3H165.6z"/>
<path class="st1" d="M174.7,405.8v-1h2.3v-22.1h-2.3v-1h3.3v24H174.7z"/>
<path class="st1" d="M188.5,394.3c-0.1,0-0.2-0.1-0.3-0.2c-0.1-0.1-0.1-0.2-0.1-0.3s0-0.2,0.1-0.3c0.1-0.1,0.2-0.2,0.3-0.2h13.8
	c0.1,0,0.2,0.1,0.3,0.2c0.1,0.1,0.1,0.2,0.1,0.3s0,0.2-0.1,0.3c-0.1,0.1-0.2,0.2-0.3,0.2H188.5z"/>
<path class="st1" d="M210.8,399.8c-0.2,0-0.2-0.1-0.2-0.3c0,0,0-0.1,0-0.2c0-0.1,0.1-0.2,0.1-0.2c0-0.1,0.1-0.1,0.2-0.1
	c1,0,1.6-0.1,2-0.2c0.2-0.1,0.4-0.3,0.5-0.6l3.3-13.2c0-0.2,0-0.3,0-0.3c0-0.2-0.1-0.3-0.3-0.3c-0.3-0.1-0.9-0.1-1.7-0.1
	c-0.2,0-0.2-0.1-0.2-0.3c0,0,0-0.1,0-0.2c0-0.1,0.1-0.2,0.1-0.2c0-0.1,0.1-0.1,0.2-0.1h13c0.2,0,0.2,0.1,0.2,0.3l-0.6,5
	c0,0,0,0.1-0.1,0.1c-0.1,0-0.1,0.1-0.2,0.1H227c-0.2,0-0.2-0.1-0.2-0.3c0.1-0.8,0.1-1.4,0.1-1.7c0-0.6-0.1-1.1-0.3-1.5
	c-0.2-0.4-0.5-0.6-0.9-0.8c-0.4-0.2-0.8-0.3-1.2-0.3c-0.4,0-1-0.1-1.7-0.1H220c-0.4,0-0.7,0-0.9,0.1c-0.1,0.1-0.3,0.3-0.4,0.7
	l-1.5,5.8h1.9c0.8,0,1.4-0.1,1.8-0.2c0.4-0.1,0.7-0.3,1-0.7c0.2-0.4,0.5-0.9,0.7-1.7c0-0.1,0.1-0.1,0.1-0.2c0,0,0.1-0.1,0.1-0.1h0.2
	c0.2,0,0.2,0.1,0.2,0.3l-1.5,5.9c0,0.1-0.1,0.2-0.2,0.2h-0.2c-0.2,0-0.2-0.1-0.2-0.3c0.2-0.6,0.2-1.1,0.2-1.4c0-0.5-0.2-0.8-0.6-0.9
	c-0.4-0.1-1-0.2-1.7-0.2h-2l-1.6,6.5c-0.1,0.2-0.1,0.4-0.1,0.5c0,0.1,0.3,0.2,0.8,0.2h2.9c1.2,0,2.1-0.1,2.8-0.3
	c0.7-0.2,1.3-0.5,1.8-0.9c0.5-0.4,0.9-0.9,1.2-1.5c0.3-0.6,0.8-1.5,1.2-2.7c0-0.1,0.1-0.2,0.2-0.2h0.2c0.1,0,0.1,0,0.2,0.1
	c0,0.1,0.1,0.1,0.1,0.2c0,0,0,0.1,0,0.1l-2.5,5.8c0,0.1-0.1,0.1-0.2,0.1H210.8z"/>
<path class="st1" d="M231.4,405.8v-24h3.3v1h-2.3v22.1h2.3v1H231.4z"/>
<path class="st1" d="M238.6,394.6c0,1,0.2,1.8,0.6,2.5c0.4,0.7,0.9,1.3,1.6,1.7s1.5,0.6,2.5,0.6c1,0,2-0.3,2.9-0.8
	c0.9-0.5,1.7-1.2,2.4-2.1c0.7-0.9,1.1-1.8,1.4-2.8c0-0.1,0.1-0.1,0.2-0.1h0.3c0.1,0,0.1,0,0.2,0.1c0,0,0.1,0.1,0.1,0.1
	c0,0,0,0,0,0.1c-0.3,1.1-0.8,2.1-1.6,3.1c-0.8,1-1.7,1.7-2.8,2.3c-1.1,0.6-2.2,0.9-3.4,0.9c-1.2,0-2.4-0.3-3.4-0.8
	c-1-0.6-1.8-1.3-2.3-2.3s-0.8-2.1-0.8-3.4c0-1.3,0.3-2.7,0.9-4c0.6-1.3,1.4-2.5,2.4-3.5c1-1,2.2-1.8,3.5-2.5c1.3-0.6,2.6-0.9,4-0.9
	c0.5,0,1,0.1,1.5,0.2c0.5,0.2,0.9,0.4,1.3,0.7c0.4,0.3,0.8,0.7,1,1.1l1.9-2.1c0,0,0,0,0.1,0h0.1c0.1,0,0.1,0,0.1,0.1
	c0,0.1,0.1,0.1,0.1,0.2l-1.6,6.5c0,0.1-0.1,0.2-0.2,0.2h-0.4c-0.1,0-0.2-0.1-0.2-0.3c0.1-0.4,0.1-0.8,0.1-1.3c0-0.8-0.1-1.5-0.4-2.2
	c-0.3-0.7-0.7-1.3-1.2-1.7c-0.6-0.4-1.2-0.6-2-0.6c-1.3,0-2.5,0.3-3.6,1c-1.1,0.7-2,1.5-2.8,2.6c-0.8,1.1-1.3,2.3-1.8,3.5
	S238.6,393.4,238.6,394.6z"/>
<path class="st1" d="M253.6,403.4v-0.6c1.4,0,2.1-0.2,2.1-0.5v-8.9c-0.6,0.3-1.3,0.4-2.2,0.4v-0.6c1.4,0,2.4-0.4,3.1-1.1h0.2
	c0,0,0.1,0,0.1,0c0,0,0.1,0.1,0.1,0.1v10c0,0.4,0.7,0.5,2.1,0.5v0.6H253.6z"/>
<path class="st1" d="M262,405.8v-1h2.3v-22.1H262v-1h3.3v24H262z"/>
<path class="st1" d="M269.6,405.8c-0.1,0-0.2-0.1-0.2-0.2c0-0.1,0-0.1,0-0.2c2.7-2.7,4.1-6.6,4.1-11.6c0-5.1-1.4-8.9-4.1-11.6
	c-0.1,0-0.1-0.1-0.1-0.2c0-0.1,0-0.1,0.1-0.1c0,0,0.1-0.1,0.1-0.1h0.2c0.1,0,0.1,0,0.1,0c1.1,0.9,2.1,2,2.9,3.3
	c0.8,1.3,1.3,2.7,1.7,4.1c0.4,1.5,0.5,3,0.5,4.5c0,1.1-0.1,2.2-0.3,3.3c-0.2,1.1-0.5,2.2-0.9,3.2c-0.4,1.1-0.9,2.1-1.6,3
	c-0.6,0.9-1.4,1.7-2.3,2.4c0,0-0.1,0-0.1,0H269.6z"/>
<path class="st1" d="M278.6,405.3C278.6,405.3,278.6,405.3,278.6,405.3l8.4-23.2c0-0.1,0.1-0.2,0.2-0.2c0.1-0.1,0.2-0.1,0.3-0.1
	c0.1,0,0.2,0,0.3,0.1c0.1,0.1,0.1,0.2,0.1,0.4v0.1l-8.3,23.1c-0.1,0.2-0.2,0.3-0.5,0.3c-0.1,0-0.3,0-0.3-0.1
	C278.6,405.6,278.6,405.5,278.6,405.3z"/>
<path class="st1" d="M290.2,399.8c-0.2,0-0.2-0.1-0.2-0.3c0,0,0-0.1,0-0.2c0-0.1,0.1-0.2,0.1-0.2c0-0.1,0.1-0.1,0.2-0.1
	c1,0,1.6-0.1,2-0.2c0.2-0.1,0.4-0.3,0.5-0.6L296,385c0-0.2,0-0.3,0-0.3c0-0.2-0.1-0.3-0.3-0.3c-0.3-0.1-0.9-0.1-1.7-0.1
	c-0.2,0-0.2-0.1-0.2-0.3c0,0,0-0.1,0-0.2c0-0.1,0.1-0.2,0.1-0.2c0-0.1,0.1-0.1,0.2-0.1h13c0.2,0,0.2,0.1,0.2,0.3l-0.6,5
	c0,0,0,0.1-0.1,0.1c-0.1,0-0.1,0.1-0.2,0.1h-0.2c-0.2,0-0.2-0.1-0.2-0.3c0.1-0.8,0.1-1.4,0.1-1.7c0-0.6-0.1-1.1-0.3-1.5
	c-0.2-0.4-0.5-0.6-0.9-0.8c-0.4-0.2-0.8-0.3-1.2-0.3c-0.4,0-1-0.1-1.7-0.1h-2.7c-0.4,0-0.7,0-0.9,0.1c-0.1,0.1-0.3,0.3-0.4,0.7
	l-1.5,5.8h1.9c0.8,0,1.4-0.1,1.8-0.2c0.4-0.1,0.7-0.3,1-0.7c0.2-0.4,0.5-0.9,0.7-1.7c0-0.1,0.1-0.1,0.1-0.2c0,0,0.1-0.1,0.1-0.1h0.2
	c0.2,0,0.2,0.1,0.2,0.3l-1.5,5.9c0,0.1-0.1,0.2-0.2,0.2h-0.2c-0.2,0-0.2-0.1-0.2-0.3c0.2-0.6,0.2-1.1,0.2-1.4c0-0.5-0.2-0.8-0.6-0.9
	c-0.4-0.1-1-0.2-1.7-0.2h-2l-1.6,6.5c-0.1,0.2-0.1,0.4-0.1,0.5c0,0.1,0.3,0.2,0.8,0.2h2.9c1.2,0,2.1-0.1,2.8-0.3
	c0.7-0.2,1.3-0.5,1.8-0.9c0.5-0.4,0.9-0.9,1.2-1.5c0.3-0.6,0.8-1.5,1.2-2.7c0-0.1,0.1-0.2,0.2-0.2h0.2c0.1,0,0.1,0,0.2,0.1
	c0,0.1,0.1,0.1,0.1,0.2c0,0,0,0.1,0,0.1l-2.5,5.8c0,0.1-0.1,0.1-0.2,0.1H290.2z"/>
<path class="st1" d="M310.7,405.8v-24h3.3v1h-2.3v22.1h2.3v1H310.7z"/>
<path class="st1" d="M317.9,394.6c0,1,0.2,1.8,0.6,2.5c0.4,0.7,0.9,1.3,1.6,1.7c0.7,0.4,1.5,0.6,2.5,0.6c1,0,2-0.3,2.9-0.8
	c0.9-0.5,1.7-1.2,2.4-2.1c0.7-0.9,1.1-1.8,1.4-2.8c0-0.1,0.1-0.1,0.2-0.1h0.3c0.1,0,0.1,0,0.2,0.1s0.1,0.1,0.1,0.1c0,0,0,0,0,0.1
	c-0.3,1.1-0.8,2.1-1.6,3.1c-0.8,1-1.7,1.7-2.8,2.3c-1.1,0.6-2.2,0.9-3.4,0.9c-1.2,0-2.4-0.3-3.4-0.8c-1-0.6-1.8-1.3-2.3-2.3
	c-0.6-1-0.8-2.1-0.8-3.4c0-1.3,0.3-2.7,0.9-4c0.6-1.3,1.4-2.5,2.4-3.5c1-1,2.2-1.8,3.5-2.5c1.3-0.6,2.6-0.9,4-0.9
	c0.5,0,1,0.1,1.5,0.2c0.5,0.2,0.9,0.4,1.3,0.7c0.4,0.3,0.8,0.7,1,1.1l1.9-2.1c0,0,0,0,0.1,0h0.1c0.1,0,0.1,0,0.1,0.1
	c0,0.1,0.1,0.1,0.1,0.2l-1.6,6.5c0,0.1-0.1,0.2-0.2,0.2h-0.4c-0.1,0-0.2-0.1-0.2-0.3c0.1-0.4,0.1-0.8,0.1-1.3c0-0.8-0.1-1.5-0.4-2.2
	c-0.3-0.7-0.7-1.3-1.2-1.7c-0.6-0.4-1.2-0.6-2-0.6c-1.3,0-2.5,0.3-3.6,1c-1.1,0.7-2,1.5-2.8,2.6c-0.8,1.1-1.3,2.3-1.8,3.5
	S317.9,393.4,317.9,394.6z"/>
<path class="st1" d="M332.9,403.4v-0.6c1.4,0,2.1-0.2,2.1-0.5v-8.9c-0.6,0.3-1.3,0.4-2.2,0.4v-0.6c1.4,0,2.4-0.4,3.1-1.1h0.2
	c0,0,0.1,0,0.1,0c0,0,0.1,0.1,0.1,0.1v10c0,0.4,0.7,0.5,2.1,0.5v0.6H332.9z"/>
<path class="st1" d="M341.4,405.8v-1h2.3v-22.1h-2.3v-1h3.3v24H341.4z"/>
<line class="st0" x1="57.8" y1="350.7" x2="57.8" y2="5.7"/>
<line class="st0" x1="402.8" y1="350.7" x2="402.8" y2="5.7"/>
<line class="st0" x1="57.8" y1="350.7" x2="61.3" y2="350.7"/>
<line class="st0" x1="57.8" y1="281.7" x2="61.3" y2="281.7"/>
<line class="st0" x1="57.8" y1="212.7" x2="61.3" y2="212.7"/>
<line class="st0" x1="57.8" y1="143.7" x2="61.3" y2="143.7"/>
<line class="st0" x1="57.8" y1="74.7" x2="61.3" y2="74.7"/>
<line class="st0" x1="57.8" y1="5.7" x2="61.3" y2="5.7"/>
<line class="st0" x1="402.8" y1="350.7" x2="399.4" y2="350.7"/>
<line class="st0" x1="402.8" y1="281.7" x2="399.4" y2="281.7"/>
<line class="st0" x1="402.8" y1="212.7" x2="399.4" y2="212.7"/>
<line class="st0" x1="402.8" y1="143.7" x2="399.4" y2="143.7"/>
<line class="st0" x1="402.8" y1="74.7" x2="399.4" y2="74.7"/>
<line class="st0" x1="402.8" y1="5.7" x2="399.4" y2="5.7"/>
<path class="st1" d="M44.7,350.9c0-0.3,0-0.6,0-0.9c0-0.3,0-0.7,0.1-1c0-0.3,0.1-0.7,0.2-1c0.1-0.3,0.2-0.6,0.4-0.9
	c0.2-0.2,0.4-0.4,0.7-0.6c0.3-0.2,0.6-0.2,1-0.2c0.4,0,0.7,0.1,1,0.2c0.3,0.2,0.5,0.4,0.7,0.6c0.2,0.2,0.3,0.5,0.4,0.9
	c0.1,0.3,0.2,0.7,0.2,1c0,0.3,0.1,0.7,0.1,1s0,0.7,0,0.9c0,0.4,0,0.9,0,1.5c0,0.5-0.1,1.1-0.3,1.5c-0.1,0.5-0.4,0.9-0.7,1.2
	c-0.3,0.3-0.8,0.5-1.4,0.5s-1.1-0.2-1.4-0.5c-0.3-0.3-0.6-0.7-0.7-1.2s-0.2-1-0.3-1.5C44.7,351.9,44.7,351.4,44.7,350.9z
	 M43.2,350.9c0,0.4,0,0.9,0,1.3c0,0.5,0.1,0.9,0.2,1.3c0.1,0.4,0.2,0.9,0.4,1.2c0.2,0.4,0.4,0.7,0.7,1c0.3,0.3,0.6,0.5,1.1,0.7
	c0.4,0.2,1,0.3,1.6,0.3c0.6,0,1.1-0.1,1.6-0.3c0.4-0.2,0.8-0.4,1.1-0.7c0.3-0.3,0.5-0.6,0.7-1c0.2-0.4,0.3-0.8,0.4-1.2
	c0.1-0.4,0.1-0.9,0.2-1.3c0-0.5,0-0.9,0-1.3c0-0.4,0-0.9,0-1.3c0-0.5-0.1-0.9-0.2-1.3c-0.1-0.4-0.2-0.9-0.4-1.3
	c-0.2-0.4-0.4-0.7-0.7-1c-0.3-0.3-0.6-0.5-1.1-0.7c-0.4-0.2-1-0.3-1.6-0.3c-0.6,0-1.1,0.1-1.6,0.3c-0.4,0.2-0.8,0.4-1.1,0.7
	c-0.3,0.3-0.5,0.6-0.7,1c-0.2,0.4-0.3,0.8-0.4,1.3c-0.1,0.4-0.1,0.9-0.2,1.3C43.2,350.1,43.2,350.5,43.2,350.9z"/>
<path class="st1" d="M31.7,281.9c0-0.3,0-0.6,0-0.9c0-0.3,0-0.7,0.1-1c0-0.3,0.1-0.7,0.2-1c0.1-0.3,0.2-0.6,0.4-0.9
	c0.2-0.2,0.4-0.4,0.7-0.6c0.3-0.2,0.6-0.2,1-0.2c0.4,0,0.7,0.1,1,0.2c0.3,0.2,0.5,0.4,0.7,0.6c0.2,0.2,0.3,0.5,0.4,0.9
	c0.1,0.3,0.2,0.7,0.2,1c0,0.3,0.1,0.7,0.1,1s0,0.7,0,0.9c0,0.4,0,0.9,0,1.5c0,0.5-0.1,1.1-0.3,1.5c-0.1,0.5-0.4,0.9-0.7,1.2
	s-0.8,0.5-1.4,0.5s-1.1-0.2-1.4-0.5s-0.6-0.7-0.7-1.2c-0.1-0.5-0.2-1-0.3-1.5C31.7,282.9,31.7,282.4,31.7,281.9z M30.2,281.9
	c0,0.4,0,0.9,0,1.3c0,0.5,0.1,0.9,0.2,1.3c0.1,0.4,0.2,0.9,0.4,1.2c0.2,0.4,0.4,0.7,0.7,1c0.3,0.3,0.6,0.5,1.1,0.7
	c0.4,0.2,1,0.3,1.6,0.3c0.6,0,1.1-0.1,1.6-0.3c0.4-0.2,0.8-0.4,1.1-0.7c0.3-0.3,0.5-0.6,0.7-1c0.2-0.4,0.3-0.8,0.4-1.2
	c0.1-0.4,0.1-0.9,0.2-1.3c0-0.5,0-0.9,0-1.3c0-0.4,0-0.9,0-1.3c0-0.5-0.1-0.9-0.2-1.3c-0.1-0.4-0.2-0.9-0.4-1.3
	c-0.2-0.4-0.4-0.7-0.7-1c-0.3-0.3-0.6-0.5-1.1-0.7c-0.4-0.2-1-0.3-1.6-0.3c-0.6,0-1.1,0.1-1.6,0.3c-0.4,0.2-0.8,0.4-1.1,0.7
	c-0.3,0.3-0.5,0.6-0.7,1c-0.2,0.4-0.3,0.8-0.4,1.3c-0.1,0.4-0.1,0.9-0.2,1.3C30.2,281.1,30.2,281.5,30.2,281.9z M40,285.8v1.8h1.8
	v-1.8H40z M44,280.1h1.4c0-0.4,0-0.7,0.1-1c0.1-0.3,0.2-0.7,0.4-0.9c0.2-0.3,0.4-0.5,0.7-0.7c0.3-0.2,0.6-0.3,1-0.3
	c0.3,0,0.6,0,0.9,0.1c0.3,0.1,0.5,0.2,0.7,0.4c0.2,0.2,0.4,0.4,0.5,0.7c0.1,0.3,0.2,0.5,0.2,0.9c0,0.4-0.1,0.8-0.2,1.1
	c-0.1,0.3-0.3,0.6-0.6,0.9c-0.2,0.3-0.6,0.5-0.9,0.8c-0.4,0.3-0.8,0.5-1.3,0.8c-0.4,0.2-0.8,0.5-1.2,0.8c-0.4,0.3-0.7,0.6-1,1
	c-0.3,0.4-0.5,0.8-0.7,1.3c-0.2,0.5-0.3,1.1-0.4,1.8h7.6v-1.2h-6c0.1-0.4,0.2-0.7,0.4-1c0.2-0.3,0.5-0.5,0.8-0.8
	c0.3-0.2,0.6-0.5,1-0.7c0.4-0.2,0.7-0.4,1.1-0.7c0.4-0.2,0.7-0.5,1.1-0.7c0.3-0.3,0.6-0.5,0.9-0.8c0.3-0.3,0.5-0.7,0.6-1.1
	c0.2-0.4,0.2-0.9,0.2-1.4c0-0.5-0.1-1-0.3-1.4s-0.5-0.8-0.8-1c-0.3-0.3-0.7-0.5-1.2-0.6c-0.4-0.1-0.9-0.2-1.4-0.2
	c-0.6,0-1.2,0.1-1.6,0.3s-0.9,0.5-1.2,0.9c-0.3,0.4-0.6,0.8-0.7,1.3C44,279,43.9,279.5,44,280.1z"/>
<path class="st1" d="M31.7,212.9c0-0.3,0-0.6,0-0.9c0-0.3,0-0.7,0.1-1c0-0.3,0.1-0.7,0.2-1c0.1-0.3,0.2-0.6,0.4-0.9
	c0.2-0.2,0.4-0.4,0.7-0.6c0.3-0.2,0.6-0.2,1-0.2c0.4,0,0.7,0.1,1,0.2c0.3,0.2,0.5,0.4,0.7,0.6c0.2,0.2,0.3,0.5,0.4,0.9
	c0.1,0.3,0.2,0.7,0.2,1c0,0.3,0.1,0.7,0.1,1s0,0.7,0,0.9c0,0.4,0,0.9,0,1.5c0,0.5-0.1,1.1-0.3,1.5c-0.1,0.5-0.4,0.9-0.7,1.2
	s-0.8,0.5-1.4,0.5s-1.1-0.2-1.4-0.5s-0.6-0.7-0.7-1.2c-0.1-0.5-0.2-1-0.3-1.5C31.7,213.9,31.7,213.4,31.7,212.9z M30.2,212.9
	c0,0.4,0,0.9,0,1.3c0,0.5,0.1,0.9,0.2,1.3c0.1,0.4,0.2,0.9,0.4,1.2c0.2,0.4,0.4,0.7,0.7,1c0.3,0.3,0.6,0.5,1.1,0.7
	c0.4,0.2,1,0.3,1.6,0.3c0.6,0,1.1-0.1,1.6-0.3c0.4-0.2,0.8-0.4,1.1-0.7c0.3-0.3,0.5-0.6,0.7-1c0.2-0.4,0.3-0.8,0.4-1.2
	c0.1-0.4,0.1-0.9,0.2-1.3c0-0.5,0-0.9,0-1.3c0-0.4,0-0.9,0-1.3c0-0.5-0.1-0.9-0.2-1.3c-0.1-0.4-0.2-0.9-0.4-1.3
	c-0.2-0.4-0.4-0.7-0.7-1c-0.3-0.3-0.6-0.5-1.1-0.7c-0.4-0.2-1-0.3-1.6-0.3c-0.6,0-1.1,0.1-1.6,0.3c-0.4,0.2-0.8,0.4-1.1,0.7
	c-0.3,0.3-0.5,0.6-0.7,1c-0.2,0.4-0.3,0.8-0.4,1.3c-0.1,0.4-0.1,0.9-0.2,1.3C30.2,212.1,30.2,212.5,30.2,212.9z M40,216.8v1.8h1.8
	v-1.8H40z M48.8,214.7h-3.9l3.9-5.7h0V214.7z M50.1,214.7V207H49l-5.3,7.6v1.3h5.1v2.7h1.3v-2.7h1.6v-1.2H50.1z"/>
<path class="st1" d="M31.7,143.9c0-0.3,0-0.6,0-0.9c0-0.3,0-0.7,0.1-1c0-0.3,0.1-0.7,0.2-1c0.1-0.3,0.2-0.6,0.4-0.9
	c0.2-0.2,0.4-0.4,0.7-0.6c0.3-0.2,0.6-0.2,1-0.2c0.4,0,0.7,0.1,1,0.2c0.3,0.2,0.5,0.4,0.7,0.6c0.2,0.2,0.3,0.5,0.4,0.9
	c0.1,0.3,0.2,0.7,0.2,1c0,0.3,0.1,0.7,0.1,1s0,0.7,0,0.9c0,0.4,0,0.9,0,1.5c0,0.5-0.1,1.1-0.3,1.5c-0.1,0.5-0.4,0.9-0.7,1.2
	s-0.8,0.5-1.4,0.5s-1.1-0.2-1.4-0.5s-0.6-0.7-0.7-1.2c-0.1-0.5-0.2-1-0.3-1.5C31.7,144.9,31.7,144.4,31.7,143.9z M30.2,143.9
	c0,0.4,0,0.9,0,1.3c0,0.5,0.1,0.9,0.2,1.3c0.1,0.4,0.2,0.9,0.4,1.2c0.2,0.4,0.4,0.7,0.7,1c0.3,0.3,0.6,0.5,1.1,0.7
	c0.4,0.2,1,0.3,1.6,0.3c0.6,0,1.1-0.1,1.6-0.3c0.4-0.2,0.8-0.4,1.1-0.7c0.3-0.3,0.5-0.6,0.7-1c0.2-0.4,0.3-0.8,0.4-1.2
	c0.1-0.4,0.1-0.9,0.2-1.3c0-0.5,0-0.9,0-1.3c0-0.4,0-0.9,0-1.3c0-0.5-0.1-0.9-0.2-1.3c-0.1-0.4-0.2-0.9-0.4-1.3
	c-0.2-0.4-0.4-0.7-0.7-1c-0.3-0.3-0.6-0.5-1.1-0.7c-0.4-0.2-1-0.3-1.6-0.3c-0.6,0-1.1,0.1-1.6,0.3c-0.4,0.2-0.8,0.4-1.1,0.7
	c-0.3,0.3-0.5,0.6-0.7,1c-0.2,0.4-0.3,0.8-0.4,1.3c-0.1,0.4-0.1,0.9-0.2,1.3C30.2,143.1,30.2,143.5,30.2,143.9z M40,147.8v1.8h1.8
	v-1.8H40z M50.1,141h1.4c-0.1-1-0.4-1.7-1-2.2c-0.6-0.5-1.3-0.8-2.3-0.8c-0.8,0-1.5,0.2-2.1,0.5c-0.5,0.4-1,0.8-1.3,1.4
	c-0.3,0.6-0.6,1.2-0.7,2c-0.1,0.8-0.2,1.5-0.2,2.3c0,0.6,0,1.3,0.1,1.9c0.1,0.7,0.3,1.3,0.6,1.8c0.3,0.5,0.7,1,1.2,1.3
	c0.5,0.4,1.2,0.5,2.1,0.5c0.7,0,1.4-0.1,1.9-0.4c0.5-0.2,0.9-0.6,1.2-0.9c0.3-0.4,0.5-0.8,0.7-1.3s0.2-0.9,0.2-1.3
	c0-0.5-0.1-1-0.2-1.5c-0.2-0.5-0.4-0.9-0.7-1.2c-0.3-0.3-0.7-0.6-1.1-0.8c-0.4-0.2-0.9-0.3-1.5-0.3c-0.6,0-1.2,0.1-1.7,0.4
	c-0.5,0.2-0.9,0.6-1.2,1.2l0,0c0-0.4,0.1-0.9,0.1-1.4s0.2-1,0.4-1.4s0.5-0.8,0.8-1.1c0.4-0.3,0.8-0.4,1.4-0.4c0.6,0,1,0.2,1.3,0.5
	C49.8,140,50,140.5,50.1,141z M47.9,143.4c0.4,0,0.7,0.1,1,0.2c0.3,0.1,0.5,0.3,0.7,0.6c0.2,0.2,0.3,0.5,0.4,0.8
	c0.1,0.3,0.1,0.7,0.1,1c0,0.3-0.1,0.7-0.2,1c-0.1,0.3-0.3,0.6-0.5,0.8c-0.2,0.2-0.4,0.4-0.7,0.6s-0.6,0.2-1,0.2
	c-0.4,0-0.7-0.1-1-0.2c-0.3-0.1-0.6-0.3-0.8-0.6c-0.2-0.2-0.4-0.5-0.5-0.8c-0.1-0.3-0.2-0.7-0.2-1c0-0.4,0.1-0.7,0.2-1
	c0.1-0.3,0.3-0.6,0.5-0.8c0.2-0.2,0.5-0.4,0.8-0.6C47.2,143.5,47.6,143.4,47.9,143.4z"/>
<path class="st1" d="M31.7,74.9c0-0.3,0-0.6,0-0.9c0-0.3,0-0.7,0.1-1c0-0.3,0.1-0.7,0.2-1c0.1-0.3,0.2-0.6,0.4-0.9
	c0.2-0.2,0.4-0.4,0.7-0.6c0.3-0.2,0.6-0.2,1-0.2c0.4,0,0.7,0.1,1,0.2c0.3,0.2,0.5,0.4,0.7,0.6c0.2,0.2,0.3,0.5,0.4,0.9
	c0.1,0.3,0.2,0.7,0.2,1c0,0.3,0.1,0.7,0.1,1c0,0.3,0,0.7,0,0.9c0,0.4,0,0.9,0,1.5c0,0.5-0.1,1.1-0.3,1.5c-0.1,0.5-0.4,0.9-0.7,1.2
	c-0.3,0.3-0.8,0.5-1.4,0.5s-1.1-0.2-1.4-0.5c-0.3-0.3-0.6-0.7-0.7-1.2c-0.1-0.5-0.2-1-0.3-1.5C31.7,75.9,31.7,75.4,31.7,74.9z
	 M30.2,74.9c0,0.4,0,0.9,0,1.3c0,0.5,0.1,0.9,0.2,1.3c0.1,0.4,0.2,0.9,0.4,1.2c0.2,0.4,0.4,0.7,0.7,1c0.3,0.3,0.6,0.5,1.1,0.7
	c0.4,0.2,1,0.3,1.6,0.3c0.6,0,1.1-0.1,1.6-0.3c0.4-0.2,0.8-0.4,1.1-0.7c0.3-0.3,0.5-0.6,0.7-1c0.2-0.4,0.3-0.8,0.4-1.2
	c0.1-0.4,0.1-0.9,0.2-1.3c0-0.5,0-0.9,0-1.3c0-0.4,0-0.9,0-1.3c0-0.5-0.1-0.9-0.2-1.3c-0.1-0.4-0.2-0.9-0.4-1.3
	c-0.2-0.4-0.4-0.7-0.7-1c-0.3-0.3-0.6-0.5-1.1-0.7c-0.4-0.2-1-0.3-1.6-0.3c-0.6,0-1.1,0.1-1.6,0.3c-0.4,0.2-0.8,0.4-1.1,0.7
	c-0.3,0.3-0.5,0.6-0.7,1c-0.2,0.4-0.3,0.8-0.4,1.3c-0.1,0.4-0.1,0.9-0.2,1.3C30.2,74.1,30.2,74.5,30.2,74.9z M40,78.8v1.8h1.8v-1.8
	H40z M45.8,72c0-0.3,0.1-0.6,0.2-0.8c0.1-0.2,0.3-0.4,0.4-0.6s0.4-0.3,0.7-0.3c0.3-0.1,0.5-0.1,0.8-0.1c0.6,0,1,0.2,1.4,0.5
	c0.4,0.3,0.6,0.7,0.6,1.3s-0.2,1.1-0.5,1.4c-0.4,0.3-0.8,0.5-1.4,0.5c-0.3,0-0.6,0-0.8-0.1c-0.3-0.1-0.5-0.2-0.7-0.3
	c-0.2-0.2-0.3-0.3-0.4-0.6C45.8,72.6,45.8,72.3,45.8,72z M44.3,72c0,0.5,0.1,1,0.4,1.5c0.3,0.4,0.7,0.8,1.2,1
	c-0.7,0.2-1.2,0.6-1.5,1.1c-0.4,0.5-0.5,1.1-0.5,1.8c0,0.6,0.1,1.1,0.3,1.6c0.2,0.4,0.5,0.8,0.8,1.1c0.4,0.3,0.8,0.5,1.3,0.7
	c0.5,0.1,1,0.2,1.6,0.2c0.5,0,1-0.1,1.5-0.2c0.5-0.2,0.9-0.4,1.2-0.7c0.3-0.3,0.6-0.7,0.8-1.1c0.2-0.4,0.3-0.9,0.3-1.5
	c0-0.7-0.2-1.3-0.5-1.8c-0.3-0.5-0.9-0.9-1.6-1.1c0.5-0.2,0.9-0.5,1.2-1c0.3-0.4,0.4-0.9,0.4-1.4c0-0.4-0.1-0.7-0.2-1.1
	c-0.1-0.4-0.3-0.7-0.6-1c-0.3-0.3-0.6-0.5-1.1-0.7c-0.4-0.2-1-0.3-1.6-0.3c-0.4,0-0.9,0.1-1.3,0.2c-0.4,0.1-0.8,0.3-1.1,0.6
	c-0.3,0.3-0.6,0.6-0.8,0.9C44.4,71.1,44.3,71.5,44.3,72z M45.4,77.4c0-0.3,0.1-0.6,0.2-0.9c0.1-0.3,0.3-0.5,0.5-0.7
	c0.2-0.2,0.5-0.3,0.8-0.5c0.3-0.1,0.6-0.2,1-0.2c0.3,0,0.6,0.1,0.9,0.2c0.3,0.1,0.5,0.3,0.8,0.5c0.2,0.2,0.4,0.4,0.5,0.7
	c0.1,0.3,0.2,0.6,0.2,0.9c0,0.3-0.1,0.6-0.2,0.9c-0.1,0.3-0.3,0.5-0.5,0.7c-0.2,0.2-0.5,0.4-0.8,0.5c-0.3,0.1-0.6,0.2-1,0.2
	c-0.7,0-1.3-0.2-1.8-0.6S45.4,78.1,45.4,77.4z"/>
<path class="st1" d="M48.4,11.7V0h-1.1c-0.1,0.4-0.2,0.8-0.4,1.1c-0.2,0.3-0.5,0.5-0.8,0.7c-0.3,0.2-0.6,0.3-1,0.3
	c-0.4,0.1-0.8,0.1-1.2,0.1v1.1h3v8.4H48.4z"/>
<path class="st1" d="M17.6,202.8c-0.1,0-0.2,0-0.2,0l-7.2-1.8c-0.4-0.1-0.8-0.2-1.2-0.2c-0.7,0-1,0.2-1,0.7c0,0.5,0.3,0.9,0.9,1.1
	c0.6,0.2,1.4,0.5,2.3,0.7c0.1,0,0.1,0,0.1,0.1c0,0,0,0.1,0,0.1v0.3c0,0.1,0,0.1-0.1,0.1c-0.1,0-0.1,0.1-0.2,0.1
	c-0.7-0.2-1.3-0.3-1.8-0.5c-0.5-0.2-0.9-0.4-1.3-0.8c-0.4-0.3-0.6-0.8-0.6-1.3c0-0.6,0.2-1,0.5-1.5c0.3-0.4,0.7-0.7,1.3-0.8
	c-0.5-0.4-1-0.9-1.3-1.4c-0.3-0.5-0.5-1.1-0.5-1.7c0-0.5,0.1-1,0.4-1.3c0.3-0.4,0.7-0.6,1.2-0.6c0.4,0,0.8,0.1,1.1,0.4
	c0.3,0.3,0.5,0.6,0.5,1c0,0.3-0.1,0.5-0.2,0.7c-0.2,0.2-0.4,0.3-0.6,0.3c-0.4,0-0.7-0.1-0.9-0.4c-0.3-0.3-0.4-0.6-0.4-0.9
	c-0.2,0.3-0.3,0.6-0.3,0.9c0,0.7,0.2,1.3,0.7,1.8c0.5,0.5,1.1,1,1.9,1.4l6.9,1.7c0.2,0.1,0.4,0.2,0.6,0.4c0.2,0.2,0.2,0.4,0.2,0.6
	c0,0.2-0.1,0.4-0.2,0.5C18,202.7,17.8,202.8,17.6,202.8z"/>
<path class="st1" d="M7.3,191.7c0,0.1-0.1,0.3-0.2,0.4c-0.1,0.1-0.2,0.1-0.4,0.1c-0.2,0-0.3-0.1-0.4-0.2l-1.2-2.5L4,191.9
	c-0.1,0.2-0.2,0.2-0.4,0.2c-0.1,0-0.2,0-0.4-0.1c-0.1-0.1-0.2-0.2-0.2-0.4c0-0.1,0-0.2,0.1-0.2l1.6-2.2L2,189.5
	c-0.1,0-0.3,0-0.4-0.1c-0.1-0.1-0.1-0.2-0.1-0.3c0-0.1,0-0.2,0.1-0.3c0.1-0.1,0.2-0.1,0.3-0.1h0l2.8,0.2l-1.6-2.2
	c-0.1-0.1-0.1-0.1-0.1-0.2c0-0.1,0.1-0.3,0.2-0.4c0.1-0.1,0.2-0.1,0.4-0.1c0.2,0,0.3,0.1,0.4,0.2l1.2,2.5l1.2-2.5
	c0.1-0.2,0.2-0.2,0.4-0.2c0.1,0,0.2,0,0.4,0.1c0.1,0.1,0.2,0.2,0.2,0.4c0,0.1,0,0.2-0.1,0.2l-1.6,2.2l2.8-0.2h0.1
	c0.1,0,0.2,0,0.3,0.1c0.1,0.1,0.1,0.2,0.1,0.3c0,0.1,0,0.2-0.1,0.3c-0.1,0.1-0.2,0.1-0.3,0.1l-2.8-0.2l1.6,2.2
	C7.2,191.5,7.3,191.6,7.3,191.7z"/>
<path class="st1" d="M23.9,192.4h-0.6c0-1.4-0.2-2.1-0.5-2.1h-8.9c0.3,0.6,0.4,1.3,0.4,2.2h-0.6c0-1.4-0.4-2.4-1.1-3.1v-0.2
	c0,0,0-0.1,0-0.1c0,0,0.1-0.1,0.1-0.1h10c0.4,0,0.5-0.7,0.5-2.1h0.6V192.4z"/>
<path class="st1" d="M23.5,182.5C23.5,182.5,23.4,182.5,23.5,182.5l-23.2-8.4c-0.1,0-0.2-0.1-0.2-0.2C0,173.9,0,173.8,0,173.7
	c0-0.1,0-0.2,0.1-0.3c0.1-0.1,0.2-0.1,0.4-0.1h0.1l23.1,8.3c0.2,0.1,0.3,0.2,0.3,0.5c0,0.1,0,0.2-0.1,0.3
	C23.8,182.4,23.7,182.5,23.5,182.5z"/>
<path class="st1" d="M18,172.2c0,0.2-0.1,0.2-0.3,0.2c0,0-0.1,0-0.2,0c-0.1,0-0.2-0.1-0.2-0.1c-0.1,0-0.1-0.1-0.1-0.2
	c0-1.5-0.5-2.4-1.5-2.7l-13.1-3.2c-0.1,0.4-0.1,1.2-0.1,2.1c0,0.2-0.1,0.2-0.3,0.2c0,0-0.1,0-0.2,0c-0.1,0-0.2-0.1-0.2-0.1
	c-0.1,0-0.1-0.1-0.1-0.2v-4.1c0-0.1,0-0.2,0.1-0.2l12.7-5.3l-10.6-2.7c-0.2,0-0.3,0-0.4,0c-0.7,0-1,0.6-1,1.9c0,0.2-0.1,0.2-0.3,0.2
	c-0.2-0.1-0.3-0.1-0.4-0.1c-0.1,0-0.1-0.1-0.1-0.3v-5.1c0-0.2,0.1-0.2,0.3-0.2c0,0,0.1,0,0.2,0c0.1,0,0.2,0.1,0.2,0.1
	c0.1,0,0.1,0.1,0.1,0.2c0,1.5,0.5,2.4,1.5,2.7l13.9,3.5c0.1,0.1,0.2,0.1,0.2,0.2v0.3c0,0.1-0.1,0.2-0.2,0.2l-14.5,6.1l-0.2,0
	c0,0-0.1,0-0.1,0l12.7,3.2c0,0,0.1,0,0.1,0c0.1,0,0.1,0,0.2,0c0.4,0,0.7-0.2,0.8-0.5c0.1-0.4,0.2-0.8,0.2-1.3c0-0.2,0.1-0.2,0.3-0.2
	c0.2,0.1,0.4,0.1,0.4,0.1c0.1,0,0.1,0.1,0.1,0.3V172.2z"/>
<path class="st2" d="M57.8,178.2L76,195.1l18.2,16.7l18.2,16.6l18.2,16.4l18.2,16.2l18.2,16.1l18.2,15.9l18.2,15.8l18.2,15.6
	l18.2,15.5l18.2,10.8h18.2h18.2H312h18.2h18.2h18.2h18.2h18.2"/>
<path class="st3" d="M57.8,178.2l18.2,5.1l18.2,5.1l18.2,5l18.2,5l18.2,4.9l18.2,4.9l18.2,4.8l18.2,4.8l18.2,4.8l18.2,4.7l18.2,4.7
	l18.2,4.6l18.2,4.6l18.2,4.5l18.2,4.5l18.2,4.4l18.2,4.4l18.2,4.4l18.2,4.3"/>
<path class="st4" d="M57.8,178.2l18.2,1.3l18.2,1.3l18.2,1.2l18.2,1.2l18.2,1.2l18.2,1.2l18.2,1.2l18.2,1.2l18.2,1.2l18.2,1.1
	l18.2,1.1l18.2,1.1l18.2,1.1l18.2,1.1l18.2,1.1l18.2,1.1l18.2,1l18.2,1l18.2,1"/>
<path class="st5" d="M57.8,178.2L76,177l18.2-1.2l18.2-1.2l18.2-1.2l18.2-1.2l18.2-1.2l18.2-1.2l18.2-1.2l18.2-1.2l18.2-1.2
	l18.2-1.3l18.2-1.3l18.2-1.3L312,161l18.2-1.3l18.2-1.3l18.2-1.3l18.2-1.3l18.2-1.3"/>
<path class="st6" d="M57.8,178.2L76,164.8l18.2-13.5l18.2-13.6l18.2-13.6l18.2-13.7l18.2-13.8l18.2-13.8l18.2-13.9l18.2-14
	l18.2-14.1l18.2-14.1l18.2-14.2l18.2-6.8H312h18.2h18.2h18.2h18.2h18.2"/>
<path class="st2" d="M57.8,178.2L76,195.1l18.2,16.7l18.2,16.6l18.2,16.4l18.2,16.2l18.2,16.1l18.2,15.9l18.2,15.8l18.2,15.6
	l18.2,15.5l18.2,10.8h18.2h18.2H312h18.2h18.2h18.2h18.2h18.2"/>
<path class="st3" d="M57.8,178.2l18.2,5.1l18.2,5.1l18.2,5l18.2,5l18.2,4.9l18.2,4.9l18.2,4.8l18.2,4.8l18.2,4.8l18.2,4.7l18.2,4.7
	l18.2,4.6l18.2,4.6l18.2,4.5l18.2,4.5l18.2,4.4l18.2,4.4l18.2,4.4l18.2,4.3"/>
<path class="st4" d="M57.8,178.2l18.2,1.3l18.2,1.3l18.2,1.2l18.2,1.2l18.2,1.2l18.2,1.2l18.2,1.2l18.2,1.2l18.2,1.2l18.2,1.1
	l18.2,1.1l18.2,1.1l18.2,1.1l18.2,1.1l18.2,1.1l18.2,1.1l18.2,1l18.2,1l18.2,1"/>
<path class="st5" d="M57.8,178.2L76,177l18.2-1.2l18.2-1.2l18.2-1.2l18.2-1.2l18.2-1.2l18.2-1.2l18.2-1.2l18.2-1.2l18.2-1.2
	l18.2-1.3l18.2-1.3l18.2-1.3L312,161l18.2-1.3l18.2-1.3l18.2-1.3l18.2-1.3l18.2-1.3"/>
<path class="st6" d="M57.8,178.2L76,164.8l18.2-13.5l18.2-13.6l18.2-13.6l18.2-13.7l18.2-13.8l18.2-13.8l18.2-13.9l18.2-14
	l18.2-14.1l18.2-14.1l18.2-14.2l18.2-6.8H312h18.2h18.2h18.2h18.2h18.2"/>
<path class="st2" d="M57.8,178.2L76,195.1l18.2,16.7l18.2,16.6l18.2,16.4l18.2,16.2l18.2,16.1l18.2,15.9l18.2,15.8l18.2,15.6
	l18.2,15.5l18.2,10.8h18.2h18.2H312h18.2h18.2h18.2h18.2h18.2"/>
<path class="st3" d="M57.8,178.2l18.2,5.1l18.2,5.1l18.2,5l18.2,5l18.2,4.9l18.2,4.9l18.2,4.8l18.2,4.8l18.2,4.8l18.2,4.7l18.2,4.7
	l18.2,4.6l18.2,4.6l18.2,4.5l18.2,4.5l18.2,4.4l18.2,4.4l18.2,4.4l18.2,4.3"/>
<path class="st4" d="M57.8,178.2l18.2,1.3l18.2,1.3l18.2,1.2l18.2,1.2l18.2,1.2l18.2,1.2l18.2,1.2l18.2,1.2l18.2,1.2l18.2,1.1
	l18.2,1.1l18.2,1.1l18.2,1.1l18.2,1.1l18.2,1.1l18.2,1.1l18.2,1l18.2,1l18.2,1"/>
<path class="st5" d="M57.8,178.2L76,177l18.2-1.2l18.2-1.2l18.2-1.2l18.2-1.2l18.2-1.2l18.2-1.2l18.2-1.2l18.2-1.2l18.2-1.2
	l18.2-1.3l18.2-1.3l18.2-1.3L312,161l18.2-1.3l18.2-1.3l18.2-1.3l18.2-1.3l18.2-1.3"/>
<path class="st6" d="M57.8,178.2L76,164.8l18.2-13.5l18.2-13.6l18.2-13.6l18.2-13.7l18.2-13.8l18.2-13.8l18.2-13.9l18.2-14
	l18.2-14.1l18.2-14.1l18.2-14.2l18.2-6.8H312h18.2h18.2h18.2h18.2h18.2"/>
<path class="st2" d="M57.8,178.2L76,195.1l18.2,16.7l18.2,16.6l18.2,16.4l18.2,16.2l18.2,16.1l18.2,15.9l18.2,15.8l18.2,15.6
	l18.2,15.5l18.2,10.8h18.2h18.2H312h18.2h18.2h18.2h18.2h18.2"/>
<path class="st3" d="M57.8,178.2l18.2,5.1l18.2,5.1l18.2,5l18.2,5l18.2,4.9l18.2,4.9l18.2,4.8l18.2,4.8l18.2,4.8l18.2,4.7l18.2,4.7
	l18.2,4.6l18.2,4.6l18.2,4.5l18.2,4.5l18.2,4.4l18.2,4.4l18.2,4.4l18.2,4.3"/>
<path class="st4" d="M57.8,178.2l18.2,1.3l18.2,1.3l18.2,1.2l18.2,1.2l18.2,1.2l18.2,1.2l18.2,1.2l18.2,1.2l18.2,1.2l18.2,1.1
	l18.2,1.1l18.2,1.1l18.2,1.1l18.2,1.1l18.2,1.1l18.2,1.1l18.2,1l18.2,1l18.2,1"/>
<path class="st5" d="M57.8,178.2L76,177l18.2-1.2l18.2-1.2l18.2-1.2l18.2-1.2l18.2-1.2l18.2-1.2l18.2-1.2l18.2-1.2l18.2-1.2
	l18.2-1.3l18.2-1.3l18.2-1.3L312,161l18.2-1.3l18.2-1.3l18.2-1.3l18.2-1.3l18.2-1.3"/>
<path class="st6" d="M57.8,178.2L76,164.8l18.2-13.5l18.2-13.6l18.2-13.6l18.2-13.7l18.2-13.8l18.2-13.8l18.2-13.9l18.2-14
	l18.2-14.1l18.2-14.1l18.2-14.2l18.2-6.8H312h18.2h18.2h18.2h18.2h18.2"/>
<path class="st2" d="M57.8,178.2L76,195.1l18.2,16.7l18.2,16.6l18.2,16.4l18.2,16.2l18.2,16.1l18.2,15.9l18.2,15.8l18.2,15.6
	l18.2,15.5l18.2,10.8h18.2h18.2H312h18.2h18.2h18.2h18.2h18.2"/>
<path class="st3" d="M57.8,178.2l18.2,5.1l18.2,5.1l18.2,5l18.2,5l18.2,4.9l18.2,4.9l18.2,4.8l18.2,4.8l18.2,4.8l18.2,4.7l18.2,4.7
	l18.2,4.6l18.2,4.6l18.2,4.5l18.2,4.5l18.2,4.4l18.2,4.4l18.2,4.4l18.2,4.3"/>
<path class="st4" d="M57.8,178.2l18.2,1.3l18.2,1.3l18.2,1.2l18.2,1.2l18.2,1.2l18.2,1.2l18.2,1.2l18.2,1.2l18.2,1.2l18.2,1.1
	l18.2,1.1l18.2,1.1l18.2,1.1l18.2,1.1l18.2,1.1l18.2,1.1l18.2,1l18.2,1l18.2,1"/>
<path class="st5" d="M57.8,178.2L76,177l18.2-1.2l18.2-1.2l18.2-1.2l18.2-1.2l18.2-1.2l18.2-1.2l18.2-1.2l18.2-1.2l18.2-1.2
	l18.2-1.3l18.2-1.3l18.2-1.3L312,161l18.2-1.3l18.2-1.3l18.2-1.3l18.2-1.3l18.2-1.3"/>
<path class="st6" d="M57.8,178.2L76,164.8l18.2-13.5l18.2-13.6l18.2-13.6l18.2-13.7l18.2-13.8l18.2-13.8l18.2-13.9l18.2-14
	l18.2-14.1l18.2-14.1l18.2-14.2l18.2-6.8H312h18.2h18.2h18.2h18.2h18.2"/>
<line class="st7" x1="57.8" y1="178.2" x2="287.8" y2="178.2"/>
<path class="st8" d="M297.9,183.2v-7.4h-1.2v4.2c0,0.3,0,0.6-0.1,0.9c-0.1,0.3-0.2,0.5-0.4,0.7c-0.2,0.2-0.4,0.4-0.7,0.5
	c-0.3,0.1-0.6,0.2-1,0.2c-0.5,0-0.8-0.1-1.1-0.4s-0.4-0.6-0.4-1.1v-5h-1.2v4.9c0,0.4,0,0.8,0.1,1.1c0.1,0.3,0.2,0.6,0.4,0.9
	c0.2,0.2,0.5,0.4,0.8,0.6c0.3,0.1,0.7,0.2,1.2,0.2c0.5,0,1-0.1,1.4-0.3s0.7-0.6,1-1h0v1.2H297.9z M299.7,175.7v7.4h1.2V179
	c0-0.3,0-0.6,0.1-0.9c0.1-0.3,0.2-0.5,0.4-0.7c0.2-0.2,0.4-0.4,0.7-0.5c0.3-0.1,0.6-0.2,1-0.2c0.5,0,0.8,0.1,1.1,0.4
	c0.3,0.3,0.4,0.6,0.4,1.1v5h1.2v-4.9c0-0.4,0-0.8-0.1-1.1c-0.1-0.3-0.2-0.6-0.4-0.9c-0.2-0.2-0.5-0.4-0.8-0.6
	c-0.3-0.1-0.7-0.2-1.2-0.2c-1.1,0-1.9,0.5-2.4,1.4h0v-1.2H299.7z M309,174.4v-1.5h-1.2v1.5H309z M307.8,175.7v7.4h1.2v-7.4H307.8z
	 M311.4,176.8v6.4h1.2v-6.4h1.4v-1.1h-1.4v-1c0-0.3,0.1-0.5,0.2-0.7c0.2-0.1,0.4-0.2,0.7-0.2c0.1,0,0.2,0,0.3,0c0.1,0,0.2,0,0.3,0.1
	v-1.1c-0.1,0-0.2-0.1-0.4-0.1c-0.1,0-0.3,0-0.4,0c-0.7,0-1.2,0.2-1.5,0.5s-0.5,0.8-0.5,1.4v1.1h-1.3v1.1H311.4z M316.1,179.5
	c0-0.5,0.1-0.9,0.2-1.2c0.1-0.4,0.3-0.6,0.5-0.9s0.5-0.4,0.7-0.5c0.3-0.1,0.6-0.2,0.9-0.2s0.6,0.1,0.9,0.2s0.5,0.3,0.7,0.5
	c0.2,0.2,0.4,0.5,0.5,0.9s0.2,0.8,0.2,1.2s-0.1,0.9-0.2,1.2s-0.3,0.6-0.5,0.9c-0.2,0.2-0.5,0.4-0.7,0.5s-0.6,0.2-0.9,0.2
	s-0.6-0.1-0.9-0.2c-0.3-0.1-0.5-0.3-0.7-0.5c-0.2-0.2-0.4-0.5-0.5-0.9C316.2,180.3,316.1,179.9,316.1,179.5z M314.8,179.5
	c0,0.5,0.1,1.1,0.2,1.5c0.2,0.5,0.4,0.9,0.7,1.2c0.3,0.4,0.7,0.6,1.1,0.8c0.5,0.2,1,0.3,1.6,0.3c0.6,0,1.1-0.1,1.6-0.3
	c0.4-0.2,0.8-0.5,1.1-0.8c0.3-0.4,0.5-0.8,0.7-1.2c0.2-0.5,0.2-1,0.2-1.5c0-0.5-0.1-1.1-0.2-1.5c-0.2-0.5-0.4-0.9-0.7-1.2
	c-0.3-0.4-0.7-0.6-1.1-0.8c-0.4-0.2-1-0.3-1.6-0.3c-0.6,0-1.1,0.1-1.6,0.3s-0.8,0.5-1.1,0.8c-0.3,0.4-0.5,0.8-0.7,1.2
	C314.9,178.4,314.8,178.9,314.8,179.5z M323.4,175.7v7.4h1.2v-3.3c0-0.5,0-0.9,0.1-1.3c0.1-0.4,0.2-0.7,0.5-0.9s0.5-0.5,0.8-0.6
	s0.8-0.2,1.3-0.2v-1.3c-0.7,0-1.2,0.1-1.6,0.4c-0.4,0.3-0.8,0.7-1.1,1.3h0v-1.6H323.4z M328.3,175.7v7.4h1.2v-4.6
	c0-0.1,0-0.3,0.1-0.5c0.1-0.2,0.2-0.4,0.3-0.6c0.2-0.2,0.4-0.4,0.6-0.5s0.6-0.2,0.9-0.2c0.3,0,0.5,0,0.7,0.1
	c0.2,0.1,0.3,0.2,0.4,0.3c0.1,0.1,0.2,0.3,0.2,0.5c0,0.2,0.1,0.4,0.1,0.7v4.9h1.2v-4.6c0-0.6,0.2-1,0.5-1.4c0.3-0.3,0.8-0.5,1.4-0.5
	c0.3,0,0.5,0,0.7,0.1c0.2,0.1,0.3,0.2,0.4,0.4s0.2,0.3,0.2,0.5s0.1,0.4,0.1,0.6v4.9h1.2v-5.5c0-0.4-0.1-0.7-0.2-1
	c-0.1-0.3-0.3-0.5-0.5-0.7c-0.2-0.2-0.5-0.3-0.8-0.4s-0.6-0.1-1-0.1c-0.5,0-0.9,0.1-1.3,0.3s-0.7,0.5-1,0.9c-0.2-0.5-0.4-0.8-0.8-1
	s-0.8-0.3-1.3-0.3c-1,0-1.8,0.4-2.4,1.3h0v-1.1H328.3z M344.5,175.7v7.4h1.2v-3.3c0-0.5,0-0.9,0.1-1.3c0.1-0.4,0.2-0.7,0.5-0.9
	c0.2-0.3,0.5-0.5,0.8-0.6c0.3-0.1,0.8-0.2,1.3-0.2v-1.3c-0.7,0-1.2,0.1-1.6,0.4c-0.4,0.3-0.8,0.7-1.1,1.3h0v-1.6H344.5z
	 M354.5,178.7h-4.3c0-0.3,0.1-0.6,0.2-0.8c0.1-0.3,0.2-0.5,0.4-0.7s0.4-0.3,0.7-0.5s0.5-0.2,0.9-0.2c0.3,0,0.6,0.1,0.8,0.2
	c0.3,0.1,0.5,0.3,0.7,0.4c0.2,0.2,0.3,0.4,0.4,0.7C354.4,178.2,354.5,178.4,354.5,178.7z M355.7,180.8h-1.2
	c-0.1,0.5-0.3,0.9-0.7,1.1c-0.3,0.2-0.8,0.4-1.3,0.4c-0.4,0-0.8-0.1-1.1-0.2s-0.5-0.3-0.7-0.5c-0.2-0.2-0.3-0.5-0.4-0.8
	c-0.1-0.3-0.1-0.6-0.1-0.9h5.6c0-0.5,0-0.9-0.1-1.4c-0.1-0.5-0.3-1-0.5-1.4c-0.3-0.4-0.6-0.8-1.1-1c-0.4-0.3-1-0.4-1.6-0.4
	c-0.5,0-1,0.1-1.4,0.3c-0.4,0.2-0.8,0.5-1.1,0.8c-0.3,0.3-0.6,0.8-0.7,1.2c-0.2,0.5-0.3,1-0.3,1.6c0,0.6,0.1,1.1,0.3,1.6
	s0.4,0.9,0.7,1.2c0.3,0.3,0.7,0.6,1.1,0.8c0.4,0.2,1,0.3,1.5,0.3c0.8,0,1.5-0.2,2.1-0.6C355.2,182.3,355.5,181.6,355.7,180.8z
	 M362.1,178.1h1.3c0-0.4-0.2-0.8-0.3-1.1c-0.2-0.3-0.4-0.6-0.7-0.8c-0.3-0.2-0.6-0.4-1-0.5s-0.8-0.2-1.2-0.2c-0.6,0-1.1,0.1-1.5,0.3
	c-0.4,0.2-0.8,0.5-1.1,0.8c-0.3,0.4-0.5,0.8-0.7,1.3c-0.1,0.5-0.2,1-0.2,1.6c0,0.6,0.1,1.1,0.2,1.5c0.1,0.5,0.4,0.9,0.7,1.2
	c0.3,0.3,0.7,0.6,1.1,0.8s0.9,0.3,1.5,0.3c1,0,1.7-0.2,2.3-0.7c0.6-0.5,0.9-1.2,1-2.1h-1.3c-0.1,0.6-0.3,1-0.6,1.3
	c-0.3,0.3-0.8,0.5-1.4,0.5c-0.4,0-0.7-0.1-1-0.2c-0.3-0.2-0.5-0.4-0.7-0.6c-0.2-0.3-0.3-0.5-0.4-0.9s-0.1-0.7-0.1-1
	c0-0.4,0-0.7,0.1-1.1c0.1-0.4,0.2-0.7,0.4-0.9c0.2-0.3,0.4-0.5,0.7-0.6c0.3-0.2,0.7-0.2,1.1-0.2c0.5,0,0.9,0.1,1.2,0.4
	C361.8,177.3,362,177.6,362.1,178.1z M370,178.7h-4.3c0-0.3,0.1-0.6,0.2-0.8c0.1-0.3,0.2-0.5,0.4-0.7s0.4-0.3,0.7-0.5
	s0.5-0.2,0.9-0.2c0.3,0,0.6,0.1,0.8,0.2c0.3,0.1,0.5,0.3,0.7,0.4c0.2,0.2,0.3,0.4,0.4,0.7C369.9,178.2,370,178.4,370,178.7z
	 M371.2,180.8H370c-0.1,0.5-0.3,0.9-0.7,1.1c-0.3,0.2-0.8,0.4-1.3,0.4c-0.4,0-0.8-0.1-1.1-0.2s-0.5-0.3-0.7-0.5
	c-0.2-0.2-0.3-0.5-0.4-0.8c-0.1-0.3-0.1-0.6-0.1-0.9h5.6c0-0.5,0-0.9-0.1-1.4c-0.1-0.5-0.3-1-0.5-1.4c-0.3-0.4-0.6-0.8-1.1-1
	c-0.4-0.3-1-0.4-1.6-0.4c-0.5,0-1,0.1-1.4,0.3c-0.4,0.2-0.8,0.5-1.1,0.8c-0.3,0.3-0.6,0.8-0.7,1.2c-0.2,0.5-0.3,1-0.3,1.6
	c0,0.6,0.1,1.1,0.3,1.6s0.4,0.9,0.7,1.2s0.7,0.6,1.1,0.8s1,0.3,1.5,0.3c0.8,0,1.5-0.2,2.1-0.6C370.6,182.3,371,181.6,371.2,180.8z
	 M372.6,175.7V186h1.2v-3.8h0c0.1,0.2,0.3,0.4,0.5,0.6s0.4,0.3,0.6,0.4c0.2,0.1,0.4,0.1,0.7,0.2c0.2,0,0.4,0.1,0.6,0.1
	c0.6,0,1.1-0.1,1.5-0.3c0.4-0.2,0.8-0.5,1.1-0.8c0.3-0.4,0.5-0.8,0.6-1.2s0.2-1,0.2-1.5s-0.1-1-0.2-1.5c-0.1-0.5-0.4-0.9-0.6-1.2
	c-0.3-0.4-0.6-0.6-1.1-0.9c-0.4-0.2-0.9-0.3-1.5-0.3c-0.5,0-1,0.1-1.4,0.3c-0.4,0.2-0.7,0.5-1,0.9h0v-1H372.6z M378.3,179.4
	c0,0.4,0,0.7-0.1,1.1s-0.2,0.7-0.4,0.9c-0.2,0.3-0.4,0.5-0.7,0.6c-0.3,0.2-0.6,0.2-1.1,0.2c-0.4,0-0.8-0.1-1.1-0.2s-0.5-0.4-0.7-0.6
	c-0.2-0.3-0.3-0.6-0.4-0.9c-0.1-0.3-0.1-0.7-0.1-1.1c0-0.3,0-0.7,0.1-1c0.1-0.3,0.2-0.6,0.4-0.9c0.2-0.3,0.4-0.5,0.7-0.6
	c0.3-0.2,0.6-0.2,1.1-0.2c0.4,0,0.7,0.1,1,0.2c0.3,0.2,0.5,0.4,0.7,0.6s0.3,0.6,0.4,0.9C378.3,178.7,378.3,179,378.3,179.4z
	 M382.8,175.7v-2.2h-1.2v2.2h-1.3v1.1h1.3v4.7c0,0.3,0,0.6,0.1,0.8s0.2,0.4,0.3,0.5c0.1,0.1,0.3,0.2,0.5,0.2c0.2,0,0.5,0.1,0.8,0.1
	h0.9v-1.1h-0.6c-0.2,0-0.3,0-0.5,0s-0.2,0-0.3-0.1s-0.1-0.1-0.1-0.2c0-0.1,0-0.2,0-0.3v-4.6h1.5v-1.1H382.8z M386.5,179.5
	c0-0.5,0.1-0.9,0.2-1.2s0.3-0.6,0.5-0.9c0.2-0.2,0.5-0.4,0.7-0.5s0.6-0.2,0.9-0.2s0.6,0.1,0.9,0.2c0.3,0.1,0.5,0.3,0.7,0.5
	c0.2,0.2,0.4,0.5,0.5,0.9c0.1,0.4,0.2,0.8,0.2,1.2s-0.1,0.9-0.2,1.2c-0.1,0.4-0.3,0.6-0.5,0.9c-0.2,0.2-0.5,0.4-0.7,0.5
	c-0.3,0.1-0.6,0.2-0.9,0.2s-0.6-0.1-0.9-0.2s-0.5-0.3-0.7-0.5c-0.2-0.2-0.4-0.5-0.5-0.9S386.5,179.9,386.5,179.5z M385.2,179.5
	c0,0.5,0.1,1.1,0.2,1.5c0.2,0.5,0.4,0.9,0.7,1.2c0.3,0.4,0.7,0.6,1.1,0.8c0.5,0.2,1,0.3,1.6,0.3c0.6,0,1.1-0.1,1.6-0.3
	c0.4-0.2,0.8-0.5,1.1-0.8c0.3-0.4,0.5-0.8,0.7-1.2c0.2-0.5,0.2-1,0.2-1.5c0-0.5-0.1-1.1-0.2-1.5c-0.2-0.5-0.4-0.9-0.7-1.2
	c-0.3-0.4-0.7-0.6-1.1-0.8s-1-0.3-1.6-0.3c-0.6,0-1.1,0.1-1.6,0.3c-0.5,0.2-0.8,0.5-1.1,0.8c-0.3,0.4-0.5,0.8-0.7,1.2
	C385.3,178.4,385.2,178.9,385.2,179.5z M393.8,175.7v7.4h1.2v-3.3c0-0.5,0-0.9,0.1-1.3s0.2-0.7,0.5-0.9c0.2-0.3,0.5-0.5,0.8-0.6
	c0.3-0.1,0.8-0.2,1.3-0.2v-1.3c-0.7,0-1.2,0.1-1.6,0.4c-0.4,0.3-0.8,0.7-1.1,1.3h0v-1.6H393.8z"/>
<line class="st7" x1="57.8" y1="178.2" x2="287.8" y2="178.2"/>
<path class="st8" d="M297.9,183.2v-7.4h-1.2v4.2c0,0.3,0,0.6-0.1,0.9c-0.1,0.3-0.2,0.5-0.4,0.7c-0.2,0.2-0.4,0.4-0.7,0.5
	c-0.3,0.1-0.6,0.2-1,0.2c-0.5,0-0.8-0.1-1.1-0.4s-0.4-0.6-0.4-1.1v-5h-1.2v4.9c0,0.4,0,0.8,0.1,1.1c0.1,0.3,0.2,0.6,0.4,0.9
	c0.2,0.2,0.5,0.4,0.8,0.6c0.3,0.1,0.7,0.2,1.2,0.2c0.5,0,1-0.1,1.4-0.3s0.7-0.6,1-1h0v1.2H297.9z M299.7,175.7v7.4h1.2V179
	c0-0.3,0-0.6,0.1-0.9c0.1-0.3,0.2-0.5,0.4-0.7c0.2-0.2,0.4-0.4,0.7-0.5c0.3-0.1,0.6-0.2,1-0.2c0.5,0,0.8,0.1,1.1,0.4
	c0.3,0.3,0.4,0.6,0.4,1.1v5h1.2v-4.9c0-0.4,0-0.8-0.1-1.1c-0.1-0.3-0.2-0.6-0.4-0.9c-0.2-0.2-0.5-0.4-0.8-0.6
	c-0.3-0.1-0.7-0.2-1.2-0.2c-1.1,0-1.9,0.5-2.4,1.4h0v-1.2H299.7z M309,174.4v-1.5h-1.2v1.5H309z M307.8,175.7v7.4h1.2v-7.4H307.8z
	 M311.4,176.8v6.4h1.2v-6.4h1.4v-1.1h-1.4v-1c0-0.3,0.1-0.5,0.2-0.7c0.2-0.1,0.4-0.2,0.7-0.2c0.1,0,0.2,0,0.3,0c0.1,0,0.2,0,0.3,0.1
	v-1.1c-0.1,0-0.2-0.1-0.4-0.1c-0.1,0-0.3,0-0.4,0c-0.7,0-1.2,0.2-1.5,0.5s-0.5,0.8-0.5,1.4v1.1h-1.3v1.1H311.4z M316.1,179.5
	c0-0.5,0.1-0.9,0.2-1.2c0.1-0.4,0.3-0.6,0.5-0.9s0.5-0.4,0.7-0.5c0.3-0.1,0.6-0.2,0.9-0.2s0.6,0.1,0.9,0.2s0.5,0.3,0.7,0.5
	c0.2,0.2,0.4,0.5,0.5,0.9s0.2,0.8,0.2,1.2s-0.1,0.9-0.2,1.2s-0.3,0.6-0.5,0.9c-0.2,0.2-0.5,0.4-0.7,0.5s-0.6,0.2-0.9,0.2
	s-0.6-0.1-0.9-0.2c-0.3-0.1-0.5-0.3-0.7-0.5c-0.2-0.2-0.4-0.5-0.5-0.9C316.2,180.3,316.1,179.9,316.1,179.5z M314.8,179.5
	c0,0.5,0.1,1.1,0.2,1.5c0.2,0.5,0.4,0.9,0.7,1.2c0.3,0.4,0.7,0.6,1.1,0.8c0.5,0.2,1,0.3,1.6,0.3c0.6,0,1.1-0.1,1.6-0.3
	c0.4-0.2,0.8-0.5,1.1-0.8c0.3-0.4,0.5-0.8,0.7-1.2c0.2-0.5,0.2-1,0.2-1.5c0-0.5-0.1-1.1-0.2-1.5c-0.2-0.5-0.4-0.9-0.7-1.2
	c-0.3-0.4-0.7-0.6-1.1-0.8c-0.4-0.2-1-0.3-1.6-0.3c-0.6,0-1.1,0.1-1.6,0.3s-0.8,0.5-1.1,0.8c-0.3,0.4-0.5,0.8-0.7,1.2
	C314.9,178.4,314.8,178.9,314.8,179.5z M323.4,175.7v7.4h1.2v-3.3c0-0.5,0-0.9,0.1-1.3c0.1-0.4,0.2-0.7,0.5-0.9s0.5-0.5,0.8-0.6
	s0.8-0.2,1.3-0.2v-1.3c-0.7,0-1.2,0.1-1.6,0.4c-0.4,0.3-0.8,0.7-1.1,1.3h0v-1.6H323.4z M328.3,175.7v7.4h1.2v-4.6
	c0-0.1,0-0.3,0.1-0.5c0.1-0.2,0.2-0.4,0.3-0.6c0.2-0.2,0.4-0.4,0.6-0.5s0.6-0.2,0.9-0.2c0.3,0,0.5,0,0.7,0.1
	c0.2,0.1,0.3,0.2,0.4,0.3c0.1,0.1,0.2,0.3,0.2,0.5c0,0.2,0.1,0.4,0.1,0.7v4.9h1.2v-4.6c0-0.6,0.2-1,0.5-1.4c0.3-0.3,0.8-0.5,1.4-0.5
	c0.3,0,0.5,0,0.7,0.1c0.2,0.1,0.3,0.2,0.4,0.4s0.2,0.3,0.2,0.5s0.1,0.4,0.1,0.6v4.9h1.2v-5.5c0-0.4-0.1-0.7-0.2-1
	c-0.1-0.3-0.3-0.5-0.5-0.7c-0.2-0.2-0.5-0.3-0.8-0.4s-0.6-0.1-1-0.1c-0.5,0-0.9,0.1-1.3,0.3s-0.7,0.5-1,0.9c-0.2-0.5-0.4-0.8-0.8-1
	s-0.8-0.3-1.3-0.3c-1,0-1.8,0.4-2.4,1.3h0v-1.1H328.3z M344.5,175.7v7.4h1.2v-3.3c0-0.5,0-0.9,0.1-1.3c0.1-0.4,0.2-0.7,0.5-0.9
	c0.2-0.3,0.5-0.5,0.8-0.6c0.3-0.1,0.8-0.2,1.3-0.2v-1.3c-0.7,0-1.2,0.1-1.6,0.4c-0.4,0.3-0.8,0.7-1.1,1.3h0v-1.6H344.5z
	 M354.5,178.7h-4.3c0-0.3,0.1-0.6,0.2-0.8c0.1-0.3,0.2-0.5,0.4-0.7s0.4-0.3,0.7-0.5s0.5-0.2,0.9-0.2c0.3,0,0.6,0.1,0.8,0.2
	c0.3,0.1,0.5,0.3,0.7,0.4c0.2,0.2,0.3,0.4,0.4,0.7C354.4,178.2,354.5,178.4,354.5,178.7z M355.7,180.8h-1.2
	c-0.1,0.5-0.3,0.9-0.7,1.1c-0.3,0.2-0.8,0.4-1.3,0.4c-0.4,0-0.8-0.1-1.1-0.2s-0.5-0.3-0.7-0.5c-0.2-0.2-0.3-0.5-0.4-0.8
	c-0.1-0.3-0.1-0.6-0.1-0.9h5.6c0-0.5,0-0.9-0.1-1.4c-0.1-0.5-0.3-1-0.5-1.4c-0.3-0.4-0.6-0.8-1.1-1c-0.4-0.3-1-0.4-1.6-0.4
	c-0.5,0-1,0.1-1.4,0.3c-0.4,0.2-0.8,0.5-1.1,0.8c-0.3,0.3-0.6,0.8-0.7,1.2c-0.2,0.5-0.3,1-0.3,1.6c0,0.6,0.1,1.1,0.3,1.6
	s0.4,0.9,0.7,1.2c0.3,0.3,0.7,0.6,1.1,0.8c0.4,0.2,1,0.3,1.5,0.3c0.8,0,1.5-0.2,2.1-0.6C355.2,182.3,355.5,181.6,355.7,180.8z
	 M362.1,178.1h1.3c0-0.4-0.2-0.8-0.3-1.1c-0.2-0.3-0.4-0.6-0.7-0.8c-0.3-0.2-0.6-0.4-1-0.5s-0.8-0.2-1.2-0.2c-0.6,0-1.1,0.1-1.5,0.3
	c-0.4,0.2-0.8,0.5-1.1,0.8c-0.3,0.4-0.5,0.8-0.7,1.3c-0.1,0.5-0.2,1-0.2,1.6c0,0.6,0.1,1.1,0.2,1.5c0.1,0.5,0.4,0.9,0.7,1.2
	c0.3,0.3,0.7,0.6,1.1,0.8s0.9,0.3,1.5,0.3c1,0,1.7-0.2,2.3-0.7c0.6-0.5,0.9-1.2,1-2.1h-1.3c-0.1,0.6-0.3,1-0.6,1.3
	c-0.3,0.3-0.8,0.5-1.4,0.5c-0.4,0-0.7-0.1-1-0.2c-0.3-0.2-0.5-0.4-0.7-0.6c-0.2-0.3-0.3-0.5-0.4-0.9s-0.1-0.7-0.1-1
	c0-0.4,0-0.7,0.1-1.1c0.1-0.4,0.2-0.7,0.4-0.9c0.2-0.3,0.4-0.5,0.7-0.6c0.3-0.2,0.7-0.2,1.1-0.2c0.5,0,0.9,0.1,1.2,0.4
	C361.8,177.3,362,177.6,362.1,178.1z M370,178.7h-4.3c0-0.3,0.1-0.6,0.2-0.8c0.1-0.3,0.2-0.5,0.4-0.7s0.4-0.3,0.7-0.5
	s0.5-0.2,0.9-0.2c0.3,0,0.6,0.1,0.8,0.2c0.3,0.1,0.5,0.3,0.7,0.4c0.2,0.2,0.3,0.4,0.4,0.7C369.9,178.2,370,178.4,370,178.7z
	 M371.2,180.8H370c-0.1,0.5-0.3,0.9-0.7,1.1c-0.3,0.2-0.8,0.4-1.3,0.4c-0.4,0-0.8-0.1-1.1-0.2s-0.5-0.3-0.7-0.5
	c-0.2-0.2-0.3-0.5-0.4-0.8c-0.1-0.3-0.1-0.6-0.1-0.9h5.6c0-0.5,0-0.9-0.1-1.4c-0.1-0.5-0.3-1-0.5-1.4c-0.3-0.4-0.6-0.8-1.1-1
	c-0.4-0.3-1-0.4-1.6-0.4c-0.5,0-1,0.1-1.4,0.3c-0.4,0.2-0.8,0.5-1.1,0.8c-0.3,0.3-0.6,0.8-0.7,1.2c-0.2,0.5-0.3,1-0.3,1.6
	c0,0.6,0.1,1.1,0.3,1.6s0.4,0.9,0.7,1.2s0.7,0.6,1.1,0.8s1,0.3,1.5,0.3c0.8,0,1.5-0.2,2.1-0.6C370.6,182.3,371,181.6,371.2,180.8z
	 M372.6,175.7V186h1.2v-3.8h0c0.1,0.2,0.3,0.4,0.5,0.6s0.4,0.3,0.6,0.4c0.2,0.1,0.4,0.1,0.7,0.2c0.2,0,0.4,0.1,0.6,0.1
	c0.6,0,1.1-0.1,1.5-0.3c0.4-0.2,0.8-0.5,1.1-0.8c0.3-0.4,0.5-0.8,0.6-1.2s0.2-1,0.2-1.5s-0.1-1-0.2-1.5c-0.1-0.5-0.4-0.9-0.6-1.2
	c-0.3-0.4-0.6-0.6-1.1-0.9c-0.4-0.2-0.9-0.3-1.5-0.3c-0.5,0-1,0.1-1.4,0.3c-0.4,0.2-0.7,0.5-1,0.9h0v-1H372.6z M378.3,179.4
	c0,0.4,0,0.7-0.1,1.1s-0.2,0.7-0.4,0.9c-0.2,0.3-0.4,0.5-0.7,0.6c-0.3,0.2-0.6,0.2-1.1,0.2c-0.4,0-0.8-0.1-1.1-0.2s-0.5-0.4-0.7-0.6
	c-0.2-0.3-0.3-0.6-0.4-0.9c-0.1-0.3-0.1-0.7-0.1-1.1c0-0.3,0-0.7,0.1-1c0.1-0.3,0.2-0.6,0.4-0.9c0.2-0.3,0.4-0.5,0.7-0.6
	c0.3-0.2,0.6-0.2,1.1-0.2c0.4,0,0.7,0.1,1,0.2c0.3,0.2,0.5,0.4,0.7,0.6s0.3,0.6,0.4,0.9C378.3,178.7,378.3,179,378.3,179.4z
	 M382.8,175.7v-2.2h-1.2v2.2h-1.3v1.1h1.3v4.7c0,0.3,0,0.6,0.1,0.8s0.2,0.4,0.3,0.5c0.1,0.1,0.3,0.2,0.5,0.2c0.2,0,0.5,0.1,0.8,0.1
	h0.9v-1.1h-0.6c-0.2,0-0.3,0-0.5,0s-0.2,0-0.3-0.1s-0.1-0.1-0.1-0.2c0-0.1,0-0.2,0-0.3v-4.6h1.5v-1.1H382.8z M386.5,179.5
	c0-0.5,0.1-0.9,0.2-1.2s0.3-0.6,0.5-0.9c0.2-0.2,0.5-0.4,0.7-0.5s0.6-0.2,0.9-0.2s0.6,0.1,0.9,0.2c0.3,0.1,0.5,0.3,0.7,0.5
	c0.2,0.2,0.4,0.5,0.5,0.9c0.1,0.4,0.2,0.8,0.2,1.2s-0.1,0.9-0.2,1.2c-0.1,0.4-0.3,0.6-0.5,0.9c-0.2,0.2-0.5,0.4-0.7,0.5
	c-0.3,0.1-0.6,0.2-0.9,0.2s-0.6-0.1-0.9-0.2s-0.5-0.3-0.7-0.5c-0.2-0.2-0.4-0.5-0.5-0.9S386.5,179.9,386.5,179.5z M385.2,179.5
	c0,0.5,0.1,1.1,0.2,1.5c0.2,0.5,0.4,0.9,0.7,1.2c0.3,0.4,0.7,0.6,1.1,0.8c0.5,0.2,1,0.3,1.6,0.3c0.6,0,1.1-0.1,1.6-0.3
	c0.4-0.2,0.8-0.5,1.1-0.8c0.3-0.4,0.5-0.8,0.7-1.2c0.2-0.5,0.2-1,0.2-1.5c0-0.5-0.1-1.1-0.2-1.5c-0.2-0.5-0.4-0.9-0.7-1.2
	c-0.3-0.4-0.7-0.6-1.1-0.8s-1-0.3-1.6-0.3c-0.6,0-1.1,0.1-1.6,0.3c-0.5,0.2-0.8,0.5-1.1,0.8c-0.3,0.4-0.5,0.8-0.7,1.2
	C385.3,178.4,385.2,178.9,385.2,179.5z M393.8,175.7v7.4h1.2v-3.3c0-0.5,0-0.9,0.1-1.3s0.2-0.7,0.5-0.9c0.2-0.3,0.5-0.5,0.8-0.6
	c0.3-0.1,0.8-0.2,1.3-0.2v-1.3c-0.7,0-1.2,0.1-1.6,0.4c-0.4,0.3-0.8,0.7-1.1,1.3h0v-1.6H393.8z"/>
<line class="st7" x1="57.8" y1="178.2" x2="287.8" y2="178.2"/>
<path class="st8" d="M297.9,183.2v-7.4h-1.2v4.2c0,0.3,0,0.6-0.1,0.9c-0.1,0.3-0.2,0.5-0.4,0.7c-0.2,0.2-0.4,0.4-0.7,0.5
	c-0.3,0.1-0.6,0.2-1,0.2c-0.5,0-0.8-0.1-1.1-0.4s-0.4-0.6-0.4-1.1v-5h-1.2v4.9c0,0.4,0,0.8,0.1,1.1c0.1,0.3,0.2,0.6,0.4,0.9
	c0.2,0.2,0.5,0.4,0.8,0.6c0.3,0.1,0.7,0.2,1.2,0.2c0.5,0,1-0.1,1.4-0.3s0.7-0.6,1-1h0v1.2H297.9z M299.7,175.7v7.4h1.2V179
	c0-0.3,0-0.6,0.1-0.9c0.1-0.3,0.2-0.5,0.4-0.7c0.2-0.2,0.4-0.4,0.7-0.5c0.3-0.1,0.6-0.2,1-0.2c0.5,0,0.8,0.1,1.1,0.4
	c0.3,0.3,0.4,0.6,0.4,1.1v5h1.2v-4.9c0-0.4,0-0.8-0.1-1.1c-0.1-0.3-0.2-0.6-0.4-0.9c-0.2-0.2-0.5-0.4-0.8-0.6
	c-0.3-0.1-0.7-0.2-1.2-0.2c-1.1,0-1.9,0.5-2.4,1.4h0v-1.2H299.7z M309,174.4v-1.5h-1.2v1.5H309z M307.8,175.7v7.4h1.2v-7.4H307.8z
	 M311.4,176.8v6.4h1.2v-6.4h1.4v-1.1h-1.4v-1c0-0.3,0.1-0.5,0.2-0.7c0.2-0.1,0.4-0.2,0.7-0.2c0.1,0,0.2,0,0.3,0c0.1,0,0.2,0,0.3,0.1
	v-1.1c-0.1,0-0.2-0.1-0.4-0.1c-0.1,0-0.3,0-0.4,0c-0.7,0-1.2,0.2-1.5,0.5s-0.5,0.8-0.5,1.4v1.1h-1.3v1.1H311.4z M316.1,179.5
	c0-0.5,0.1-0.9,0.2-1.2c0.1-0.4,0.3-0.6,0.5-0.9s0.5-0.4,0.7-0.5c0.3-0.1,0.6-0.2,0.9-0.2s0.6,0.1,0.9,0.2s0.5,0.3,0.7,0.5
	c0.2,0.2,0.4,0.5,0.5,0.9s0.2,0.8,0.2,1.2s-0.1,0.9-0.2,1.2s-0.3,0.6-0.5,0.9c-0.2,0.2-0.5,0.4-0.7,0.5s-0.6,0.2-0.9,0.2
	s-0.6-0.1-0.9-0.2c-0.3-0.1-0.5-0.3-0.7-0.5c-0.2-0.2-0.4-0.5-0.5-0.9C316.2,180.3,316.1,179.9,316.1,179.5z M314.8,179.5
	c0,0.5,0.1,1.1,0.2,1.5c0.2,0.5,0.4,0.9,0.7,1.2c0.3,0.4,0.7,0.6,1.1,0.8c0.5,0.2,1,0.3,1.6,0.3c0.6,0,1.1-0.1,1.6-0.3
	c0.4-0.2,0.8-0.5,1.1-0.8c0.3-0.4,0.5-0.8,0.7-1.2c0.2-0.5,0.2-1,0.2-1.5c0-0.5-0.1-1.1-0.2-1.5c-0.2-0.5-0.4-0.9-0.7-1.2
	c-0.3-0.4-0.7-0.6-1.1-0.8c-0.4-0.2-1-0.3-1.6-0.3c-0.6,0-1.1,0.1-1.6,0.3s-0.8,0.5-1.1,0.8c-0.3,0.4-0.5,0.8-0.7,1.2
	C314.9,178.4,314.8,178.9,314.8,179.5z M323.4,175.7v7.4h1.2v-3.3c0-0.5,0-0.9,0.1-1.3c0.1-0.4,0.2-0.7,0.5-0.9s0.5-0.5,0.8-0.6
	s0.8-0.2,1.3-0.2v-1.3c-0.7,0-1.2,0.1-1.6,0.4c-0.4,0.3-0.8,0.7-1.1,1.3h0v-1.6H323.4z M328.3,175.7v7.4h1.2v-4.6
	c0-0.1,0-0.3,0.1-0.5c0.1-0.2,0.2-0.4,0.3-0.6c0.2-0.2,0.4-0.4,0.6-0.5s0.6-0.2,0.9-0.2c0.3,0,0.5,0,0.7,0.1
	c0.2,0.1,0.3,0.2,0.4,0.3c0.1,0.1,0.2,0.3,0.2,0.5c0,0.2,0.1,0.4,0.1,0.7v4.9h1.2v-4.6c0-0.6,0.2-1,0.5-1.4c0.3-0.3,0.8-0.5,1.4-0.5
	c0.3,0,0.5,0,0.7,0.1c0.2,0.1,0.3,0.2,0.4,0.4s0.2,0.3,0.2,0.5s0.1,0.4,0.1,0.6v4.9h1.2v-5.5c0-0.4-0.1-0.7-0.2-1
	c-0.1-0.3-0.3-0.5-0.5-0.7c-0.2-0.2-0.5-0.3-0.8-0.4s-0.6-0.1-1-0.1c-0.5,0-0.9,0.1-1.3,0.3s-0.7,0.5-1,0.9c-0.2-0.5-0.4-0.8-0.8-1
	s-0.8-0.3-1.3-0.3c-1,0-1.8,0.4-2.4,1.3h0v-1.1H328.3z M344.5,175.7v7.4h1.2v-3.3c0-0.5,0-0.9,0.1-1.3c0.1-0.4,0.2-0.7,0.5-0.9
	c0.2-0.3,0.5-0.5,0.8-0.6c0.3-0.1,0.8-0.2,1.3-0.2v-1.3c-0.7,0-1.2,0.1-1.6,0.4c-0.4,0.3-0.8,0.7-1.1,1.3h0v-1.6H344.5z
	 M354.5,178.7h-4.3c0-0.3,0.1-0.6,0.2-0.8c0.1-0.3,0.2-0.5,0.4-0.7s0.4-0.3,0.7-0.5s0.5-0.2,0.9-0.2c0.3,0,0.6,0.1,0.8,0.2
	c0.3,0.1,0.5,0.3,0.7,0.4c0.2,0.2,0.3,0.4,0.4,0.7C354.4,178.2,354.5,178.4,354.5,178.7z M355.7,180.8h-1.2
	c-0.1,0.5-0.3,0.9-0.7,1.1c-0.3,0.2-0.8,0.4-1.3,0.4c-0.4,0-0.8-0.1-1.1-0.2s-0.5-0.3-0.7-0.5c-0.2-0.2-0.3-0.5-0.4-0.8
	c-0.1-0.3-0.1-0.6-0.1-0.9h5.6c0-0.5,0-0.9-0.1-1.4c-0.1-0.5-0.3-1-0.5-1.4c-0.3-0.4-0.6-0.8-1.1-1c-0.4-0.3-1-0.4-1.6-0.4
	c-0.5,0-1,0.1-1.4,0.3c-0.4,0.2-0.8,0.5-1.1,0.8c-0.3,0.3-0.6,0.8-0.7,1.2c-0.2,0.5-0.3,1-0.3,1.6c0,0.6,0.1,1.1,0.3,1.6
	s0.4,0.9,0.7,1.2c0.3,0.3,0.7,0.6,1.1,0.8c0.4,0.2,1,0.3,1.5,0.3c0.8,0,1.5-0.2,2.1-0.6C355.2,182.3,355.5,181.6,355.7,180.8z
	 M362.1,178.1h1.3c0-0.4-0.2-0.8-0.3-1.1c-0.2-0.3-0.4-0.6-0.7-0.8c-0.3-0.2-0.6-0.4-1-0.5s-0.8-0.2-1.2-0.2c-0.6,0-1.1,0.1-1.5,0.3
	c-0.4,0.2-0.8,0.5-1.1,0.8c-0.3,0.4-0.5,0.8-0.7,1.3c-0.1,0.5-0.2,1-0.2,1.6c0,0.6,0.1,1.1,0.2,1.5c0.1,0.5,0.4,0.9,0.7,1.2
	c0.3,0.3,0.7,0.6,1.1,0.8s0.9,0.3,1.5,0.3c1,0,1.7-0.2,2.3-0.7c0.6-0.5,0.9-1.2,1-2.1h-1.3c-0.1,0.6-0.3,1-0.6,1.3
	c-0.3,0.3-0.8,0.5-1.4,0.5c-0.4,0-0.7-0.1-1-0.2c-0.3-0.2-0.5-0.4-0.7-0.6c-0.2-0.3-0.3-0.5-0.4-0.9s-0.1-0.7-0.1-1
	c0-0.4,0-0.7,0.1-1.1c0.1-0.4,0.2-0.7,0.4-0.9c0.2-0.3,0.4-0.5,0.7-0.6c0.3-0.2,0.7-0.2,1.1-0.2c0.5,0,0.9,0.1,1.2,0.4
	C361.8,177.3,362,177.6,362.1,178.1z M370,178.7h-4.3c0-0.3,0.1-0.6,0.2-0.8c0.1-0.3,0.2-0.5,0.4-0.7s0.4-0.3,0.7-0.5
	s0.5-0.2,0.9-0.2c0.3,0,0.6,0.1,0.8,0.2c0.3,0.1,0.5,0.3,0.7,0.4c0.2,0.2,0.3,0.4,0.4,0.7C369.9,178.2,370,178.4,370,178.7z
	 M371.2,180.8H370c-0.1,0.5-0.3,0.9-0.7,1.1c-0.3,0.2-0.8,0.4-1.3,0.4c-0.4,0-0.8-0.1-1.1-0.2s-0.5-0.3-0.7-0.5
	c-0.2-0.2-0.3-0.5-0.4-0.8c-0.1-0.3-0.1-0.6-0.1-0.9h5.6c0-0.5,0-0.9-0.1-1.4c-0.1-0.5-0.3-1-0.5-1.4c-0.3-0.4-0.6-0.8-1.1-1
	c-0.4-0.3-1-0.4-1.6-0.4c-0.5,0-1,0.1-1.4,0.3c-0.4,0.2-0.8,0.5-1.1,0.8c-0.3,0.3-0.6,0.8-0.7,1.2c-0.2,0.5-0.3,1-0.3,1.6
	c0,0.6,0.1,1.1,0.3,1.6s0.4,0.9,0.7,1.2s0.7,0.6,1.1,0.8s1,0.3,1.5,0.3c0.8,0,1.5-0.2,2.1-0.6C370.6,182.3,371,181.6,371.2,180.8z
	 M372.6,175.7V186h1.2v-3.8h0c0.1,0.2,0.3,0.4,0.5,0.6s0.4,0.3,0.6,0.4c0.2,0.1,0.4,0.1,0.7,0.2c0.2,0,0.4,0.1,0.6,0.1
	c0.6,0,1.1-0.1,1.5-0.3c0.4-0.2,0.8-0.5,1.1-0.8c0.3-0.4,0.5-0.8,0.6-1.2s0.2-1,0.2-1.5s-0.1-1-0.2-1.5c-0.1-0.5-0.4-0.9-0.6-1.2
	c-0.3-0.4-0.6-0.6-1.1-0.9c-0.4-0.2-0.9-0.3-1.5-0.3c-0.5,0-1,0.1-1.4,0.3c-0.4,0.2-0.7,0.5-1,0.9h0v-1H372.6z M378.3,179.4
	c0,0.4,0,0.7-0.1,1.1s-0.2,0.7-0.4,0.9c-0.2,0.3-0.4,0.5-0.7,0.6c-0.3,0.2-0.6,0.2-1.1,0.2c-0.4,0-0.8-0.1-1.1-0.2s-0.5-0.4-0.7-0.6
	c-0.2-0.3-0.3-0.6-0.4-0.9c-0.1-0.3-0.1-0.7-0.1-1.1c0-0.3,0-0.7,0.1-1c0.1-0.3,0.2-0.6,0.4-0.9c0.2-0.3,0.4-0.5,0.7-0.6
	c0.3-0.2,0.6-0.2,1.1-0.2c0.4,0,0.7,0.1,1,0.2c0.3,0.2,0.5,0.4,0.7,0.6s0.3,0.6,0.4,0.9C378.3,178.7,378.3,179,378.3,179.4z
	 M382.8,175.7v-2.2h-1.2v2.2h-1.3v1.1h1.3v4.7c0,0.3,0,0.6,0.1,0.8s0.2,0.4,0.3,0.5c0.1,0.1,0.3,0.2,0.5,0.2c0.2,0,0.5,0.1,0.8,0.1
	h0.9v-1.1h-0.6c-0.2,0-0.3,0-0.5,0s-0.2,0-0.3-0.1s-0.1-0.1-0.1-0.2c0-0.1,0-0.2,0-0.3v-4.6h1.5v-1.1H382.8z M386.5,179.5
	c0-0.5,0.1-0.9,0.2-1.2s0.3-0.6,0.5-0.9c0.2-0.2,0.5-0.4,0.7-0.5s0.6-0.2,0.9-0.2s0.6,0.1,0.9,0.2c0.3,0.1,0.5,0.3,0.7,0.5
	c0.2,0.2,0.4,0.5,0.5,0.9c0.1,0.4,0.2,0.8,0.2,1.2s-0.1,0.9-0.2,1.2c-0.1,0.4-0.3,0.6-0.5,0.9c-0.2,0.2-0.5,0.4-0.7,0.5
	c-0.3,0.1-0.6,0.2-0.9,0.2s-0.6-0.1-0.9-0.2s-0.5-0.3-0.7-0.5c-0.2-0.2-0.4-0.5-0.5-0.9S386.5,179.9,386.5,179.5z M385.2,179.5
	c0,0.5,0.1,1.1,0.2,1.5c0.2,0.5,0.4,0.9,0.7,1.2c0.3,0.4,0.7,0.6,1.1,0.8c0.5,0.2,1,0.3,1.6,0.3c0.6,0,1.1-0.1,1.6-0.3
	c0.4-0.2,0.8-0.5,1.1-0.8c0.3-0.4,0.5-0.8,0.7-1.2c0.2-0.5,0.2-1,0.2-1.5c0-0.5-0.1-1.1-0.2-1.5c-0.2-0.5-0.4-0.9-0.7-1.2
	c-0.3-0.4-0.7-0.6-1.1-0.8s-1-0.3-1.6-0.3c-0.6,0-1.1,0.1-1.6,0.3c-0.5,0.2-0.8,0.5-1.1,0.8c-0.3,0.4-0.5,0.8-0.7,1.2
	C385.3,178.4,385.2,178.9,385.2,179.5z M393.8,175.7v7.4h1.2v-3.3c0-0.5,0-0.9,0.1-1.3s0.2-0.7,0.5-0.9c0.2-0.3,0.5-0.5,0.8-0.6
	c0.3-0.1,0.8-0.2,1.3-0.2v-1.3c-0.7,0-1.2,0.1-1.6,0.4c-0.4,0.3-0.8,0.7-1.1,1.3h0v-1.6H393.8z"/>
<line class="st7" x1="57.8" y1="178.2" x2="287.8" y2="178.2"/>
<path class="st8" d="M297.9,183.2v-7.4h-1.2v4.2c0,0.3,0,0.6-0.1,0.9c-0.1,0.3-0.2,0.5-0.4,0.7c-0.2,0.2-0.4,0.4-0.7,0.5
	c-0.3,0.1-0.6,0.2-1,0.2c-0.5,0-0.8-0.1-1.1-0.4s-0.4-0.6-0.4-1.1v-5h-1.2v4.9c0,0.4,0,0.8,0.1,1.1c0.1,0.3,0.2,0.6,0.4,0.9
	c0.2,0.2,0.5,0.4,0.8,0.6c0.3,0.1,0.7,0.2,1.2,0.2c0.5,0,1-0.1,1.4-0.3s0.7-0.6,1-1h0v1.2H297.9z M299.7,175.7v7.4h1.2V179
	c0-0.3,0-0.6,0.1-0.9c0.1-0.3,0.2-0.5,0.4-0.7c0.2-0.2,0.4-0.4,0.7-0.5c0.3-0.1,0.6-0.2,1-0.2c0.5,0,0.8,0.1,1.1,0.4
	c0.3,0.3,0.4,0.6,0.4,1.1v5h1.2v-4.9c0-0.4,0-0.8-0.1-1.1c-0.1-0.3-0.2-0.6-0.4-0.9c-0.2-0.2-0.5-0.4-0.8-0.6
	c-0.3-0.1-0.7-0.2-1.2-0.2c-1.1,0-1.9,0.5-2.4,1.4h0v-1.2H299.7z M309,174.4v-1.5h-1.2v1.5H309z M307.8,175.7v7.4h1.2v-7.4H307.8z
	 M311.4,176.8v6.4h1.2v-6.4h1.4v-1.1h-1.4v-1c0-0.3,0.1-0.5,0.2-0.7c0.2-0.1,0.4-0.2,0.7-0.2c0.1,0,0.2,0,0.3,0c0.1,0,0.2,0,0.3,0.1
	v-1.1c-0.1,0-0.2-0.1-0.4-0.1c-0.1,0-0.3,0-0.4,0c-0.7,0-1.2,0.2-1.5,0.5s-0.5,0.8-0.5,1.4v1.1h-1.3v1.1H311.4z M316.1,179.5
	c0-0.5,0.1-0.9,0.2-1.2c0.1-0.4,0.3-0.6,0.5-0.9s0.5-0.4,0.7-0.5c0.3-0.1,0.6-0.2,0.9-0.2s0.6,0.1,0.9,0.2s0.5,0.3,0.7,0.5
	c0.2,0.2,0.4,0.5,0.5,0.9s0.2,0.8,0.2,1.2s-0.1,0.9-0.2,1.2s-0.3,0.6-0.5,0.9c-0.2,0.2-0.5,0.4-0.7,0.5s-0.6,0.2-0.9,0.2
	s-0.6-0.1-0.9-0.2c-0.3-0.1-0.5-0.3-0.7-0.5c-0.2-0.2-0.4-0.5-0.5-0.9C316.2,180.3,316.1,179.9,316.1,179.5z M314.8,179.5
	c0,0.5,0.1,1.1,0.2,1.5c0.2,0.5,0.4,0.9,0.7,1.2c0.3,0.4,0.7,0.6,1.1,0.8c0.5,0.2,1,0.3,1.6,0.3c0.6,0,1.1-0.1,1.6-0.3
	c0.4-0.2,0.8-0.5,1.1-0.8c0.3-0.4,0.5-0.8,0.7-1.2c0.2-0.5,0.2-1,0.2-1.5c0-0.5-0.1-1.1-0.2-1.5c-0.2-0.5-0.4-0.9-0.7-1.2
	c-0.3-0.4-0.7-0.6-1.1-0.8c-0.4-0.2-1-0.3-1.6-0.3c-0.6,0-1.1,0.1-1.6,0.3s-0.8,0.5-1.1,0.8c-0.3,0.4-0.5,0.8-0.7,1.2
	C314.9,178.4,314.8,178.9,314.8,179.5z M323.4,175.7v7.4h1.2v-3.3c0-0.5,0-0.9,0.1-1.3c0.1-0.4,0.2-0.7,0.5-0.9s0.5-0.5,0.8-0.6
	s0.8-0.2,1.3-0.2v-1.3c-0.7,0-1.2,0.1-1.6,0.4c-0.4,0.3-0.8,0.7-1.1,1.3h0v-1.6H323.4z M328.3,175.7v7.4h1.2v-4.6
	c0-0.1,0-0.3,0.1-0.5c0.1-0.2,0.2-0.4,0.3-0.6c0.2-0.2,0.4-0.4,0.6-0.5s0.6-0.2,0.9-0.2c0.3,0,0.5,0,0.7,0.1
	c0.2,0.1,0.3,0.2,0.4,0.3c0.1,0.1,0.2,0.3,0.2,0.5c0,0.2,0.1,0.4,0.1,0.7v4.9h1.2v-4.6c0-0.6,0.2-1,0.5-1.4c0.3-0.3,0.8-0.5,1.4-0.5
	c0.3,0,0.5,0,0.7,0.1c0.2,0.1,0.3,0.2,0.4,0.4s0.2,0.3,0.2,0.5s0.1,0.4,0.1,0.6v4.9h1.2v-5.5c0-0.4-0.1-0.7-0.2-1
	c-0.1-0.3-0.3-0.5-0.5-0.7c-0.2-0.2-0.5-0.3-0.8-0.4s-0.6-0.1-1-0.1c-0.5,0-0.9,0.1-1.3,0.3s-0.7,0.5-1,0.9c-0.2-0.5-0.4-0.8-0.8-1
	s-0.8-0.3-1.3-0.3c-1,0-1.8,0.4-2.4,1.3h0v-1.1H328.3z M344.5,175.7v7.4h1.2v-3.3c0-0.5,0-0.9,0.1-1.3c0.1-0.4,0.2-0.7,0.5-0.9
	c0.2-0.3,0.5-0.5,0.8-0.6c0.3-0.1,0.8-0.2,1.3-0.2v-1.3c-0.7,0-1.2,0.1-1.6,0.4c-0.4,0.3-0.8,0.7-1.1,1.3h0v-1.6H344.5z
	 M354.5,178.7h-4.3c0-0.3,0.1-0.6,0.2-0.8c0.1-0.3,0.2-0.5,0.4-0.7s0.4-0.3,0.7-0.5s0.5-0.2,0.9-0.2c0.3,0,0.6,0.1,0.8,0.2
	c0.3,0.1,0.5,0.3,0.7,0.4c0.2,0.2,0.3,0.4,0.4,0.7C354.4,178.2,354.5,178.4,354.5,178.7z M355.7,180.8h-1.2
	c-0.1,0.5-0.3,0.9-0.7,1.1c-0.3,0.2-0.8,0.4-1.3,0.4c-0.4,0-0.8-0.1-1.1-0.2s-0.5-0.3-0.7-0.5c-0.2-0.2-0.3-0.5-0.4-0.8
	c-0.1-0.3-0.1-0.6-0.1-0.9h5.6c0-0.5,0-0.9-0.1-1.4c-0.1-0.5-0.3-1-0.5-1.4c-0.3-0.4-0.6-0.8-1.1-1c-0.4-0.3-1-0.4-1.6-0.4
	c-0.5,0-1,0.1-1.4,0.3c-0.4,0.2-0.8,0.5-1.1,0.8c-0.3,0.3-0.6,0.8-0.7,1.2c-0.2,0.5-0.3,1-0.3,1.6c0,0.6,0.1,1.1,0.3,1.6
	s0.4,0.9,0.7,1.2c0.3,0.3,0.7,0.6,1.1,0.8c0.4,0.2,1,0.3,1.5,0.3c0.8,0,1.5-0.2,2.1-0.6C355.2,182.3,355.5,181.6,355.7,180.8z
	 M362.1,178.1h1.3c0-0.4-0.2-0.8-0.3-1.1c-0.2-0.3-0.4-0.6-0.7-0.8c-0.3-0.2-0.6-0.4-1-0.5s-0.8-0.2-1.2-0.2c-0.6,0-1.1,0.1-1.5,0.3
	c-0.4,0.2-0.8,0.5-1.1,0.8c-0.3,0.4-0.5,0.8-0.7,1.3c-0.1,0.5-0.2,1-0.2,1.6c0,0.6,0.1,1.1,0.2,1.5c0.1,0.5,0.4,0.9,0.7,1.2
	c0.3,0.3,0.7,0.6,1.1,0.8s0.9,0.3,1.5,0.3c1,0,1.7-0.2,2.3-0.7c0.6-0.5,0.9-1.2,1-2.1h-1.3c-0.1,0.6-0.3,1-0.6,1.3
	c-0.3,0.3-0.8,0.5-1.4,0.5c-0.4,0-0.7-0.1-1-0.2c-0.3-0.2-0.5-0.4-0.7-0.6c-0.2-0.3-0.3-0.5-0.4-0.9s-0.1-0.7-0.1-1
	c0-0.4,0-0.7,0.1-1.1c0.1-0.4,0.2-0.7,0.4-0.9c0.2-0.3,0.4-0.5,0.7-0.6c0.3-0.2,0.7-0.2,1.1-0.2c0.5,0,0.9,0.1,1.2,0.4
	C361.8,177.3,362,177.6,362.1,178.1z M370,178.7h-4.3c0-0.3,0.1-0.6,0.2-0.8c0.1-0.3,0.2-0.5,0.4-0.7s0.4-0.3,0.7-0.5
	s0.5-0.2,0.9-0.2c0.3,0,0.6,0.1,0.8,0.2c0.3,0.1,0.5,0.3,0.7,0.4c0.2,0.2,0.3,0.4,0.4,0.7C369.9,178.2,370,178.4,370,178.7z
	 M371.2,180.8H370c-0.1,0.5-0.3,0.9-0.7,1.1c-0.3,0.2-0.8,0.4-1.3,0.4c-0.4,0-0.8-0.1-1.1-0.2s-0.5-0.3-0.7-0.5
	c-0.2-0.2-0.3-0.5-0.4-0.8c-0.1-0.3-0.1-0.6-0.1-0.9h5.6c0-0.5,0-0.9-0.1-1.4c-0.1-0.5-0.3-1-0.5-1.4c-0.3-0.4-0.6-0.8-1.1-1
	c-0.4-0.3-1-0.4-1.6-0.4c-0.5,0-1,0.1-1.4,0.3c-0.4,0.2-0.8,0.5-1.1,0.8c-0.3,0.3-0.6,0.8-0.7,1.2c-0.2,0.5-0.3,1-0.3,1.6
	c0,0.6,0.1,1.1,0.3,1.6s0.4,0.9,0.7,1.2s0.7,0.6,1.1,0.8s1,0.3,1.5,0.3c0.8,0,1.5-0.2,2.1-0.6C370.6,182.3,371,181.6,371.2,180.8z
	 M372.6,175.7V186h1.2v-3.8h0c0.1,0.2,0.3,0.4,0.5,0.6s0.4,0.3,0.6,0.4c0.2,0.1,0.4,0.1,0.7,0.2c0.2,0,0.4,0.1,0.6,0.1
	c0.6,0,1.1-0.1,1.5-0.3c0.4-0.2,0.8-0.5,1.1-0.8c0.3-0.4,0.5-0.8,0.6-1.2s0.2-1,0.2-1.5s-0.1-1-0.2-1.5c-0.1-0.5-0.4-0.9-0.6-1.2
	c-0.3-0.4-0.6-0.6-1.1-0.9c-0.4-0.2-0.9-0.3-1.5-0.3c-0.5,0-1,0.1-1.4,0.3c-0.4,0.2-0.7,0.5-1,0.9h0v-1H372.6z M378.3,179.4
	c0,0.4,0,0.7-0.1,1.1s-0.2,0.7-0.4,0.9c-0.2,0.3-0.4,0.5-0.7,0.6c-0.3,0.2-0.6,0.2-1.1,0.2c-0.4,0-0.8-0.1-1.1-0.2s-0.5-0.4-0.7-0.6
	c-0.2-0.3-0.3-0.6-0.4-0.9c-0.1-0.3-0.1-0.7-0.1-1.1c0-0.3,0-0.7,0.1-1c0.1-0.3,0.2-0.6,0.4-0.9c0.2-0.3,0.4-0.5,0.7-0.6
	c0.3-0.2,0.6-0.2,1.1-0.2c0.4,0,0.7,0.1,1,0.2c0.3,0.2,0.5,0.4,0.7,0.6s0.3,0.6,0.4,0.9C378.3,178.7,378.3,179,378.3,179.4z
	 M382.8,175.7v-2.2h-1.2v2.2h-1.3v1.1h1.3v4.7c0,0.3,0,0.6,0.1,0.8s0.2,0.4,0.3,0.5c0.1,0.1,0.3,0.2,0.5,0.2c0.2,0,0.5,0.1,0.8,0.1
	h0.9v-1.1h-0.6c-0.2,0-0.3,0-0.5,0s-0.2,0-0.3-0.1s-0.1-0.1-0.1-0.2c0-0.1,0-0.2,0-0.3v-4.6h1.5v-1.1H382.8z M386.5,179.5
	c0-0.5,0.1-0.9,0.2-1.2s0.3-0.6,0.5-0.9c0.2-0.2,0.5-0.4,0.7-0.5s0.6-0.2,0.9-0.2s0.6,0.1,0.9,0.2c0.3,0.1,0.5,0.3,0.7,0.5
	c0.2,0.2,0.4,0.5,0.5,0.9c0.1,0.4,0.2,0.8,0.2,1.2s-0.1,0.9-0.2,1.2c-0.1,0.4-0.3,0.6-0.5,0.9c-0.2,0.2-0.5,0.4-0.7,0.5
	c-0.3,0.1-0.6,0.2-0.9,0.2s-0.6-0.1-0.9-0.2s-0.5-0.3-0.7-0.5c-0.2-0.2-0.4-0.5-0.5-0.9S386.5,179.9,386.5,179.5z M385.2,179.5
	c0,0.5,0.1,1.1,0.2,1.5c0.2,0.5,0.4,0.9,0.7,1.2c0.3,0.4,0.7,0.6,1.1,0.8c0.5,0.2,1,0.3,1.6,0.3c0.6,0,1.1-0.1,1.6-0.3
	c0.4-0.2,0.8-0.5,1.1-0.8c0.3-0.4,0.5-0.8,0.7-1.2c0.2-0.5,0.2-1,0.2-1.5c0-0.5-0.1-1.1-0.2-1.5c-0.2-0.5-0.4-0.9-0.7-1.2
	c-0.3-0.4-0.7-0.6-1.1-0.8s-1-0.3-1.6-0.3c-0.6,0-1.1,0.1-1.6,0.3c-0.5,0.2-0.8,0.5-1.1,0.8c-0.3,0.4-0.5,0.8-0.7,1.2
	C385.3,178.4,385.2,178.9,385.2,179.5z M393.8,175.7v7.4h1.2v-3.3c0-0.5,0-0.9,0.1-1.3s0.2-0.7,0.5-0.9c0.2-0.3,0.5-0.5,0.8-0.6
	c0.3-0.1,0.8-0.2,1.3-0.2v-1.3c-0.7,0-1.2,0.1-1.6,0.4c-0.4,0.3-0.8,0.7-1.1,1.3h0v-1.6H393.8z"/>
<line class="st7" x1="57.8" y1="178.2" x2="287.8" y2="178.2"/>
<path class="st8" d="M297.9,183.2v-7.4h-1.2v4.2c0,0.3,0,0.6-0.1,0.9c-0.1,0.3-0.2,0.5-0.4,0.7c-0.2,0.2-0.4,0.4-0.7,0.5
	c-0.3,0.1-0.6,0.2-1,0.2c-0.5,0-0.8-0.1-1.1-0.4s-0.4-0.6-0.4-1.1v-5h-1.2v4.9c0,0.4,0,0.8,0.1,1.1c0.1,0.3,0.2,0.6,0.4,0.9
	c0.2,0.2,0.5,0.4,0.8,0.6c0.3,0.1,0.7,0.2,1.2,0.2c0.5,0,1-0.1,1.4-0.3s0.7-0.6,1-1h0v1.2H297.9z M299.7,175.7v7.4h1.2V179
	c0-0.3,0-0.6,0.1-0.9c0.1-0.3,0.2-0.5,0.4-0.7c0.2-0.2,0.4-0.4,0.7-0.5c0.3-0.1,0.6-0.2,1-0.2c0.5,0,0.8,0.1,1.1,0.4
	c0.3,0.3,0.4,0.6,0.4,1.1v5h1.2v-4.9c0-0.4,0-0.8-0.1-1.1c-0.1-0.3-0.2-0.6-0.4-0.9c-0.2-0.2-0.5-0.4-0.8-0.6
	c-0.3-0.1-0.7-0.2-1.2-0.2c-1.1,0-1.9,0.5-2.4,1.4h0v-1.2H299.7z M309,174.4v-1.5h-1.2v1.5H309z M307.8,175.7v7.4h1.2v-7.4H307.8z
	 M311.4,176.8v6.4h1.2v-6.4h1.4v-1.1h-1.4v-1c0-0.3,0.1-0.5,0.2-0.7c0.2-0.1,0.4-0.2,0.7-0.2c0.1,0,0.2,0,0.3,0c0.1,0,0.2,0,0.3,0.1
	v-1.1c-0.1,0-0.2-0.1-0.4-0.1c-0.1,0-0.3,0-0.4,0c-0.7,0-1.2,0.2-1.5,0.5s-0.5,0.8-0.5,1.4v1.1h-1.3v1.1H311.4z M316.1,179.5
	c0-0.5,0.1-0.9,0.2-1.2c0.1-0.4,0.3-0.6,0.5-0.9s0.5-0.4,0.7-0.5c0.3-0.1,0.6-0.2,0.9-0.2s0.6,0.1,0.9,0.2s0.5,0.3,0.7,0.5
	c0.2,0.2,0.4,0.5,0.5,0.9s0.2,0.8,0.2,1.2s-0.1,0.9-0.2,1.2s-0.3,0.6-0.5,0.9c-0.2,0.2-0.5,0.4-0.7,0.5s-0.6,0.2-0.9,0.2
	s-0.6-0.1-0.9-0.2c-0.3-0.1-0.5-0.3-0.7-0.5c-0.2-0.2-0.4-0.5-0.5-0.9C316.2,180.3,316.1,179.9,316.1,179.5z M314.8,179.5
	c0,0.5,0.1,1.1,0.2,1.5c0.2,0.5,0.4,0.9,0.7,1.2c0.3,0.4,0.7,0.6,1.1,0.8c0.5,0.2,1,0.3,1.6,0.3c0.6,0,1.1-0.1,1.6-0.3
	c0.4-0.2,0.8-0.5,1.1-0.8c0.3-0.4,0.5-0.8,0.7-1.2c0.2-0.5,0.2-1,0.2-1.5c0-0.5-0.1-1.1-0.2-1.5c-0.2-0.5-0.4-0.9-0.7-1.2
	c-0.3-0.4-0.7-0.6-1.1-0.8c-0.4-0.2-1-0.3-1.6-0.3c-0.6,0-1.1,0.1-1.6,0.3s-0.8,0.5-1.1,0.8c-0.3,0.4-0.5,0.8-0.7,1.2
	C314.9,178.4,314.8,178.9,314.8,179.5z M323.4,175.7v7.4h1.2v-3.3c0-0.5,0-0.9,0.1-1.3c0.1-0.4,0.2-0.7,0.5-0.9s0.5-0.5,0.8-0.6
	s0.8-0.2,1.3-0.2v-1.3c-0.7,0-1.2,0.1-1.6,0.4c-0.4,0.3-0.8,0.7-1.1,1.3h0v-1.6H323.4z M328.3,175.7v7.4h1.2v-4.6
	c0-0.1,0-0.3,0.1-0.5c0.1-0.2,0.2-0.4,0.3-0.6c0.2-0.2,0.4-0.4,0.6-0.5s0.6-0.2,0.9-0.2c0.3,0,0.5,0,0.7,0.1
	c0.2,0.1,0.3,0.2,0.4,0.3c0.1,0.1,0.2,0.3,0.2,0.5c0,0.2,0.1,0.4,0.1,0.7v4.9h1.2v-4.6c0-0.6,0.2-1,0.5-1.4c0.3-0.3,0.8-0.5,1.4-0.5
	c0.3,0,0.5,0,0.7,0.1c0.2,0.1,0.3,0.2,0.4,0.4s0.2,0.3,0.2,0.5s0.1,0.4,0.1,0.6v4.9h1.2v-5.5c0-0.4-0.1-0.7-0.2-1
	c-0.1-0.3-0.3-0.5-0.5-0.7c-0.2-0.2-0.5-0.3-0.8-0.4s-0.6-0.1-1-0.1c-0.5,0-0.9,0.1-1.3,0.3s-0.7,0.5-1,0.9c-0.2-0.5-0.4-0.8-0.8-1
	s-0.8-0.3-1.3-0.3c-1,0-1.8,0.4-2.4,1.3h0v-1.1H328.3z M344.5,175.7v7.4h1.2v-3.3c0-0.5,0-0.9,0.1-1.3c0.1-0.4,0.2-0.7,0.5-0.9
	c0.2-0.3,0.5-0.5,0.8-0.6c0.3-0.1,0.8-0.2,1.3-0.2v-1.3c-0.7,0-1.2,0.1-1.6,0.4c-0.4,0.3-0.8,0.7-1.1,1.3h0v-1.6H344.5z
	 M354.5,178.7h-4.3c0-0.3,0.1-0.6,0.2-0.8c0.1-0.3,0.2-0.5,0.4-0.7s0.4-0.3,0.7-0.5s0.5-0.2,0.9-0.2c0.3,0,0.6,0.1,0.8,0.2
	c0.3,0.1,0.5,0.3,0.7,0.4c0.2,0.2,0.3,0.4,0.4,0.7C354.4,178.2,354.5,178.4,354.5,178.7z M355.7,180.8h-1.2
	c-0.1,0.5-0.3,0.9-0.7,1.1c-0.3,0.2-0.8,0.4-1.3,0.4c-0.4,0-0.8-0.1-1.1-0.2s-0.5-0.3-0.7-0.5c-0.2-0.2-0.3-0.5-0.4-0.8
	c-0.1-0.3-0.1-0.6-0.1-0.9h5.6c0-0.5,0-0.9-0.1-1.4c-0.1-0.5-0.3-1-0.5-1.4c-0.3-0.4-0.6-0.8-1.1-1c-0.4-0.3-1-0.4-1.6-0.4
	c-0.5,0-1,0.1-1.4,0.3c-0.4,0.2-0.8,0.5-1.1,0.8c-0.3,0.3-0.6,0.8-0.7,1.2c-0.2,0.5-0.3,1-0.3,1.6c0,0.6,0.1,1.1,0.3,1.6
	s0.4,0.9,0.7,1.2c0.3,0.3,0.7,0.6,1.1,0.8c0.4,0.2,1,0.3,1.5,0.3c0.8,0,1.5-0.2,2.1-0.6C355.2,182.3,355.5,181.6,355.7,180.8z
	 M362.1,178.1h1.3c0-0.4-0.2-0.8-0.3-1.1c-0.2-0.3-0.4-0.6-0.7-0.8c-0.3-0.2-0.6-0.4-1-0.5s-0.8-0.2-1.2-0.2c-0.6,0-1.1,0.1-1.5,0.3
	c-0.4,0.2-0.8,0.5-1.1,0.8c-0.3,0.4-0.5,0.8-0.7,1.3c-0.1,0.5-0.2,1-0.2,1.6c0,0.6,0.1,1.1,0.2,1.5c0.1,0.5,0.4,0.9,0.7,1.2
	c0.3,0.3,0.7,0.6,1.1,0.8s0.9,0.3,1.5,0.3c1,0,1.7-0.2,2.3-0.7c0.6-0.5,0.9-1.2,1-2.1h-1.3c-0.1,0.6-0.3,1-0.6,1.3
	c-0.3,0.3-0.8,0.5-1.4,0.5c-0.4,0-0.7-0.1-1-0.2c-0.3-0.2-0.5-0.4-0.7-0.6c-0.2-0.3-0.3-0.5-0.4-0.9s-0.1-0.7-0.1-1
	c0-0.4,0-0.7,0.1-1.1c0.1-0.4,0.2-0.7,0.4-0.9c0.2-0.3,0.4-0.5,0.7-0.6c0.3-0.2,0.7-0.2,1.1-0.2c0.5,0,0.9,0.1,1.2,0.4
	C361.8,177.3,362,177.6,362.1,178.1z M370,178.7h-4.3c0-0.3,0.1-0.6,0.2-0.8c0.1-0.3,0.2-0.5,0.4-0.7s0.4-0.3,0.7-0.5
	s0.5-0.2,0.9-0.2c0.3,0,0.6,0.1,0.8,0.2c0.3,0.1,0.5,0.3,0.7,0.4c0.2,0.2,0.3,0.4,0.4,0.7C369.9,178.2,370,178.4,370,178.7z
	 M371.2,180.8H370c-0.1,0.5-0.3,0.9-0.7,1.1c-0.3,0.2-0.8,0.4-1.3,0.4c-0.4,0-0.8-0.1-1.1-0.2s-0.5-0.3-0.7-0.5
	c-0.2-0.2-0.3-0.5-0.4-0.8c-0.1-0.3-0.1-0.6-0.1-0.9h5.6c0-0.5,0-0.9-0.1-1.4c-0.1-0.5-0.3-1-0.5-1.4c-0.3-0.4-0.6-0.8-1.1-1
	c-0.4-0.3-1-0.4-1.6-0.4c-0.5,0-1,0.1-1.4,0.3c-0.4,0.2-0.8,0.5-1.1,0.8c-0.3,0.3-0.6,0.8-0.7,1.2c-0.2,0.5-0.3,1-0.3,1.6
	c0,0.6,0.1,1.1,0.3,1.6s0.4,0.9,0.7,1.2s0.7,0.6,1.1,0.8s1,0.3,1.5,0.3c0.8,0,1.5-0.2,2.1-0.6C370.6,182.3,371,181.6,371.2,180.8z
	 M372.6,175.7V186h1.2v-3.8h0c0.1,0.2,0.3,0.4,0.5,0.6s0.4,0.3,0.6,0.4c0.2,0.1,0.4,0.1,0.7,0.2c0.2,0,0.4,0.1,0.6,0.1
	c0.6,0,1.1-0.1,1.5-0.3c0.4-0.2,0.8-0.5,1.1-0.8c0.3-0.4,0.5-0.8,0.6-1.2s0.2-1,0.2-1.5s-0.1-1-0.2-1.5c-0.1-0.5-0.4-0.9-0.6-1.2
	c-0.3-0.4-0.6-0.6-1.1-0.9c-0.4-0.2-0.9-0.3-1.5-0.3c-0.5,0-1,0.1-1.4,0.3c-0.4,0.2-0.7,0.5-1,0.9h0v-1H372.6z M378.3,179.4
	c0,0.4,0,0.7-0.1,1.1s-0.2,0.7-0.4,0.9c-0.2,0.3-0.4,0.5-0.7,0.6c-0.3,0.2-0.6,0.2-1.1,0.2c-0.4,0-0.8-0.1-1.1-0.2s-0.5-0.4-0.7-0.6
	c-0.2-0.3-0.3-0.6-0.4-0.9c-0.1-0.3-0.1-0.7-0.1-1.1c0-0.3,0-0.7,0.1-1c0.1-0.3,0.2-0.6,0.4-0.9c0.2-0.3,0.4-0.5,0.7-0.6
	c0.3-0.2,0.6-0.2,1.1-0.2c0.4,0,0.7,0.1,1,0.2c0.3,0.2,0.5,0.4,0.7,0.6s0.3,0.6,0.4,0.9C378.3,178.7,378.3,179,378.3,179.4z
	 M382.8,175.7v-2.2h-1.2v2.2h-1.3v1.1h1.3v4.7c0,0.3,0,0.6,0.1,0.8s0.2,0.4,0.3,0.5c0.1,0.1,0.3,0.2,0.5,0.2c0.2,0,0.5,0.1,0.8,0.1
	h0.9v-1.1h-0.6c-0.2,0-0.3,0-0.5,0s-0.2,0-0.3-0.1s-0.1-0.1-0.1-0.2c0-0.1,0-0.2,0-0.3v-4.6h1.5v-1.1H382.8z M386.5,179.5
	c0-0.5,0.1-0.9,0.2-1.2s0.3-0.6,0.5-0.9c0.2-0.2,0.5-0.4,0.7-0.5s0.6-0.2,0.9-0.2s0.6,0.1,0.9,0.2c0.3,0.1,0.5,0.3,0.7,0.5
	c0.2,0.2,0.4,0.5,0.5,0.9c0.1,0.4,0.2,0.8,0.2,1.2s-0.1,0.9-0.2,1.2c-0.1,0.4-0.3,0.6-0.5,0.9c-0.2,0.2-0.5,0.4-0.7,0.5
	c-0.3,0.1-0.6,0.2-0.9,0.2s-0.6-0.1-0.9-0.2s-0.5-0.3-0.7-0.5c-0.2-0.2-0.4-0.5-0.5-0.9S386.5,179.9,386.5,179.5z M385.2,179.5
	c0,0.5,0.1,1.1,0.2,1.5c0.2,0.5,0.4,0.9,0.7,1.2c0.3,0.4,0.7,0.6,1.1,0.8c0.5,0.2,1,0.3,1.6,0.3c0.6,0,1.1-0.1,1.6-0.3
	c0.4-0.2,0.8-0.5,1.1-0.8c0.3-0.4,0.5-0.8,0.7-1.2c0.2-0.5,0.2-1,0.2-1.5c0-0.5-0.1-1.1-0.2-1.5c-0.2-0.5-0.4-0.9-0.7-1.2
	c-0.3-0.4-0.7-0.6-1.1-0.8s-1-0.3-1.6-0.3c-0.6,0-1.1,0.1-1.6,0.3c-0.5,0.2-0.8,0.5-1.1,0.8c-0.3,0.4-0.5,0.8-0.7,1.2
	C385.3,178.4,385.2,178.9,385.2,179.5z M393.8,175.7v7.4h1.2v-3.3c0-0.5,0-0.9,0.1-1.3s0.2-0.7,0.5-0.9c0.2-0.3,0.5-0.5,0.8-0.6
	c0.3-0.1,0.8-0.2,1.3-0.2v-1.3c-0.7,0-1.2,0.1-1.6,0.4c-0.4,0.3-0.8,0.7-1.1,1.3h0v-1.6H393.8z"/>
<path d="M349.6,50c0-0.3,0-0.6,0-0.9c0-0.3,0-0.6,0.1-1c0-0.3,0.1-0.6,0.2-0.9c0.1-0.3,0.2-0.6,0.4-0.8c0.2-0.2,0.4-0.4,0.6-0.6
	c0.3-0.1,0.6-0.2,0.9-0.2c0.4,0,0.7,0.1,0.9,0.2c0.3,0.1,0.5,0.3,0.6,0.6c0.2,0.2,0.3,0.5,0.4,0.8c0.1,0.3,0.2,0.6,0.2,0.9
	c0,0.3,0.1,0.6,0.1,1c0,0.3,0,0.6,0,0.9c0,0.4,0,0.9,0,1.4c0,0.5-0.1,1-0.2,1.4c-0.1,0.4-0.4,0.8-0.7,1.1c-0.3,0.3-0.7,0.5-1.3,0.5
	c-0.6,0-1-0.2-1.3-0.5c-0.3-0.3-0.5-0.7-0.7-1.1c-0.1-0.4-0.2-0.9-0.2-1.4C349.6,50.9,349.6,50.4,349.6,50z M348.2,50
	c0,0.4,0,0.8,0,1.2c0,0.4,0.1,0.9,0.2,1.3c0.1,0.4,0.2,0.8,0.4,1.2c0.2,0.4,0.4,0.7,0.6,1c0.3,0.3,0.6,0.5,1,0.7
	c0.4,0.2,0.9,0.2,1.5,0.2c0.6,0,1.1-0.1,1.5-0.2c0.4-0.2,0.7-0.4,1-0.7c0.3-0.3,0.5-0.6,0.6-1c0.2-0.4,0.3-0.8,0.4-1.2
	c0.1-0.4,0.1-0.8,0.2-1.3c0-0.4,0-0.8,0-1.2c0-0.4,0-0.8,0-1.2c0-0.4-0.1-0.9-0.2-1.3c-0.1-0.4-0.2-0.8-0.4-1.2
	c-0.2-0.4-0.4-0.7-0.6-1c-0.3-0.3-0.6-0.5-1-0.7c-0.4-0.2-0.9-0.2-1.5-0.2c-0.6,0-1.1,0.1-1.5,0.2c-0.4,0.2-0.7,0.4-1,0.7
	c-0.3,0.3-0.5,0.6-0.6,1c-0.2,0.4-0.3,0.8-0.4,1.2c-0.1,0.4-0.1,0.8-0.2,1.3C348.2,49.2,348.2,49.6,348.2,50z M357.4,53.7v1.7h1.7
	v-1.7H357.4z M363.8,49.2v1.1c0.2,0,0.5,0,0.8,0c0.3,0,0.6,0,0.9,0.1c0.3,0.1,0.5,0.2,0.7,0.4c0.2,0.2,0.4,0.4,0.5,0.7
	c0.1,0.3,0.2,0.6,0.2,0.9c0,0.3-0.1,0.6-0.2,0.9c-0.1,0.3-0.3,0.5-0.5,0.7s-0.5,0.3-0.8,0.4c-0.3,0.1-0.6,0.1-0.9,0.1
	c-0.8,0-1.3-0.2-1.7-0.7c-0.4-0.4-0.6-1-0.6-1.7h-1.3c0,0.6,0.1,1.1,0.2,1.5c0.2,0.4,0.4,0.8,0.7,1.1c0.3,0.3,0.7,0.5,1.2,0.7
	c0.5,0.2,1,0.2,1.5,0.2c0.5,0,1-0.1,1.5-0.2c0.5-0.1,0.9-0.3,1.2-0.6c0.3-0.3,0.6-0.6,0.8-1c0.2-0.4,0.3-0.9,0.3-1.4
	c0-0.7-0.2-1.2-0.5-1.7c-0.3-0.5-0.8-0.8-1.5-0.9v0c0.4-0.2,0.8-0.5,1.1-0.9s0.4-0.8,0.4-1.3c0-0.5-0.1-0.9-0.3-1.3
	c-0.2-0.4-0.4-0.7-0.7-0.9c-0.3-0.2-0.7-0.4-1.1-0.5c-0.4-0.1-0.8-0.2-1.3-0.2c-0.5,0-1,0.1-1.4,0.3s-0.8,0.4-1,0.7
	c-0.3,0.3-0.5,0.7-0.6,1.1s-0.2,0.9-0.3,1.4h1.3c0-0.3,0-0.6,0.1-0.9c0.1-0.3,0.2-0.5,0.4-0.8c0.2-0.2,0.4-0.4,0.6-0.5
	c0.3-0.1,0.6-0.2,0.9-0.2c0.6,0,1,0.1,1.4,0.4c0.4,0.3,0.6,0.7,0.6,1.3c0,0.3-0.1,0.5-0.2,0.8c-0.1,0.2-0.3,0.4-0.5,0.6
	c-0.2,0.1-0.4,0.3-0.7,0.3c-0.3,0.1-0.5,0.1-0.8,0.1h-0.3c-0.1,0-0.1,0-0.2,0C363.9,49.2,363.8,49.2,363.8,49.2z"/>
<line class="st2" x1="314.6" y1="49.9" x2="344.6" y2="49.9"/>
<path d="M349.6,69c0-0.3,0-0.6,0-0.9c0-0.3,0-0.6,0.1-1c0-0.3,0.1-0.6,0.2-0.9c0.1-0.3,0.2-0.6,0.4-0.8c0.2-0.2,0.4-0.4,0.6-0.6
	c0.3-0.1,0.6-0.2,0.9-0.2c0.4,0,0.7,0.1,0.9,0.2c0.3,0.1,0.5,0.3,0.6,0.6c0.2,0.2,0.3,0.5,0.4,0.8c0.1,0.3,0.2,0.6,0.2,0.9
	c0,0.3,0.1,0.6,0.1,1s0,0.6,0,0.9c0,0.4,0,0.9,0,1.4c0,0.5-0.1,1-0.2,1.4c-0.1,0.4-0.4,0.8-0.7,1.1c-0.3,0.3-0.7,0.5-1.3,0.5
	c-0.6,0-1-0.2-1.3-0.5c-0.3-0.3-0.5-0.7-0.7-1.1c-0.1-0.4-0.2-0.9-0.2-1.4C349.6,69.9,349.6,69.4,349.6,69z M348.2,69
	c0,0.4,0,0.8,0,1.2c0,0.4,0.1,0.9,0.2,1.3c0.1,0.4,0.2,0.8,0.4,1.2s0.4,0.7,0.6,1c0.3,0.3,0.6,0.5,1,0.7c0.4,0.2,0.9,0.2,1.5,0.2
	c0.6,0,1.1-0.1,1.5-0.2c0.4-0.2,0.7-0.4,1-0.7c0.3-0.3,0.5-0.6,0.6-1s0.3-0.8,0.4-1.2c0.1-0.4,0.1-0.8,0.2-1.3c0-0.4,0-0.8,0-1.2
	c0-0.4,0-0.8,0-1.2c0-0.4-0.1-0.9-0.2-1.3c-0.1-0.4-0.2-0.8-0.4-1.2c-0.2-0.4-0.4-0.7-0.6-1c-0.3-0.3-0.6-0.5-1-0.7
	c-0.4-0.2-0.9-0.2-1.5-0.2c-0.6,0-1.1,0.1-1.5,0.2c-0.4,0.2-0.7,0.4-1,0.7c-0.3,0.3-0.5,0.6-0.6,1c-0.2,0.4-0.3,0.8-0.4,1.2
	c-0.1,0.4-0.1,0.8-0.2,1.3C348.2,68.2,348.2,68.6,348.2,69z M357.4,72.7v1.7h1.7v-1.7H357.4z M362.5,71.8h-1.3
	c0.1,0.9,0.4,1.7,1,2.1c0.6,0.5,1.4,0.7,2.3,0.7c1.3,0,2.3-0.5,2.9-1.5c0.6-1,0.9-2.5,0.9-4.4c0-1-0.1-1.9-0.3-2.6
	c-0.2-0.7-0.5-1.2-0.8-1.6c-0.3-0.4-0.7-0.7-1.2-0.8c-0.5-0.2-0.9-0.2-1.5-0.2c-0.5,0-1,0.1-1.5,0.3c-0.4,0.2-0.8,0.4-1.1,0.7
	c-0.3,0.3-0.6,0.7-0.7,1.1S361,66.5,361,67c0,0.5,0.1,1,0.2,1.5c0.1,0.5,0.4,0.8,0.7,1.2c0.3,0.3,0.7,0.6,1.1,0.7
	c0.4,0.2,0.9,0.3,1.5,0.3c0.5,0,1-0.1,1.5-0.4c0.5-0.3,0.8-0.6,1-1.1l0,0c0,1.4-0.3,2.5-0.7,3.2c-0.4,0.7-1,1-1.8,1
	c-0.5,0-1-0.1-1.4-0.4C362.8,72.7,362.5,72.3,362.5,71.8z M366.7,67.1c0,0.3-0.1,0.6-0.2,0.9c-0.1,0.3-0.3,0.6-0.4,0.8
	c-0.2,0.2-0.4,0.4-0.7,0.5c-0.3,0.1-0.6,0.2-0.9,0.2c-0.3,0-0.6-0.1-0.9-0.2c-0.3-0.1-0.5-0.3-0.7-0.5c-0.2-0.2-0.3-0.5-0.4-0.7
	s-0.2-0.6-0.2-0.9c0-0.3,0-0.7,0.1-1c0.1-0.3,0.2-0.6,0.4-0.8c0.2-0.2,0.4-0.4,0.7-0.6c0.3-0.1,0.6-0.2,1-0.2c0.4,0,0.7,0.1,1,0.2
	c0.3,0.1,0.5,0.3,0.7,0.5c0.2,0.2,0.3,0.5,0.4,0.8C366.7,66.5,366.7,66.8,366.7,67.1z"/>
<line class="st3" x1="314.6" y1="68.9" x2="344.6" y2="68.9"/>
<path d="M350.9,87.2v1.1c0.2,0,0.5,0,0.8,0c0.3,0,0.6,0,0.9,0.1c0.3,0.1,0.5,0.2,0.7,0.4c0.2,0.2,0.4,0.4,0.5,0.7
	c0.1,0.3,0.2,0.6,0.2,0.9c0,0.3-0.1,0.6-0.2,0.9c-0.1,0.3-0.3,0.5-0.5,0.7c-0.2,0.2-0.5,0.3-0.8,0.4c-0.3,0.1-0.6,0.1-0.9,0.1
	c-0.8,0-1.3-0.2-1.7-0.7c-0.4-0.4-0.6-1-0.6-1.7H348c0,0.6,0.1,1.1,0.2,1.5c0.2,0.4,0.4,0.8,0.7,1.1c0.3,0.3,0.7,0.5,1.2,0.7
	c0.5,0.2,1,0.2,1.5,0.2c0.5,0,1-0.1,1.5-0.2c0.5-0.1,0.9-0.3,1.2-0.6c0.3-0.3,0.6-0.6,0.8-1c0.2-0.4,0.3-0.9,0.3-1.4
	c0-0.7-0.2-1.2-0.5-1.7s-0.8-0.8-1.5-0.9v0c0.4-0.2,0.8-0.5,1.1-0.9s0.4-0.8,0.4-1.3c0-0.5-0.1-0.9-0.3-1.3
	c-0.2-0.4-0.4-0.7-0.7-0.9c-0.3-0.2-0.7-0.4-1.1-0.5c-0.4-0.1-0.8-0.2-1.3-0.2c-0.5,0-1,0.1-1.4,0.3c-0.4,0.2-0.8,0.4-1,0.7
	c-0.3,0.3-0.5,0.7-0.6,1.1c-0.1,0.4-0.2,0.9-0.3,1.4h1.3c0-0.3,0-0.6,0.1-0.9c0.1-0.3,0.2-0.5,0.4-0.8c0.2-0.2,0.4-0.4,0.6-0.5
	c0.3-0.1,0.6-0.2,0.9-0.2c0.6,0,1,0.1,1.4,0.4c0.4,0.3,0.6,0.7,0.6,1.3c0,0.3-0.1,0.5-0.2,0.8c-0.1,0.2-0.3,0.4-0.5,0.6
	c-0.2,0.1-0.4,0.3-0.7,0.3c-0.3,0.1-0.5,0.1-0.8,0.1h-0.3c-0.1,0-0.1,0-0.2,0C351,87.2,351,87.2,350.9,87.2z M357.4,91.7v1.7h1.7
	v-1.7H357.4z M361.1,86.3h1.3c0-0.3,0-0.7,0.1-1c0.1-0.3,0.2-0.6,0.4-0.9s0.4-0.5,0.7-0.6c0.3-0.2,0.6-0.2,1-0.2
	c0.3,0,0.6,0,0.8,0.1c0.3,0.1,0.5,0.2,0.7,0.4c0.2,0.2,0.3,0.4,0.5,0.6c0.1,0.2,0.2,0.5,0.2,0.8c0,0.4-0.1,0.7-0.2,1
	c-0.1,0.3-0.3,0.6-0.5,0.8c-0.2,0.2-0.5,0.5-0.9,0.7c-0.3,0.2-0.8,0.5-1.2,0.8c-0.4,0.2-0.7,0.5-1.1,0.7c-0.3,0.3-0.7,0.6-0.9,0.9
	c-0.3,0.3-0.5,0.7-0.7,1.2c-0.2,0.5-0.3,1-0.3,1.7h7.1v-1.2h-5.6c0.1-0.3,0.2-0.6,0.4-0.9c0.2-0.3,0.4-0.5,0.7-0.7
	c0.3-0.2,0.6-0.4,0.9-0.6c0.3-0.2,0.7-0.4,1-0.6c0.3-0.2,0.7-0.4,1-0.7c0.3-0.2,0.6-0.5,0.8-0.8c0.2-0.3,0.4-0.6,0.6-1
	c0.1-0.4,0.2-0.8,0.2-1.3c0-0.5-0.1-1-0.3-1.4c-0.2-0.4-0.4-0.7-0.7-1c-0.3-0.3-0.7-0.5-1.1-0.6c-0.4-0.1-0.9-0.2-1.3-0.2
	c-0.6,0-1.1,0.1-1.5,0.3c-0.5,0.2-0.8,0.5-1.1,0.8c-0.3,0.3-0.5,0.8-0.7,1.2C361.1,85.3,361.1,85.8,361.1,86.3z"/>
<line class="st4" x1="314.6" y1="87.9" x2="344.6" y2="87.9"/>
<path d="M353.1,112.4v-10.9h-1c-0.1,0.4-0.2,0.8-0.4,1c-0.2,0.3-0.4,0.5-0.7,0.6c-0.3,0.2-0.6,0.3-0.9,0.3c-0.3,0.1-0.7,0.1-1.1,0.1
	v1h2.8v7.8H353.1z M361.6,112.4v-10.9h-1c-0.1,0.4-0.2,0.8-0.4,1c-0.2,0.3-0.4,0.5-0.7,0.6s-0.6,0.3-0.9,0.3
	c-0.3,0.1-0.7,0.1-1.1,0.1v1h2.8v7.8H361.6z M366,110.7v1.7h1.7v-1.7H366z M369.7,105.3h1.3c0-0.3,0-0.7,0.1-1
	c0.1-0.3,0.2-0.6,0.4-0.9s0.4-0.5,0.7-0.6c0.3-0.2,0.6-0.2,1-0.2c0.3,0,0.6,0,0.8,0.1c0.3,0.1,0.5,0.2,0.7,0.4
	c0.2,0.2,0.3,0.4,0.5,0.6c0.1,0.2,0.2,0.5,0.2,0.8c0,0.4-0.1,0.7-0.2,1c-0.1,0.3-0.3,0.6-0.5,0.8c-0.2,0.2-0.5,0.5-0.9,0.7
	c-0.3,0.2-0.8,0.5-1.2,0.8c-0.4,0.2-0.7,0.5-1.1,0.7c-0.3,0.3-0.7,0.6-0.9,0.9c-0.3,0.3-0.5,0.7-0.7,1.2c-0.2,0.5-0.3,1-0.3,1.7h7.1
	v-1.2h-5.6c0.1-0.3,0.2-0.6,0.4-0.9c0.2-0.3,0.4-0.5,0.7-0.7c0.3-0.2,0.6-0.4,0.9-0.6c0.3-0.2,0.7-0.4,1-0.6c0.3-0.2,0.7-0.4,1-0.7
	c0.3-0.2,0.6-0.5,0.8-0.8c0.2-0.3,0.4-0.6,0.6-1c0.1-0.4,0.2-0.8,0.2-1.3c0-0.5-0.1-1-0.3-1.4c-0.2-0.4-0.4-0.7-0.7-1
	c-0.3-0.3-0.7-0.5-1.1-0.6c-0.4-0.1-0.9-0.2-1.3-0.2c-0.6,0-1.1,0.1-1.5,0.3c-0.5,0.2-0.8,0.5-1.1,0.8c-0.3,0.3-0.5,0.8-0.7,1.2
	C369.7,104.3,369.7,104.8,369.7,105.3z"/>
<line class="st5" x1="314.6" y1="106.9" x2="344.6" y2="106.9"/>
<path d="M350.9,125.2v1.1c0.2,0,0.5,0,0.8,0c0.3,0,0.6,0,0.9,0.1c0.3,0.1,0.5,0.2,0.7,0.4c0.2,0.2,0.4,0.4,0.5,0.7
	c0.1,0.3,0.2,0.6,0.2,0.9c0,0.3-0.1,0.6-0.2,0.9c-0.1,0.3-0.3,0.5-0.5,0.7c-0.2,0.2-0.5,0.3-0.8,0.4c-0.3,0.1-0.6,0.1-0.9,0.1
	c-0.8,0-1.3-0.2-1.7-0.7c-0.4-0.4-0.6-1-0.6-1.7H348c0,0.6,0.1,1.1,0.2,1.5c0.2,0.4,0.4,0.8,0.7,1.1c0.3,0.3,0.7,0.5,1.2,0.7
	c0.5,0.2,1,0.2,1.5,0.2c0.5,0,1-0.1,1.5-0.2s0.9-0.3,1.2-0.6c0.3-0.3,0.6-0.6,0.8-1c0.2-0.4,0.3-0.9,0.3-1.4c0-0.7-0.2-1.2-0.5-1.7
	s-0.8-0.8-1.5-0.9v0c0.4-0.2,0.8-0.5,1.1-0.9s0.4-0.8,0.4-1.3c0-0.5-0.1-0.9-0.3-1.3c-0.2-0.4-0.4-0.7-0.7-0.9
	c-0.3-0.2-0.7-0.4-1.1-0.5c-0.4-0.1-0.8-0.2-1.3-0.2c-0.5,0-1,0.1-1.4,0.3c-0.4,0.2-0.8,0.4-1,0.7c-0.3,0.3-0.5,0.7-0.6,1.1
	c-0.1,0.4-0.2,0.9-0.3,1.4h1.3c0-0.3,0-0.6,0.1-0.9c0.1-0.3,0.2-0.5,0.4-0.8c0.2-0.2,0.4-0.4,0.6-0.5c0.3-0.1,0.6-0.2,0.9-0.2
	c0.6,0,1,0.1,1.4,0.4c0.4,0.3,0.6,0.7,0.6,1.3c0,0.3-0.1,0.5-0.2,0.8c-0.1,0.2-0.3,0.4-0.5,0.6c-0.2,0.1-0.4,0.3-0.7,0.3
	c-0.3,0.1-0.5,0.1-0.8,0.1h-0.3c-0.1,0-0.1,0-0.2,0C351,125.2,351,125.2,350.9,125.2z M358.2,128.8h-1.3c0.1,0.9,0.4,1.7,1,2.1
	c0.6,0.5,1.4,0.7,2.3,0.7c1.3,0,2.3-0.5,2.9-1.5c0.6-1,0.9-2.5,0.9-4.4c0-1-0.1-1.9-0.3-2.6c-0.2-0.7-0.5-1.2-0.8-1.6
	c-0.3-0.4-0.7-0.7-1.2-0.8c-0.5-0.2-0.9-0.2-1.5-0.2c-0.5,0-1,0.1-1.5,0.3c-0.4,0.2-0.8,0.4-1.1,0.7c-0.3,0.3-0.6,0.7-0.7,1.1
	c-0.2,0.4-0.3,0.9-0.3,1.4c0,0.5,0.1,1,0.2,1.5c0.1,0.5,0.4,0.8,0.7,1.2c0.3,0.3,0.7,0.6,1.1,0.7s0.9,0.3,1.5,0.3
	c0.5,0,1-0.1,1.5-0.4c0.5-0.3,0.8-0.6,1-1.1l0,0c0,1.4-0.3,2.5-0.7,3.2c-0.4,0.7-1,1-1.8,1c-0.5,0-1-0.1-1.4-0.4
	C358.5,129.7,358.3,129.3,358.2,128.8z M362.4,124.1c0,0.3-0.1,0.6-0.2,0.9c-0.1,0.3-0.3,0.6-0.4,0.8c-0.2,0.2-0.4,0.4-0.7,0.5
	c-0.3,0.1-0.6,0.2-0.9,0.2c-0.3,0-0.6-0.1-0.9-0.2c-0.3-0.1-0.5-0.3-0.7-0.5c-0.2-0.2-0.3-0.5-0.4-0.7s-0.2-0.6-0.2-0.9
	c0-0.3,0-0.7,0.1-1c0.1-0.3,0.2-0.6,0.4-0.8c0.2-0.2,0.4-0.4,0.7-0.6c0.3-0.1,0.6-0.2,1-0.2c0.4,0,0.7,0.1,1,0.2
	c0.3,0.1,0.5,0.3,0.7,0.5c0.2,0.2,0.3,0.5,0.4,0.8C362.4,123.5,362.4,123.8,362.4,124.1z M366,129.7v1.7h1.7v-1.7H366z M371.4,123.3
	c0-0.3,0.1-0.5,0.2-0.7c0.1-0.2,0.2-0.4,0.4-0.5c0.2-0.1,0.4-0.3,0.6-0.3c0.2-0.1,0.5-0.1,0.7-0.1c0.5,0,1,0.1,1.3,0.4
	c0.3,0.3,0.5,0.7,0.5,1.3s-0.2,1-0.5,1.3c-0.3,0.3-0.8,0.5-1.3,0.5c-0.3,0-0.5,0-0.8-0.1c-0.2-0.1-0.4-0.2-0.6-0.3
	c-0.2-0.1-0.3-0.3-0.4-0.5C371.4,123.9,371.4,123.6,371.4,123.3z M370,123.3c0,0.5,0.1,0.9,0.4,1.4c0.3,0.4,0.6,0.7,1.1,0.9
	c-0.6,0.2-1.1,0.6-1.4,1c-0.3,0.5-0.5,1-0.5,1.7c0,0.6,0.1,1,0.3,1.5c0.2,0.4,0.5,0.8,0.8,1c0.3,0.3,0.7,0.5,1.2,0.6
	c0.5,0.1,0.9,0.2,1.5,0.2c0.5,0,1-0.1,1.4-0.2c0.4-0.1,0.8-0.4,1.1-0.6c0.3-0.3,0.6-0.6,0.8-1c0.2-0.4,0.3-0.9,0.3-1.4
	c0-0.7-0.2-1.3-0.5-1.7c-0.3-0.5-0.8-0.8-1.5-1c0.5-0.2,0.8-0.5,1.1-0.9c0.3-0.4,0.4-0.9,0.4-1.4c0-0.3-0.1-0.7-0.2-1
	c-0.1-0.3-0.3-0.6-0.6-0.9c-0.3-0.3-0.6-0.5-1-0.6c-0.4-0.2-0.9-0.2-1.5-0.2c-0.4,0-0.8,0.1-1.2,0.2c-0.4,0.1-0.7,0.3-1,0.5
	c-0.3,0.2-0.5,0.5-0.7,0.9C370.1,122.4,370,122.8,370,123.3z M371,128.3c0-0.3,0.1-0.6,0.2-0.9c0.1-0.3,0.3-0.5,0.5-0.7
	c0.2-0.2,0.5-0.3,0.7-0.4c0.3-0.1,0.6-0.1,0.9-0.1c0.3,0,0.6,0.1,0.9,0.2c0.3,0.1,0.5,0.3,0.7,0.4c0.2,0.2,0.4,0.4,0.5,0.7
	c0.1,0.3,0.2,0.5,0.2,0.8c0,0.3-0.1,0.6-0.2,0.8c-0.1,0.3-0.3,0.5-0.5,0.7c-0.2,0.2-0.4,0.3-0.7,0.4c-0.3,0.1-0.6,0.2-0.9,0.2
	c-0.7,0-1.2-0.2-1.7-0.6C371.2,129.5,371,129,371,128.3z"/>
<line class="st6" x1="314.6" y1="125.9" x2="344.6" y2="125.9"/>
<path d="M334,30.4c-0.1,0-0.2-0.1-0.2-0.2c0,0,0-0.1,0-0.1c0-0.1,0-0.1,0.1-0.2c0,0,0.1-0.1,0.1-0.1c0.7,0,1.2,0,1.5-0.1
	c0.1,0,0.3-0.2,0.3-0.5l2.3-9.3c0-0.1,0-0.2,0-0.2c0-0.1-0.1-0.2-0.2-0.2c-0.2,0-0.6-0.1-1.2-0.1c-0.1,0-0.2-0.1-0.2-0.2
	c0,0,0-0.1,0-0.1c0-0.1,0-0.1,0.1-0.2c0,0,0.1-0.1,0.1-0.1h9.2c0.1,0,0.2,0.1,0.2,0.2l-0.4,3.5c0,0,0,0.1-0.1,0.1
	c0,0-0.1,0.1-0.1,0.1h-0.1c-0.1,0-0.2-0.1-0.2-0.2c0.1-0.6,0.1-1,0.1-1.2c0-0.4-0.1-0.8-0.2-1c-0.2-0.2-0.4-0.4-0.6-0.5
	c-0.3-0.1-0.5-0.2-0.9-0.2c-0.3,0-0.7,0-1.2,0h-1.9c-0.3,0-0.5,0-0.6,0.1c-0.1,0.1-0.2,0.2-0.3,0.5l-1,4.1h1.3c0.6,0,1,0,1.3-0.1
	c0.3-0.1,0.5-0.2,0.7-0.5c0.2-0.3,0.3-0.7,0.5-1.2c0,0,0-0.1,0.1-0.1c0,0,0.1,0,0.1,0h0.2c0.1,0,0.2,0.1,0.2,0.2l-1,4.2
	c0,0.1-0.1,0.1-0.2,0.1h-0.2c-0.1,0-0.2-0.1-0.2-0.2c0.1-0.5,0.2-0.8,0.2-1c0-0.3-0.2-0.5-0.5-0.6c-0.3-0.1-0.7-0.1-1.2-0.1h-1.4
	l-1.2,4.6c0,0.1-0.1,0.3-0.1,0.4c0,0.1,0.2,0.1,0.6,0.1h2.1c0.8,0,1.5-0.1,2-0.2c0.5-0.1,0.9-0.3,1.3-0.6c0.3-0.3,0.6-0.6,0.9-1.1
	c0.2-0.4,0.5-1.1,0.9-1.9c0-0.1,0.1-0.1,0.2-0.1h0.2c0,0,0.1,0,0.1,0.1s0.1,0.1,0.1,0.1c0,0,0,0,0,0.1l-1.8,4.1
	c0,0.1-0.1,0.1-0.1,0.1H334z"/>
<path d="M349.2,34.6v-17h2.3v0.7h-1.6v15.6h1.6v0.7H349.2z"/>
<path d="M354.5,26.7c0,0.7,0.1,1.3,0.4,1.8c0.3,0.5,0.6,0.9,1.1,1.2c0.5,0.3,1.1,0.4,1.8,0.4c0.7,0,1.4-0.2,2.1-0.5
	c0.7-0.4,1.2-0.9,1.7-1.5c0.5-0.6,0.8-1.3,1-2c0-0.1,0.1-0.1,0.1-0.1h0.2c0.1,0,0.1,0,0.1,0c0,0,0,0.1,0,0.1c0,0,0,0,0,0.1
	c-0.2,0.8-0.6,1.5-1.1,2.2c-0.6,0.7-1.2,1.2-2,1.6c-0.8,0.4-1.6,0.6-2.4,0.6c-0.9,0-1.7-0.2-2.4-0.6c-0.7-0.4-1.2-1-1.6-1.7
	c-0.4-0.7-0.6-1.5-0.6-2.4c0-1,0.2-1.9,0.6-2.8c0.4-0.9,1-1.8,1.7-2.5c0.7-0.7,1.5-1.3,2.5-1.7c0.9-0.4,1.9-0.6,2.8-0.6
	c0.4,0,0.7,0.1,1.1,0.2c0.3,0.1,0.7,0.3,1,0.5c0.3,0.2,0.5,0.5,0.7,0.8l1.3-1.5c0,0,0,0,0.1,0h0.1c0,0,0.1,0,0.1,0.1
	c0,0,0,0.1,0,0.1l-1.2,4.6c0,0.1,0,0.1-0.1,0.1h-0.3c-0.1,0-0.1-0.1-0.1-0.2c0-0.2,0.1-0.5,0.1-0.9c0-0.6-0.1-1.1-0.3-1.6
	c-0.2-0.5-0.5-0.9-0.9-1.2c-0.4-0.3-0.9-0.4-1.4-0.4c-0.9,0-1.8,0.2-2.5,0.7c-0.8,0.5-1.4,1.1-2,1.8c-0.5,0.8-0.9,1.6-1.2,2.5
	C354.7,24.9,354.5,25.8,354.5,26.7z"/>
<path d="M365.6,33v-0.4c1,0,1.5-0.1,1.5-0.4v-6.3c-0.4,0.2-0.9,0.3-1.6,0.3v-0.4c1,0,1.7-0.3,2.2-0.8h0.2c0,0,0,0,0.1,0
	c0,0,0,0,0,0.1v7.1c0,0.2,0.5,0.4,1.5,0.4V33H365.6z"/>
<path d="M371.9,34.6v-0.7h1.7V18.3h-1.7v-0.7h2.3v17H371.9z"/>
</svg>
