<?xml version="1.0" encoding="utf-8"?>
<!-- Generator: Adobe Illustrator 24.0.3, SVG Export Plug-In . SVG Version: 6.00 Build 0)  -->
<svg version="1.1" id="Layer_1" xmlns="http://www.w3.org/2000/svg" xmlns:xlink="http://www.w3.org/1999/xlink" x="0px" y="0px"
	 viewBox="0 0 492.4 170.1" style="enable-background:new 0 0 492.4 170.1;" xml:space="preserve">
<style type="text/css">
	.st0{opacity:0;fill:none;stroke:#000000;stroke-width:9.999999e-07;stroke-miterlimit:10;}
	.st1{opacity:0;fill:none;stroke:#000000;stroke-width:1.000000e-06;stroke-miterlimit:10;}
	.st2{clip-path:url(#SVGID_2_);}
	.st3{clip-path:url(#SVGID_2_);fill:none;stroke:#000000;stroke-width:0.5;stroke-miterlimit:10;}
	.st4{opacity:0;clip-path:url(#SVGID_2_);fill:none;stroke:#000000;stroke-width:9.999999e-07;stroke-miterlimit:10;}
	.st5{fill:none;stroke:#262626;stroke-width:0.5;stroke-linecap:square;stroke-linejoin:round;stroke-miterlimit:10;}
	.st6{fill:#262626;}
	.st7{fill:none;stroke:#0072BD;stroke-linejoin:round;stroke-miterlimit:10;}
	.st8{fill:none;stroke:#D95319;stroke-linejoin:round;stroke-miterlimit:10;}
	.st9{fill:none;stroke:#262626;stroke-linejoin:round;stroke-miterlimit:10;stroke-opacity:0.702;}
	.st10{fill:none;stroke:#0072BD;stroke-linejoin:bevel;stroke-miterlimit:1;stroke-dasharray:10,6;}
	.st11{fill:none;stroke:#D95319;stroke-linejoin:bevel;stroke-miterlimit:1;stroke-dasharray:10,6;}
</style>
<path d="M258.2,165.4c0,0.2-0.1,0.5-0.1,0.5c0,0.2,0.2,0.3,0.4,0.3c0.2,0,0.4-0.1,0.5-0.4c0-0.1,0.5-1.8,0.5-2
	c0.1-0.4,0.3-1.3,0.4-1.7c0.1-0.2,0.4-0.8,0.7-1c0.1-0.1,0.5-0.4,1-0.4c0.3,0,0.5,0.2,0.5,0.2c-0.4,0.1-0.7,0.4-0.7,0.7
	c0,0.2,0.1,0.4,0.5,0.4c0.3,0,0.7-0.3,0.7-0.8c0-0.4-0.4-0.8-1.1-0.8c-0.8,0-1.4,0.6-1.6,1c-0.1-0.6-0.6-1-1.2-1
	c-0.6,0-0.8,0.5-0.9,0.7c-0.2,0.4-0.4,1.2-0.4,1.2c0,0.1,0.1,0.1,0.2,0.1c0.1,0,0.1,0,0.2-0.3c0.2-0.9,0.5-1.5,0.9-1.5
	c0.2,0,0.4,0.1,0.4,0.6c0,0.3,0,0.4-0.2,1.1L258.2,165.4"/>
<path d="M263.9,167c0,0.1-0.1,0.2-0.1,0.4c0,0.4,0.4,0.8,0.8,0.8c0.9,0,1.3-1.2,1.3-1.4c0-0.1-0.1-0.1-0.1-0.1
	c-0.1,0-0.1,0.1-0.2,0.2c-0.2,0.7-0.6,1.1-0.9,1.1c-0.2,0-0.2-0.1-0.2-0.3c0-0.2,0.1-0.4,0.1-0.6c0.1-0.2,0.2-0.5,0.3-0.7
	c0.1-0.2,0.4-1,0.4-1.1c0-0.1,0.1-0.2,0.1-0.3c0-0.4-0.4-0.8-0.8-0.8c-0.9,0-1.3,1.2-1.3,1.4c0,0.1,0.1,0.1,0.2,0.1
	c0.1,0,0.1,0,0.2-0.1c0.2-0.8,0.6-1.1,1-1.1c0.1,0,0.2,0.1,0.2,0.3c0,0.2-0.1,0.3-0.3,0.9L263.9,167 M265.7,162.5
	c0-0.1-0.1-0.3-0.4-0.3c-0.2,0-0.5,0.2-0.5,0.5c0,0.2,0.1,0.3,0.4,0.3C265.5,163,265.7,162.8,265.7,162.5z"/>
<path d="M272.7,157.8c0.1-0.2,0.1-0.2,0.1-0.2c0-0.1-0.1-0.3-0.3-0.3c-0.1,0-0.2,0-0.2,0.1l-4.4,12.2c-0.1,0.2-0.1,0.2-0.1,0.2
	c0,0.1,0.1,0.3,0.3,0.3c0.2,0,0.2-0.1,0.3-0.3L272.7,157.8"/>
<path d="M282.4,160.3c0.1-0.5,0.4-0.9,1.4-0.9c0.1,0,0.2,0,0.2-0.3c0,0,0-0.1-0.2-0.1c-0.4,0-0.9,0-1.3,0c-0.4,0-0.9,0-1.3,0
	c-0.1,0-0.2,0-0.2,0.3c0,0.1,0.1,0.1,0.2,0.1c0.7,0,0.9,0.3,0.9,0.6c0,0,0,0.2,0,0.3l-1.4,5.7l-2.8-6.7c-0.1-0.2-0.1-0.2-0.4-0.2
	h-1.7c-0.3,0-0.4,0-0.4,0.3c0,0.1,0.1,0.1,0.4,0.1c0.1,0,0.9,0,0.9,0.1l-1.7,6.9c-0.1,0.5-0.3,0.9-1.4,1c-0.1,0-0.2,0-0.2,0.3
	c0,0.1,0.1,0.1,0.2,0.1c0.4,0,0.9,0,1.3,0c0.4,0,0.9,0,1.3,0c0.1,0,0.2,0,0.2-0.3c0-0.1-0.1-0.1-0.3-0.1c-0.7,0-0.8-0.3-0.8-0.6
	c0-0.1,0-0.2,0.1-0.3l1.7-6.7c0.1,0.1,0.1,0.1,0.1,0.2l3.2,7.5c0.1,0.2,0.1,0.2,0.2,0.2c0.1,0,0.1,0,0.2-0.3L282.4,160.3"/>
<path class="st0" d="M270.7,163.7L270.7,163.7z"/>
<polygon class="st1" points="262,207.9 262,207.9 262,207.9 262,207.9 262,207.9 262,207.9 262,207.9 262,207.9 262,207.9 
	262,207.9 262,207.9 262,207.9 262,207.9 262,207.9 262,207.9 262,207.9 262,207.9 262,207.9 262,207.9 262,207.9 262,207.9 
	262,207.9 262,207.9 262,207.9 262,207.9 262,207.9 262,207.9 262,207.9 262,207.9 262,207.9 262,207.9 262,207.9 262,207.9 
	262,207.9 262,207.9 262,207.9 262,207.9 262,207.9 262,207.9 262,207.9 262,207.9 262,207.9 262,207.9 262,207.9 262,207.9 
	262,207.9 262,207.9 262,207.9 262,207.9 262,207.9 262,207.9 262,207.9 262,207.9 262,207.9 262,207.9 262,207.9 262,207.9 
	262,207.9 262,207.9 262,207.9 262,207.9 262,207.9 262,207.9 262,207.9 262,207.9 262,207.9 262,207.9 262,207.9 262,207.9 
	262,207.9 262,207.9 262,207.9 262,207.9 262,207.9 262,207.9 262,207.9 262,207.9 262,207.9 262,207.9 262,207.9 262,207.9 
	262,207.9 262,207.9 262,207.9 262,207.9 262,207.9 262,207.9 262,207.9 262,207.9 262,207.9 262,207.9 "/>
<g>
	<defs>
		<rect id="SVGID_1_" y="59.9" width="21.5" height="44.6"/>
	</defs>
	<clipPath id="SVGID_2_">
		<use xlink:href="#SVGID_1_"  style="overflow:visible;"/>
	</clipPath>
	<path class="st2" d="M5.6,97.5c0.2,0,0.2,0,0.4,0.2c0.5,0.4,0.7,0.8,0.7,1.1c0,0.5-0.5,0.6-0.9,0.6c-0.5,0-1.7-0.3-2.1-0.5
		c-0.6-0.3-0.9-0.7-0.9-1.1c0-0.6,0.8-0.8,0.8-0.8c0.1,0,0.1,0,0.2,0L5.6,97.5 M0.2,95.5c0,0-0.1,0-0.1,0.1c0,0.1,0.1,1.1,0.1,1.2
		C0.2,97,0.2,97,0.3,97c0.1,0,0.1-0.1,0.1-0.2c0-0.5,0.1-0.5,0.2-0.5l0.2,0l2.3,0.6c-0.4,0.2-0.6,0.5-0.6,0.9c0,1.1,1.4,2.3,2.8,2.3
		c0.9,0,1.5-0.5,1.5-1.3c0-0.2,0-0.7-0.7-1.3c0.4-0.1,0.7-0.4,0.7-0.9c0-0.3-0.2-0.6-0.5-0.7c-0.3-0.2-0.9-0.3-1-0.3
		c-0.1,0-0.1,0.1-0.1,0.1c0,0.1,0,0.1,0.2,0.1c0.6,0.2,1.2,0.3,1.2,0.7c0,0.3-0.3,0.3-0.4,0.3c-0.2,0-0.3,0-0.5-0.1L0.2,95.5z"/>
	<line class="st3" x1="10.9" y1="104.3" x2="10.9" y2="91.7"/>
	<path class="st2" d="M18.7,101.3c0.2,0,0.2,0,0.4,0.2c0.5,0.4,0.7,0.8,0.7,1.1c0,0.5-0.5,0.6-0.9,0.6c-0.5,0-1.7-0.3-2.1-0.5
		c-0.6-0.3-0.9-0.7-0.9-1.1c0-0.6,0.8-0.8,0.8-0.8c0.1,0,0.1,0,0.2,0L18.7,101.3 M13.3,99.3c0,0-0.1,0-0.1,0.1
		c0,0.1,0.1,1.1,0.1,1.2c0,0.1,0.1,0.1,0.2,0.1c0.1,0,0.1-0.1,0.1-0.2c0-0.5,0.1-0.5,0.2-0.5l0.2,0l2.3,0.6
		c-0.4,0.2-0.6,0.5-0.6,0.9c0,1.1,1.4,2.3,2.8,2.3c0.9,0,1.5-0.5,1.5-1.3c0-0.2,0-0.7-0.7-1.3c0.4-0.1,0.7-0.4,0.7-0.9
		c0-0.3-0.2-0.6-0.5-0.7c-0.3-0.2-0.9-0.3-1-0.3c-0.1,0-0.1,0.1-0.1,0.1c0,0.1,0,0.1,0.2,0.1c0.6,0.2,1.2,0.3,1.2,0.7
		c0,0.3-0.3,0.3-0.4,0.3c-0.2,0-0.3,0-0.5-0.1L13.3,99.3z"/>
	<path class="st2" d="M19.3,98.4c0.1,0,0.4,0.1,0.4,0.1c0.2,0,0.3-0.1,0.3-0.3c0-0.1-0.1-0.3-0.3-0.4c0,0-1.4-0.3-1.5-0.4
		c-0.3-0.1-1-0.3-1.3-0.3c-0.1,0-0.6-0.3-0.8-0.5c-0.1-0.1-0.3-0.4-0.3-0.8c0-0.3,0.1-0.4,0.1-0.4c0,0.3,0.3,0.5,0.5,0.5
		c0.2,0,0.3-0.1,0.3-0.4c0-0.3-0.2-0.5-0.6-0.5c-0.3,0-0.6,0.3-0.6,0.8c0,0.6,0.5,1.1,0.7,1.2c-0.4,0.1-0.7,0.4-0.7,0.9
		c0,0.4,0.4,0.6,0.5,0.7c0.3,0.2,0.9,0.3,0.9,0.3c0.1,0,0.1-0.1,0.1-0.1c0-0.1,0-0.1-0.2-0.2c-0.7-0.2-1.1-0.4-1.1-0.7
		c0-0.2,0.1-0.3,0.4-0.3c0.2,0,0.3,0,0.8,0.2L19.3,98.4"/>
	<path class="st2" d="M20.5,94.1c0.1,0,0.2,0.1,0.3,0.1c0.3,0,0.6-0.3,0.6-0.6c0-0.7-0.9-1-1-1c-0.1,0-0.1,0.1-0.1,0.1
		c0,0.1,0,0.1,0.1,0.1c0.5,0.2,0.8,0.5,0.8,0.7c0,0.1-0.1,0.2-0.2,0.2c-0.2,0-0.3,0-0.4-0.1c-0.2-0.1-0.4-0.1-0.5-0.2
		c-0.2-0.1-0.8-0.3-0.9-0.3c-0.1,0-0.1,0-0.2,0c-0.3,0-0.6,0.3-0.6,0.6c0,0.7,0.9,1,1,1c0.1,0,0.1-0.1,0.1-0.1c0-0.1,0-0.1-0.1-0.1
		c-0.6-0.2-0.8-0.5-0.8-0.7c0-0.1,0.1-0.2,0.2-0.2c0.2,0,0.3,0,0.7,0.2L20.5,94.1 M17.1,92.7c-0.1,0-0.3,0.1-0.3,0.3
		c0,0.2,0.2,0.4,0.4,0.4c0.1,0,0.3-0.1,0.3-0.3C17.5,92.9,17.3,92.7,17.1,92.7z"/>
	<path class="st2" d="M7.4,87C7.1,86.9,7,86.8,7,86.1c0-0.2,0-0.3-0.2-0.3c-0.1,0-0.1,0.1-0.1,0.1c0,0.3,0,1,0,1.3c0,0.3,0,1,0,1.3
		c0,0.1,0,0.2,0.2,0.2C7,88.7,7,88.6,7,88.4c0-0.4,0-0.7,0.2-0.7c0,0,0.1,0,0.2,0l5.2,1.3c0.4,0.1,0.5,0.1,0.5,0.9
		c0,0.2,0,0.3,0.2,0.3c0.1,0,0.1-0.1,0.1-0.1c0-0.3,0-1,0-1.3c0-0.3,0-1,0-1.3c0-0.1,0-0.2-0.2-0.2c-0.1,0-0.1,0.1-0.1,0.3
		c0,0.2,0,0.2,0,0.4c0,0.2-0.1,0.2-0.2,0.2c-0.1,0-0.2,0-0.2,0L7.4,87"/>
	<path class="st2" d="M15.6,82.4c0,0,0,0-0.2,0.2c-1.2,1.2-3,1.5-4.5,1.5c-1.7,0-3.4-0.4-4.6-1.6c-0.1-0.1-0.1-0.1-0.2-0.1
		c-0.1,0-0.1,0-0.1,0.1c0,0.1,0.7,1,1.9,1.5c1.1,0.5,2.1,0.6,2.9,0.6c0.8,0,1.9-0.1,3-0.6C15.1,83.4,15.7,82.6,15.6,82.4
		C15.7,82.4,15.7,82.4,15.6,82.4"/>
	<path class="st2" d="M6.6,74.5c0,0-0.1,0-0.1,0.1c0,0,0,0,0.1,0.1l0.7,0.7c-0.1,0.1-0.9,0.5-0.9,1.6c0,2.2,2.1,4.3,4.4,4.3
		c1.6,0,2.6-1.1,2.6-2.6c0-0.8-0.4-1.6-0.8-2.1c-0.8-0.9-1.7-1.1-1.7-1.1c-0.1,0-0.1,0.1-0.1,0.1c0,0.1,0,0.1,0.1,0.1
		c0.3,0.1,1,0.3,1.5,1c0.5,0.7,0.7,1.3,0.7,1.8c0,0.9-0.5,1.9-2,1.9c-0.5,0-2.1-0.2-3.2-1.2c-0.7-0.6-1.2-1.5-1.2-2.4
		c0-1,0.7-1.6,1.9-1.6c0.4,0,0.4,0,0.5,0c0.1,0,0.1-0.1,0.1-0.1c0-0.1,0-0.1-0.2-0.2L6.6,74.5"/>
	<path class="st2" d="M13.2,72.6c0.3,0,1,0,1.7,0.6c0.1,0.1,0.1,0.1,0.1,0.1c0.1,0,0.1,0,0.1-0.1c0-0.1-0.8-0.8-1.9-0.8
		c-0.3,0-1,0-1,0.5c0,0.3,0.3,0.5,0.5,0.5c0.3,0,0.5-0.2,0.5-0.5c0,0,0-0.1,0-0.1C13.3,72.7,13.2,72.6,13.2,72.6 M9.6,72.4
		c-0.3,0-0.5,0.2-0.5,0.5c0,0.3,0.2,0.5,0.5,0.5c0.3,0,0.5-0.2,0.5-0.5C10.1,72.6,9.9,72.4,9.6,72.4z"/>
	<path class="st2" d="M10.7,67.1l-3.2-1.9l3.2-0.3V67.1z M12.2,68.2c0.6,0.4,0.8,0.8,0.8,1.2c0,0.1,0,0.2,0.2,0.2
		c0.1,0,0.1,0,0.1-0.1c0-0.3,0-0.6,0-0.8c0-0.3,0-0.7,0-1c0-0.1,0-0.2-0.2-0.2c-0.1,0-0.1,0.1-0.1,0.2c0,0.2-0.1,0.5-0.3,0.5
		c-0.1,0-0.2-0.1-0.4-0.1L11,67.3v-2.4c0.2,0,1.5-0.2,1.6-0.2c0.3,0,0.3,0.5,0.3,0.7c0,0.1,0,0.2,0.2,0.2c0.1,0,0.1-0.1,0.1-0.1
		c0-0.4,0-0.8,0-1.2c0-0.2,0-0.8,0-1.1c0-0.1,0-0.2-0.2-0.2C13,63,13,63.1,13,63.2c0,0.6-0.1,0.6-0.3,0.6l-6,0.6
		c-0.2,0-0.2,0-0.2,0.2c0,0.2,0.1,0.2,0.2,0.3L12.2,68.2z"/>
	<path class="st2" d="M10.9,59.9c-0.8,0-1.9,0.1-3,0.6C6.7,61.2,6,62,6,62.1c0,0.1,0,0.1,0.1,0.1c0,0,0,0,0.2-0.2
		c1-0.9,2.5-1.5,4.5-1.5c1.7,0,3.3,0.4,4.6,1.6c0.1,0.1,0.1,0.1,0.2,0.1c0.1,0,0.1,0,0.1-0.1c0-0.1-0.7-1-1.9-1.5
		C12.7,60.1,11.7,59.9,10.9,59.9"/>
	<path class="st4" d="M10.7,82.2L10.7,82.2z"/>
</g>
<polygon class="st1" points="166.6,195.6 166.6,195.6 166.6,195.6 166.6,195.6 166.6,195.6 166.6,195.6 166.6,195.6 166.6,195.6 
	166.6,195.6 166.6,195.6 166.6,195.6 166.6,195.6 166.6,195.6 166.6,195.6 166.6,195.6 166.6,195.6 166.6,195.6 166.6,195.6 
	166.6,195.6 166.6,195.6 166.6,195.6 166.6,195.6 166.6,195.6 166.6,195.6 166.6,195.6 166.6,195.6 166.6,195.6 166.6,195.6 
	166.6,195.6 166.6,195.6 166.6,195.6 166.6,195.6 166.6,195.6 166.6,195.6 166.6,195.6 166.6,195.6 166.6,195.6 166.6,195.6 
	166.6,195.6 166.6,195.6 166.6,195.6 166.6,195.6 166.6,195.6 166.6,195.6 166.6,195.6 166.6,195.6 166.6,195.6 166.6,195.6 
	166.6,195.6 166.6,195.6 166.6,195.6 166.6,195.6 166.6,195.6 166.6,195.6 166.6,195.6 166.6,195.6 166.6,195.6 166.6,195.6 
	166.6,195.6 166.6,195.6 166.6,195.6 166.6,195.6 166.6,195.6 166.6,195.6 166.6,195.6 166.6,195.6 166.6,195.6 166.6,195.6 
	166.6,195.6 166.6,195.6 166.6,195.6 166.6,195.6 166.6,195.6 166.6,195.6 166.6,195.6 166.6,195.6 166.6,195.6 166.6,195.6 
	166.6,195.6 166.6,195.6 166.6,195.6 166.6,195.6 166.6,195.6 166.6,195.6 166.6,195.6 166.6,195.6 166.6,195.6 166.6,195.6 
	166.6,195.6 166.6,195.6 166.6,195.6 166.6,195.6 166.6,195.6 166.6,195.6 "/>
<line class="st5" x1="45.8" y1="139.2" x2="173.3" y2="139.2"/>
<line class="st5" x1="45.8" y1="11.7" x2="173.3" y2="11.7"/>
<line class="st5" x1="45.8" y1="139.2" x2="45.8" y2="137.9"/>
<line class="st5" x1="109.5" y1="139.2" x2="109.5" y2="137.9"/>
<line class="st5" x1="173.3" y1="139.2" x2="173.3" y2="137.9"/>
<line class="st5" x1="45.8" y1="11.7" x2="45.8" y2="13"/>
<line class="st5" x1="109.5" y1="11.7" x2="109.5" y2="13"/>
<line class="st5" x1="173.3" y1="11.7" x2="173.3" y2="13"/>
<path class="st6" d="M44.3,146c0-0.1,0-0.3,0-0.5c0-0.2,0-0.3,0-0.5c0-0.2,0.1-0.3,0.1-0.5c0-0.2,0.1-0.3,0.2-0.4
	c0.1-0.1,0.2-0.2,0.3-0.3c0.1-0.1,0.3-0.1,0.5-0.1s0.4,0,0.5,0.1c0.1,0.1,0.2,0.2,0.3,0.3c0.1,0.1,0.2,0.3,0.2,0.4
	c0,0.2,0.1,0.3,0.1,0.5s0,0.3,0,0.5c0,0.2,0,0.3,0,0.5c0,0.2,0,0.5,0,0.7c0,0.3-0.1,0.5-0.1,0.7c-0.1,0.2-0.2,0.4-0.3,0.6
	s-0.4,0.2-0.7,0.2c-0.3,0-0.5-0.1-0.7-0.2s-0.3-0.4-0.3-0.6c-0.1-0.2-0.1-0.5-0.1-0.7C44.3,146.5,44.3,146.2,44.3,146z M43.6,146
	c0,0.2,0,0.4,0,0.6c0,0.2,0,0.4,0.1,0.7s0.1,0.4,0.2,0.6c0.1,0.2,0.2,0.4,0.3,0.5c0.1,0.1,0.3,0.3,0.5,0.3c0.2,0.1,0.5,0.1,0.8,0.1
	c0.3,0,0.6,0,0.8-0.1c0.2-0.1,0.4-0.2,0.5-0.3c0.1-0.1,0.2-0.3,0.3-0.5c0.1-0.2,0.1-0.4,0.2-0.6s0.1-0.4,0.1-0.7c0-0.2,0-0.4,0-0.6
	c0-0.2,0-0.4,0-0.6c0-0.2,0-0.4-0.1-0.7s-0.1-0.4-0.2-0.6c-0.1-0.2-0.2-0.4-0.3-0.5c-0.1-0.1-0.3-0.3-0.5-0.3s-0.5-0.1-0.8-0.1
	c-0.3,0-0.5,0-0.8,0.1s-0.4,0.2-0.5,0.3c-0.1,0.1-0.2,0.3-0.3,0.5c-0.1,0.2-0.1,0.4-0.2,0.6s-0.1,0.4-0.1,0.7
	C43.6,145.6,43.6,145.8,43.6,146z"/>
<path class="st6" d="M104.6,146c0-0.1,0-0.3,0-0.5c0-0.2,0-0.3,0-0.5c0-0.2,0.1-0.3,0.1-0.5c0-0.2,0.1-0.3,0.2-0.4
	c0.1-0.1,0.2-0.2,0.3-0.3c0.1-0.1,0.3-0.1,0.5-0.1c0.2,0,0.4,0,0.5,0.1c0.1,0.1,0.2,0.2,0.3,0.3c0.1,0.1,0.2,0.3,0.2,0.4
	c0,0.2,0.1,0.3,0.1,0.5c0,0.2,0,0.3,0,0.5c0,0.2,0,0.3,0,0.5c0,0.2,0,0.5,0,0.7c0,0.3-0.1,0.5-0.1,0.7c-0.1,0.2-0.2,0.4-0.3,0.6
	c-0.2,0.2-0.4,0.2-0.7,0.2c-0.3,0-0.5-0.1-0.7-0.2c-0.2-0.2-0.3-0.4-0.3-0.6c-0.1-0.2-0.1-0.5-0.1-0.7
	C104.6,146.5,104.6,146.2,104.6,146z M103.8,146c0,0.2,0,0.4,0,0.6s0,0.4,0.1,0.7c0,0.2,0.1,0.4,0.2,0.6s0.2,0.4,0.3,0.5
	c0.1,0.1,0.3,0.3,0.5,0.3c0.2,0.1,0.5,0.1,0.8,0.1c0.3,0,0.6,0,0.8-0.1c0.2-0.1,0.4-0.2,0.5-0.3c0.1-0.1,0.2-0.3,0.3-0.5
	c0.1-0.2,0.1-0.4,0.2-0.6c0-0.2,0.1-0.4,0.1-0.7s0-0.4,0-0.6c0-0.2,0-0.4,0-0.6s0-0.4-0.1-0.7c0-0.2-0.1-0.4-0.2-0.6
	c-0.1-0.2-0.2-0.4-0.3-0.5c-0.1-0.1-0.3-0.3-0.5-0.3c-0.2-0.1-0.5-0.1-0.8-0.1c-0.3,0-0.5,0-0.8,0.1c-0.2,0.1-0.4,0.2-0.5,0.3
	c-0.1,0.1-0.2,0.3-0.3,0.5c-0.1,0.2-0.1,0.4-0.2,0.6c0,0.2-0.1,0.4-0.1,0.7S103.8,145.8,103.8,146z M108.6,147.9v0.9h0.9v-0.9H108.6
	z M113.9,143.8v-0.6h-2.8l-0.5,2.9l0.6,0c0.1-0.2,0.3-0.3,0.5-0.4s0.4-0.1,0.6-0.1c0.2,0,0.4,0,0.5,0.1s0.3,0.2,0.4,0.3
	s0.2,0.3,0.3,0.4c0.1,0.2,0.1,0.3,0.1,0.5c0,0.2,0,0.4-0.1,0.6c-0.1,0.2-0.2,0.3-0.3,0.4c-0.1,0.1-0.2,0.2-0.4,0.3s-0.3,0.1-0.5,0.1
	c-0.2,0-0.3,0-0.5-0.1c-0.1-0.1-0.3-0.1-0.4-0.2c-0.1-0.1-0.2-0.2-0.2-0.3s-0.1-0.3-0.1-0.4h-0.7c0,0.3,0.1,0.5,0.2,0.7
	s0.2,0.4,0.4,0.5c0.2,0.1,0.4,0.2,0.6,0.3c0.2,0.1,0.4,0.1,0.7,0.1c0.3,0,0.6-0.1,0.9-0.2s0.5-0.2,0.6-0.4c0.2-0.2,0.3-0.4,0.4-0.6
	s0.1-0.5,0.1-0.7c0-0.3,0-0.6-0.1-0.9c-0.1-0.2-0.2-0.4-0.4-0.6c-0.2-0.2-0.4-0.3-0.6-0.4c-0.2-0.1-0.5-0.1-0.7-0.1
	c-0.2,0-0.4,0-0.6,0.1c-0.2,0.1-0.4,0.2-0.5,0.3l0,0l0.3-1.6H113.9z"/>
<path class="st6" d="M173.6,148.8v-5.7h-0.5c0,0.2-0.1,0.4-0.2,0.5c-0.1,0.1-0.2,0.2-0.4,0.3s-0.3,0.1-0.5,0.2s-0.4,0-0.6,0v0.5h1.5
	v4.1H173.6z"/>
<line class="st5" x1="45.8" y1="139.2" x2="45.8" y2="11.7"/>
<line class="st5" x1="173.3" y1="139.2" x2="173.3" y2="11.7"/>
<line class="st5" x1="45.8" y1="139.2" x2="47" y2="139.2"/>
<line class="st5" x1="45.8" y1="113.7" x2="47" y2="113.7"/>
<line class="st5" x1="45.8" y1="88.2" x2="47" y2="88.2"/>
<line class="st5" x1="45.8" y1="62.7" x2="47" y2="62.7"/>
<line class="st5" x1="45.8" y1="37.2" x2="47" y2="37.2"/>
<line class="st5" x1="45.8" y1="11.7" x2="47" y2="11.7"/>
<line class="st5" x1="173.3" y1="139.2" x2="172" y2="139.2"/>
<line class="st5" x1="173.3" y1="113.7" x2="172" y2="113.7"/>
<line class="st5" x1="173.3" y1="88.2" x2="172" y2="88.2"/>
<line class="st5" x1="173.3" y1="62.7" x2="172" y2="62.7"/>
<line class="st5" x1="173.3" y1="37.2" x2="172" y2="37.2"/>
<line class="st5" x1="173.3" y1="11.7" x2="172" y2="11.7"/>
<path class="st6" d="M29.2,139.4c0-0.1,0-0.3,0-0.5c0-0.2,0-0.3,0-0.5s0.1-0.3,0.1-0.5c0-0.2,0.1-0.3,0.2-0.4
	c0.1-0.1,0.2-0.2,0.3-0.3c0.1-0.1,0.3-0.1,0.5-0.1c0.2,0,0.4,0,0.5,0.1s0.2,0.2,0.3,0.3c0.1,0.1,0.2,0.3,0.2,0.4
	c0,0.2,0.1,0.3,0.1,0.5c0,0.2,0,0.3,0,0.5c0,0.2,0,0.3,0,0.5c0,0.2,0,0.5,0,0.7c0,0.3-0.1,0.5-0.1,0.7c-0.1,0.2-0.2,0.4-0.3,0.6
	s-0.4,0.2-0.7,0.2s-0.5-0.1-0.7-0.2s-0.3-0.4-0.3-0.6c-0.1-0.2-0.1-0.5-0.1-0.7C29.2,139.9,29.2,139.6,29.2,139.4z M28.5,139.4
	c0,0.2,0,0.4,0,0.6c0,0.2,0,0.4,0.1,0.7s0.1,0.4,0.2,0.6s0.2,0.4,0.3,0.5c0.1,0.1,0.3,0.3,0.5,0.3c0.2,0.1,0.5,0.1,0.8,0.1
	c0.3,0,0.6,0,0.8-0.1c0.2-0.1,0.4-0.2,0.5-0.3s0.2-0.3,0.3-0.5s0.1-0.4,0.2-0.6s0.1-0.4,0.1-0.7s0-0.4,0-0.6c0-0.2,0-0.4,0-0.6
	s0-0.4-0.1-0.7s-0.1-0.4-0.2-0.6c-0.1-0.2-0.2-0.4-0.3-0.5c-0.1-0.1-0.3-0.3-0.5-0.3s-0.5-0.1-0.8-0.1s-0.5,0-0.8,0.1
	s-0.4,0.2-0.5,0.3c-0.1,0.1-0.2,0.3-0.3,0.5c-0.1,0.2-0.1,0.4-0.2,0.6s-0.1,0.4-0.1,0.7C28.5,139,28.5,139.2,28.5,139.4z
	 M33.3,141.3v0.9h0.9v-0.9H33.3z M35.9,140.8h-0.7c0,0.5,0.2,0.9,0.5,1.1c0.3,0.2,0.7,0.4,1.2,0.4c0.7,0,1.2-0.3,1.5-0.8
	c0.3-0.5,0.5-1.3,0.5-2.3c0-0.5-0.1-1-0.2-1.3s-0.2-0.6-0.4-0.8s-0.4-0.3-0.6-0.4c-0.2-0.1-0.5-0.1-0.8-0.1c-0.3,0-0.5,0-0.8,0.1
	s-0.4,0.2-0.6,0.4c-0.2,0.2-0.3,0.4-0.4,0.6c-0.1,0.2-0.1,0.5-0.1,0.7c0,0.3,0,0.5,0.1,0.8c0.1,0.2,0.2,0.4,0.3,0.6s0.3,0.3,0.6,0.4
	s0.5,0.1,0.8,0.1c0.3,0,0.5-0.1,0.8-0.2c0.2-0.1,0.4-0.3,0.5-0.6l0,0c0,0.7-0.1,1.3-0.3,1.7s-0.5,0.5-0.9,0.5
	c-0.3,0-0.5-0.1-0.7-0.2C36,141.3,35.9,141.1,35.9,140.8z M38.1,138.4c0,0.2,0,0.3-0.1,0.5c-0.1,0.2-0.1,0.3-0.2,0.4
	s-0.2,0.2-0.4,0.3c-0.1,0.1-0.3,0.1-0.5,0.1c-0.2,0-0.3,0-0.5-0.1c-0.1-0.1-0.3-0.2-0.4-0.3s-0.2-0.2-0.2-0.4
	c-0.1-0.1-0.1-0.3-0.1-0.4c0-0.2,0-0.3,0.1-0.5s0.1-0.3,0.2-0.4c0.1-0.1,0.2-0.2,0.3-0.3s0.3-0.1,0.5-0.1c0.2,0,0.4,0,0.5,0.1
	s0.3,0.2,0.4,0.3c0.1,0.1,0.2,0.3,0.2,0.4S38.1,138.2,38.1,138.4z M40.4,140.8h-0.7c0,0.5,0.2,0.9,0.5,1.1c0.3,0.2,0.7,0.4,1.2,0.4
	c0.7,0,1.2-0.3,1.5-0.8c0.3-0.5,0.5-1.3,0.5-2.3c0-0.5-0.1-1-0.2-1.3s-0.2-0.6-0.4-0.8c-0.2-0.2-0.4-0.3-0.6-0.4
	c-0.2-0.1-0.5-0.1-0.8-0.1c-0.3,0-0.5,0-0.8,0.1c-0.2,0.1-0.4,0.2-0.6,0.4c-0.2,0.2-0.3,0.4-0.4,0.6s-0.1,0.5-0.1,0.7
	c0,0.3,0,0.5,0.1,0.8c0.1,0.2,0.2,0.4,0.3,0.6c0.2,0.2,0.3,0.3,0.6,0.4s0.5,0.1,0.8,0.1c0.3,0,0.5-0.1,0.8-0.2
	c0.2-0.1,0.4-0.3,0.5-0.6l0,0c0,0.7-0.1,1.3-0.3,1.7s-0.5,0.5-0.9,0.5c-0.3,0-0.5-0.1-0.7-0.2C40.5,141.3,40.4,141.1,40.4,140.8z
	 M42.6,138.4c0,0.2,0,0.3-0.1,0.5c-0.1,0.2-0.1,0.3-0.2,0.4s-0.2,0.2-0.4,0.3c-0.1,0.1-0.3,0.1-0.5,0.1c-0.2,0-0.3,0-0.5-0.1
	c-0.1-0.1-0.3-0.2-0.4-0.3c-0.1-0.1-0.2-0.2-0.2-0.4c-0.1-0.1-0.1-0.3-0.1-0.4c0-0.2,0-0.3,0.1-0.5c0-0.2,0.1-0.3,0.2-0.4
	c0.1-0.1,0.2-0.2,0.3-0.3s0.3-0.1,0.5-0.1c0.2,0,0.4,0,0.5,0.1c0.1,0.1,0.3,0.2,0.4,0.3s0.2,0.3,0.2,0.4S42.6,138.2,42.6,138.4z"/>
<path class="st6" d="M24.2,113.9c0-0.1,0-0.3,0-0.5s0-0.3,0-0.5c0-0.2,0.1-0.3,0.1-0.5c0-0.2,0.1-0.3,0.2-0.4s0.2-0.2,0.3-0.3
	s0.3-0.1,0.5-0.1c0.2,0,0.4,0,0.5,0.1c0.1,0.1,0.2,0.2,0.3,0.3c0.1,0.1,0.2,0.3,0.2,0.4c0,0.2,0.1,0.3,0.1,0.5s0,0.3,0,0.5
	s0,0.3,0,0.5c0,0.2,0,0.5,0,0.7c0,0.3-0.1,0.5-0.1,0.7c-0.1,0.2-0.2,0.4-0.3,0.6c-0.2,0.2-0.4,0.2-0.7,0.2c-0.3,0-0.5-0.1-0.7-0.2
	c-0.2-0.2-0.3-0.4-0.3-0.6c-0.1-0.2-0.1-0.5-0.1-0.7S24.2,114.1,24.2,113.9z M23.5,113.9c0,0.2,0,0.4,0,0.6s0,0.4,0.1,0.7
	c0,0.2,0.1,0.4,0.2,0.6c0.1,0.2,0.2,0.4,0.3,0.5s0.3,0.3,0.5,0.3c0.2,0.1,0.5,0.1,0.8,0.1c0.3,0,0.6,0,0.8-0.1
	c0.2-0.1,0.4-0.2,0.5-0.3c0.1-0.1,0.2-0.3,0.3-0.5s0.1-0.4,0.2-0.6s0.1-0.4,0.1-0.7c0-0.2,0-0.4,0-0.6s0-0.4,0-0.6
	c0-0.2,0-0.4-0.1-0.7s-0.1-0.4-0.2-0.6s-0.2-0.4-0.3-0.5c-0.1-0.1-0.3-0.3-0.5-0.3s-0.5-0.1-0.8-0.1c-0.3,0-0.5,0-0.8,0.1
	s-0.4,0.2-0.5,0.3c-0.1,0.1-0.2,0.3-0.3,0.5c-0.1,0.2-0.1,0.4-0.2,0.6c0,0.2-0.1,0.4-0.1,0.7S23.5,113.7,23.5,113.9z M28.3,115.8
	v0.9h0.9v-0.9H28.3z M30.9,115.3h-0.7c0,0.5,0.2,0.9,0.5,1.1c0.3,0.2,0.7,0.4,1.2,0.4c0.7,0,1.2-0.3,1.5-0.8
	c0.3-0.5,0.5-1.3,0.5-2.3c0-0.5-0.1-1-0.2-1.3s-0.2-0.6-0.4-0.8c-0.2-0.2-0.4-0.3-0.6-0.4c-0.2-0.1-0.5-0.1-0.8-0.1
	c-0.3,0-0.5,0-0.8,0.1c-0.2,0.1-0.4,0.2-0.6,0.4c-0.2,0.2-0.3,0.4-0.4,0.6s-0.1,0.5-0.1,0.7c0,0.3,0,0.5,0.1,0.8s0.2,0.4,0.3,0.6
	c0.2,0.2,0.3,0.3,0.6,0.4c0.2,0.1,0.5,0.1,0.8,0.1c0.3,0,0.5-0.1,0.8-0.2c0.2-0.1,0.4-0.3,0.5-0.6l0,0c0,0.7-0.1,1.3-0.3,1.7
	s-0.5,0.5-0.9,0.5c-0.3,0-0.5-0.1-0.7-0.2C31,115.8,30.9,115.6,30.9,115.3z M33.1,112.9c0,0.2,0,0.3-0.1,0.5
	c-0.1,0.2-0.1,0.3-0.2,0.4c-0.1,0.1-0.2,0.2-0.4,0.3s-0.3,0.1-0.5,0.1c-0.2,0-0.3,0-0.5-0.1s-0.3-0.2-0.4-0.3s-0.2-0.2-0.2-0.4
	s-0.1-0.3-0.1-0.4c0-0.2,0-0.3,0.1-0.5c0-0.2,0.1-0.3,0.2-0.4c0.1-0.1,0.2-0.2,0.3-0.3s0.3-0.1,0.5-0.1c0.2,0,0.4,0,0.5,0.1
	c0.1,0.1,0.3,0.2,0.4,0.3s0.2,0.3,0.2,0.4C33.1,112.6,33.1,112.7,33.1,112.9z M35.4,115.3h-0.7c0,0.5,0.2,0.9,0.5,1.1
	c0.3,0.2,0.7,0.4,1.2,0.4c0.7,0,1.2-0.3,1.5-0.8c0.3-0.5,0.5-1.3,0.5-2.3c0-0.5-0.1-1-0.2-1.3s-0.2-0.6-0.4-0.8
	c-0.2-0.2-0.4-0.3-0.6-0.4c-0.2-0.1-0.5-0.1-0.8-0.1c-0.3,0-0.5,0-0.8,0.1c-0.2,0.1-0.4,0.2-0.6,0.4s-0.3,0.4-0.4,0.6
	s-0.1,0.5-0.1,0.7c0,0.3,0,0.5,0.1,0.8c0.1,0.2,0.2,0.4,0.3,0.6c0.2,0.2,0.3,0.3,0.6,0.4c0.2,0.1,0.5,0.1,0.8,0.1
	c0.3,0,0.5-0.1,0.8-0.2c0.2-0.1,0.4-0.3,0.5-0.6l0,0c0,0.7-0.1,1.3-0.3,1.7s-0.5,0.5-0.9,0.5c-0.3,0-0.5-0.1-0.7-0.2
	C35.5,115.8,35.4,115.6,35.4,115.3z M37.6,112.9c0,0.2,0,0.3-0.1,0.5c-0.1,0.2-0.1,0.3-0.2,0.4c-0.1,0.1-0.2,0.2-0.4,0.3
	s-0.3,0.1-0.5,0.1c-0.2,0-0.3,0-0.5-0.1c-0.1-0.1-0.3-0.2-0.4-0.3s-0.2-0.2-0.2-0.4s-0.1-0.3-0.1-0.4c0-0.2,0-0.3,0.1-0.5
	c0-0.2,0.1-0.3,0.2-0.4c0.1-0.1,0.2-0.2,0.3-0.3s0.3-0.1,0.5-0.1c0.2,0,0.4,0,0.5,0.1c0.1,0.1,0.3,0.2,0.4,0.3s0.2,0.3,0.2,0.4
	C37.5,112.6,37.6,112.7,37.6,112.9z M39.1,113h0.7c0-0.2,0-0.3,0.1-0.5c0-0.2,0.1-0.3,0.2-0.5s0.2-0.2,0.3-0.3s0.3-0.1,0.5-0.1
	c0.1,0,0.3,0,0.4,0.1c0.1,0,0.2,0.1,0.3,0.2c0.1,0.1,0.2,0.2,0.2,0.3c0.1,0.1,0.1,0.3,0.1,0.4c0,0.2,0,0.4-0.1,0.5
	c-0.1,0.1-0.2,0.3-0.3,0.4c-0.1,0.1-0.3,0.3-0.5,0.4c-0.2,0.1-0.4,0.3-0.6,0.4c-0.2,0.1-0.4,0.2-0.6,0.4c-0.2,0.1-0.3,0.3-0.5,0.5
	c-0.1,0.2-0.3,0.4-0.4,0.6s-0.2,0.5-0.2,0.9h3.7v-0.6h-2.9c0-0.2,0.1-0.3,0.2-0.5s0.2-0.3,0.4-0.4s0.3-0.2,0.5-0.3
	c0.2-0.1,0.4-0.2,0.5-0.3c0.2-0.1,0.3-0.2,0.5-0.4s0.3-0.3,0.4-0.4c0.1-0.2,0.2-0.3,0.3-0.5c0.1-0.2,0.1-0.4,0.1-0.7
	c0-0.3,0-0.5-0.1-0.7c-0.1-0.2-0.2-0.4-0.4-0.5s-0.3-0.2-0.6-0.3c-0.2-0.1-0.4-0.1-0.7-0.1c-0.3,0-0.6,0.1-0.8,0.2
	c-0.2,0.1-0.4,0.2-0.6,0.4s-0.3,0.4-0.3,0.6C39.1,112.5,39.1,112.7,39.1,113z"/>
<path class="st6" d="M24.2,88.4c0-0.1,0-0.3,0-0.5s0-0.3,0-0.5c0-0.2,0.1-0.3,0.1-0.5c0-0.2,0.1-0.3,0.2-0.4s0.2-0.2,0.3-0.3
	s0.3-0.1,0.5-0.1c0.2,0,0.4,0,0.5,0.1c0.1,0.1,0.2,0.2,0.3,0.3c0.1,0.1,0.2,0.3,0.2,0.4c0,0.2,0.1,0.3,0.1,0.5s0,0.3,0,0.5
	s0,0.3,0,0.5c0,0.2,0,0.5,0,0.7c0,0.3-0.1,0.5-0.1,0.7c-0.1,0.2-0.2,0.4-0.3,0.6c-0.2,0.2-0.4,0.2-0.7,0.2c-0.3,0-0.5-0.1-0.7-0.2
	c-0.2-0.2-0.3-0.4-0.3-0.6c-0.1-0.2-0.1-0.5-0.1-0.7S24.2,88.6,24.2,88.4z M23.5,88.4c0,0.2,0,0.4,0,0.6s0,0.4,0.1,0.7
	c0,0.2,0.1,0.4,0.2,0.6c0.1,0.2,0.2,0.4,0.3,0.5s0.3,0.3,0.5,0.3c0.2,0.1,0.5,0.1,0.8,0.1c0.3,0,0.6,0,0.8-0.1
	c0.2-0.1,0.4-0.2,0.5-0.3c0.1-0.1,0.2-0.3,0.3-0.5s0.1-0.4,0.2-0.6s0.1-0.4,0.1-0.7c0-0.2,0-0.4,0-0.6s0-0.4,0-0.6
	c0-0.2,0-0.4-0.1-0.7s-0.1-0.4-0.2-0.6s-0.2-0.4-0.3-0.5c-0.1-0.1-0.3-0.3-0.5-0.3s-0.5-0.1-0.8-0.1c-0.3,0-0.5,0-0.8,0.1
	s-0.4,0.2-0.5,0.3c-0.1,0.1-0.2,0.3-0.3,0.5c-0.1,0.2-0.1,0.4-0.2,0.6c0,0.2-0.1,0.4-0.1,0.7S23.5,88.2,23.5,88.4z M28.3,90.3v0.9
	h0.9v-0.9H28.3z M30.9,89.8h-0.7c0,0.5,0.2,0.9,0.5,1.1c0.3,0.2,0.7,0.4,1.2,0.4c0.7,0,1.2-0.3,1.5-0.8c0.3-0.5,0.5-1.3,0.5-2.3
	c0-0.5-0.1-1-0.2-1.3s-0.2-0.6-0.4-0.8c-0.2-0.2-0.4-0.3-0.6-0.4c-0.2-0.1-0.5-0.1-0.8-0.1c-0.3,0-0.5,0-0.8,0.1
	c-0.2,0.1-0.4,0.2-0.6,0.4c-0.2,0.2-0.3,0.4-0.4,0.6s-0.1,0.5-0.1,0.7c0,0.3,0,0.5,0.1,0.8s0.2,0.4,0.3,0.6c0.2,0.2,0.3,0.3,0.6,0.4
	c0.2,0.1,0.5,0.1,0.8,0.1c0.3,0,0.5-0.1,0.8-0.2c0.2-0.1,0.4-0.3,0.5-0.6l0,0c0,0.7-0.1,1.3-0.3,1.7s-0.5,0.5-0.9,0.5
	c-0.3,0-0.5-0.1-0.7-0.2C31,90.3,30.9,90.1,30.9,89.8z M33.1,87.4c0,0.2,0,0.3-0.1,0.5c-0.1,0.2-0.1,0.3-0.2,0.4
	c-0.1,0.1-0.2,0.2-0.4,0.3s-0.3,0.1-0.5,0.1c-0.2,0-0.3,0-0.5-0.1s-0.3-0.2-0.4-0.3s-0.2-0.2-0.2-0.4s-0.1-0.3-0.1-0.4
	c0-0.2,0-0.3,0.1-0.5c0-0.2,0.1-0.3,0.2-0.4c0.1-0.1,0.2-0.2,0.3-0.3s0.3-0.1,0.5-0.1c0.2,0,0.4,0,0.5,0.1c0.1,0.1,0.3,0.2,0.4,0.3
	s0.2,0.3,0.2,0.4C33.1,87.1,33.1,87.2,33.1,87.4z M35.4,89.8h-0.7c0,0.5,0.2,0.9,0.5,1.1c0.3,0.2,0.7,0.4,1.2,0.4
	c0.7,0,1.2-0.3,1.5-0.8c0.3-0.5,0.5-1.3,0.5-2.3c0-0.5-0.1-1-0.2-1.3s-0.2-0.6-0.4-0.8c-0.2-0.2-0.4-0.3-0.6-0.4
	c-0.2-0.1-0.5-0.1-0.8-0.1c-0.3,0-0.5,0-0.8,0.1c-0.2,0.1-0.4,0.2-0.6,0.4s-0.3,0.4-0.4,0.6s-0.1,0.5-0.1,0.7c0,0.3,0,0.5,0.1,0.8
	c0.1,0.2,0.2,0.4,0.3,0.6c0.2,0.2,0.3,0.3,0.6,0.4c0.2,0.1,0.5,0.1,0.8,0.1c0.3,0,0.5-0.1,0.8-0.2c0.2-0.1,0.4-0.3,0.5-0.6l0,0
	c0,0.7-0.1,1.3-0.3,1.7s-0.5,0.5-0.9,0.5c-0.3,0-0.5-0.1-0.7-0.2C35.5,90.3,35.4,90.1,35.4,89.8z M37.6,87.4c0,0.2,0,0.3-0.1,0.5
	c-0.1,0.2-0.1,0.3-0.2,0.4c-0.1,0.1-0.2,0.2-0.4,0.3s-0.3,0.1-0.5,0.1c-0.2,0-0.3,0-0.5-0.1c-0.1-0.1-0.3-0.2-0.4-0.3
	s-0.2-0.2-0.2-0.4s-0.1-0.3-0.1-0.4c0-0.2,0-0.3,0.1-0.5c0-0.2,0.1-0.3,0.2-0.4c0.1-0.1,0.2-0.2,0.3-0.3s0.3-0.1,0.5-0.1
	c0.2,0,0.4,0,0.5,0.1c0.1,0.1,0.3,0.2,0.4,0.3s0.2,0.3,0.2,0.4C37.5,87.1,37.6,87.2,37.6,87.4z M41.4,89.3h-1.9l1.9-2.8h0V89.3z
	 M42.1,89.3v-3.7h-0.5L39,89.2v0.7h2.5v1.3h0.6v-1.3h0.8v-0.6H42.1z"/>
<path class="st6" d="M24.2,62.9c0-0.1,0-0.3,0-0.5s0-0.3,0-0.5c0-0.2,0.1-0.3,0.1-0.5s0.1-0.3,0.2-0.4s0.2-0.2,0.3-0.3
	s0.3-0.1,0.5-0.1c0.2,0,0.4,0,0.5,0.1c0.1,0.1,0.2,0.2,0.3,0.3c0.1,0.1,0.2,0.3,0.2,0.4c0,0.2,0.1,0.3,0.1,0.5c0,0.2,0,0.3,0,0.5
	s0,0.3,0,0.5c0,0.2,0,0.5,0,0.7c0,0.3-0.1,0.5-0.1,0.7c-0.1,0.2-0.2,0.4-0.3,0.6c-0.2,0.2-0.4,0.2-0.7,0.2c-0.3,0-0.5-0.1-0.7-0.2
	c-0.2-0.2-0.3-0.4-0.3-0.6c-0.1-0.2-0.1-0.5-0.1-0.7S24.2,63.1,24.2,62.9z M23.5,62.9c0,0.2,0,0.4,0,0.6c0,0.2,0,0.4,0.1,0.7
	c0,0.2,0.1,0.4,0.2,0.6c0.1,0.2,0.2,0.4,0.3,0.5s0.3,0.3,0.5,0.3c0.2,0.1,0.5,0.1,0.8,0.1c0.3,0,0.6,0,0.8-0.1
	c0.2-0.1,0.4-0.2,0.5-0.3c0.1-0.1,0.2-0.3,0.3-0.5s0.1-0.4,0.2-0.6s0.1-0.4,0.1-0.7c0-0.2,0-0.4,0-0.6s0-0.4,0-0.6
	c0-0.2,0-0.4-0.1-0.7S27.1,61.2,27,61s-0.2-0.4-0.3-0.5c-0.1-0.1-0.3-0.3-0.5-0.3S25.7,60,25.4,60c-0.3,0-0.5,0-0.8,0.1
	s-0.4,0.2-0.5,0.3c-0.1,0.1-0.2,0.3-0.3,0.5c-0.1,0.2-0.1,0.4-0.2,0.6c0,0.2-0.1,0.4-0.1,0.7S23.5,62.7,23.5,62.9z M28.3,64.8v0.9
	h0.9v-0.9H28.3z M30.9,64.3h-0.7c0,0.5,0.2,0.9,0.5,1.1c0.3,0.2,0.7,0.4,1.2,0.4c0.7,0,1.2-0.3,1.5-0.8c0.3-0.5,0.5-1.3,0.5-2.3
	c0-0.5-0.1-1-0.2-1.3c-0.1-0.3-0.2-0.6-0.4-0.8c-0.2-0.2-0.4-0.3-0.6-0.4C32.5,60.1,32.2,60,32,60c-0.3,0-0.5,0-0.8,0.1
	c-0.2,0.1-0.4,0.2-0.6,0.4c-0.2,0.2-0.3,0.4-0.4,0.6s-0.1,0.5-0.1,0.7c0,0.3,0,0.5,0.1,0.8c0.1,0.2,0.2,0.4,0.3,0.6
	c0.2,0.2,0.3,0.3,0.6,0.4c0.2,0.1,0.5,0.1,0.8,0.1c0.3,0,0.5-0.1,0.8-0.2c0.2-0.1,0.4-0.3,0.5-0.6l0,0c0,0.7-0.1,1.3-0.3,1.7
	s-0.5,0.5-0.9,0.5c-0.3,0-0.5-0.1-0.7-0.2C31,64.8,30.9,64.6,30.9,64.3z M33.1,61.9c0,0.2,0,0.3-0.1,0.5s-0.1,0.3-0.2,0.4
	c-0.1,0.1-0.2,0.2-0.4,0.3s-0.3,0.1-0.5,0.1c-0.2,0-0.3,0-0.5-0.1s-0.3-0.2-0.4-0.3s-0.2-0.2-0.2-0.4s-0.1-0.3-0.1-0.4
	c0-0.2,0-0.3,0.1-0.5s0.1-0.3,0.2-0.4c0.1-0.1,0.2-0.2,0.3-0.3s0.3-0.1,0.5-0.1c0.2,0,0.4,0,0.5,0.1c0.1,0.1,0.3,0.2,0.4,0.3
	c0.1,0.1,0.2,0.3,0.2,0.4S33.1,61.7,33.1,61.9z M35.4,64.3h-0.7c0,0.5,0.2,0.9,0.5,1.1c0.3,0.2,0.7,0.4,1.2,0.4
	c0.7,0,1.2-0.3,1.5-0.8c0.3-0.5,0.5-1.3,0.5-2.3c0-0.5-0.1-1-0.2-1.3c-0.1-0.3-0.2-0.6-0.4-0.8c-0.2-0.2-0.4-0.3-0.6-0.4
	c-0.2-0.1-0.5-0.1-0.8-0.1c-0.3,0-0.5,0-0.8,0.1c-0.2,0.1-0.4,0.2-0.6,0.4s-0.3,0.4-0.4,0.6s-0.1,0.5-0.1,0.7c0,0.3,0,0.5,0.1,0.8
	c0.1,0.2,0.2,0.4,0.3,0.6c0.2,0.2,0.3,0.3,0.6,0.4c0.2,0.1,0.5,0.1,0.8,0.1c0.3,0,0.5-0.1,0.8-0.2c0.2-0.1,0.4-0.3,0.5-0.6l0,0
	c0,0.7-0.1,1.3-0.3,1.7s-0.5,0.5-0.9,0.5c-0.3,0-0.5-0.1-0.7-0.2C35.5,64.8,35.4,64.6,35.4,64.3z M37.6,61.9c0,0.2,0,0.3-0.1,0.5
	s-0.1,0.3-0.2,0.4c-0.1,0.1-0.2,0.2-0.4,0.3s-0.3,0.1-0.5,0.1c-0.2,0-0.3,0-0.5-0.1c-0.1-0.1-0.3-0.2-0.4-0.3s-0.2-0.2-0.2-0.4
	s-0.1-0.3-0.1-0.4c0-0.2,0-0.3,0.1-0.5s0.1-0.3,0.2-0.4c0.1-0.1,0.2-0.2,0.3-0.3s0.3-0.1,0.5-0.1c0.2,0,0.4,0,0.5,0.1
	c0.1,0.1,0.3,0.2,0.4,0.3c0.1,0.1,0.2,0.3,0.2,0.4S37.6,61.7,37.6,61.9z M42,61.5h0.7c0-0.5-0.2-0.8-0.5-1.1
	C42,60.1,41.6,60,41.1,60c-0.4,0-0.7,0.1-1,0.3c-0.3,0.2-0.5,0.4-0.6,0.7c-0.2,0.3-0.3,0.6-0.3,1S39,62.7,39,63.1
	c0,0.3,0,0.6,0.1,0.9c0,0.3,0.1,0.6,0.3,0.9c0.1,0.3,0.3,0.5,0.6,0.7s0.6,0.3,1,0.3c0.4,0,0.7-0.1,0.9-0.2c0.2-0.1,0.4-0.3,0.6-0.5
	c0.1-0.2,0.3-0.4,0.3-0.6c0.1-0.2,0.1-0.4,0.1-0.6c0-0.3,0-0.5-0.1-0.7c-0.1-0.2-0.2-0.4-0.3-0.6c-0.1-0.2-0.3-0.3-0.5-0.4
	S41.4,62,41.1,62c-0.3,0-0.6,0.1-0.8,0.2c-0.2,0.1-0.4,0.3-0.6,0.6l0,0c0-0.2,0-0.5,0.1-0.7c0-0.3,0.1-0.5,0.2-0.7
	c0.1-0.2,0.2-0.4,0.4-0.5c0.2-0.1,0.4-0.2,0.7-0.2c0.3,0,0.5,0.1,0.7,0.2S42,61.2,42,61.5z M41,62.6c0.2,0,0.4,0,0.5,0.1
	c0.1,0.1,0.3,0.2,0.4,0.3c0.1,0.1,0.2,0.3,0.2,0.4s0.1,0.3,0.1,0.5c0,0.2,0,0.3-0.1,0.5s-0.1,0.3-0.2,0.4s-0.2,0.2-0.4,0.3
	s-0.3,0.1-0.5,0.1c-0.2,0-0.4,0-0.5-0.1s-0.3-0.2-0.4-0.3s-0.2-0.2-0.2-0.4c-0.1-0.2-0.1-0.3-0.1-0.5c0-0.2,0-0.3,0.1-0.5
	s0.1-0.3,0.2-0.4s0.2-0.2,0.4-0.3C40.7,62.7,40.8,62.6,41,62.6z"/>
<path class="st6" d="M24.2,37.4c0-0.1,0-0.3,0-0.5s0-0.3,0-0.5c0-0.2,0.1-0.3,0.1-0.5s0.1-0.3,0.2-0.4s0.2-0.2,0.3-0.3
	s0.3-0.1,0.5-0.1c0.2,0,0.4,0,0.5,0.1c0.1,0.1,0.2,0.2,0.3,0.3c0.1,0.1,0.2,0.3,0.2,0.4c0,0.2,0.1,0.3,0.1,0.5c0,0.2,0,0.3,0,0.5
	s0,0.3,0,0.5c0,0.2,0,0.5,0,0.7c0,0.3-0.1,0.5-0.1,0.7c-0.1,0.2-0.2,0.4-0.3,0.6s-0.4,0.2-0.7,0.2c-0.3,0-0.5-0.1-0.7-0.2
	s-0.3-0.4-0.3-0.6c-0.1-0.2-0.1-0.5-0.1-0.7S24.2,37.6,24.2,37.4z M23.5,37.4c0,0.2,0,0.4,0,0.6c0,0.2,0,0.4,0.1,0.7
	c0,0.2,0.1,0.4,0.2,0.6c0.1,0.2,0.2,0.4,0.3,0.5s0.3,0.3,0.5,0.3s0.5,0.1,0.8,0.1c0.3,0,0.6,0,0.8-0.1c0.2-0.1,0.4-0.2,0.5-0.3
	c0.1-0.1,0.2-0.3,0.3-0.5c0.1-0.2,0.1-0.4,0.2-0.6s0.1-0.4,0.1-0.7c0-0.2,0-0.4,0-0.6s0-0.4,0-0.6c0-0.2,0-0.4-0.1-0.7
	s-0.1-0.4-0.2-0.6s-0.2-0.4-0.3-0.5c-0.1-0.1-0.3-0.3-0.5-0.3s-0.5-0.1-0.8-0.1c-0.3,0-0.5,0-0.8,0.1s-0.4,0.2-0.5,0.3
	c-0.1,0.1-0.2,0.3-0.3,0.5c-0.1,0.2-0.1,0.4-0.2,0.6c0,0.2-0.1,0.4-0.1,0.7S23.5,37.2,23.5,37.4z M28.3,39.3v0.9h0.9v-0.9H28.3z
	 M30.9,38.8h-0.7c0,0.5,0.2,0.9,0.5,1.1c0.3,0.2,0.7,0.4,1.2,0.4c0.7,0,1.2-0.3,1.5-0.8s0.5-1.3,0.5-2.3c0-0.5-0.1-1-0.2-1.3
	c-0.1-0.3-0.2-0.6-0.4-0.8c-0.2-0.2-0.4-0.3-0.6-0.4c-0.2-0.1-0.5-0.1-0.8-0.1c-0.3,0-0.5,0-0.8,0.1c-0.2,0.1-0.4,0.2-0.6,0.4
	c-0.2,0.2-0.3,0.4-0.4,0.6s-0.1,0.5-0.1,0.7c0,0.3,0,0.5,0.1,0.8c0.1,0.2,0.2,0.4,0.3,0.6c0.2,0.2,0.3,0.3,0.6,0.4
	c0.2,0.1,0.5,0.1,0.8,0.1c0.3,0,0.5-0.1,0.8-0.2c0.2-0.1,0.4-0.3,0.5-0.6l0,0c0,0.7-0.1,1.3-0.3,1.7s-0.5,0.5-0.9,0.5
	c-0.3,0-0.5-0.1-0.7-0.2C31,39.3,30.9,39.1,30.9,38.8z M33.1,36.4c0,0.2,0,0.3-0.1,0.5s-0.1,0.3-0.2,0.4c-0.1,0.1-0.2,0.2-0.4,0.3
	s-0.3,0.1-0.5,0.1c-0.2,0-0.3,0-0.5-0.1s-0.3-0.2-0.4-0.3s-0.2-0.2-0.2-0.4s-0.1-0.3-0.1-0.4c0-0.2,0-0.3,0.1-0.5s0.1-0.3,0.2-0.4
	c0.1-0.1,0.2-0.2,0.3-0.3s0.3-0.1,0.5-0.1c0.2,0,0.4,0,0.5,0.1c0.1,0.1,0.3,0.2,0.4,0.3c0.1,0.1,0.2,0.3,0.2,0.4
	S33.1,36.2,33.1,36.4z M35.4,38.8h-0.7c0,0.5,0.2,0.9,0.5,1.1s0.7,0.4,1.2,0.4c0.7,0,1.2-0.3,1.5-0.8s0.5-1.3,0.5-2.3
	c0-0.5-0.1-1-0.2-1.3c-0.1-0.3-0.2-0.6-0.4-0.8c-0.2-0.2-0.4-0.3-0.6-0.4c-0.2-0.1-0.5-0.1-0.8-0.1c-0.3,0-0.5,0-0.8,0.1
	c-0.2,0.1-0.4,0.2-0.6,0.4s-0.3,0.4-0.4,0.6s-0.1,0.5-0.1,0.7c0,0.3,0,0.5,0.1,0.8c0.1,0.2,0.2,0.4,0.3,0.6c0.2,0.2,0.3,0.3,0.6,0.4
	c0.2,0.1,0.5,0.1,0.8,0.1c0.3,0,0.5-0.1,0.8-0.2c0.2-0.1,0.4-0.3,0.5-0.6l0,0c0,0.7-0.1,1.3-0.3,1.7s-0.5,0.5-0.9,0.5
	c-0.3,0-0.5-0.1-0.7-0.2C35.5,39.3,35.4,39.1,35.4,38.8z M37.6,36.4c0,0.2,0,0.3-0.1,0.5s-0.1,0.3-0.2,0.4c-0.1,0.1-0.2,0.2-0.4,0.3
	s-0.3,0.1-0.5,0.1c-0.2,0-0.3,0-0.5-0.1c-0.1-0.1-0.3-0.2-0.4-0.3s-0.2-0.2-0.2-0.4s-0.1-0.3-0.1-0.4c0-0.2,0-0.3,0.1-0.5
	s0.1-0.3,0.2-0.4c0.1-0.1,0.2-0.2,0.3-0.3s0.3-0.1,0.5-0.1c0.2,0,0.4,0,0.5,0.1c0.1,0.1,0.3,0.2,0.4,0.3c0.1,0.1,0.2,0.3,0.2,0.4
	S37.6,36.2,37.6,36.4z M40,36c0-0.1,0-0.3,0.1-0.4s0.1-0.2,0.2-0.3c0.1-0.1,0.2-0.1,0.3-0.2c0.1,0,0.3-0.1,0.4-0.1
	c0.3,0,0.5,0.1,0.7,0.2c0.2,0.1,0.3,0.4,0.3,0.7c0,0.3-0.1,0.5-0.3,0.7s-0.4,0.2-0.7,0.2c-0.1,0-0.3,0-0.4-0.1
	c-0.1,0-0.2-0.1-0.3-0.2c-0.1-0.1-0.2-0.2-0.2-0.3C40,36.3,40,36.2,40,36z M39.2,36c0,0.3,0.1,0.5,0.2,0.7c0.1,0.2,0.3,0.4,0.6,0.5
	c-0.3,0.1-0.6,0.3-0.7,0.5c-0.2,0.2-0.3,0.5-0.3,0.9c0,0.3,0,0.5,0.1,0.8s0.2,0.4,0.4,0.5c0.2,0.1,0.4,0.3,0.6,0.3
	c0.2,0.1,0.5,0.1,0.8,0.1c0.3,0,0.5,0,0.7-0.1c0.2-0.1,0.4-0.2,0.6-0.3s0.3-0.3,0.4-0.5s0.1-0.5,0.1-0.7c0-0.4-0.1-0.6-0.2-0.9
	c-0.2-0.2-0.4-0.4-0.8-0.5c0.2-0.1,0.4-0.3,0.6-0.5c0.1-0.2,0.2-0.4,0.2-0.7c0-0.2,0-0.4-0.1-0.5c-0.1-0.2-0.2-0.3-0.3-0.5
	c-0.1-0.1-0.3-0.2-0.5-0.3c-0.2-0.1-0.5-0.1-0.8-0.1c-0.2,0-0.4,0-0.6,0.1s-0.4,0.2-0.5,0.3c-0.2,0.1-0.3,0.3-0.4,0.5
	C39.3,35.5,39.2,35.7,39.2,36z M39.8,38.6c0-0.2,0-0.3,0.1-0.4c0.1-0.1,0.1-0.2,0.3-0.3c0.1-0.1,0.2-0.2,0.4-0.2s0.3-0.1,0.5-0.1
	c0.2,0,0.3,0,0.5,0.1c0.1,0.1,0.3,0.1,0.4,0.2S42,38,42,38.2c0.1,0.1,0.1,0.3,0.1,0.4c0,0.2,0,0.3-0.1,0.4c-0.1,0.1-0.1,0.2-0.2,0.3
	s-0.2,0.2-0.4,0.2c-0.1,0.1-0.3,0.1-0.5,0.1c-0.4,0-0.6-0.1-0.9-0.3C39.9,39.2,39.8,38.9,39.8,38.6z"/>
<path class="st6" d="M42,14.7V9h-0.5c0,0.2-0.1,0.4-0.2,0.5c-0.1,0.1-0.2,0.2-0.4,0.3C40.8,10,40.6,10,40.4,10c-0.2,0-0.4,0-0.6,0
	v0.5h1.5v4.1H42z"/>
<path d="M93.7,6.8c-0.1,0-0.1,0-0.1-0.1c0,0,0-0.1,0-0.1c0,0,0-0.1,0-0.1c0,0,0,0,0.1,0c0.6,0,1-0.2,1.1-0.6l1.4-5.5
	c-0.2,0-0.5,0-0.9,0c-0.1,0-0.1,0-0.1-0.1c0,0,0-0.1,0-0.1c0,0,0-0.1,0-0.1c0,0,0,0,0.1,0h1.7c0.1,0,0.1,0,0.1,0.1l2.2,5.3l1.1-4.4
	c0-0.1,0-0.1,0-0.2c0-0.3-0.3-0.4-0.8-0.4c-0.1,0-0.1,0-0.1-0.1c0-0.1,0-0.1,0.1-0.2c0,0,0.1,0,0.1,0h2.1c0.1,0,0.1,0,0.1,0.1
	c0,0,0,0.1,0,0.1s0,0.1,0,0.1c0,0,0,0-0.1,0c-0.6,0-1,0.2-1.1,0.6l-1.4,5.8c0,0.1-0.1,0.1-0.1,0.1h-0.1c0,0-0.1,0-0.1-0.1l-2.5-6.1
	l0-0.1c0,0,0,0,0,0l-1.3,5.3c0,0,0,0,0,0.1c0,0,0,0.1,0,0.1c0,0.2,0.1,0.3,0.2,0.3c0.1,0.1,0.3,0.1,0.6,0.1c0.1,0,0.1,0,0.1,0.1
	c0,0.1,0,0.2-0.1,0.2c0,0-0.1,0-0.1,0H93.7z"/>
<path d="M105.9,5.5c-0.1,0-0.1,0-0.1-0.1c0,0-0.1-0.1-0.1-0.1c0-0.1,0-0.1,0.1-0.1c0,0,0.1-0.1,0.1-0.1h6.3c0.1,0,0.1,0,0.1,0.1
	c0,0,0.1,0.1,0.1,0.1c0,0.1,0,0.1-0.1,0.1c0,0-0.1,0.1-0.1,0.1H105.9z M105.9,3.6c-0.1,0-0.1,0-0.1-0.1c0,0-0.1-0.1-0.1-0.1
	c0-0.1,0-0.1,0.1-0.1c0,0,0.1-0.1,0.1-0.1h6.3c0.1,0,0.1,0,0.1,0.1c0,0,0.1,0.1,0.1,0.1c0,0.1,0,0.1-0.1,0.1c0,0-0.1,0.1-0.1,0.1
	H105.9z"/>
<path d="M116.7,6.8V6.5c0.8,0,1.2-0.1,1.2-0.3V0.9c-0.3,0.2-0.8,0.2-1.3,0.2V0.8c0.8,0,1.4-0.2,1.8-0.6h0.1c0,0,0,0,0.1,0
	c0,0,0,0,0,0.1v5.9c0,0.2,0.4,0.3,1.2,0.3v0.4H116.7z"/>
<path d="M123.3,7c-0.8,0-1.4-0.3-1.7-1c-0.3-0.7-0.4-1.5-0.4-2.4c0-0.6,0.1-1.1,0.2-1.6c0.1-0.5,0.3-0.9,0.6-1.3
	c0.3-0.4,0.8-0.5,1.3-0.5c0.4,0,0.8,0.1,1.1,0.3c0.3,0.2,0.5,0.5,0.6,0.8c0.1,0.3,0.2,0.7,0.3,1.1c0.1,0.4,0.1,0.8,0.1,1.2
	c0,0.6-0.1,1.1-0.2,1.6c-0.1,0.5-0.3,0.9-0.6,1.3C124.3,6.9,123.9,7,123.3,7z M123.3,6.8c0.4,0,0.7-0.2,0.8-0.6
	c0.2-0.4,0.3-0.8,0.3-1.3c0-0.5,0.1-0.9,0.1-1.5c0-0.5,0-1-0.1-1.4c0-0.4-0.2-0.8-0.3-1.1c-0.2-0.3-0.5-0.5-0.8-0.5
	s-0.7,0.2-0.8,0.5c-0.2,0.3-0.3,0.7-0.3,1.1c0,0.4-0.1,0.9-0.1,1.4c0,0.4,0,0.7,0,1c0,0.3,0.1,0.7,0.1,1c0.1,0.4,0.2,0.6,0.4,0.9
	C122.8,6.7,123,6.8,123.3,6.8z"/>
<path class="st7" d="M47,20l6.6,0.4l6.6,0.4l6.6,0.4l6.6,0.4l6.6,0.4l6.6,0.4l6.6,0.4l6.6,0.4l6.6,0.4l6.6,0.4l6.6,0.4L126,25
	l6.6,0.4l6.6,0.4l6.6,0.4l6.6,0.4l6.6,0.4l6.6,0.4l6.6,0.4"/>
<path class="st8" d="M47,11.7l6.6,0.5l6.6,0.5l6.6,0.5l6.6,0.5l6.6,0.4l6.6,0.4l6.6,0.4l6.6,0.4l6.6,0.4l6.6,0.4l6.6,0.4l6.6,0.4
	l6.6,0.4l6.6,0.4l6.6,0.4l6.6,0.4l6.6,0.4l6.6,0.4l6.6,0.4"/>
<line class="st9" x1="45.8" y1="20" x2="173.3" y2="20"/>
<path class="st6" d="M51.9,28.3c0-0.3,0-0.6,0.1-1c0.1-0.3,0.2-0.6,0.4-0.8c0.2-0.2,0.4-0.5,0.7-0.6s0.6-0.2,1-0.2
	c0.4,0,0.7,0.1,1,0.2s0.5,0.4,0.7,0.6c0.2,0.2,0.3,0.5,0.4,0.8c0.1,0.3,0.1,0.6,0.1,1s0,0.6-0.1,1c-0.1,0.3-0.2,0.6-0.4,0.8
	c-0.2,0.2-0.4,0.5-0.7,0.6c-0.3,0.2-0.6,0.2-1,0.2c-0.4,0-0.7-0.1-1-0.2c-0.3-0.2-0.5-0.4-0.7-0.6c-0.2-0.2-0.3-0.5-0.4-0.8
	C52,28.9,51.9,28.6,51.9,28.3z M51.1,28.3c0,0.4,0.1,0.9,0.2,1.3c0.1,0.4,0.3,0.8,0.6,1.1c0.3,0.3,0.6,0.6,1,0.7
	c0.4,0.2,0.8,0.3,1.3,0.3c0.5,0,0.9-0.1,1.3-0.3c0.4-0.2,0.7-0.4,1-0.7c0.3-0.3,0.4-0.7,0.6-1.1c0.1-0.4,0.2-0.8,0.2-1.3
	c0-0.4-0.1-0.9-0.2-1.3c-0.1-0.4-0.3-0.8-0.6-1.1c-0.3-0.3-0.6-0.6-1-0.7c-0.4-0.2-0.8-0.3-1.3-0.3c-0.5,0-0.9,0.1-1.3,0.3
	c-0.4,0.2-0.7,0.4-1,0.7c-0.3,0.3-0.4,0.7-0.6,1.1C51.2,27.4,51.1,27.9,51.1,28.3z M58.1,26.9v6.4h0.8v-2.4h0
	c0.1,0.1,0.2,0.3,0.3,0.3c0.1,0.1,0.3,0.2,0.4,0.2s0.3,0.1,0.4,0.1c0.1,0,0.3,0,0.4,0c0.4,0,0.7-0.1,0.9-0.2
	c0.3-0.1,0.5-0.3,0.7-0.5c0.2-0.2,0.3-0.5,0.4-0.8c0.1-0.3,0.1-0.6,0.1-0.9c0-0.3,0-0.6-0.1-0.9c-0.1-0.3-0.2-0.5-0.4-0.8
	c-0.2-0.2-0.4-0.4-0.7-0.5c-0.3-0.1-0.6-0.2-0.9-0.2c-0.3,0-0.6,0.1-0.9,0.2c-0.3,0.1-0.5,0.3-0.6,0.6h0v-0.6H58.1z M61.7,29.1
	c0,0.2,0,0.4-0.1,0.7s-0.1,0.4-0.2,0.6c-0.1,0.2-0.2,0.3-0.4,0.4c-0.2,0.1-0.4,0.2-0.7,0.2c-0.3,0-0.5,0-0.7-0.1
	c-0.2-0.1-0.3-0.2-0.5-0.4C59.1,30.2,59,30,59,29.8c-0.1-0.2-0.1-0.4-0.1-0.7c0-0.2,0-0.4,0.1-0.6c0.1-0.2,0.1-0.4,0.2-0.6
	c0.1-0.2,0.3-0.3,0.4-0.4c0.2-0.1,0.4-0.2,0.7-0.2c0.2,0,0.5,0,0.6,0.1c0.2,0.1,0.3,0.2,0.4,0.4c0.1,0.2,0.2,0.3,0.3,0.5
	C61.7,28.7,61.7,28.9,61.7,29.1z M64.5,26.9v-1.4h-0.8v1.4h-0.8v0.7h0.8v2.9c0,0.2,0,0.4,0.1,0.5c0,0.1,0.1,0.2,0.2,0.3
	c0.1,0.1,0.2,0.1,0.3,0.1c0.1,0,0.3,0,0.5,0h0.6v-0.7H65c-0.1,0-0.2,0-0.3,0c-0.1,0-0.1,0-0.2-0.1c0,0-0.1-0.1-0.1-0.1
	c0-0.1,0-0.1,0-0.2v-2.9h0.9v-0.7H64.5z M67,26v-0.9h-0.8V26H67z M66.3,26.9v4.6H67v-4.6H66.3z M68.2,26.9v4.6H69v-2.9
	c0-0.1,0-0.2,0.1-0.3c0-0.1,0.1-0.3,0.2-0.4c0.1-0.1,0.2-0.2,0.4-0.3s0.3-0.1,0.6-0.1c0.2,0,0.3,0,0.4,0.1c0.1,0.1,0.2,0.1,0.3,0.2
	c0.1,0.1,0.1,0.2,0.1,0.3c0,0.1,0,0.3,0,0.4v3h0.8v-2.9c0-0.4,0.1-0.6,0.3-0.9c0.2-0.2,0.5-0.3,0.9-0.3c0.2,0,0.3,0,0.5,0.1
	s0.2,0.1,0.3,0.2c0.1,0.1,0.1,0.2,0.1,0.3c0,0.1,0,0.3,0,0.4v3h0.8v-3.4c0-0.2,0-0.4-0.1-0.6s-0.2-0.3-0.3-0.4
	c-0.1-0.1-0.3-0.2-0.5-0.2c-0.2-0.1-0.4-0.1-0.6-0.1c-0.3,0-0.6,0.1-0.8,0.2c-0.3,0.1-0.5,0.3-0.6,0.6c-0.1-0.3-0.3-0.5-0.5-0.6
	c-0.2-0.1-0.5-0.2-0.8-0.2c-0.6,0-1.1,0.3-1.5,0.8h0v-0.7H68.2z M79.9,31.5c-0.1,0.1-0.3,0.1-0.5,0.1c-0.2,0-0.4-0.1-0.5-0.2
	c-0.1-0.1-0.2-0.3-0.2-0.5c-0.2,0.2-0.5,0.4-0.7,0.5c-0.3,0.1-0.6,0.2-0.9,0.2c-0.2,0-0.4,0-0.6-0.1c-0.2,0-0.3-0.1-0.5-0.2
	c-0.1-0.1-0.2-0.2-0.3-0.4c-0.1-0.2-0.1-0.4-0.1-0.6c0-0.3,0-0.5,0.1-0.6c0.1-0.2,0.2-0.3,0.4-0.4c0.1-0.1,0.3-0.2,0.5-0.2
	c0.2-0.1,0.4-0.1,0.6-0.1c0.2,0,0.4-0.1,0.6-0.1c0.2,0,0.4-0.1,0.5-0.1c0.1,0,0.3-0.1,0.3-0.2s0.1-0.2,0.1-0.3c0-0.2,0-0.3-0.1-0.4
	c-0.1-0.1-0.1-0.2-0.2-0.2c-0.1-0.1-0.2-0.1-0.3-0.1c-0.1,0-0.2,0-0.4,0c-0.3,0-0.6,0.1-0.8,0.2c-0.2,0.1-0.3,0.4-0.3,0.7h-0.8
	c0-0.3,0.1-0.5,0.2-0.7c0.1-0.2,0.2-0.4,0.4-0.5c0.2-0.1,0.4-0.2,0.6-0.3c0.2-0.1,0.5-0.1,0.7-0.1c0.2,0,0.4,0,0.6,0
	c0.2,0,0.4,0.1,0.6,0.2s0.3,0.2,0.4,0.4c0.1,0.2,0.2,0.4,0.2,0.7v2.4c0,0.2,0,0.3,0,0.4c0,0.1,0.1,0.1,0.2,0.1c0.1,0,0.1,0,0.2,0
	V31.5z M78.7,29.1c-0.1,0.1-0.2,0.1-0.4,0.2c-0.2,0-0.3,0.1-0.5,0.1c-0.2,0-0.3,0-0.5,0.1c-0.2,0-0.3,0.1-0.5,0.1
	c-0.1,0.1-0.2,0.1-0.3,0.3c-0.1,0.1-0.1,0.3-0.1,0.5c0,0.1,0,0.2,0.1,0.3c0.1,0.1,0.1,0.2,0.2,0.2c0.1,0.1,0.2,0.1,0.3,0.1
	c0.1,0,0.2,0,0.3,0c0.2,0,0.5,0,0.6-0.1c0.2-0.1,0.3-0.2,0.4-0.3s0.2-0.2,0.2-0.3c0.1-0.1,0.1-0.2,0.1-0.3V29.1z M80.6,25.1v6.4h0.8
	v-6.4H80.6z"/>
<line class="st10" x1="48.3" y1="139.2" x2="48.3" y2="11.7"/>
<line class="st11" x1="170.7" y1="139.2" x2="170.7" y2="11.7"/>
<line class="st5" x1="205.3" y1="139.2" x2="332.8" y2="139.2"/>
<line class="st5" x1="205.3" y1="11.7" x2="332.8" y2="11.7"/>
<line class="st5" x1="205.3" y1="139.2" x2="205.3" y2="137.9"/>
<line class="st5" x1="269" y1="139.2" x2="269" y2="137.9"/>
<line class="st5" x1="332.8" y1="139.2" x2="332.8" y2="137.9"/>
<line class="st5" x1="205.3" y1="11.7" x2="205.3" y2="13"/>
<line class="st5" x1="269" y1="11.7" x2="269" y2="13"/>
<line class="st5" x1="332.8" y1="11.7" x2="332.8" y2="13"/>
<path class="st6" d="M203.8,146c0-0.1,0-0.3,0-0.5c0-0.2,0-0.3,0-0.5s0.1-0.3,0.1-0.5c0-0.2,0.1-0.3,0.2-0.4
	c0.1-0.1,0.2-0.2,0.3-0.3s0.3-0.1,0.5-0.1s0.4,0,0.5,0.1s0.2,0.2,0.3,0.3c0.1,0.1,0.2,0.3,0.2,0.4c0,0.2,0.1,0.3,0.1,0.5
	s0,0.3,0,0.5c0,0.2,0,0.3,0,0.5c0,0.2,0,0.5,0,0.7c0,0.3-0.1,0.5-0.1,0.7c-0.1,0.2-0.2,0.4-0.3,0.6s-0.4,0.2-0.7,0.2
	c-0.3,0-0.5-0.1-0.7-0.2c-0.2-0.2-0.3-0.4-0.3-0.6c-0.1-0.2-0.1-0.5-0.1-0.7C203.8,146.5,203.8,146.2,203.8,146z M203.1,146
	c0,0.2,0,0.4,0,0.6s0,0.4,0.1,0.7s0.1,0.4,0.2,0.6s0.2,0.4,0.3,0.5c0.1,0.1,0.3,0.3,0.5,0.3c0.2,0.1,0.5,0.1,0.8,0.1
	c0.3,0,0.6,0,0.8-0.1c0.2-0.1,0.4-0.2,0.5-0.3s0.2-0.3,0.3-0.5s0.1-0.4,0.2-0.6s0.1-0.4,0.1-0.7s0-0.4,0-0.6c0-0.2,0-0.4,0-0.6
	s0-0.4-0.1-0.7s-0.1-0.4-0.2-0.6c-0.1-0.2-0.2-0.4-0.3-0.5c-0.1-0.1-0.3-0.3-0.5-0.3s-0.5-0.1-0.8-0.1s-0.5,0-0.8,0.1
	c-0.2,0.1-0.4,0.2-0.5,0.3c-0.1,0.1-0.2,0.3-0.3,0.5c-0.1,0.2-0.1,0.4-0.2,0.6s-0.1,0.4-0.1,0.7S203.1,145.8,203.1,146z"/>
<path class="st6" d="M264.1,146c0-0.1,0-0.3,0-0.5c0-0.2,0-0.3,0-0.5c0-0.2,0.1-0.3,0.1-0.5c0-0.2,0.1-0.3,0.2-0.4
	c0.1-0.1,0.2-0.2,0.3-0.3s0.3-0.1,0.5-0.1c0.2,0,0.4,0,0.5,0.1s0.2,0.2,0.3,0.3c0.1,0.1,0.2,0.3,0.2,0.4c0,0.2,0.1,0.3,0.1,0.5
	c0,0.2,0,0.3,0,0.5c0,0.2,0,0.3,0,0.5c0,0.2,0,0.5,0,0.7c0,0.3-0.1,0.5-0.1,0.7c-0.1,0.2-0.2,0.4-0.3,0.6s-0.4,0.2-0.7,0.2
	s-0.5-0.1-0.7-0.2s-0.3-0.4-0.3-0.6c-0.1-0.2-0.1-0.5-0.1-0.7C264.1,146.5,264.1,146.2,264.1,146z M263.3,146c0,0.2,0,0.4,0,0.6
	c0,0.2,0,0.4,0.1,0.7s0.1,0.4,0.2,0.6c0.1,0.2,0.2,0.4,0.3,0.5s0.3,0.3,0.5,0.3c0.2,0.1,0.5,0.1,0.8,0.1c0.3,0,0.6,0,0.8-0.1
	c0.2-0.1,0.4-0.2,0.5-0.3s0.2-0.3,0.3-0.5c0.1-0.2,0.1-0.4,0.2-0.6s0.1-0.4,0.1-0.7c0-0.2,0-0.4,0-0.6c0-0.2,0-0.4,0-0.6
	c0-0.2,0-0.4-0.1-0.7s-0.1-0.4-0.2-0.6c-0.1-0.2-0.2-0.4-0.3-0.5c-0.1-0.1-0.3-0.3-0.5-0.3c-0.2-0.1-0.5-0.1-0.8-0.1s-0.5,0-0.8,0.1
	s-0.4,0.2-0.5,0.3c-0.1,0.1-0.2,0.3-0.3,0.5c-0.1,0.2-0.1,0.4-0.2,0.6s-0.1,0.4-0.1,0.7C263.4,145.6,263.3,145.8,263.3,146z
	 M268.1,147.9v0.9h0.9v-0.9H268.1z M273.4,143.8v-0.6h-2.8l-0.5,2.9l0.6,0c0.1-0.2,0.3-0.3,0.5-0.4c0.2-0.1,0.4-0.1,0.6-0.1
	c0.2,0,0.4,0,0.5,0.1c0.2,0.1,0.3,0.2,0.4,0.3s0.2,0.3,0.3,0.4c0.1,0.2,0.1,0.3,0.1,0.5c0,0.2,0,0.4-0.1,0.6
	c-0.1,0.2-0.2,0.3-0.3,0.4s-0.2,0.2-0.4,0.3s-0.3,0.1-0.5,0.1c-0.2,0-0.3,0-0.5-0.1c-0.1-0.1-0.3-0.1-0.4-0.2s-0.2-0.2-0.2-0.3
	s-0.1-0.3-0.1-0.4H270c0,0.3,0.1,0.5,0.2,0.7c0.1,0.2,0.2,0.4,0.4,0.5c0.2,0.1,0.4,0.2,0.6,0.3c0.2,0.1,0.4,0.1,0.7,0.1
	c0.3,0,0.6-0.1,0.9-0.2c0.2-0.1,0.5-0.2,0.6-0.4c0.2-0.2,0.3-0.4,0.4-0.6s0.1-0.5,0.1-0.7c0-0.3,0-0.6-0.1-0.9
	c-0.1-0.2-0.2-0.4-0.4-0.6c-0.2-0.2-0.4-0.3-0.6-0.4s-0.5-0.1-0.7-0.1c-0.2,0-0.4,0-0.6,0.1s-0.4,0.2-0.5,0.3l0,0l0.3-1.6H273.4z"/>
<path class="st6" d="M333.1,148.8v-5.7h-0.5c0,0.2-0.1,0.4-0.2,0.5c-0.1,0.1-0.2,0.2-0.4,0.3s-0.3,0.1-0.5,0.2c-0.2,0-0.4,0-0.6,0
	v0.5h1.5v4.1H333.1z"/>
<line class="st5" x1="205.3" y1="139.2" x2="205.3" y2="11.7"/>
<line class="st5" x1="332.8" y1="139.2" x2="332.8" y2="11.7"/>
<line class="st5" x1="205.3" y1="139.2" x2="206.5" y2="139.2"/>
<line class="st5" x1="205.3" y1="107.3" x2="206.5" y2="107.3"/>
<line class="st5" x1="205.3" y1="75.4" x2="206.5" y2="75.4"/>
<line class="st5" x1="205.3" y1="43.6" x2="206.5" y2="43.6"/>
<line class="st5" x1="205.3" y1="11.7" x2="206.5" y2="11.7"/>
<line class="st5" x1="332.8" y1="139.2" x2="331.5" y2="139.2"/>
<line class="st5" x1="332.8" y1="107.3" x2="331.5" y2="107.3"/>
<line class="st5" x1="332.8" y1="75.4" x2="331.5" y2="75.4"/>
<line class="st5" x1="332.8" y1="43.6" x2="331.5" y2="43.6"/>
<line class="st5" x1="332.8" y1="11.7" x2="331.5" y2="11.7"/>
<path class="st6" d="M188.7,139.4c0-0.1,0-0.3,0-0.5c0-0.2,0-0.3,0-0.5s0.1-0.3,0.1-0.5c0-0.2,0.1-0.3,0.2-0.4
	c0.1-0.1,0.2-0.2,0.3-0.3s0.3-0.1,0.5-0.1s0.4,0,0.5,0.1s0.2,0.2,0.3,0.3c0.1,0.1,0.2,0.3,0.2,0.4c0,0.2,0.1,0.3,0.1,0.5
	s0,0.3,0,0.5c0,0.2,0,0.3,0,0.5c0,0.2,0,0.5,0,0.7c0,0.3-0.1,0.5-0.1,0.7c-0.1,0.2-0.2,0.4-0.3,0.6s-0.4,0.2-0.7,0.2
	c-0.3,0-0.5-0.1-0.7-0.2c-0.2-0.2-0.3-0.4-0.3-0.6c-0.1-0.2-0.1-0.5-0.1-0.7C188.7,139.9,188.7,139.6,188.7,139.4z M188,139.4
	c0,0.2,0,0.4,0,0.6s0,0.4,0.1,0.7s0.1,0.4,0.2,0.6s0.2,0.4,0.3,0.5c0.1,0.1,0.3,0.3,0.5,0.3c0.2,0.1,0.5,0.1,0.8,0.1
	c0.3,0,0.6,0,0.8-0.1c0.2-0.1,0.4-0.2,0.5-0.3s0.2-0.3,0.3-0.5s0.1-0.4,0.2-0.6s0.1-0.4,0.1-0.7s0-0.4,0-0.6c0-0.2,0-0.4,0-0.6
	s0-0.4-0.1-0.7s-0.1-0.4-0.2-0.6c-0.1-0.2-0.2-0.4-0.3-0.5c-0.1-0.1-0.3-0.3-0.5-0.3s-0.5-0.1-0.8-0.1s-0.5,0-0.8,0.1
	c-0.2,0.1-0.4,0.2-0.5,0.3c-0.1,0.1-0.2,0.3-0.3,0.5c-0.1,0.2-0.1,0.4-0.2,0.6s-0.1,0.4-0.1,0.7S188,139.2,188,139.4z M192.8,141.3
	v0.9h0.9v-0.9H192.8z M195.4,140.8h-0.7c0,0.5,0.2,0.9,0.5,1.1c0.3,0.2,0.7,0.4,1.2,0.4c0.7,0,1.2-0.3,1.5-0.8
	c0.3-0.5,0.5-1.3,0.5-2.3c0-0.5-0.1-1-0.2-1.3s-0.2-0.6-0.4-0.8s-0.4-0.3-0.6-0.4c-0.2-0.1-0.5-0.1-0.8-0.1c-0.3,0-0.5,0-0.8,0.1
	c-0.2,0.1-0.4,0.2-0.6,0.4c-0.2,0.2-0.3,0.4-0.4,0.6s-0.1,0.5-0.1,0.7c0,0.3,0,0.5,0.1,0.8c0.1,0.2,0.2,0.4,0.3,0.6
	c0.2,0.2,0.3,0.3,0.6,0.4s0.5,0.1,0.8,0.1c0.3,0,0.5-0.1,0.8-0.2c0.2-0.1,0.4-0.3,0.5-0.6l0,0c0,0.7-0.1,1.3-0.3,1.7
	c-0.2,0.4-0.5,0.5-0.9,0.5c-0.3,0-0.5-0.1-0.7-0.2C195.5,141.3,195.4,141.1,195.4,140.8z M197.6,138.4c0,0.2,0,0.3-0.1,0.5
	c-0.1,0.2-0.1,0.3-0.2,0.4s-0.2,0.2-0.4,0.3s-0.3,0.1-0.5,0.1c-0.2,0-0.3,0-0.5-0.1s-0.3-0.2-0.4-0.3s-0.2-0.2-0.2-0.4
	c-0.1-0.1-0.1-0.3-0.1-0.4c0-0.2,0-0.3,0.1-0.5c0-0.2,0.1-0.3,0.2-0.4s0.2-0.2,0.3-0.3s0.3-0.1,0.5-0.1c0.2,0,0.4,0,0.5,0.1
	s0.3,0.2,0.4,0.3s0.2,0.3,0.2,0.4C197.6,138.1,197.6,138.2,197.6,138.4z M200,138c0-0.1,0-0.3,0.1-0.4c0.1-0.1,0.1-0.2,0.2-0.3
	s0.2-0.1,0.3-0.2c0.1,0,0.3-0.1,0.4-0.1c0.3,0,0.5,0.1,0.7,0.2s0.3,0.4,0.3,0.7c0,0.3-0.1,0.5-0.3,0.7c-0.2,0.2-0.4,0.2-0.7,0.2
	c-0.1,0-0.3,0-0.4-0.1s-0.2-0.1-0.3-0.2s-0.2-0.2-0.2-0.3C200,138.3,200,138.2,200,138z M199.3,138c0,0.3,0.1,0.5,0.2,0.7
	c0.1,0.2,0.3,0.4,0.6,0.5c-0.3,0.1-0.6,0.3-0.7,0.5s-0.3,0.5-0.3,0.9c0,0.3,0,0.5,0.1,0.8s0.2,0.4,0.4,0.5c0.2,0.1,0.4,0.3,0.6,0.3
	c0.2,0.1,0.5,0.1,0.8,0.1c0.3,0,0.5,0,0.7-0.1c0.2-0.1,0.4-0.2,0.6-0.3s0.3-0.3,0.4-0.5c0.1-0.2,0.1-0.5,0.1-0.7
	c0-0.4-0.1-0.6-0.2-0.9c-0.2-0.2-0.4-0.4-0.8-0.5c0.2-0.1,0.4-0.3,0.6-0.5c0.1-0.2,0.2-0.4,0.2-0.7c0-0.2,0-0.4-0.1-0.5
	c-0.1-0.2-0.2-0.3-0.3-0.5s-0.3-0.2-0.5-0.3c-0.2-0.1-0.5-0.1-0.8-0.1c-0.2,0-0.4,0-0.6,0.1s-0.4,0.2-0.5,0.3s-0.3,0.3-0.4,0.5
	S199.3,137.7,199.3,138z M199.8,140.6c0-0.2,0-0.3,0.1-0.4c0.1-0.1,0.1-0.2,0.3-0.3c0.1-0.1,0.2-0.2,0.4-0.2
	c0.1-0.1,0.3-0.1,0.5-0.1c0.2,0,0.3,0,0.5,0.1s0.3,0.1,0.4,0.2c0.1,0.1,0.2,0.2,0.3,0.3c0.1,0.1,0.1,0.3,0.1,0.4
	c0,0.2,0,0.3-0.1,0.4c-0.1,0.1-0.1,0.2-0.2,0.3s-0.2,0.2-0.4,0.2c-0.1,0.1-0.3,0.1-0.5,0.1c-0.4,0-0.6-0.1-0.9-0.3
	S199.8,140.9,199.8,140.6z"/>
<path class="st6" d="M183.7,107.5c0-0.1,0-0.3,0-0.5s0-0.3,0-0.5s0.1-0.3,0.1-0.5c0-0.2,0.1-0.3,0.2-0.4s0.2-0.2,0.3-0.3
	s0.3-0.1,0.5-0.1s0.4,0,0.5,0.1c0.1,0.1,0.2,0.2,0.3,0.3c0.1,0.1,0.2,0.3,0.2,0.4c0,0.2,0.1,0.3,0.1,0.5s0,0.3,0,0.5
	c0,0.2,0,0.3,0,0.5c0,0.2,0,0.5,0,0.7s-0.1,0.5-0.1,0.7c-0.1,0.2-0.2,0.4-0.3,0.6c-0.2,0.2-0.4,0.2-0.7,0.2c-0.3,0-0.5-0.1-0.7-0.2
	c-0.2-0.2-0.3-0.4-0.3-0.6c-0.1-0.2-0.1-0.5-0.1-0.7C183.7,108,183.7,107.7,183.7,107.5z M183,107.5c0,0.2,0,0.4,0,0.6
	s0,0.4,0.1,0.7s0.1,0.4,0.2,0.6s0.2,0.4,0.3,0.5c0.1,0.1,0.3,0.3,0.5,0.3c0.2,0.1,0.5,0.1,0.8,0.1c0.3,0,0.6,0,0.8-0.1
	c0.2-0.1,0.4-0.2,0.5-0.3s0.2-0.3,0.3-0.5s0.1-0.4,0.2-0.6c0-0.2,0.1-0.4,0.1-0.7s0-0.4,0-0.6s0-0.4,0-0.6s0-0.4-0.1-0.7
	c0-0.2-0.1-0.4-0.2-0.6s-0.2-0.4-0.3-0.5c-0.1-0.1-0.3-0.3-0.5-0.3s-0.5-0.1-0.8-0.1s-0.5,0-0.8,0.1c-0.2,0.1-0.4,0.2-0.5,0.3
	c-0.1,0.1-0.2,0.3-0.3,0.5s-0.1,0.4-0.2,0.6s-0.1,0.4-0.1,0.7S183,107.3,183,107.5z M187.8,109.4v0.9h0.9v-0.9H187.8z M190.4,109
	h-0.7c0,0.5,0.2,0.9,0.5,1.1c0.3,0.2,0.7,0.4,1.2,0.4c0.7,0,1.2-0.3,1.5-0.8c0.3-0.5,0.5-1.3,0.5-2.3c0-0.5-0.1-1-0.2-1.3
	s-0.2-0.6-0.4-0.8c-0.2-0.2-0.4-0.3-0.6-0.4c-0.2-0.1-0.5-0.1-0.8-0.1c-0.3,0-0.5,0-0.8,0.1c-0.2,0.1-0.4,0.2-0.6,0.4
	c-0.2,0.2-0.3,0.4-0.4,0.6s-0.1,0.5-0.1,0.7c0,0.3,0,0.5,0.1,0.8s0.2,0.4,0.3,0.6c0.2,0.2,0.3,0.3,0.6,0.4c0.2,0.1,0.5,0.1,0.8,0.1
	c0.3,0,0.5-0.1,0.8-0.2s0.4-0.3,0.5-0.6l0,0c0,0.7-0.1,1.3-0.3,1.7c-0.2,0.4-0.5,0.5-0.9,0.5c-0.3,0-0.5-0.1-0.7-0.2
	C190.5,109.4,190.4,109.2,190.4,109z M192.6,106.5c0,0.2,0,0.3-0.1,0.5c-0.1,0.2-0.1,0.3-0.2,0.4c-0.1,0.1-0.2,0.2-0.4,0.3
	s-0.3,0.1-0.5,0.1c-0.2,0-0.3,0-0.5-0.1s-0.3-0.2-0.4-0.3s-0.2-0.2-0.2-0.4s-0.1-0.3-0.1-0.4c0-0.2,0-0.3,0.1-0.5
	c0-0.2,0.1-0.3,0.2-0.4c0.1-0.1,0.2-0.2,0.3-0.3c0.1-0.1,0.3-0.1,0.5-0.1c0.2,0,0.4,0,0.5,0.1c0.1,0.1,0.3,0.2,0.4,0.3
	s0.2,0.3,0.2,0.4C192.6,106.2,192.6,106.4,192.6,106.5z M195,106.1c0-0.1,0-0.3,0.1-0.4c0.1-0.1,0.1-0.2,0.2-0.3s0.2-0.1,0.3-0.2
	s0.3-0.1,0.4-0.1c0.3,0,0.5,0.1,0.7,0.2s0.3,0.4,0.3,0.7c0,0.3-0.1,0.5-0.3,0.7c-0.2,0.2-0.4,0.2-0.7,0.2c-0.1,0-0.3,0-0.4-0.1
	c-0.1,0-0.2-0.1-0.3-0.2c-0.1-0.1-0.2-0.2-0.2-0.3C195,106.4,195,106.3,195,106.1z M194.3,106.1c0,0.3,0.1,0.5,0.2,0.7
	c0.1,0.2,0.3,0.4,0.6,0.5c-0.3,0.1-0.6,0.3-0.7,0.5c-0.2,0.2-0.3,0.5-0.3,0.9c0,0.3,0,0.5,0.1,0.8s0.2,0.4,0.4,0.5
	c0.2,0.1,0.4,0.3,0.6,0.3c0.2,0.1,0.5,0.1,0.8,0.1c0.3,0,0.5,0,0.7-0.1c0.2-0.1,0.4-0.2,0.6-0.3c0.2-0.1,0.3-0.3,0.4-0.5
	c0.1-0.2,0.1-0.5,0.1-0.7c0-0.4-0.1-0.6-0.2-0.9c-0.2-0.2-0.4-0.4-0.8-0.5c0.2-0.1,0.4-0.3,0.6-0.5c0.1-0.2,0.2-0.4,0.2-0.7
	c0-0.2,0-0.4-0.1-0.5s-0.2-0.3-0.3-0.5c-0.1-0.1-0.3-0.2-0.5-0.3c-0.2-0.1-0.5-0.1-0.8-0.1c-0.2,0-0.4,0-0.6,0.1
	c-0.2,0.1-0.4,0.2-0.5,0.3s-0.3,0.3-0.4,0.5C194.3,105.7,194.3,105.9,194.3,106.1z M194.8,108.7c0-0.2,0-0.3,0.1-0.4
	c0.1-0.1,0.1-0.2,0.3-0.3s0.2-0.2,0.4-0.2s0.3-0.1,0.5-0.1c0.2,0,0.3,0,0.5,0.1c0.1,0.1,0.3,0.1,0.4,0.2c0.1,0.1,0.2,0.2,0.3,0.3
	c0.1,0.1,0.1,0.3,0.1,0.4c0,0.2,0,0.3-0.1,0.4s-0.1,0.2-0.2,0.3c-0.1,0.1-0.2,0.2-0.4,0.2c-0.1,0.1-0.3,0.1-0.5,0.1
	c-0.4,0-0.6-0.1-0.9-0.3C194.9,109.3,194.8,109.1,194.8,108.7z M202,105.3v-0.6h-2.8l-0.5,2.9l0.6,0c0.1-0.2,0.3-0.3,0.5-0.4
	c0.2-0.1,0.4-0.1,0.6-0.1c0.2,0,0.4,0,0.5,0.1c0.2,0.1,0.3,0.2,0.4,0.3c0.1,0.1,0.2,0.3,0.3,0.4c0.1,0.2,0.1,0.3,0.1,0.5
	c0,0.2,0,0.4-0.1,0.6c-0.1,0.2-0.2,0.3-0.3,0.4s-0.2,0.2-0.4,0.3s-0.3,0.1-0.5,0.1c-0.2,0-0.3,0-0.5-0.1c-0.1-0.1-0.3-0.1-0.4-0.2
	c-0.1-0.1-0.2-0.2-0.2-0.3c-0.1-0.1-0.1-0.3-0.1-0.4h-0.7c0,0.3,0.1,0.5,0.2,0.7c0.1,0.2,0.2,0.4,0.4,0.5s0.4,0.2,0.6,0.3
	c0.2,0.1,0.4,0.1,0.7,0.1c0.3,0,0.6-0.1,0.9-0.2c0.2-0.1,0.5-0.2,0.6-0.4s0.3-0.4,0.4-0.6c0.1-0.2,0.1-0.5,0.1-0.7
	c0-0.3,0-0.6-0.1-0.9c-0.1-0.2-0.2-0.4-0.4-0.6c-0.2-0.2-0.4-0.3-0.6-0.4s-0.5-0.1-0.7-0.1c-0.2,0-0.4,0-0.6,0.1s-0.4,0.2-0.5,0.3
	l0,0l0.3-1.6H202z"/>
<path class="st6" d="M188.7,75.7c0-0.1,0-0.3,0-0.5s0-0.3,0-0.5s0.1-0.3,0.1-0.5c0-0.2,0.1-0.3,0.2-0.4s0.2-0.2,0.3-0.3
	s0.3-0.1,0.5-0.1s0.4,0,0.5,0.1s0.2,0.2,0.3,0.3s0.2,0.3,0.2,0.4c0,0.2,0.1,0.3,0.1,0.5s0,0.3,0,0.5c0,0.2,0,0.3,0,0.5
	c0,0.2,0,0.5,0,0.7s-0.1,0.5-0.1,0.7c-0.1,0.2-0.2,0.4-0.3,0.6c-0.2,0.2-0.4,0.2-0.7,0.2c-0.3,0-0.5-0.1-0.7-0.2
	c-0.2-0.2-0.3-0.4-0.3-0.6c-0.1-0.2-0.1-0.5-0.1-0.7C188.7,76.1,188.7,75.9,188.7,75.7z M188,75.7c0,0.2,0,0.4,0,0.6s0,0.4,0.1,0.7
	s0.1,0.4,0.2,0.6s0.2,0.4,0.3,0.5c0.1,0.1,0.3,0.3,0.5,0.3c0.2,0.1,0.5,0.1,0.8,0.1c0.3,0,0.6,0,0.8-0.1c0.2-0.1,0.4-0.2,0.5-0.3
	s0.2-0.3,0.3-0.5s0.1-0.4,0.2-0.6s0.1-0.4,0.1-0.7s0-0.4,0-0.6s0-0.4,0-0.6s0-0.4-0.1-0.7s-0.1-0.4-0.2-0.6s-0.2-0.4-0.3-0.5
	c-0.1-0.1-0.3-0.3-0.5-0.3s-0.5-0.1-0.8-0.1s-0.5,0-0.8,0.1c-0.2,0.1-0.4,0.2-0.5,0.3c-0.1,0.1-0.2,0.3-0.3,0.5s-0.1,0.4-0.2,0.6
	S188,74.8,188,75S188,75.5,188,75.7z M192.8,77.6v0.9h0.9v-0.9H192.8z M195.4,77.1h-0.7c0,0.5,0.2,0.9,0.5,1.1
	c0.3,0.2,0.7,0.4,1.2,0.4c0.7,0,1.2-0.3,1.5-0.8c0.3-0.5,0.5-1.3,0.5-2.3c0-0.5-0.1-1-0.2-1.3s-0.2-0.6-0.4-0.8
	c-0.2-0.2-0.4-0.3-0.6-0.4c-0.2-0.1-0.5-0.1-0.8-0.1c-0.3,0-0.5,0-0.8,0.1c-0.2,0.1-0.4,0.2-0.6,0.4c-0.2,0.2-0.3,0.4-0.4,0.6
	s-0.1,0.5-0.1,0.7c0,0.3,0,0.5,0.1,0.8s0.2,0.4,0.3,0.6c0.2,0.2,0.3,0.3,0.6,0.4c0.2,0.1,0.5,0.1,0.8,0.1c0.3,0,0.5-0.1,0.8-0.2
	s0.4-0.3,0.5-0.6l0,0c0,0.7-0.1,1.3-0.3,1.7c-0.2,0.4-0.5,0.5-0.9,0.5c-0.3,0-0.5-0.1-0.7-0.2C195.5,77.6,195.4,77.4,195.4,77.1z
	 M197.6,74.7c0,0.2,0,0.3-0.1,0.5c-0.1,0.2-0.1,0.3-0.2,0.4c-0.1,0.1-0.2,0.2-0.4,0.3s-0.3,0.1-0.5,0.1c-0.2,0-0.3,0-0.5-0.1
	s-0.3-0.2-0.4-0.3s-0.2-0.2-0.2-0.4s-0.1-0.3-0.1-0.4c0-0.2,0-0.3,0.1-0.5c0-0.2,0.1-0.3,0.2-0.4c0.1-0.1,0.2-0.2,0.3-0.3
	s0.3-0.1,0.5-0.1c0.2,0,0.4,0,0.5,0.1c0.1,0.1,0.3,0.2,0.4,0.3s0.2,0.3,0.2,0.4C197.6,74.3,197.6,74.5,197.6,74.7z M199.9,77.1h-0.7
	c0,0.5,0.2,0.9,0.5,1.1c0.3,0.2,0.7,0.4,1.2,0.4c0.7,0,1.2-0.3,1.5-0.8c0.3-0.5,0.5-1.3,0.5-2.3c0-0.5-0.1-1-0.2-1.3
	c-0.1-0.3-0.2-0.6-0.4-0.8c-0.2-0.2-0.4-0.3-0.6-0.4c-0.2-0.1-0.5-0.1-0.8-0.1c-0.3,0-0.5,0-0.8,0.1c-0.2,0.1-0.4,0.2-0.6,0.4
	c-0.2,0.2-0.3,0.4-0.4,0.6s-0.1,0.5-0.1,0.7c0,0.3,0,0.5,0.1,0.8s0.2,0.4,0.3,0.6c0.2,0.2,0.3,0.3,0.6,0.4c0.2,0.1,0.5,0.1,0.8,0.1
	c0.3,0,0.5-0.1,0.8-0.2s0.4-0.3,0.5-0.6l0,0c0,0.7-0.1,1.3-0.3,1.7c-0.2,0.4-0.5,0.5-0.9,0.5c-0.3,0-0.5-0.1-0.7-0.2
	C200,77.6,199.9,77.4,199.9,77.1z M202.1,74.7c0,0.2,0,0.3-0.1,0.5c-0.1,0.2-0.1,0.3-0.2,0.4c-0.1,0.1-0.2,0.2-0.4,0.3
	c-0.1,0.1-0.3,0.1-0.5,0.1c-0.2,0-0.3,0-0.5-0.1s-0.3-0.2-0.4-0.3s-0.2-0.2-0.2-0.4s-0.1-0.3-0.1-0.4c0-0.2,0-0.3,0.1-0.5
	c0-0.2,0.1-0.3,0.2-0.4c0.1-0.1,0.2-0.2,0.3-0.3c0.1-0.1,0.3-0.1,0.5-0.1c0.2,0,0.4,0,0.5,0.1c0.1,0.1,0.3,0.2,0.4,0.3
	s0.2,0.3,0.2,0.4C202,74.3,202.1,74.5,202.1,74.7z"/>
<path class="st6" d="M183.7,43.8c0-0.1,0-0.3,0-0.5s0-0.3,0-0.5c0-0.2,0.1-0.3,0.1-0.5s0.1-0.3,0.2-0.4s0.2-0.2,0.3-0.3
	s0.3-0.1,0.5-0.1s0.4,0,0.5,0.1c0.1,0.1,0.2,0.2,0.3,0.3c0.1,0.1,0.2,0.3,0.2,0.4c0,0.2,0.1,0.3,0.1,0.5c0,0.2,0,0.3,0,0.5
	c0,0.2,0,0.3,0,0.5c0,0.2,0,0.5,0,0.7s-0.1,0.5-0.1,0.7c-0.1,0.2-0.2,0.4-0.3,0.6s-0.4,0.2-0.7,0.2c-0.3,0-0.5-0.1-0.7-0.2
	c-0.2-0.2-0.3-0.4-0.3-0.6c-0.1-0.2-0.1-0.5-0.1-0.7C183.7,44.2,183.7,44,183.7,43.8z M183,43.8c0,0.2,0,0.4,0,0.6
	c0,0.2,0,0.4,0.1,0.7s0.1,0.4,0.2,0.6c0.1,0.2,0.2,0.4,0.3,0.5c0.1,0.1,0.3,0.3,0.5,0.3c0.2,0.1,0.5,0.1,0.8,0.1
	c0.3,0,0.6,0,0.8-0.1c0.2-0.1,0.4-0.2,0.5-0.3s0.2-0.3,0.3-0.5c0.1-0.2,0.1-0.4,0.2-0.6c0-0.2,0.1-0.4,0.1-0.7c0-0.2,0-0.4,0-0.6
	s0-0.4,0-0.6s0-0.4-0.1-0.7c0-0.2-0.1-0.4-0.2-0.6s-0.2-0.4-0.3-0.5c-0.1-0.1-0.3-0.3-0.5-0.3s-0.5-0.1-0.8-0.1s-0.5,0-0.8,0.1
	c-0.2,0.1-0.4,0.2-0.5,0.3c-0.1,0.1-0.2,0.3-0.3,0.5s-0.1,0.4-0.2,0.6s-0.1,0.4-0.1,0.7S183,43.6,183,43.8z M187.8,45.7v0.9h0.9
	v-0.9H187.8z M190.4,45.2h-0.7c0,0.5,0.2,0.9,0.5,1.1s0.7,0.4,1.2,0.4c0.7,0,1.2-0.3,1.5-0.8s0.5-1.3,0.5-2.3c0-0.5-0.1-1-0.2-1.3
	c-0.1-0.3-0.2-0.6-0.4-0.8s-0.4-0.3-0.6-0.4c-0.2-0.1-0.5-0.1-0.8-0.1c-0.3,0-0.5,0-0.8,0.1c-0.2,0.1-0.4,0.2-0.6,0.4
	c-0.2,0.2-0.3,0.4-0.4,0.6s-0.1,0.5-0.1,0.7c0,0.3,0,0.5,0.1,0.8c0.1,0.2,0.2,0.4,0.3,0.6c0.2,0.2,0.3,0.3,0.6,0.4
	c0.2,0.1,0.5,0.1,0.8,0.1c0.3,0,0.5-0.1,0.8-0.2s0.4-0.3,0.5-0.6l0,0c0,0.7-0.1,1.3-0.3,1.7c-0.2,0.4-0.5,0.5-0.9,0.5
	c-0.3,0-0.5-0.1-0.7-0.2C190.5,45.7,190.4,45.5,190.4,45.2z M192.6,42.8c0,0.2,0,0.3-0.1,0.5s-0.1,0.3-0.2,0.4
	c-0.1,0.1-0.2,0.2-0.4,0.3s-0.3,0.1-0.5,0.1c-0.2,0-0.3,0-0.5-0.1s-0.3-0.2-0.4-0.3s-0.2-0.2-0.2-0.4s-0.1-0.3-0.1-0.4
	c0-0.2,0-0.3,0.1-0.5c0-0.2,0.1-0.3,0.2-0.4c0.1-0.1,0.2-0.2,0.3-0.3c0.1-0.1,0.3-0.1,0.5-0.1c0.2,0,0.4,0,0.5,0.1s0.3,0.2,0.4,0.3
	c0.1,0.1,0.2,0.3,0.2,0.4C192.6,42.5,192.6,42.6,192.6,42.8z M194.9,45.2h-0.7c0,0.5,0.2,0.9,0.5,1.1s0.7,0.4,1.2,0.4
	c0.7,0,1.2-0.3,1.5-0.8s0.5-1.3,0.5-2.3c0-0.5-0.1-1-0.2-1.3c-0.1-0.3-0.2-0.6-0.4-0.8s-0.4-0.3-0.6-0.4c-0.2-0.1-0.5-0.1-0.8-0.1
	c-0.3,0-0.5,0-0.8,0.1c-0.2,0.1-0.4,0.2-0.6,0.4c-0.2,0.2-0.3,0.4-0.4,0.6s-0.1,0.5-0.1,0.7c0,0.3,0,0.5,0.1,0.8
	c0.1,0.2,0.2,0.4,0.3,0.6c0.2,0.2,0.3,0.3,0.6,0.4c0.2,0.1,0.5,0.1,0.8,0.1c0.3,0,0.5-0.1,0.8-0.2s0.4-0.3,0.5-0.6l0,0
	c0,0.7-0.1,1.3-0.3,1.7c-0.2,0.4-0.5,0.5-0.9,0.5c-0.3,0-0.5-0.1-0.7-0.2C195,45.7,194.9,45.5,194.9,45.2z M197.1,42.8
	c0,0.2,0,0.3-0.1,0.5s-0.1,0.3-0.2,0.4c-0.1,0.1-0.2,0.2-0.4,0.3c-0.1,0.1-0.3,0.1-0.5,0.1c-0.2,0-0.3,0-0.5-0.1s-0.3-0.2-0.4-0.3
	s-0.2-0.2-0.2-0.4s-0.1-0.3-0.1-0.4c0-0.2,0-0.3,0.1-0.5c0-0.2,0.1-0.3,0.2-0.4c0.1-0.1,0.2-0.2,0.3-0.3c0.1-0.1,0.3-0.1,0.5-0.1
	c0.2,0,0.4,0,0.5,0.1s0.3,0.2,0.4,0.3c0.1,0.1,0.2,0.3,0.2,0.4C197,42.5,197.1,42.6,197.1,42.8z M202,41.6V41h-2.8l-0.5,2.9l0.6,0
	c0.1-0.2,0.3-0.3,0.5-0.4c0.2-0.1,0.4-0.1,0.6-0.1c0.2,0,0.4,0,0.5,0.1c0.2,0.1,0.3,0.2,0.4,0.3s0.2,0.3,0.3,0.4
	c0.1,0.2,0.1,0.3,0.1,0.5c0,0.2,0,0.4-0.1,0.6c-0.1,0.2-0.2,0.3-0.3,0.4s-0.2,0.2-0.4,0.3s-0.3,0.1-0.5,0.1c-0.2,0-0.3,0-0.5-0.1
	c-0.1-0.1-0.3-0.1-0.4-0.2c-0.1-0.1-0.2-0.2-0.2-0.3c-0.1-0.1-0.1-0.3-0.1-0.4h-0.7c0,0.3,0.1,0.5,0.2,0.7c0.1,0.2,0.2,0.4,0.4,0.5
	c0.2,0.1,0.4,0.2,0.6,0.3c0.2,0.1,0.4,0.1,0.7,0.1c0.3,0,0.6-0.1,0.9-0.2c0.2-0.1,0.5-0.2,0.6-0.4s0.3-0.4,0.4-0.6
	c0.1-0.2,0.1-0.5,0.1-0.7c0-0.3,0-0.6-0.1-0.9c-0.1-0.2-0.2-0.4-0.4-0.6c-0.2-0.2-0.4-0.3-0.6-0.4c-0.2-0.1-0.5-0.1-0.7-0.1
	c-0.2,0-0.4,0-0.6,0.1c-0.2,0.1-0.4,0.2-0.5,0.3l0,0l0.3-1.6H202z"/>
<path class="st6" d="M201.5,14.7V9H201c0,0.2-0.1,0.4-0.2,0.5c-0.1,0.1-0.2,0.2-0.4,0.3s-0.3,0.1-0.5,0.2c-0.2,0-0.4,0-0.6,0v0.5
	h1.5v4.1H201.5z"/>
<path d="M253.2,6.8c-0.1,0-0.1,0-0.1-0.1c0,0,0-0.1,0-0.1c0,0,0-0.1,0-0.1c0,0,0,0,0.1,0c0.6,0,1-0.2,1.1-0.6l1.4-5.5
	c-0.2,0-0.5,0-0.9,0c-0.1,0-0.1,0-0.1-0.1c0,0,0-0.1,0-0.1c0,0,0-0.1,0-0.1c0,0,0,0,0.1,0h1.7c0.1,0,0.1,0,0.1,0.1l2.2,5.3l1.1-4.4
	c0-0.1,0-0.1,0-0.2c0-0.3-0.3-0.4-0.8-0.4c-0.1,0-0.1,0-0.1-0.1c0-0.1,0-0.1,0.1-0.2c0,0,0.1,0,0.1,0h2.1c0.1,0,0.1,0,0.1,0.1
	c0,0,0,0.1,0,0.1c0,0,0,0.1,0,0.1c0,0,0,0-0.1,0c-0.6,0-1,0.2-1.1,0.6l-1.4,5.8c0,0.1-0.1,0.1-0.1,0.1h-0.1c0,0-0.1,0-0.1-0.1
	L256,0.7l0-0.1c0,0,0,0,0,0l-1.3,5.3c0,0,0,0,0,0.1c0,0,0,0.1,0,0.1c0,0.2,0.1,0.3,0.2,0.3c0.1,0.1,0.3,0.1,0.6,0.1
	c0.1,0,0.1,0,0.1,0.1c0,0.1,0,0.2-0.1,0.2c0,0-0.1,0-0.1,0H253.2z"/>
<path d="M265.4,5.5c-0.1,0-0.1,0-0.1-0.1c0,0-0.1-0.1-0.1-0.1c0-0.1,0-0.1,0.1-0.1c0,0,0.1-0.1,0.1-0.1h6.3c0.1,0,0.1,0,0.1,0.1
	s0.1,0.1,0.1,0.1c0,0.1,0,0.1-0.1,0.1c0,0-0.1,0.1-0.1,0.1H265.4z M265.4,3.6c-0.1,0-0.1,0-0.1-0.1c0,0-0.1-0.1-0.1-0.1
	c0-0.1,0-0.1,0.1-0.1c0,0,0.1-0.1,0.1-0.1h6.3c0.1,0,0.1,0,0.1,0.1s0.1,0.1,0.1,0.1c0,0.1,0,0.1-0.1,0.1c0,0-0.1,0.1-0.1,0.1H265.4z
	"/>
<path d="M275.5,5.2V4.8l3.1-4.6c0,0,0.1,0,0.1,0h0.2c0.1,0,0.1,0,0.1,0.1v4.5h1v0.3h-1v1c0,0.1,0.1,0.2,0.3,0.3
	c0.2,0,0.4,0.1,0.7,0.1v0.4h-2.8V6.5c0.2,0,0.5,0,0.7-0.1c0.2,0,0.3-0.1,0.3-0.3v-1H275.5z M275.9,4.8h2.4V1.3L275.9,4.8z"/>
<path d="M282.8,7c-0.8,0-1.4-0.3-1.7-1c-0.3-0.7-0.4-1.5-0.4-2.4c0-0.6,0.1-1.1,0.2-1.6c0.1-0.5,0.3-0.9,0.6-1.3
	c0.3-0.4,0.8-0.5,1.3-0.5c0.4,0,0.8,0.1,1.1,0.3c0.3,0.2,0.5,0.5,0.6,0.8c0.1,0.3,0.2,0.7,0.3,1.1c0.1,0.4,0.1,0.8,0.1,1.2
	c0,0.6-0.1,1.1-0.2,1.6c-0.1,0.5-0.3,0.9-0.6,1.3C283.8,6.9,283.4,7,282.8,7z M282.8,6.8c0.4,0,0.7-0.2,0.8-0.6
	c0.2-0.4,0.3-0.8,0.3-1.3c0-0.5,0.1-0.9,0.1-1.5c0-0.5,0-1-0.1-1.4c0-0.4-0.2-0.8-0.3-1.1c-0.2-0.3-0.5-0.5-0.8-0.5
	s-0.7,0.2-0.8,0.5c-0.2,0.3-0.3,0.7-0.3,1.1c0,0.4-0.1,0.9-0.1,1.4c0,0.4,0,0.7,0,1c0,0.3,0.1,0.7,0.1,1c0.1,0.4,0.2,0.6,0.4,0.9
	C282.3,6.7,282.5,6.8,282.8,6.8z"/>
<path class="st7" d="M206.5,28.3l6.6,3.4l6.6,3.3l6.6,3.3l6.6,3.2l6.6,3.2l6.6,3.1l6.6,3.1l6.6,3.1l6.6,3l6.6,3l6.6,2.9l6.6,2.9
	l6.6,2.9l6.6,2.8l6.6,2.8l6.6,2.7l6.6,2.7l6.6,2.7l6.6,2.6"/>
<path class="st8" d="M206.5,11.7l6.6,3.6l6.6,3.6l6.6,3.5l6.6,3.5l6.6,3.4l6.6,3.4l6.6,3.3l6.6,3.3l6.6,3.2l6.6,3.2l6.6,3.1l6.6,3.1
	l6.6,3l6.6,3l6.6,3l6.6,2.9l6.6,2.9l6.6,2.8l6.6,2.8"/>
<line class="st9" x1="205.3" y1="51.2" x2="332.8" y2="51.2"/>
<path class="st6" d="M211.4,59.5c0-0.3,0-0.6,0.1-1c0.1-0.3,0.2-0.6,0.4-0.8c0.2-0.2,0.4-0.5,0.7-0.6c0.3-0.2,0.6-0.2,1-0.2
	s0.7,0.1,1,0.2c0.3,0.2,0.5,0.4,0.7,0.6c0.2,0.2,0.3,0.5,0.4,0.8c0.1,0.3,0.1,0.6,0.1,1c0,0.3,0,0.6-0.1,1c-0.1,0.3-0.2,0.6-0.4,0.8
	c-0.2,0.2-0.4,0.5-0.7,0.6c-0.3,0.2-0.6,0.2-1,0.2s-0.7-0.1-1-0.2c-0.3-0.2-0.5-0.4-0.7-0.6c-0.2-0.2-0.3-0.5-0.4-0.8
	C211.5,60.2,211.4,59.9,211.4,59.5z M210.6,59.5c0,0.4,0.1,0.9,0.2,1.3s0.3,0.8,0.6,1.1c0.3,0.3,0.6,0.6,1,0.7
	c0.4,0.2,0.8,0.3,1.3,0.3c0.5,0,0.9-0.1,1.3-0.3c0.4-0.2,0.7-0.4,1-0.7c0.3-0.3,0.4-0.7,0.6-1.1c0.1-0.4,0.2-0.8,0.2-1.3
	s-0.1-0.9-0.2-1.3c-0.1-0.4-0.3-0.8-0.6-1.1c-0.3-0.3-0.6-0.6-1-0.7c-0.4-0.2-0.8-0.3-1.3-0.3c-0.5,0-0.9,0.1-1.3,0.3
	c-0.4,0.2-0.7,0.4-1,0.7c-0.3,0.3-0.4,0.7-0.6,1.1S210.6,59.1,210.6,59.5z M217.6,58.1v6.4h0.8v-2.4h0c0.1,0.1,0.2,0.3,0.3,0.3
	c0.1,0.1,0.3,0.2,0.4,0.2c0.1,0.1,0.3,0.1,0.4,0.1c0.1,0,0.3,0,0.4,0c0.4,0,0.7-0.1,0.9-0.2c0.3-0.1,0.5-0.3,0.7-0.5
	c0.2-0.2,0.3-0.5,0.4-0.8c0.1-0.3,0.1-0.6,0.1-0.9c0-0.3,0-0.6-0.1-0.9c-0.1-0.3-0.2-0.5-0.4-0.8c-0.2-0.2-0.4-0.4-0.7-0.5
	c-0.3-0.1-0.6-0.2-0.9-0.2c-0.3,0-0.6,0.1-0.9,0.2c-0.3,0.1-0.5,0.3-0.6,0.6h0v-0.6H217.6z M221.2,60.4c0,0.2,0,0.4-0.1,0.7
	c0,0.2-0.1,0.4-0.2,0.6c-0.1,0.2-0.2,0.3-0.4,0.4c-0.2,0.1-0.4,0.2-0.7,0.2c-0.3,0-0.5,0-0.7-0.1c-0.2-0.1-0.3-0.2-0.5-0.4
	c-0.1-0.2-0.2-0.3-0.3-0.6c-0.1-0.2-0.1-0.4-0.1-0.7c0-0.2,0-0.4,0.1-0.6c0.1-0.2,0.1-0.4,0.2-0.6c0.1-0.2,0.3-0.3,0.4-0.4
	c0.2-0.1,0.4-0.2,0.7-0.2c0.2,0,0.5,0,0.6,0.1c0.2,0.1,0.3,0.2,0.4,0.4c0.1,0.2,0.2,0.3,0.3,0.5C221.2,60,221.2,60.2,221.2,60.4z
	 M224,58.1v-1.4h-0.8v1.4h-0.8v0.7h0.8v2.9c0,0.2,0,0.4,0.1,0.5c0,0.1,0.1,0.2,0.2,0.3c0.1,0.1,0.2,0.1,0.3,0.1c0.1,0,0.3,0,0.5,0
	h0.6v-0.7h-0.3c-0.1,0-0.2,0-0.3,0c-0.1,0-0.1,0-0.2-0.1c0,0-0.1-0.1-0.1-0.1c0-0.1,0-0.1,0-0.2v-2.9h0.9v-0.7H224z M226.5,57.3
	v-0.9h-0.8v0.9H226.5z M225.8,58.1v4.6h0.8v-4.6H225.8z M227.7,58.1v4.6h0.8v-2.9c0-0.1,0-0.2,0.1-0.3s0.1-0.3,0.2-0.4
	c0.1-0.1,0.2-0.2,0.4-0.3c0.2-0.1,0.3-0.1,0.6-0.1c0.2,0,0.3,0,0.4,0.1c0.1,0.1,0.2,0.1,0.3,0.2c0.1,0.1,0.1,0.2,0.1,0.3
	c0,0.1,0,0.3,0,0.4v3h0.8v-2.9c0-0.4,0.1-0.6,0.3-0.9c0.2-0.2,0.5-0.3,0.9-0.3c0.2,0,0.3,0,0.5,0.1c0.1,0.1,0.2,0.1,0.3,0.2
	s0.1,0.2,0.1,0.3c0,0.1,0,0.3,0,0.4v3h0.8v-3.4c0-0.2,0-0.4-0.1-0.6c-0.1-0.2-0.2-0.3-0.3-0.4c-0.1-0.1-0.3-0.2-0.5-0.2
	s-0.4-0.1-0.6-0.1c-0.3,0-0.6,0.1-0.8,0.2c-0.3,0.1-0.5,0.3-0.6,0.6c-0.1-0.3-0.3-0.5-0.5-0.6c-0.2-0.1-0.5-0.2-0.8-0.2
	c-0.6,0-1.1,0.3-1.5,0.8h0v-0.7H227.7z M239.4,62.7c-0.1,0.1-0.3,0.1-0.5,0.1c-0.2,0-0.4-0.1-0.5-0.2c-0.1-0.1-0.2-0.3-0.2-0.5
	c-0.2,0.2-0.5,0.4-0.7,0.5c-0.3,0.1-0.6,0.2-0.9,0.2c-0.2,0-0.4,0-0.6-0.1c-0.2,0-0.3-0.1-0.5-0.2c-0.1-0.1-0.2-0.2-0.3-0.4
	c-0.1-0.2-0.1-0.4-0.1-0.6c0-0.3,0-0.5,0.1-0.6s0.2-0.3,0.4-0.4c0.1-0.1,0.3-0.2,0.5-0.2c0.2-0.1,0.4-0.1,0.6-0.1
	c0.2,0,0.4-0.1,0.6-0.1c0.2,0,0.4-0.1,0.5-0.1s0.3-0.1,0.3-0.2s0.1-0.2,0.1-0.3c0-0.2,0-0.3-0.1-0.4c-0.1-0.1-0.1-0.2-0.2-0.2
	c-0.1-0.1-0.2-0.1-0.3-0.1c-0.1,0-0.2,0-0.4,0c-0.3,0-0.6,0.1-0.8,0.2c-0.2,0.1-0.3,0.4-0.3,0.7h-0.8c0-0.3,0.1-0.5,0.2-0.7
	c0.1-0.2,0.2-0.4,0.4-0.5c0.2-0.1,0.4-0.2,0.6-0.3c0.2-0.1,0.5-0.1,0.7-0.1c0.2,0,0.4,0,0.6,0c0.2,0,0.4,0.1,0.6,0.2
	c0.2,0.1,0.3,0.2,0.4,0.4c0.1,0.2,0.2,0.4,0.2,0.7v2.4c0,0.2,0,0.3,0,0.4c0,0.1,0.1,0.1,0.2,0.1c0.1,0,0.1,0,0.2,0V62.7z
	 M238.2,60.3c-0.1,0.1-0.2,0.1-0.4,0.2c-0.2,0-0.3,0.1-0.5,0.1c-0.2,0-0.3,0-0.5,0.1c-0.2,0-0.3,0.1-0.5,0.1
	c-0.1,0.1-0.2,0.1-0.3,0.3c-0.1,0.1-0.1,0.3-0.1,0.5c0,0.1,0,0.2,0.1,0.3c0.1,0.1,0.1,0.2,0.2,0.2c0.1,0.1,0.2,0.1,0.3,0.1
	c0.1,0,0.2,0,0.3,0c0.2,0,0.5,0,0.6-0.1c0.2-0.1,0.3-0.2,0.4-0.3c0.1-0.1,0.2-0.2,0.2-0.3c0.1-0.1,0.1-0.2,0.1-0.3V60.3z
	 M240.1,56.4v6.4h0.8v-6.4H240.1z"/>
<line class="st10" x1="252.4" y1="139.2" x2="252.4" y2="11.7"/>
<line class="st11" x1="285.6" y1="139.2" x2="285.6" y2="11.7"/>
<line class="st5" x1="364.5" y1="139.2" x2="492" y2="139.2"/>
<line class="st5" x1="364.5" y1="11.7" x2="492" y2="11.7"/>
<line class="st5" x1="364.5" y1="139.2" x2="364.5" y2="137.9"/>
<line class="st5" x1="428.3" y1="139.2" x2="428.3" y2="137.9"/>
<line class="st5" x1="492" y1="139.2" x2="492" y2="137.9"/>
<line class="st5" x1="364.5" y1="11.7" x2="364.5" y2="13"/>
<line class="st5" x1="428.3" y1="11.7" x2="428.3" y2="13"/>
<line class="st5" x1="492" y1="11.7" x2="492" y2="13"/>
<path class="st6" d="M363.1,146c0-0.1,0-0.3,0-0.5c0-0.2,0-0.3,0-0.5c0-0.2,0.1-0.3,0.1-0.5c0-0.2,0.1-0.3,0.2-0.4
	c0.1-0.1,0.2-0.2,0.3-0.3s0.3-0.1,0.5-0.1c0.2,0,0.4,0,0.5,0.1s0.2,0.2,0.3,0.3c0.1,0.1,0.2,0.3,0.2,0.4c0,0.2,0.1,0.3,0.1,0.5
	c0,0.2,0,0.3,0,0.5c0,0.2,0,0.3,0,0.5c0,0.2,0,0.5,0,0.7c0,0.3-0.1,0.5-0.1,0.7c-0.1,0.2-0.2,0.4-0.3,0.6s-0.4,0.2-0.7,0.2
	s-0.5-0.1-0.7-0.2s-0.3-0.4-0.3-0.6c-0.1-0.2-0.1-0.5-0.1-0.7C363.1,146.5,363.1,146.2,363.1,146z M362.3,146c0,0.2,0,0.4,0,0.6
	c0,0.2,0,0.4,0.1,0.7s0.1,0.4,0.2,0.6s0.2,0.4,0.3,0.5s0.3,0.3,0.5,0.3c0.2,0.1,0.5,0.1,0.8,0.1c0.3,0,0.6,0,0.8-0.1
	c0.2-0.1,0.4-0.2,0.5-0.3s0.2-0.3,0.3-0.5c0.1-0.2,0.1-0.4,0.2-0.6s0.1-0.4,0.1-0.7c0-0.2,0-0.4,0-0.6c0-0.2,0-0.4,0-0.6
	c0-0.2,0-0.4-0.1-0.7s-0.1-0.4-0.2-0.6c-0.1-0.2-0.2-0.4-0.3-0.5c-0.1-0.1-0.3-0.3-0.5-0.3c-0.2-0.1-0.5-0.1-0.8-0.1s-0.5,0-0.8,0.1
	s-0.4,0.2-0.5,0.3c-0.1,0.1-0.2,0.3-0.3,0.5c-0.1,0.2-0.1,0.4-0.2,0.6s-0.1,0.4-0.1,0.7C362.4,145.6,362.3,145.8,362.3,146z"/>
<path class="st6" d="M423.3,146c0-0.1,0-0.3,0-0.5c0-0.2,0-0.3,0-0.5c0-0.2,0.1-0.3,0.1-0.5c0-0.2,0.1-0.3,0.2-0.4
	c0.1-0.1,0.2-0.2,0.3-0.3s0.3-0.1,0.5-0.1c0.2,0,0.4,0,0.5,0.1s0.2,0.2,0.3,0.3c0.1,0.1,0.2,0.3,0.2,0.4c0,0.2,0.1,0.3,0.1,0.5
	c0,0.2,0,0.3,0,0.5c0,0.2,0,0.3,0,0.5c0,0.2,0,0.5,0,0.7c0,0.3-0.1,0.5-0.1,0.7c-0.1,0.2-0.2,0.4-0.3,0.6s-0.4,0.2-0.7,0.2
	s-0.5-0.1-0.7-0.2s-0.3-0.4-0.3-0.6c-0.1-0.2-0.1-0.5-0.1-0.7C423.3,146.5,423.3,146.2,423.3,146z M422.6,146c0,0.2,0,0.4,0,0.6
	c0,0.2,0,0.4,0.1,0.7s0.1,0.4,0.2,0.6c0.1,0.2,0.2,0.4,0.3,0.5s0.3,0.3,0.5,0.3c0.2,0.1,0.5,0.1,0.8,0.1c0.3,0,0.6,0,0.8-0.1
	c0.2-0.1,0.4-0.2,0.5-0.3s0.2-0.3,0.3-0.5c0.1-0.2,0.1-0.4,0.2-0.6s0.1-0.4,0.1-0.7c0-0.2,0-0.4,0-0.6c0-0.2,0-0.4,0-0.6
	c0-0.2,0-0.4-0.1-0.7s-0.1-0.4-0.2-0.6c-0.1-0.2-0.2-0.4-0.3-0.5c-0.1-0.1-0.3-0.3-0.5-0.3c-0.2-0.1-0.5-0.1-0.8-0.1s-0.5,0-0.8,0.1
	s-0.4,0.2-0.5,0.3c-0.1,0.1-0.2,0.3-0.3,0.5c-0.1,0.2-0.1,0.4-0.2,0.6s-0.1,0.4-0.1,0.7C422.6,145.6,422.6,145.8,422.6,146z
	 M427.4,147.9v0.9h0.9v-0.9H427.4z M432.7,143.8v-0.6h-2.8l-0.5,2.9l0.6,0c0.1-0.2,0.3-0.3,0.5-0.4c0.2-0.1,0.4-0.1,0.6-0.1
	c0.2,0,0.4,0,0.5,0.1c0.2,0.1,0.3,0.2,0.4,0.3s0.2,0.3,0.3,0.4c0.1,0.2,0.1,0.3,0.1,0.5c0,0.2,0,0.4-0.1,0.6
	c-0.1,0.2-0.2,0.3-0.3,0.4s-0.2,0.2-0.4,0.3s-0.3,0.1-0.5,0.1c-0.2,0-0.3,0-0.5-0.1c-0.1-0.1-0.3-0.1-0.4-0.2s-0.2-0.2-0.2-0.3
	s-0.1-0.3-0.1-0.4h-0.7c0,0.3,0.1,0.5,0.2,0.7c0.1,0.2,0.2,0.4,0.4,0.5c0.2,0.1,0.4,0.2,0.6,0.3c0.2,0.1,0.4,0.1,0.7,0.1
	c0.3,0,0.6-0.1,0.9-0.2c0.2-0.1,0.5-0.2,0.6-0.4c0.2-0.2,0.3-0.4,0.4-0.6s0.1-0.5,0.1-0.7c0-0.3,0-0.6-0.1-0.9
	c-0.1-0.2-0.2-0.4-0.4-0.6c-0.2-0.2-0.4-0.3-0.6-0.4s-0.5-0.1-0.7-0.1c-0.2,0-0.4,0-0.6,0.1s-0.4,0.2-0.5,0.3l0,0l0.3-1.6H432.7z"/>
<path class="st6" d="M492.4,148.8v-5.7h-0.5c0,0.2-0.1,0.4-0.2,0.5c-0.1,0.1-0.2,0.2-0.4,0.3s-0.3,0.1-0.5,0.2c-0.2,0-0.4,0-0.6,0
	v0.5h1.5v4.1H492.4z"/>
<line class="st5" x1="364.5" y1="139.2" x2="364.5" y2="11.7"/>
<line class="st5" x1="492" y1="139.2" x2="492" y2="11.7"/>
<line class="st5" x1="364.5" y1="139.2" x2="365.8" y2="139.2"/>
<line class="st5" x1="364.5" y1="96.7" x2="365.8" y2="96.7"/>
<line class="st5" x1="364.5" y1="54.2" x2="365.8" y2="54.2"/>
<line class="st5" x1="364.5" y1="11.7" x2="365.8" y2="11.7"/>
<line class="st5" x1="492" y1="139.2" x2="490.7" y2="139.2"/>
<line class="st5" x1="492" y1="96.7" x2="490.7" y2="96.7"/>
<line class="st5" x1="492" y1="54.2" x2="490.7" y2="54.2"/>
<line class="st5" x1="492" y1="11.7" x2="490.7" y2="11.7"/>
<path class="st6" d="M348,139.4c0-0.1,0-0.3,0-0.5c0-0.2,0-0.3,0-0.5c0-0.2,0.1-0.3,0.1-0.5c0-0.2,0.1-0.3,0.2-0.4
	c0.1-0.1,0.2-0.2,0.3-0.3s0.3-0.1,0.5-0.1c0.2,0,0.4,0,0.5,0.1s0.2,0.2,0.3,0.3c0.1,0.1,0.2,0.3,0.2,0.4c0,0.2,0.1,0.3,0.1,0.5
	c0,0.2,0,0.3,0,0.5c0,0.2,0,0.3,0,0.5c0,0.2,0,0.5,0,0.7c0,0.3-0.1,0.5-0.1,0.7c-0.1,0.2-0.2,0.4-0.3,0.6s-0.4,0.2-0.7,0.2
	s-0.5-0.1-0.7-0.2s-0.3-0.4-0.3-0.6c-0.1-0.2-0.1-0.5-0.1-0.7C348,139.9,348,139.6,348,139.4z M347.2,139.4c0,0.2,0,0.4,0,0.6
	c0,0.2,0,0.4,0.1,0.7s0.1,0.4,0.2,0.6s0.2,0.4,0.3,0.5s0.3,0.3,0.5,0.3c0.2,0.1,0.5,0.1,0.8,0.1c0.3,0,0.6,0,0.8-0.1
	c0.2-0.1,0.4-0.2,0.5-0.3s0.2-0.3,0.3-0.5c0.1-0.2,0.1-0.4,0.2-0.6s0.1-0.4,0.1-0.7c0-0.2,0-0.4,0-0.6c0-0.2,0-0.4,0-0.6
	c0-0.2,0-0.4-0.1-0.7s-0.1-0.4-0.2-0.6c-0.1-0.2-0.2-0.4-0.3-0.5c-0.1-0.1-0.3-0.3-0.5-0.3c-0.2-0.1-0.5-0.1-0.8-0.1s-0.5,0-0.8,0.1
	s-0.4,0.2-0.5,0.3c-0.1,0.1-0.2,0.3-0.3,0.5c-0.1,0.2-0.1,0.4-0.2,0.6s-0.1,0.4-0.1,0.7C347.3,139,347.2,139.2,347.2,139.4z
	 M352,141.3v0.9h0.9v-0.9H352z M354.8,138c0-0.1,0-0.3,0.1-0.4c0.1-0.1,0.1-0.2,0.2-0.3c0.1-0.1,0.2-0.1,0.3-0.2
	c0.1,0,0.3-0.1,0.4-0.1c0.3,0,0.5,0.1,0.7,0.2c0.2,0.1,0.3,0.4,0.3,0.7c0,0.3-0.1,0.5-0.3,0.7c-0.2,0.2-0.4,0.2-0.7,0.2
	c-0.1,0-0.3,0-0.4-0.1c-0.1,0-0.2-0.1-0.3-0.2s-0.2-0.2-0.2-0.3C354.9,138.3,354.8,138.2,354.8,138z M354.1,138
	c0,0.3,0.1,0.5,0.2,0.7c0.1,0.2,0.3,0.4,0.6,0.5c-0.3,0.1-0.6,0.3-0.7,0.5c-0.2,0.2-0.3,0.5-0.3,0.9c0,0.3,0,0.5,0.1,0.8
	s0.2,0.4,0.4,0.5c0.2,0.1,0.4,0.3,0.6,0.3c0.2,0.1,0.5,0.1,0.8,0.1c0.3,0,0.5,0,0.7-0.1c0.2-0.1,0.4-0.2,0.6-0.3s0.3-0.3,0.4-0.5
	c0.1-0.2,0.1-0.5,0.1-0.7c0-0.4-0.1-0.6-0.2-0.9c-0.2-0.2-0.4-0.4-0.8-0.5c0.2-0.1,0.4-0.3,0.6-0.5c0.1-0.2,0.2-0.4,0.2-0.7
	c0-0.2,0-0.4-0.1-0.5c-0.1-0.2-0.2-0.3-0.3-0.5c-0.1-0.1-0.3-0.2-0.5-0.3c-0.2-0.1-0.5-0.1-0.8-0.1c-0.2,0-0.4,0-0.6,0.1
	s-0.4,0.2-0.5,0.3c-0.2,0.1-0.3,0.3-0.4,0.5S354.1,137.7,354.1,138z M354.6,140.6c0-0.2,0-0.3,0.1-0.4c0.1-0.1,0.1-0.2,0.3-0.3
	c0.1-0.1,0.2-0.2,0.4-0.2c0.1-0.1,0.3-0.1,0.5-0.1c0.2,0,0.3,0,0.5,0.1c0.1,0.1,0.3,0.1,0.4,0.2s0.2,0.2,0.3,0.3
	c0.1,0.1,0.1,0.3,0.1,0.4c0,0.2,0,0.3-0.1,0.4c-0.1,0.1-0.1,0.2-0.2,0.3c-0.1,0.1-0.2,0.2-0.4,0.2s-0.3,0.1-0.5,0.1
	c-0.4,0-0.6-0.1-0.9-0.3C354.7,141.2,354.6,140.9,354.6,140.6z M361.8,137.2v-0.6H359l-0.5,2.9l0.6,0c0.1-0.2,0.3-0.3,0.5-0.4
	c0.2-0.1,0.4-0.1,0.6-0.1c0.2,0,0.4,0,0.5,0.1c0.2,0.1,0.3,0.2,0.4,0.3s0.2,0.3,0.3,0.4c0.1,0.2,0.1,0.3,0.1,0.5
	c0,0.2,0,0.4-0.1,0.6c-0.1,0.2-0.2,0.3-0.3,0.4s-0.2,0.2-0.4,0.3s-0.3,0.1-0.5,0.1c-0.2,0-0.3,0-0.5-0.1c-0.1-0.1-0.3-0.1-0.4-0.2
	s-0.2-0.2-0.2-0.3s-0.1-0.3-0.1-0.4h-0.7c0,0.3,0.1,0.5,0.2,0.7s0.2,0.4,0.4,0.5c0.2,0.1,0.4,0.2,0.6,0.3c0.2,0.1,0.4,0.1,0.7,0.1
	c0.3,0,0.6-0.1,0.9-0.2c0.2-0.1,0.5-0.2,0.6-0.4c0.2-0.2,0.3-0.4,0.4-0.6s0.1-0.5,0.1-0.7c0-0.3,0-0.6-0.1-0.9
	c-0.1-0.2-0.2-0.4-0.4-0.6c-0.2-0.2-0.4-0.3-0.6-0.4c-0.2-0.1-0.5-0.1-0.7-0.1c-0.2,0-0.4,0-0.6,0.1s-0.4,0.2-0.5,0.3l0,0l0.3-1.6
	H361.8z"/>
<path class="st6" d="M352,96.9c0-0.1,0-0.3,0-0.5s0-0.3,0-0.5c0-0.2,0.1-0.3,0.1-0.5c0-0.2,0.1-0.3,0.2-0.4c0.1-0.1,0.2-0.2,0.3-0.3
	s0.3-0.1,0.5-0.1c0.2,0,0.4,0,0.5,0.1s0.2,0.2,0.3,0.3c0.1,0.1,0.2,0.3,0.2,0.4c0,0.2,0.1,0.3,0.1,0.5c0,0.2,0,0.3,0,0.5
	c0,0.2,0,0.3,0,0.5c0,0.2,0,0.5,0,0.7c0,0.3-0.1,0.5-0.1,0.7c-0.1,0.2-0.2,0.4-0.3,0.6c-0.2,0.2-0.4,0.2-0.7,0.2s-0.5-0.1-0.7-0.2
	c-0.2-0.2-0.3-0.4-0.3-0.6c-0.1-0.2-0.1-0.5-0.1-0.7S352,97.1,352,96.9z M351.2,96.9c0,0.2,0,0.4,0,0.6c0,0.2,0,0.4,0.1,0.7
	s0.1,0.4,0.2,0.6s0.2,0.4,0.3,0.5s0.3,0.3,0.5,0.3c0.2,0.1,0.5,0.1,0.8,0.1c0.3,0,0.6,0,0.8-0.1c0.2-0.1,0.4-0.2,0.5-0.3
	s0.2-0.3,0.3-0.5c0.1-0.2,0.1-0.4,0.2-0.6s0.1-0.4,0.1-0.7c0-0.2,0-0.4,0-0.6s0-0.4,0-0.6c0-0.2,0-0.4-0.1-0.7s-0.1-0.4-0.2-0.6
	c-0.1-0.2-0.2-0.4-0.3-0.5c-0.1-0.1-0.3-0.3-0.5-0.3c-0.2-0.1-0.5-0.1-0.8-0.1s-0.5,0-0.8,0.1s-0.4,0.2-0.5,0.3
	c-0.1,0.1-0.2,0.3-0.3,0.5s-0.1,0.4-0.2,0.6s-0.1,0.4-0.1,0.7C351.3,96.5,351.2,96.7,351.2,96.9z M356,98.8v0.9h0.9v-0.9H356z
	 M358.7,98.3H358c0,0.5,0.2,0.9,0.5,1.1c0.3,0.2,0.7,0.4,1.2,0.4c0.7,0,1.2-0.3,1.5-0.8c0.3-0.5,0.5-1.3,0.5-2.3
	c0-0.5-0.1-1-0.2-1.3c-0.1-0.3-0.2-0.6-0.4-0.8c-0.2-0.2-0.4-0.3-0.6-0.4c-0.2-0.1-0.5-0.1-0.8-0.1c-0.3,0-0.5,0-0.8,0.1
	c-0.2,0.1-0.4,0.2-0.6,0.4c-0.2,0.2-0.3,0.4-0.4,0.6s-0.1,0.5-0.1,0.7c0,0.3,0,0.5,0.1,0.8s0.2,0.4,0.3,0.6c0.2,0.2,0.3,0.3,0.6,0.4
	c0.2,0.1,0.5,0.1,0.8,0.1c0.3,0,0.5-0.1,0.8-0.2c0.2-0.1,0.4-0.3,0.5-0.6l0,0c0,0.7-0.1,1.3-0.3,1.7s-0.5,0.5-0.9,0.5
	c-0.3,0-0.5-0.1-0.7-0.2C358.8,98.8,358.7,98.6,358.7,98.3z M360.9,95.9c0,0.2,0,0.3-0.1,0.5c-0.1,0.2-0.1,0.3-0.2,0.4
	c-0.1,0.1-0.2,0.2-0.4,0.3c-0.1,0.1-0.3,0.1-0.5,0.1c-0.2,0-0.3,0-0.5-0.1c-0.1-0.1-0.3-0.2-0.4-0.3c-0.1-0.1-0.2-0.2-0.2-0.4
	s-0.1-0.3-0.1-0.4c0-0.2,0-0.3,0.1-0.5c0-0.2,0.1-0.3,0.2-0.4c0.1-0.1,0.2-0.2,0.3-0.3c0.1-0.1,0.3-0.1,0.5-0.1c0.2,0,0.4,0,0.5,0.1
	c0.1,0.1,0.3,0.2,0.4,0.3c0.1,0.1,0.2,0.3,0.2,0.4C360.8,95.6,360.9,95.7,360.9,95.9z"/>
<path class="st6" d="M348,54.4c0-0.1,0-0.3,0-0.5s0-0.3,0-0.5c0-0.2,0.1-0.3,0.1-0.5c0-0.2,0.1-0.3,0.2-0.4c0.1-0.1,0.2-0.2,0.3-0.3
	s0.3-0.1,0.5-0.1c0.2,0,0.4,0,0.5,0.1s0.2,0.2,0.3,0.3c0.1,0.1,0.2,0.3,0.2,0.4c0,0.2,0.1,0.3,0.1,0.5c0,0.2,0,0.3,0,0.5
	c0,0.2,0,0.3,0,0.5c0,0.2,0,0.5,0,0.7c0,0.3-0.1,0.5-0.1,0.7c-0.1,0.2-0.2,0.4-0.3,0.6s-0.4,0.2-0.7,0.2s-0.5-0.1-0.7-0.2
	s-0.3-0.4-0.3-0.6c-0.1-0.2-0.1-0.5-0.1-0.7S348,54.6,348,54.4z M347.2,54.4c0,0.2,0,0.4,0,0.6c0,0.2,0,0.4,0.1,0.7s0.1,0.4,0.2,0.6
	c0.1,0.2,0.2,0.4,0.3,0.5s0.3,0.3,0.5,0.3s0.5,0.1,0.8,0.1c0.3,0,0.6,0,0.8-0.1c0.2-0.1,0.4-0.2,0.5-0.3s0.2-0.3,0.3-0.5
	c0.1-0.2,0.1-0.4,0.2-0.6s0.1-0.4,0.1-0.7c0-0.2,0-0.4,0-0.6s0-0.4,0-0.6c0-0.2,0-0.4-0.1-0.7s-0.1-0.4-0.2-0.6
	c-0.1-0.2-0.2-0.4-0.3-0.5c-0.1-0.1-0.3-0.3-0.5-0.3c-0.2-0.1-0.5-0.1-0.8-0.1s-0.5,0-0.8,0.1s-0.4,0.2-0.5,0.3
	c-0.1,0.1-0.2,0.3-0.3,0.5s-0.1,0.4-0.2,0.6s-0.1,0.4-0.1,0.7C347.3,54,347.2,54.2,347.2,54.4z M352,56.3v0.9h0.9v-0.9H352z
	 M354.7,55.8H354c0,0.5,0.2,0.9,0.5,1.1s0.7,0.4,1.2,0.4c0.7,0,1.2-0.3,1.5-0.8s0.5-1.3,0.5-2.3c0-0.5-0.1-1-0.2-1.3
	c-0.1-0.3-0.2-0.6-0.4-0.8s-0.4-0.3-0.6-0.4c-0.2-0.1-0.5-0.1-0.8-0.1c-0.3,0-0.5,0-0.8,0.1s-0.4,0.2-0.6,0.4
	c-0.2,0.2-0.3,0.4-0.4,0.6s-0.1,0.5-0.1,0.7c0,0.3,0,0.5,0.1,0.8c0.1,0.2,0.2,0.4,0.3,0.6c0.2,0.2,0.3,0.3,0.6,0.4
	c0.2,0.1,0.5,0.1,0.8,0.1c0.3,0,0.5-0.1,0.8-0.2c0.2-0.1,0.4-0.3,0.5-0.6l0,0c0,0.7-0.1,1.3-0.3,1.7s-0.5,0.5-0.9,0.5
	c-0.3,0-0.5-0.1-0.7-0.2C354.8,56.3,354.7,56.1,354.7,55.8z M356.9,53.4c0,0.2,0,0.3-0.1,0.5c-0.1,0.2-0.1,0.3-0.2,0.4
	c-0.1,0.1-0.2,0.2-0.4,0.3c-0.1,0.1-0.3,0.1-0.5,0.1c-0.2,0-0.3,0-0.5-0.1c-0.1-0.1-0.3-0.2-0.4-0.3c-0.1-0.1-0.2-0.2-0.2-0.4
	s-0.1-0.3-0.1-0.4c0-0.2,0-0.3,0.1-0.5s0.1-0.3,0.2-0.4c0.1-0.1,0.2-0.2,0.3-0.3c0.1-0.1,0.3-0.1,0.5-0.1c0.2,0,0.4,0,0.5,0.1
	c0.1,0.1,0.3,0.2,0.4,0.3c0.1,0.1,0.2,0.3,0.2,0.4C356.8,53.1,356.9,53.2,356.9,53.4z M361.8,52.2v-0.6H359l-0.5,2.9l0.6,0
	c0.1-0.2,0.3-0.3,0.5-0.4c0.2-0.1,0.4-0.1,0.6-0.1c0.2,0,0.4,0,0.5,0.1c0.2,0.1,0.3,0.2,0.4,0.3s0.2,0.3,0.3,0.4
	c0.1,0.2,0.1,0.3,0.1,0.5c0,0.2,0,0.4-0.1,0.6c-0.1,0.2-0.2,0.3-0.3,0.4s-0.2,0.2-0.4,0.3s-0.3,0.1-0.5,0.1c-0.2,0-0.3,0-0.5-0.1
	c-0.1-0.1-0.3-0.1-0.4-0.2c-0.1-0.1-0.2-0.2-0.2-0.3c-0.1-0.1-0.1-0.3-0.1-0.4h-0.7c0,0.3,0.1,0.5,0.2,0.7s0.2,0.4,0.4,0.5
	c0.2,0.1,0.4,0.2,0.6,0.3c0.2,0.1,0.4,0.1,0.7,0.1c0.3,0,0.6-0.1,0.9-0.2c0.2-0.1,0.5-0.2,0.6-0.4c0.2-0.2,0.3-0.4,0.4-0.6
	s0.1-0.5,0.1-0.7c0-0.3,0-0.6-0.1-0.9c-0.1-0.2-0.2-0.4-0.4-0.6c-0.2-0.2-0.4-0.3-0.6-0.4c-0.2-0.1-0.5-0.1-0.7-0.1
	c-0.2,0-0.4,0-0.6,0.1c-0.2,0.1-0.4,0.2-0.5,0.3l0,0l0.3-1.6H361.8z"/>
<path class="st6" d="M360.8,14.7V9h-0.5c0,0.2-0.1,0.4-0.2,0.5c-0.1,0.1-0.2,0.2-0.4,0.3s-0.3,0.1-0.5,0.2c-0.2,0-0.4,0-0.6,0v0.5
	h1.5v4.1H360.8z"/>
<path d="M409.9,6.8c-0.1,0-0.1,0-0.1-0.1c0,0,0-0.1,0-0.1c0,0,0-0.1,0-0.1c0,0,0,0,0.1,0c0.6,0,1-0.2,1.1-0.6l1.4-5.5
	c-0.2,0-0.5,0-0.9,0c-0.1,0-0.1,0-0.1-0.1c0,0,0-0.1,0-0.1c0,0,0-0.1,0-0.1c0,0,0,0,0.1,0h1.7c0.1,0,0.1,0,0.1,0.1l2.2,5.3l1.1-4.4
	c0-0.1,0-0.1,0-0.2c0-0.3-0.3-0.4-0.8-0.4c-0.1,0-0.1,0-0.1-0.1c0-0.1,0-0.1,0.1-0.2c0,0,0.1,0,0.1,0h2.1c0.1,0,0.1,0,0.1,0.1
	c0,0,0,0.1,0,0.1s0,0.1,0,0.1c0,0,0,0-0.1,0c-0.6,0-1,0.2-1.1,0.6l-1.4,5.8c0,0.1-0.1,0.1-0.1,0.1h-0.1c0,0-0.1,0-0.1-0.1l-2.5-6.1
	l0-0.1c0,0,0,0,0,0l-1.3,5.3c0,0,0,0,0,0.1c0,0,0,0.1,0,0.1c0,0.2,0.1,0.3,0.2,0.3c0.1,0.1,0.3,0.1,0.6,0.1c0.1,0,0.1,0,0.1,0.1
	c0,0.1,0,0.2-0.1,0.2c0,0-0.1,0-0.1,0H409.9z"/>
<path d="M422.2,5.5c-0.1,0-0.1,0-0.1-0.1c0,0-0.1-0.1-0.1-0.1c0-0.1,0-0.1,0.1-0.1c0,0,0.1-0.1,0.1-0.1h6.3c0.1,0,0.1,0,0.1,0.1
	s0.1,0.1,0.1,0.1c0,0.1,0,0.1-0.1,0.1c0,0-0.1,0.1-0.1,0.1H422.2z M422.2,3.6c-0.1,0-0.1,0-0.1-0.1c0,0-0.1-0.1-0.1-0.1
	c0-0.1,0-0.1,0.1-0.1c0,0,0.1-0.1,0.1-0.1h6.3c0.1,0,0.1,0,0.1,0.1s0.1,0.1,0.1,0.1c0,0.1,0,0.1-0.1,0.1c0,0-0.1,0.1-0.1,0.1H422.2z
	"/>
<path d="M432.5,6.8V6.6c0,0,0,0,0-0.1l1.6-1.7c0.2-0.2,0.4-0.5,0.6-0.6c0.1-0.2,0.3-0.4,0.4-0.6c0.1-0.2,0.3-0.5,0.3-0.7
	c0.1-0.2,0.1-0.5,0.1-0.7c0-0.3-0.1-0.5-0.2-0.8c-0.1-0.2-0.3-0.5-0.5-0.6c-0.2-0.2-0.4-0.2-0.7-0.2c-0.3,0-0.6,0.1-0.8,0.3
	c-0.2,0.2-0.4,0.4-0.5,0.7c0,0,0.1,0,0.1,0c0.2,0,0.3,0,0.4,0.1c0.1,0.1,0.2,0.2,0.2,0.4c0,0.2-0.1,0.3-0.2,0.4
	c-0.1,0.1-0.2,0.2-0.4,0.2c-0.2,0-0.3-0.1-0.4-0.2c-0.1-0.1-0.2-0.2-0.2-0.4c0-0.2,0-0.5,0.1-0.7c0.1-0.2,0.2-0.4,0.4-0.6
	c0.2-0.2,0.4-0.3,0.6-0.4c0.2-0.1,0.5-0.1,0.7-0.1c0.4,0,0.7,0.1,1.1,0.2c0.3,0.2,0.6,0.4,0.8,0.7c0.2,0.3,0.3,0.6,0.3,1
	c0,0.3-0.1,0.6-0.2,0.8c-0.1,0.3-0.3,0.5-0.5,0.7c-0.2,0.2-0.5,0.5-0.8,0.7c-0.3,0.3-0.5,0.4-0.6,0.5L433.3,6h1c0.5,0,0.9,0,1.2,0
	c0.3,0,0.5,0,0.5,0c0.1-0.1,0.2-0.4,0.2-0.9h0.3l-0.3,1.8H432.5z"/>
<path d="M439.5,7c-0.8,0-1.4-0.3-1.7-1c-0.3-0.7-0.4-1.5-0.4-2.4c0-0.6,0.1-1.1,0.2-1.6c0.1-0.5,0.3-0.9,0.6-1.3
	c0.3-0.4,0.8-0.5,1.3-0.5c0.4,0,0.8,0.1,1.1,0.3c0.3,0.2,0.5,0.5,0.6,0.8c0.1,0.3,0.2,0.7,0.3,1.1c0.1,0.4,0.1,0.8,0.1,1.2
	c0,0.6-0.1,1.1-0.2,1.6c-0.1,0.5-0.3,0.9-0.6,1.3C440.5,6.9,440.1,7,439.5,7z M439.5,6.8c0.4,0,0.7-0.2,0.8-0.6
	c0.2-0.4,0.3-0.8,0.3-1.3c0-0.5,0.1-0.9,0.1-1.5c0-0.5,0-1-0.1-1.4c0-0.4-0.2-0.8-0.3-1.1c-0.2-0.3-0.5-0.5-0.8-0.5
	s-0.7,0.2-0.8,0.5c-0.2,0.3-0.3,0.7-0.3,1.1c0,0.4-0.1,0.9-0.1,1.4c0,0.4,0,0.7,0,1c0,0.3,0.1,0.7,0.1,1c0.1,0.4,0.2,0.6,0.4,0.9
	C439,6.7,439.2,6.8,439.5,6.8z"/>
<path d="M444.5,7c-0.8,0-1.4-0.3-1.7-1c-0.3-0.7-0.4-1.5-0.4-2.4c0-0.6,0.1-1.1,0.2-1.6c0.1-0.5,0.3-0.9,0.6-1.3
	c0.3-0.4,0.8-0.5,1.3-0.5c0.4,0,0.8,0.1,1.1,0.3c0.3,0.2,0.5,0.5,0.6,0.8c0.1,0.3,0.2,0.7,0.3,1.1c0.1,0.4,0.1,0.8,0.1,1.2
	c0,0.6-0.1,1.1-0.2,1.6c-0.1,0.5-0.3,0.9-0.6,1.3C445.6,6.9,445.1,7,444.5,7z M444.5,6.8c0.4,0,0.7-0.2,0.8-0.6
	c0.2-0.4,0.3-0.8,0.3-1.3c0-0.5,0.1-0.9,0.1-1.5c0-0.5,0-1-0.1-1.4c0-0.4-0.2-0.8-0.3-1.1c-0.2-0.3-0.5-0.5-0.8-0.5
	s-0.7,0.2-0.8,0.5c-0.2,0.3-0.3,0.7-0.3,1.1c0,0.4-0.1,0.9-0.1,1.4c0,0.4,0,0.7,0,1c0,0.3,0.1,0.7,0.1,1c0.1,0.4,0.2,0.6,0.4,0.9
	C444,6.7,444.3,6.8,444.5,6.8z"/>
<path class="st7" d="M365.8,22.7l6.6,10.8l6.6,10.1l6.6,9.4l6.6,8.8l6.6,8.3l6.6,7.8l6.6,7.3l6.6,6.9l6.6,6.5l6.6,6.1l6.6,5.8
	l6.6,5.5l6.6,5.2l6.6,5l6.6,4.7l6.6,4.5l6.1,3.9"/>
<path class="st8" d="M365.8,11.7l6.6,11.6l6.6,10.8l6.6,10l6.6,9.4l6.6,8.8l6.6,8.2l6.6,7.7l6.6,7.3l6.6,6.8l6.6,6.4l6.6,6.1
	l6.6,5.8l6.6,5.5l6.6,5.2l6.6,4.9l6.6,4.7l6.6,4.5l6.2,4"/>
<line class="st9" x1="364.5" y1="98.8" x2="492" y2="98.8"/>
<path class="st6" d="M370.7,107.1c0-0.3,0-0.6,0.1-1c0.1-0.3,0.2-0.6,0.4-0.8c0.2-0.2,0.4-0.5,0.7-0.6s0.6-0.2,1-0.2s0.7,0.1,1,0.2
	c0.3,0.2,0.5,0.4,0.7,0.6c0.2,0.2,0.3,0.5,0.4,0.8c0.1,0.3,0.1,0.6,0.1,1c0,0.3,0,0.6-0.1,1c-0.1,0.3-0.2,0.6-0.4,0.8
	c-0.2,0.2-0.4,0.5-0.7,0.6c-0.3,0.2-0.6,0.2-1,0.2s-0.7-0.1-1-0.2s-0.5-0.4-0.7-0.6c-0.2-0.2-0.3-0.5-0.4-0.8
	C370.7,107.8,370.7,107.5,370.7,107.1z M369.9,107.1c0,0.4,0.1,0.9,0.2,1.3s0.3,0.8,0.6,1.1c0.3,0.3,0.6,0.6,1,0.7
	c0.4,0.2,0.8,0.3,1.3,0.3s0.9-0.1,1.3-0.3c0.4-0.2,0.7-0.4,1-0.7c0.3-0.3,0.4-0.7,0.6-1.1s0.2-0.8,0.2-1.3c0-0.4-0.1-0.9-0.2-1.3
	s-0.3-0.8-0.6-1.1c-0.3-0.3-0.6-0.6-1-0.7c-0.4-0.2-0.8-0.3-1.3-0.3s-0.9,0.1-1.3,0.3c-0.4,0.2-0.7,0.4-1,0.7
	c-0.3,0.3-0.4,0.7-0.6,1.1S369.9,106.7,369.9,107.1z M376.9,105.7v6.4h0.8v-2.4h0c0.1,0.1,0.2,0.3,0.3,0.3c0.1,0.1,0.3,0.2,0.4,0.2
	c0.1,0.1,0.3,0.1,0.4,0.1c0.1,0,0.3,0,0.4,0c0.4,0,0.7-0.1,0.9-0.2c0.3-0.1,0.5-0.3,0.7-0.5c0.2-0.2,0.3-0.5,0.4-0.8
	c0.1-0.3,0.1-0.6,0.1-0.9c0-0.3,0-0.6-0.1-0.9c-0.1-0.3-0.2-0.5-0.4-0.8c-0.2-0.2-0.4-0.4-0.7-0.5c-0.3-0.1-0.6-0.2-0.9-0.2
	c-0.3,0-0.6,0.1-0.9,0.2c-0.3,0.1-0.5,0.3-0.6,0.6h0v-0.6H376.9z M380.5,108c0,0.2,0,0.4-0.1,0.7c0,0.2-0.1,0.4-0.2,0.6
	c-0.1,0.2-0.2,0.3-0.4,0.4c-0.2,0.1-0.4,0.2-0.7,0.2c-0.3,0-0.5,0-0.7-0.1c-0.2-0.1-0.3-0.2-0.5-0.4c-0.1-0.2-0.2-0.3-0.3-0.6
	c-0.1-0.2-0.1-0.4-0.1-0.7c0-0.2,0-0.4,0.1-0.6c0.1-0.2,0.1-0.4,0.2-0.6c0.1-0.2,0.3-0.3,0.4-0.4c0.2-0.1,0.4-0.2,0.7-0.2
	c0.2,0,0.5,0,0.6,0.1c0.2,0.1,0.3,0.2,0.4,0.4c0.1,0.2,0.2,0.3,0.3,0.5C380.4,107.6,380.5,107.8,380.5,108z M383.2,105.7v-1.4h-0.8
	v1.4h-0.8v0.7h0.8v2.9c0,0.2,0,0.4,0.1,0.5c0,0.1,0.1,0.2,0.2,0.3c0.1,0.1,0.2,0.1,0.3,0.1c0.1,0,0.3,0,0.5,0h0.6v-0.7h-0.3
	c-0.1,0-0.2,0-0.3,0c-0.1,0-0.1,0-0.2-0.1c0,0-0.1-0.1-0.1-0.1c0-0.1,0-0.1,0-0.2v-2.9h0.9v-0.7H383.2z M385.8,104.9V104H385v0.9
	H385.8z M385,105.7v4.6h0.8v-4.6H385z M386.9,105.7v4.6h0.8v-2.9c0-0.1,0-0.2,0.1-0.3c0-0.1,0.1-0.3,0.2-0.4
	c0.1-0.1,0.2-0.2,0.4-0.3c0.2-0.1,0.3-0.1,0.6-0.1c0.2,0,0.3,0,0.4,0.1c0.1,0.1,0.2,0.1,0.3,0.2c0.1,0.1,0.1,0.2,0.1,0.3
	c0,0.1,0,0.3,0,0.4v3h0.8v-2.9c0-0.4,0.1-0.6,0.3-0.9c0.2-0.2,0.5-0.3,0.9-0.3c0.2,0,0.3,0,0.5,0.1s0.2,0.1,0.3,0.2
	c0.1,0.1,0.1,0.2,0.1,0.3c0,0.1,0,0.3,0,0.4v3h0.8v-3.4c0-0.2,0-0.4-0.1-0.6s-0.2-0.3-0.3-0.4c-0.1-0.1-0.3-0.2-0.5-0.2
	c-0.2-0.1-0.4-0.1-0.6-0.1c-0.3,0-0.6,0.1-0.8,0.2c-0.3,0.1-0.5,0.3-0.6,0.6c-0.1-0.3-0.3-0.5-0.5-0.6c-0.2-0.1-0.5-0.2-0.8-0.2
	c-0.6,0-1.1,0.3-1.5,0.8h0v-0.7H386.9z M398.6,110.3c-0.1,0.1-0.3,0.1-0.5,0.1c-0.2,0-0.4-0.1-0.5-0.2c-0.1-0.1-0.2-0.3-0.2-0.5
	c-0.2,0.2-0.5,0.4-0.7,0.5c-0.3,0.1-0.6,0.2-0.9,0.2c-0.2,0-0.4,0-0.6-0.1c-0.2,0-0.3-0.1-0.5-0.2c-0.1-0.1-0.2-0.2-0.3-0.4
	c-0.1-0.2-0.1-0.4-0.1-0.6c0-0.3,0-0.5,0.1-0.6c0.1-0.2,0.2-0.3,0.4-0.4c0.1-0.1,0.3-0.2,0.5-0.2c0.2-0.1,0.4-0.1,0.6-0.1
	c0.2,0,0.4-0.1,0.6-0.1c0.2,0,0.4-0.1,0.5-0.1c0.1,0,0.3-0.1,0.3-0.2c0.1-0.1,0.1-0.2,0.1-0.3c0-0.2,0-0.3-0.1-0.4
	c-0.1-0.1-0.1-0.2-0.2-0.2c-0.1-0.1-0.2-0.1-0.3-0.1c-0.1,0-0.2,0-0.4,0c-0.3,0-0.6,0.1-0.8,0.2c-0.2,0.1-0.3,0.4-0.3,0.7h-0.8
	c0-0.3,0.1-0.5,0.2-0.7c0.1-0.2,0.2-0.4,0.4-0.5c0.2-0.1,0.4-0.2,0.6-0.3s0.5-0.1,0.7-0.1c0.2,0,0.4,0,0.6,0c0.2,0,0.4,0.1,0.6,0.2
	s0.3,0.2,0.4,0.4c0.1,0.2,0.2,0.4,0.2,0.7v2.4c0,0.2,0,0.3,0,0.4c0,0.1,0.1,0.1,0.2,0.1c0.1,0,0.1,0,0.2,0V110.3z M397.4,107.9
	c-0.1,0.1-0.2,0.1-0.4,0.2c-0.2,0-0.3,0.1-0.5,0.1c-0.2,0-0.3,0-0.5,0.1c-0.2,0-0.3,0.1-0.5,0.1c-0.1,0.1-0.2,0.1-0.3,0.3
	c-0.1,0.1-0.1,0.3-0.1,0.5c0,0.1,0,0.2,0.1,0.3c0.1,0.1,0.1,0.2,0.2,0.2c0.1,0.1,0.2,0.1,0.3,0.1c0.1,0,0.2,0,0.3,0
	c0.2,0,0.5,0,0.6-0.1c0.2-0.1,0.3-0.2,0.4-0.3c0.1-0.1,0.2-0.2,0.2-0.3s0.1-0.2,0.1-0.3V107.9z M399.4,104v6.4h0.8V104H399.4z"/>
<line class="st10" x1="425.1" y1="139.2" x2="425.1" y2="11.7"/>
<line class="st11" x1="431.1" y1="139.2" x2="431.1" y2="11.7"/>
</svg>
